<?xml version="1.0" encoding="UTF-8"?>
<!--Generator: Apple Native CoreSVG 175-->
<!DOCTYPE svg
PUBLIC "-//W3C//DTD SVG 1.1//EN"
       "http://www.w3.org/Graphics/SVG/1.1/DTD/svg11.dtd">
<svg version="1.1" xmlns="http://www.w3.org/2000/svg" xmlns:xlink="http://www.w3.org/1999/xlink" width="3300" height="2200">
 <!--glyph: "uni100438.medium", point size: 100.0, font version: "17.1d1e1", template writer version: "65.1"-->
 <g id="Notes">
  <rect height="2200" id="artboard" style="fill:white;opacity:1" width="3300" x="0" y="0"/>
  <line style="fill:none;stroke:black;opacity:1;stroke-width:0.5;" x1="263" x2="3036" y1="292" y2="292"/>
  <text style="stroke:none;fill:black;font-family:sans-serif;font-size:13;font-weight:bold;" transform="matrix(1 0 0 1 263 322)">Weight/Scale Variations</text>
  <text style="stroke:none;fill:black;font-family:sans-serif;font-size:13;text-anchor:middle;" transform="matrix(1 0 0 1 559.711 322)">Ultralight</text>
  <text style="stroke:none;fill:black;font-family:sans-serif;font-size:13;text-anchor:middle;" transform="matrix(1 0 0 1 856.422 322)">Thin</text>
  <text style="stroke:none;fill:black;font-family:sans-serif;font-size:13;text-anchor:middle;" transform="matrix(1 0 0 1 1153.13 322)">Light</text>
  <text style="stroke:none;fill:black;font-family:sans-serif;font-size:13;text-anchor:middle;" transform="matrix(1 0 0 1 1449.84 322)">Regular</text>
  <text style="stroke:none;fill:black;font-family:sans-serif;font-size:13;text-anchor:middle;" transform="matrix(1 0 0 1 1746.56 322)">Medium</text>
  <text style="stroke:none;fill:black;font-family:sans-serif;font-size:13;text-anchor:middle;" transform="matrix(1 0 0 1 2043.27 322)">Semibold</text>
  <text style="stroke:none;fill:black;font-family:sans-serif;font-size:13;text-anchor:middle;" transform="matrix(1 0 0 1 2339.98 322)">Bold</text>
  <text style="stroke:none;fill:black;font-family:sans-serif;font-size:13;text-anchor:middle;" transform="matrix(1 0 0 1 2636.69 322)">Heavy</text>
  <text style="stroke:none;fill:black;font-family:sans-serif;font-size:13;text-anchor:middle;" transform="matrix(1 0 0 1 2933.4 322)">Black</text>
  <line style="fill:none;stroke:black;opacity:1;stroke-width:0.5;" x1="263" x2="3036" y1="1903" y2="1903"/>
  <g transform="matrix(1 0 0 1 263 1933)">
   <path d="M9.24805 0.830078Q10.8691 0.830078 12.2949 0.214844Q13.7207-0.400391 14.8096-1.49414Q15.8984-2.58789 16.5186-4.01367Q17.1387-5.43945 17.1387-7.05078Q17.1387-8.66211 16.5186-10.0879Q15.8984-11.5137 14.8047-12.6074Q13.7109-13.7012 12.2852-14.3164Q10.8594-14.9316 9.23828-14.9316Q7.62695-14.9316 6.20117-14.3164Q4.77539-13.7012 3.69141-12.6074Q2.60742-11.5137 1.9873-10.0879Q1.36719-8.66211 1.36719-7.05078Q1.36719-5.43945 1.9873-4.01367Q2.60742-2.58789 3.69629-1.49414Q4.78516-0.400391 6.21094 0.214844Q7.63672 0.830078 9.24805 0.830078ZM9.24805-0.654297Q7.91992-0.654297 6.7627-1.14746Q5.60547-1.64062 4.73145-2.51953Q3.85742-3.39844 3.36426-4.56055Q2.87109-5.72266 2.87109-7.05078Q2.87109-8.37891 3.35938-9.54102Q3.84766-10.7031 4.72168-11.582Q5.5957-12.4609 6.75293-12.9541Q7.91016-13.4473 9.23828-13.4473Q10.5762-13.4473 11.7334-12.9541Q12.8906-12.4609 13.7695-11.582Q14.6484-10.7031 15.1465-9.54102Q15.6445-8.37891 15.6445-7.05078Q15.6445-5.72266 15.1514-4.56055Q14.6582-3.39844 13.7842-2.51953Q12.9102-1.64062 11.748-1.14746Q10.5859-0.654297 9.24805-0.654297ZM5.6543-7.05078Q5.6543-6.72852 5.85938-6.52832Q6.06445-6.32812 6.40625-6.32812L8.51562-6.32812L8.51562-4.20898Q8.51562-3.88672 8.71094-3.67676Q8.90625-3.4668 9.23828-3.4668Q9.56055-3.4668 9.77051-3.67676Q9.98047-3.88672 9.98047-4.20898L9.98047-6.32812L12.0898-6.32812Q12.4219-6.32812 12.627-6.52832Q12.832-6.72852 12.832-7.05078Q12.832-7.38281 12.627-7.58789Q12.4219-7.79297 12.0898-7.79297L9.98047-7.79297L9.98047-9.90234Q9.98047-10.2344 9.77051-10.4443Q9.56055-10.6543 9.23828-10.6543Q8.90625-10.6543 8.71094-10.4443Q8.51562-10.2344 8.51562-9.90234L8.51562-7.79297L6.40625-7.79297Q6.06445-7.79297 5.85938-7.58789Q5.6543-7.38281 5.6543-7.05078Z"/>
  </g>
  <g transform="matrix(1 0 0 1 281.867 1933)">
   <path d="M11.709 2.91016Q13.75 2.91016 15.5518 2.12891Q17.3535 1.34766 18.7305-0.0292969Q20.1074-1.40625 20.8887-3.20801Q21.6699-5.00977 21.6699-7.05078Q21.6699-9.0918 20.8887-10.8936Q20.1074-12.6953 18.7305-14.0723Q17.3535-15.4492 15.5469-16.2305Q13.7402-17.0117 11.6992-17.0117Q9.6582-17.0117 7.85645-16.2305Q6.05469-15.4492 4.68262-14.0723Q3.31055-12.6953 2.5293-10.8936Q1.74805-9.0918 1.74805-7.05078Q1.74805-5.00977 2.5293-3.20801Q3.31055-1.40625 4.6875-0.0292969Q6.06445 1.34766 7.86621 2.12891Q9.66797 2.91016 11.709 2.91016ZM11.709 1.25Q9.98047 1.25 8.47656 0.605469Q6.97266-0.0390625 5.83496-1.17676Q4.69727-2.31445 4.05762-3.81836Q3.41797-5.32227 3.41797-7.05078Q3.41797-8.7793 4.05762-10.2832Q4.69727-11.7871 5.83008-12.9297Q6.96289-14.0723 8.4668-14.7119Q9.9707-15.3516 11.6992-15.3516Q13.4277-15.3516 14.9316-14.7119Q16.4355-14.0723 17.5781-12.9297Q18.7207-11.7871 19.3652-10.2832Q20.0098-8.7793 20.0098-7.05078Q20.0098-5.32227 19.3701-3.81836Q18.7305-2.31445 17.5928-1.17676Q16.4551-0.0390625 14.9463 0.605469Q13.4375 1.25 11.709 1.25ZM7.17773-7.05078Q7.17773-6.69922 7.41211-6.47461Q7.64648-6.25 8.01758-6.25L10.8887-6.25L10.8887-3.36914Q10.8887-2.99805 11.1133-2.76855Q11.3379-2.53906 11.6895-2.53906Q12.0605-2.53906 12.29-2.76855Q12.5195-2.99805 12.5195-3.36914L12.5195-6.25L15.4004-6.25Q15.7715-6.25 16.001-6.47461Q16.2305-6.69922 16.2305-7.05078Q16.2305-7.42188 16.001-7.65137Q15.7715-7.88086 15.4004-7.88086L12.5195-7.88086L12.5195-10.752Q12.5195-11.1328 12.29-11.3623Q12.0605-11.5918 11.6895-11.5918Q11.3379-11.5918 11.1133-11.3574Q10.8887-11.123 10.8887-10.752L10.8887-7.88086L8.01758-7.88086Q7.63672-7.88086 7.40723-7.65137Q7.17773-7.42188 7.17773-7.05078Z"/>
  </g>
  <g transform="matrix(1 0 0 1 305.646 1933)">
   <path d="M14.9707 5.66406Q17.0605 5.66406 18.96 5.01465Q20.8594 4.36523 22.4512 3.19336Q24.043 2.02148 25.2197 0.429688Q26.3965-1.16211 27.0459-3.06641Q27.6953-4.9707 27.6953-7.05078Q27.6953-9.14062 27.0459-11.04Q26.3965-12.9395 25.2197-14.5312Q24.043-16.123 22.4512-17.2998Q20.8594-18.4766 18.9551-19.126Q17.0508-19.7754 14.9609-19.7754Q12.8711-19.7754 10.9717-19.126Q9.07227-18.4766 7.48535-17.2998Q5.89844-16.123 4.72168-14.5312Q3.54492-12.9395 2.90039-11.04Q2.25586-9.14062 2.25586-7.05078Q2.25586-4.9707 2.90527-3.06641Q3.55469-1.16211 4.72656 0.429688Q5.89844 2.02148 7.49023 3.19336Q9.08203 4.36523 10.9814 5.01465Q12.8809 5.66406 14.9707 5.66406ZM14.9707 3.84766Q13.1641 3.84766 11.5283 3.2959Q9.89258 2.74414 8.53516 1.74805Q7.17773 0.751953 6.17676-0.610352Q5.17578-1.97266 4.62891-3.6084Q4.08203-5.24414 4.08203-7.05078Q4.08203-8.86719 4.62891-10.5029Q5.17578-12.1387 6.17188-13.501Q7.16797-14.8633 8.52539-15.8594Q9.88281-16.8555 11.5186-17.4023Q13.1543-17.9492 14.9609-17.9492Q16.7773-17.9492 18.4131-17.4023Q20.0488-16.8555 21.4111-15.8594Q22.7734-14.8633 23.7695-13.501Q24.7656-12.1387 25.3174-10.5029Q25.8691-8.86719 25.8691-7.05078Q25.8789-5.24414 25.332-3.6084Q24.7852-1.97266 23.7842-0.610352Q22.7832 0.751953 21.4209 1.74805Q20.0586 2.74414 18.4229 3.2959Q16.7871 3.84766 14.9707 3.84766ZM9.19922-7.05078Q9.19922-6.66992 9.45801-6.4209Q9.7168-6.17188 10.1172-6.17188L14.0625-6.17188L14.0625-2.2168Q14.0625-1.81641 14.3115-1.55762Q14.5605-1.29883 14.9512-1.29883Q15.3516-1.29883 15.6104-1.55273Q15.8691-1.80664 15.8691-2.2168L15.8691-6.17188L19.8242-6.17188Q20.2246-6.17188 20.4785-6.4209Q20.7324-6.66992 20.7324-7.05078Q20.7324-7.46094 20.4785-7.71484Q20.2246-7.96875 19.8242-7.96875L15.8691-7.96875L15.8691-11.9141Q15.8691-12.3242 15.6104-12.583Q15.3516-12.8418 14.9512-12.8418Q14.5605-12.8418 14.3115-12.583Q14.0625-12.3242 14.0625-11.9141L14.0625-7.96875L10.1172-7.96875Q9.70703-7.96875 9.45312-7.71484Q9.19922-7.46094 9.19922-7.05078Z"/>
  </g>
  <text style="stroke:none;fill:black;font-family:sans-serif;font-size:13;font-weight:bold;" transform="matrix(1 0 0 1 263 1953)">Design Variations</text>
  <text style="stroke:none;fill:black;font-family:sans-serif;font-size:13;" transform="matrix(1 0 0 1 263 1971)">Symbols are supported in up to nine weights and three scales.</text>
  <text style="stroke:none;fill:black;font-family:sans-serif;font-size:13;" transform="matrix(1 0 0 1 263 1989)">For optimal layout with text and other symbols, vertically align</text>
  <text style="stroke:none;fill:black;font-family:sans-serif;font-size:13;" transform="matrix(1 0 0 1 263 2007)">symbols with the adjacent text.</text>
  <line style="fill:none;stroke:#00AEEF;stroke-width:0.5;opacity:1.0;" x1="776" x2="776" y1="1919" y2="1933"/>
  <g transform="matrix(1 0 0 1 776 1933)">
   <path d="M3.31055 0.15625Q3.70117 0.15625 3.91602-0.00976562Q4.13086-0.175781 4.26758-0.585938L5.52734-4.0332L11.2891-4.0332L12.5488-0.585938Q12.6855-0.175781 12.9004-0.00976562Q13.1152 0.15625 13.4961 0.15625Q13.8867 0.15625 14.1162-0.0585938Q14.3457-0.273438 14.3457-0.644531Q14.3457-0.869141 14.2383-1.17188L9.6582-13.3691Q9.48242-13.8184 9.17969-14.043Q8.87695-14.2676 8.4082-14.2676Q7.5-14.2676 7.17773-13.3789L2.59766-1.16211Q2.49023-0.859375 2.49023-0.634766Q2.49023-0.263672 2.70996-0.0537109Q2.92969 0.15625 3.31055 0.15625ZM6.00586-5.51758L8.37891-12.0898L8.42773-12.0898L10.8008-5.51758Z"/>
  </g>
  <line style="fill:none;stroke:#00AEEF;stroke-width:0.5;opacity:1.0;" x1="793.197" x2="793.197" y1="1919" y2="1933"/>
  <text style="stroke:none;fill:black;font-family:sans-serif;font-size:13;font-weight:bold;" transform="matrix(1 0 0 1 776 1953)">Margins</text>
  <text style="stroke:none;fill:black;font-family:sans-serif;font-size:13;" transform="matrix(1 0 0 1 776 1971)">Leading and trailing margins on the left and right side of each symbol</text>
  <text style="stroke:none;fill:black;font-family:sans-serif;font-size:13;" transform="matrix(1 0 0 1 776 1989)">can be adjusted by modifying the x-location of the margin guidelines.</text>
  <text style="stroke:none;fill:black;font-family:sans-serif;font-size:13;" transform="matrix(1 0 0 1 776 2007)">Modifications are automatically applied proportionally to all</text>
  <text style="stroke:none;fill:black;font-family:sans-serif;font-size:13;" transform="matrix(1 0 0 1 776 2025)">scales and weights.</text>
  <g transform="matrix(1 0 0 1 1289 1933)">
   <path d="M2.8418 1.86523L4.54102 3.57422Q5.18555 4.22852 5.90332 4.17969Q6.62109 4.13086 7.31445 3.35938L18.0078-8.42773L17.041-9.4043L6.42578 2.27539Q6.16211 2.57812 5.89355 2.61719Q5.625 2.65625 5.27344 2.30469L4.10156 1.14258Q3.75 0.791016 3.79395 0.522461Q3.83789 0.253906 4.14062-0.0195312L15.6152-10.8203L14.6387-11.7871L3.04688-0.898438Q2.30469-0.214844 2.25098 0.498047Q2.19727 1.21094 2.8418 1.86523ZM9.25781-16.3281Q8.94531-16.0254 8.90625-15.6348Q8.86719-15.2441 9.04297-14.9512Q9.21875-14.6777 9.55566-14.541Q9.89258-14.4043 10.3809-14.5215Q11.4746-14.7754 12.5977-14.7314Q13.7207-14.6875 14.7949-13.9844L14.209-12.5293Q13.9551-11.9043 14.0674-11.4404Q14.1797-10.9766 14.5801-10.5664L16.875-8.25195Q17.2363-7.88086 17.5781-7.82227Q17.9199-7.76367 18.3398-7.8418L19.4043-8.03711L20.0684-7.36328L20.0293-6.80664Q20-6.43555 20.1221-6.12305Q20.2441-5.81055 20.6055-5.44922L21.3672-4.70703Q21.7285-4.3457 22.1533-4.33105Q22.5781-4.31641 22.9297-4.66797L25.8398-7.58789Q26.1914-7.93945 26.1816-8.35449Q26.1719-8.76953 25.8105-9.13086L25.0391-9.89258Q24.6875-10.2539 24.3799-10.3857Q24.0723-10.5176 23.7109-10.4883L23.1348-10.4395L22.4902-11.0742L22.7344-12.1973Q22.832-12.6172 22.6953-12.9834Q22.5586-13.3496 22.1191-13.7891L19.9219-15.9766Q18.6719-17.2168 17.2607-17.8369Q15.8496-18.457 14.4189-18.4814Q12.9883-18.5059 11.665-17.959Q10.3418-17.4121 9.25781-16.3281ZM10.752-15.957Q11.6602-16.6211 12.7002-16.9043Q13.7402-17.1875 14.8047-17.085Q15.8691-16.9824 16.8701-16.5137Q17.8711-16.0449 18.7012-15.2051L21.1328-12.793Q21.3086-12.6172 21.3525-12.4512Q21.3965-12.2852 21.3379-12.0312L21.0156-10.5469L22.5195-9.0625L23.5059-9.12109Q23.6914-9.13086 23.7891-9.09668Q23.8867-9.0625 24.0332-8.91602L24.6094-8.33984L22.168-5.89844L21.5918-6.47461Q21.4453-6.62109 21.4062-6.71875Q21.3672-6.81641 21.377-7.01172L21.4453-7.98828L19.9512-9.47266L18.4277-9.21875Q18.1836-9.16992 18.042-9.2041Q17.9004-9.23828 17.7148-9.41406L15.7129-11.416Q15.5176-11.5918 15.4932-11.7529Q15.4688-11.9141 15.5859-12.1875L16.4648-14.2773Q15.293-15.3711 13.8281-15.791Q12.3633-16.2109 10.8398-15.7617Q10.7227-15.7324 10.6885-15.8057Q10.6543-15.8789 10.752-15.957Z"/>
  </g>
  <text style="stroke:none;fill:black;font-family:sans-serif;font-size:13;font-weight:bold;" transform="matrix(1 0 0 1 1289 1953)">Exporting</text>
  <text style="stroke:none;fill:black;font-family:sans-serif;font-size:13;" transform="matrix(1 0 0 1 1289 1971)">Symbols should be outlined when exporting to ensure the</text>
  <text style="stroke:none;fill:black;font-family:sans-serif;font-size:13;" transform="matrix(1 0 0 1 1289 1989)">design is preserved when submitting to Xcode.</text>
  <text id="template-version" style="stroke:none;fill:black;font-family:sans-serif;font-size:13;text-anchor:end;" transform="matrix(1 0 0 1 3036 1933)">Template v.3.0</text>
  <text style="stroke:none;fill:black;font-family:sans-serif;font-size:13;text-anchor:end;" transform="matrix(1 0 0 1 3036 1951)">Requires Xcode 13 or greater</text>
  <text id="descriptive-name" style="stroke:none;fill:black;font-family:sans-serif;font-size:13;text-anchor:end;" transform="matrix(1 0 0 1 3036 1969)">Generated from rectangle.expand.vertical</text>
  <text style="stroke:none;fill:black;font-family:sans-serif;font-size:13;text-anchor:end;" transform="matrix(1 0 0 1 3036 1987)">Typeset at 100 points</text>
  <text style="stroke:none;fill:black;font-family:sans-serif;font-size:13;" transform="matrix(1 0 0 1 263 726)">Small</text>
  <text style="stroke:none;fill:black;font-family:sans-serif;font-size:13;" transform="matrix(1 0 0 1 263 1156)">Medium</text>
  <text style="stroke:none;fill:black;font-family:sans-serif;font-size:13;" transform="matrix(1 0 0 1 263 1586)">Large</text>
 </g>
 <g id="Guides">
  <g id="H-reference" style="fill:#27AAE1;stroke:none;" transform="matrix(1 0 0 1 339 696)">
   <path d="M0.993347 0L3.6377 0L29.3282-67.1326L30.0301-67.1326L30.0301-70.459L28.1227-70.459ZM11.6882-24.4797L46.9818-24.4797L46.2311-26.7288L12.4382-26.7288ZM55.1193 0L57.7637 0L30.6381-70.459L29.4327-70.459L29.4327-67.1326Z"/>
  </g>
  <line id="Baseline-S" style="fill:none;stroke:#27AAE1;opacity:1;stroke-width:0.5;" x1="263" x2="3036" y1="696" y2="696"/>
  <line id="Capline-S" style="fill:none;stroke:#27AAE1;opacity:1;stroke-width:0.5;" x1="263" x2="3036" y1="625.541" y2="625.541"/>
  <g id="H-reference" style="fill:#27AAE1;stroke:none;" transform="matrix(1 0 0 1 339 1126)">
   <path d="M0.993347 0L3.6377 0L29.3282-67.1326L30.0301-67.1326L30.0301-70.459L28.1227-70.459ZM11.6882-24.4797L46.9818-24.4797L46.2311-26.7288L12.4382-26.7288ZM55.1193 0L57.7637 0L30.6381-70.459L29.4327-70.459L29.4327-67.1326Z"/>
  </g>
  <line id="Baseline-M" style="fill:none;stroke:#27AAE1;opacity:1;stroke-width:0.5;" x1="263" x2="3036" y1="1126" y2="1126"/>
  <line id="Capline-M" style="fill:none;stroke:#27AAE1;opacity:1;stroke-width:0.5;" x1="263" x2="3036" y1="1055.54" y2="1055.54"/>
  <g id="H-reference" style="fill:#27AAE1;stroke:none;" transform="matrix(1 0 0 1 339 1556)">
   <path d="M0.993347 0L3.6377 0L29.3282-67.1326L30.0301-67.1326L30.0301-70.459L28.1227-70.459ZM11.6882-24.4797L46.9818-24.4797L46.2311-26.7288L12.4382-26.7288ZM55.1193 0L57.7637 0L30.6381-70.459L29.4327-70.459L29.4327-67.1326Z"/>
  </g>
  <line id="Baseline-L" style="fill:none;stroke:#27AAE1;opacity:1;stroke-width:0.5;" x1="263" x2="3036" y1="1556" y2="1556"/>
  <line id="Capline-L" style="fill:none;stroke:#27AAE1;opacity:1;stroke-width:0.5;" x1="263" x2="3036" y1="1485.54" y2="1485.54"/>
  <line id="left-margin-Regular-M" style="fill:none;stroke:#00AEEF;stroke-width:0.5;opacity:1.0;" x1="1382.47" x2="1382.47" y1="1030.79" y2="1150.12"/>
  <line id="right-margin-Regular-M" style="fill:none;stroke:#00AEEF;stroke-width:0.5;opacity:1.0;" x1="1517.22" x2="1517.22" y1="1030.79" y2="1150.12"/>
 </g>
 <g id="Symbols">
  <g id="Black-L" transform="matrix(1 0 0 1 2839.47 1556)">
   <path d="M38.0118 8.47748L59.814 8.47748L59.814-7.22771L42.1226-7.22771Q38.4853-7.22771 36.3782-9.30699Q34.2712-11.3863 34.2712-14.817L34.2712-57.2643Q34.2712-60.6962 36.3782-62.7749Q38.4853-64.8536 42.1226-64.8536L59.814-64.8536L59.814-80.5588L38.0118-80.5588Q27.8219-80.5588 21.9529-75.0879Q16.084-69.617 16.084-60.1849L16.084-11.8964Q16.084-2.46431 21.9529 3.00659Q27.8219 8.47748 38.0118 8.47748ZM149.846 8.47748Q160.036 8.47748 165.904 3.00659Q171.773-2.46431 171.773-11.8964L171.773-60.1849Q171.773-69.617 165.904-75.0879Q160.036-80.5588 149.846-80.5588L128.044-80.5588L128.044-64.8536L145.734-64.8536Q149.351-64.8536 151.469-62.7749Q153.587-60.6962 153.587-57.2643L153.587-14.817Q153.587-11.3863 151.469-9.30699Q149.351-7.22771 145.734-7.22771L128.044-7.22771L128.044 8.47748ZM93.918 44.2357Q96.8635 44.2357 99.5729 41.6835L119.235 23.0445Q120.289 22.0323 120.779 20.842Q121.269 19.6517 121.269 18.2994Q121.269 15.3111 119.252 13.3054Q117.235 11.2998 114.247 11.2998Q111.142 11.2998 109.413 13.4367L103.836 20.0671L100.978 24.2752L101.689 14.3225L101.689-2.07483Q101.689-5.52919 99.5119-7.71472Q97.3348-9.90025 93.918-9.90025Q90.522-9.90025 88.3449-7.71472Q86.1677-5.52919 86.1677-2.07483L86.1677 14.3225L86.8791 24.2752L84.0792 20.1255L78.4441 13.4367Q76.7148 11.2998 73.6317 11.2998Q70.7006 11.2998 68.6449 13.3054Q66.5892 15.3111 66.5892 18.2994Q66.5892 19.6517 67.0789 20.842Q67.5687 22.0323 68.6809 23.0445L88.3423 41.6835Q91.0529 44.2357 93.918 44.2357ZM93.918-62.1811Q97.3348-62.1811 99.5119-64.3666Q101.689-66.5521 101.689-70.0273L101.689-86.405L100.978-96.3565L103.778-92.2068L109.413-85.518Q111.142-83.3811 114.226-83.3811Q117.156-83.3811 119.212-85.4159Q121.269-87.4508 121.269-90.3807Q121.269-91.7539 120.779-92.9337Q120.289-94.1136 119.177-95.1467L99.5145-113.765Q96.8051-116.317 93.918-116.317Q90.9945-116.317 88.2839-113.765L68.6225-95.1467Q67.5687-94.172 67.0789-92.9629Q66.5892-91.7539 66.5892-90.3807Q66.5892-87.4508 68.6345-85.4159Q70.6798-83.3811 73.6109-83.3811Q76.7148-83.3811 78.4441-85.518L84.0208-92.1484L86.8791-96.3565L86.1677-86.405L86.1677-70.0273Q86.1677-66.5521 88.3449-64.3666Q90.522-62.1811 93.918-62.1811Z"/>
  </g>
  <g id="Heavy-L" transform="matrix(1 0 0 1 2544.53 1556)">
   <path d="M37.0226 7.91981L58.4783 7.91981L58.4783-6.18529L40.4395-6.18529Q36.613-6.18529 34.3992-8.39703Q32.1853-10.6088 32.1853-14.1681L32.1853-57.8432Q32.1853-61.4082 34.3992-63.6171Q36.613-65.826 40.4395-65.826L58.4783-65.826L58.4783-79.9311L37.0226-79.9311Q27.3912-79.9311 21.7376-74.6337Q16.084-69.3362 16.084-60.4263L16.084-11.585Q16.084-2.67509 21.7376 2.62236Q27.3912 7.91981 37.0226 7.91981ZM147.304 7.91981Q156.935 7.91981 162.586 2.62236Q168.237-2.67509 168.237-11.585L168.237-60.4263Q168.237-69.3362 162.586-74.6337Q156.935-79.9311 147.304-79.9311L125.848-79.9311L125.848-65.826L143.882-65.826Q147.678-65.826 149.91-63.6171Q152.141-61.4082 152.141-57.8432L152.141-14.1681Q152.141-10.6088 149.91-8.39703Q147.678-6.18529 143.882-6.18529L125.848-6.18529L125.848 7.91981ZM92.1455 42.9787Q94.8047 42.9787 97.2742 40.6533L117.287 21.7318Q118.277 20.8017 118.746 19.6975Q119.215 18.5933 119.215 17.3226Q119.215 14.5974 117.392 12.7917Q115.568 10.986 112.843 10.986Q110.029 10.986 108.379 12.9419L102.215 19.9206L98.5614 24.6577L99.2 14.4798L99.2-3.08752Q99.2-6.16404 97.2038-8.15239Q95.2076-10.1408 92.1455-10.1408Q89.1135-10.1408 87.1173-8.15239Q85.1211-6.16404 85.1211-3.08752L85.1211 14.4798L85.7597 24.6577L82.1507 19.9652L75.9418 12.9419Q74.2926 10.986 71.5138 10.986Q68.8277 10.986 66.9695 12.7917Q65.1113 14.5974 65.1113 17.3226Q65.1113 18.5933 65.5803 19.6975Q66.0493 20.8017 67.0843 21.7318L87.0915 40.6533Q89.5666 42.9787 92.1455 42.9787ZM92.1455-61.8706Q95.2076-61.8706 97.2038-63.8589Q99.2-65.8473 99.2-68.954L99.2-86.4967L98.5614-96.669L102.17-91.9766L108.379-84.9532Q110.029-82.9973 112.813-82.9973Q115.493-82.9973 117.354-84.8253Q119.215-86.6534 119.215-89.3339Q119.215-90.6348 118.746-91.724Q118.277-92.8131 117.242-93.7733L97.2295-112.665Q94.7601-114.99 92.1455-114.99Q89.522-114.99 87.0469-112.665L67.0397-93.7733Q66.0493-92.8578 65.5803-91.7463Q65.1113-90.6348 65.1113-89.3339Q65.1113-86.6534 66.9544-84.8253Q68.7975-82.9973 71.4837-82.9973Q74.2926-82.9973 75.9418-84.9532L82.1061-91.932L85.7597-96.669L85.1211-86.4967L85.1211-68.954Q85.1211-65.8473 87.1173-63.8589Q89.1135-61.8706 92.1455-61.8706Z"/>
  </g>
  <g id="Bold-L" transform="matrix(1 0 0 1 2250.02 1556)">
   <path d="M35.8678 7.18354L56.8261 7.18354L56.8261-4.87197L38.4391-4.87197Q34.3447-4.87197 31.9592-7.27874Q29.5737-9.68552 29.5737-13.4582L29.5737-58.4908Q29.5737-62.2769 31.9592-64.677Q34.3447-67.0771 38.4391-67.0771L56.8261-67.0771L56.8261-79.1326L35.8678-79.1326Q26.8907-79.1326 21.4873-74.0466Q16.084-68.9606 16.084-60.659L16.084-11.2901Q16.084-2.98849 21.4873 2.09752Q26.8907 7.18354 35.8678 7.18354ZM144.064 7.18354Q153.041 7.18354 158.438 2.09752Q163.835-2.98849 163.835-11.2901L163.835-60.659Q163.835-68.9606 158.438-74.0466Q153.041-79.1326 144.064-79.1326L123.106-79.1326L123.106-67.0771L141.48-67.0771Q145.536-67.0771 147.947-64.677Q150.358-62.2769 150.358-58.4908L150.358-13.4582Q150.358-9.68552 147.947-7.27874Q145.536-4.87197 141.48-4.87197L123.106-4.87197L123.106 7.18354ZM89.9405 41.4041Q92.2314 41.4041 94.3788 39.3777L114.837 20.0359Q115.743 19.2057 116.189 18.2165Q116.635 17.2273 116.635 16.064Q116.635 13.684 115.061 12.1354Q113.486 10.5868 111.106 10.5868Q108.668 10.5868 107.148 12.2974L100.388 19.6095L95.5051 25.2756L96.0515 14.7091L96.0515-4.3997Q96.0515-6.99999 94.3006-8.72764Q92.5497-10.4553 89.9405-10.4553Q87.3692-10.4553 85.6182-8.72764Q83.8673-6.99999 83.8673-4.3997L83.8673 14.7091L84.4137 25.2756L79.5598 19.6388L72.7706 12.2974Q71.2511 10.5868 68.8637 10.5868Q66.4998 10.5868 64.8986 12.1354Q63.2974 13.684 63.2974 16.064Q63.2974 17.2273 63.7433 18.2165Q64.1892 19.2057 65.1244 20.0359L85.5692 39.3777Q87.73 41.4041 89.9405 41.4041ZM89.9405-61.4938Q92.5497-61.4938 94.3006-63.2214Q96.0515-64.9491 96.0515-67.5875L96.0515-86.6715L95.5051-97.2247L100.359-91.588L107.148-84.2465Q108.668-82.5358 111.068-82.5358Q113.419-82.5358 115.027-84.0991Q116.635-85.6623 116.635-88.0131Q116.635-89.2143 116.189-90.1846Q115.743-91.1549 114.808-92.0228L94.3496-111.327Q92.2022-113.353 89.9405-113.353Q87.7008-113.353 85.54-111.327L65.0952-92.0228Q64.1892-91.1841 63.7433-90.1992Q63.2974-89.2143 63.2974-88.0131Q63.2974-85.6623 64.8795-84.0991Q66.4617-82.5358 68.8258-82.5358Q71.2511-82.5358 72.7706-84.2465L79.5306-91.5588L84.4137-97.2247L83.8673-86.6715L83.8673-67.5875Q83.8673-64.9491 85.6182-63.2214Q87.3692-61.4938 89.9405-61.4938Z"/>
  </g>
  <g id="Semibold-L" transform="matrix(1 0 0 1 1954.82 1556)">
   <path d="M35.0717 6.67596L55.6871 6.67596L55.6871-3.96657L37.06-3.96657Q32.7809-3.96657 30.277-6.5078Q27.7732-9.04903 27.7732-12.9689L27.7732-58.9373Q27.7732-62.8758 30.277-65.4077Q32.7809-67.9396 37.06-67.9396L55.6871-67.9396L55.6871-78.5821L35.0717-78.5821Q26.5456-78.5821 21.3148-73.6419Q16.084-68.7016 16.084-60.8193L16.084-11.0868Q16.084-3.20455 21.3148 1.7357Q26.5456 6.67596 35.0717 6.67596ZM141.831 6.67596Q150.357 6.67596 155.578 1.7357Q160.8-3.20455 160.8-11.0868L160.8-60.8193Q160.8-68.7016 155.578-73.6419Q150.357-78.5821 141.831-78.5821L121.215-78.5821L121.215-67.9396L139.824-67.9396Q144.06-67.9396 146.595-65.4077Q149.129-62.8758 149.129-58.9373L149.129-12.9689Q149.129-9.04903 146.595-6.5078Q144.06-3.96657 139.824-3.96657L121.215-3.96657L121.215 6.67596ZM88.4204 40.3185Q90.4573 40.3185 92.3827 38.4983L113.148 18.8667Q113.996 18.1053 114.426 17.1955Q114.856 16.2856 114.856 15.1963Q114.856 13.0543 113.453 11.6829Q112.051 10.3116 109.909 10.3116Q107.73 10.3116 106.3 11.8531L99.1288 19.3951L93.3981 25.7016L93.881 14.8673L93.881-5.30431Q93.881-7.57629 92.2992-9.12422Q90.7173-10.6721 88.4204-10.6721Q86.1667-10.6721 84.5848-9.12422Q83.0029-7.57629 83.0029-5.30431L83.0029 14.8673L83.4859 25.7016L77.7737 19.4137L70.5844 11.8531Q69.1543 10.3116 67.0366 10.3116Q64.8949 10.3116 63.4709 11.6829Q62.0469 13.0543 62.0469 15.1963Q62.0469 16.2856 62.4768 17.1955Q62.9068 18.1053 63.7732 18.8667L84.5198 38.4983Q86.4638 40.3185 88.4204 40.3185ZM88.4204-61.234Q90.7173-61.234 92.2992-62.7819Q93.881-64.3299 93.881-66.6454L93.881-86.7921L93.3981-97.6078L99.1102-91.3201L106.3-83.7592Q107.73-82.2177 109.866-82.2177Q111.989-82.2177 113.422-83.5984Q114.856-84.979 114.856-87.1025Q114.856-88.235 114.426-89.1234Q113.996-90.0118 113.129-90.8161L92.3642-110.404Q90.4388-112.225 88.4204-112.225Q86.4453-112.225 84.5012-110.404L63.7546-90.8161Q62.9068-90.0304 62.4768-89.1327Q62.0469-88.235 62.0469-87.1025Q62.0469-84.979 63.4491-83.5984Q64.8513-82.2177 66.9934-82.2177Q69.1543-82.2177 70.5844-83.7592L77.7551-91.3016L83.4859-97.6078L83.0029-86.7921L83.0029-66.6454Q83.0029-64.3299 84.5848-62.7819Q86.1667-61.234 88.4204-61.234Z"/>
  </g>
  <g id="Medium-L" transform="matrix(1 0 0 1 1659.26 1556)">
   <path d="M34.4681 6.29109L54.8235 6.29109L54.8235-3.28006L36.0143-3.28006Q31.5951-3.28006 29.0016-5.92324Q26.408-8.56641 26.408-12.5978L26.408-59.2758Q26.408-63.3298 29.0016-65.9617Q31.5951-68.5935 36.0143-68.5935L54.8235-68.5935L54.8235-78.1647L34.4681-78.1647Q26.284-78.1647 21.184-73.335Q16.084-68.5052 16.084-60.9409L16.084-10.9327Q16.084-3.36838 21.184 1.46136Q26.284 6.29109 34.4681 6.29109ZM140.137 6.29109Q148.321 6.29109 153.41 1.46136Q158.499-3.36838 158.499-10.9327L158.499-60.9409Q158.499-68.5052 153.41-73.335Q148.321-78.1647 140.137-78.1647L119.782-78.1647L119.782-68.5935L138.569-68.5935Q142.94-68.5935 145.569-65.9617Q148.197-63.3298 148.197-59.2758L148.197-12.5978Q148.197-8.56641 145.569-5.92324Q142.94-3.28006 138.569-3.28006L119.782-3.28006L119.782 6.29109ZM87.2678 39.4953Q89.1122 39.4953 90.8692 37.8316L111.867 17.9802Q112.671 17.271 113.089 16.4213Q113.507 15.5716 113.507 14.5384Q113.507 12.5768 112.235 11.3399Q110.963 10.1029 109.001 10.1029Q107.019 10.1029 105.656 11.5162L98.1739 19.2325L91.8005 26.0247L92.2352 14.9872L92.2352-5.99023Q92.2352-8.01327 90.7816-9.42492Q89.3279-10.8366 87.2678-10.8366Q85.2549-10.8366 83.8012-9.42492Q82.3476-8.01327 82.3476-5.99023L82.3476 14.9872L82.7823 26.0247L76.4194 19.243L68.9267 11.5162Q67.5644 10.1029 65.6513 10.1029Q63.678 10.1029 62.3883 11.3399Q61.0987 12.5768 61.0987 14.5384Q61.0987 15.5716 61.5165 16.4213Q61.9344 17.271 62.7486 17.9802L83.7241 37.8316Q85.5038 39.4953 87.2678 39.4953ZM87.2678-61.037Q89.3279-61.037 90.7816-62.4487Q92.2352-63.8603 92.2352-65.931L92.2352-86.8835L91.8005-97.8983L98.1634-91.117L105.656-83.3898Q107.019-81.9765 108.954-81.9765Q110.905-81.9765 112.206-83.2187Q113.507-84.4609 113.507-86.412Q113.507-87.4925 113.089-88.3187Q112.671-89.145 111.857-89.901L90.8587-109.705Q89.1017-111.369 87.2678-111.369Q85.4933-111.369 83.7135-109.705L62.7381-89.901Q61.9344-89.1555 61.5165-88.324Q61.0987-87.4925 61.0987-86.412Q61.0987-84.4609 62.3645-83.2187Q63.6303-81.9765 65.6041-81.9765Q67.5644-81.9765 68.9267-83.3898L76.4089-91.1065L82.7823-97.8983L82.3476-86.8835L82.3476-65.931Q82.3476-63.8603 83.8012-62.4487Q85.2549-61.037 87.2678-61.037Z"/>
  </g>
  <g id="Regular-L" transform="matrix(1 0 0 1 1364.05 1556)">
   <path d="M33.6808 5.78909L53.697 5.78909L53.697-2.38462L34.6503-2.38462Q30.0485-2.38462 27.3379-5.16077Q24.6273-7.93692 24.6273-12.1138L24.6273-59.7174Q24.6273-63.9221 27.3379-66.6843Q30.0485-69.4466 34.6503-69.4466L53.697-69.4466L53.697-77.6203L33.6808-77.6203Q25.9427-77.6203 21.0133-72.9347Q16.084-68.2491 16.084-61.0995L16.084-10.7316Q16.084-3.58207 21.0133 1.10351Q25.9427 5.78909 33.6808 5.78909ZM137.928 5.78909Q145.666 5.78909 150.582 1.10351Q155.497-3.58207 155.497-10.7316L155.497-61.0995Q155.497-68.2491 150.582-72.9347Q145.666-77.6203 137.928-77.6203L117.912-77.6203L117.912-69.4466L136.931-69.4466Q141.48-69.4466 144.231-66.6843Q146.982-63.9221 146.982-59.7174L146.982-12.1138Q146.982-7.93692 144.231-5.16077Q141.48-2.38462 136.931-2.38462L117.912-2.38462L117.912 5.78909ZM85.7644 38.4217Q87.3576 38.4217 88.8951 36.9619L110.197 16.8238Q110.943 16.1828 111.345 15.4115Q111.747 14.6402 111.747 13.6802Q111.747 11.954 110.645 10.8924Q109.544 9.83074 107.817 9.83074Q106.091 9.83074 104.817 11.0767L96.9284 19.0204L89.7167 26.446L90.0886 15.1436L90.0886-6.8849Q90.0886-8.58324 88.8021-9.81713Q87.5157-11.051 85.7644-11.051Q84.0656-11.051 82.7791-9.81713Q81.4927-8.58324 81.4927-6.8849L81.4927 15.1436L81.8646 26.446L74.6529 19.0204L66.7645 11.0767Q65.4906 9.83074 63.8444 9.83074Q62.0907 9.83074 60.9763 10.8924Q59.8619 11.954 59.8619 13.6802Q59.8619 14.6402 60.264 15.4115Q60.6661 16.1828 61.4123 16.8238L82.6861 36.9619Q84.2515 38.4217 85.7644 38.4217ZM85.7644-60.7801Q87.5157-60.7801 88.8021-62.014Q90.0886-63.2479 90.0886-64.9993L90.0886-87.0026L89.7167-98.2771L96.9284-90.852L104.817-82.9079Q106.091-81.6619 107.764-81.6619Q109.491-81.6619 110.619-82.7235Q111.747-83.7852 111.747-85.5114Q111.747-86.5239 111.345-87.2692Q110.943-88.0144 110.197-88.7076L88.8951-108.793Q87.3576-110.253 85.7644-110.253Q84.2515-110.253 82.6861-108.793L61.4123-88.7076Q60.6661-88.0144 60.264-87.2692Q59.8619-86.5239 59.8619-85.5114Q59.8619-83.7852 60.9498-82.7235Q62.0377-81.6619 63.7918-81.6619Q65.4906-81.6619 66.7645-82.9079L74.6529-90.852L81.8646-98.2771L81.4927-87.0026L81.4927-64.9993Q81.4927-63.2479 82.7791-62.014Q84.0656-60.7801 85.7644-60.7801Z"/>
  </g>
  <g id="Light-L" transform="matrix(1 0 0 1 1068.94 1556)">
   <path d="M33.3374 4.98745L52.5709 4.98745L52.5709-1.33479L33.8105-1.33479Q28.8079-1.33479 25.7252-4.44506Q22.6425-7.55534 22.6425-12.2283L22.6425-59.7174Q22.6425-64.4374 25.7252-67.5241Q28.8079-70.6109 33.8105-70.6109L52.5709-70.6109L52.5709-76.9331L33.3374-76.9331Q25.809-76.9331 20.9465-72.3716Q16.084-67.8101 16.084-60.8324L16.084-11.1132Q16.084-4.13552 20.9465 0.425968Q25.809 4.98745 33.3374 4.98745ZM135.104 4.98745Q142.631 4.98745 147.471 0.425968Q152.31-4.13552 152.31-11.1132L152.31-60.8324Q152.31-67.8101 147.471-72.3716Q142.631-76.9331 135.104-76.9331L115.869-76.9331L115.869-70.6109L134.583-70.6109Q139.553-70.6109 142.676-67.5241Q145.799-64.4374 145.799-59.7174L145.799-12.2283Q145.799-7.55534 142.676-4.44506Q139.553-1.33479 134.583-1.33479L115.869-1.33479L115.869 4.98745ZM84.1803 37.2192Q85.4302 37.2192 86.5858 36.0839L108.269 15.2016Q108.92 14.6177 109.322 13.9801Q109.724 13.3425 109.724 12.497Q109.724 11.1335 108.861 10.3104Q107.998 9.48731 106.634 9.48731Q105.271 9.48731 104.282 10.4277L96.8328 17.9706L87.1973 27.8011L87.4929 15.5252L87.4929-8.16367Q87.4929-9.48011 86.5119-10.4278Q85.5309-11.3755 84.1803-11.3755Q82.8631-11.3755 81.8821-10.4278Q80.9011-9.48011 80.9011-8.16367L80.9011 15.5252L81.1967 27.8011L71.5611 17.9706L64.1117 10.4277Q63.1242 9.48731 61.8403 9.48731Q60.4304 9.48731 59.5736 10.3104Q58.7169 11.1335 58.7169 12.497Q58.7169 13.3425 59.119 13.9801Q59.5211 14.6177 60.1717 15.2016L81.8082 36.0839Q83.0109 37.2192 84.1803 37.2192ZM84.1803-60.5701Q85.5309-60.5701 86.5119-61.5178Q87.4929-62.4655 87.4929-63.8161L87.4929-87.5179L87.1973-99.7467L96.8328-89.917L104.282-82.3734Q105.271-81.433 106.6-81.433Q107.964-81.433 108.844-82.256Q109.724-83.0791 109.724-84.4427Q109.724-85.3215 109.322-85.9428Q108.92-86.5641 108.269-87.1806L86.5858-108.03Q85.4302-109.165 84.1803-109.165Q83.0109-109.165 81.8082-108.03L60.1717-87.1806Q59.5211-86.5641 59.119-85.9428Q58.7169-85.3215 58.7169-84.4427Q58.7169-83.0791 59.5566-82.256Q60.3963-81.433 61.807-81.433Q63.1242-81.433 64.1117-82.3734L71.5611-89.917L81.1967-99.7467L80.9011-87.5179L80.9011-63.8161Q80.9011-62.4655 81.8821-61.5178Q82.8631-60.5701 84.1803-60.5701Z"/>
  </g>
  <g id="Thin-L" transform="matrix(1 0 0 1 774.333 1556)">
   <path d="M32.8832 3.92722L51.0814 3.92722L51.0814 0.0536894L32.6998 0.0536894Q27.1671 0.0536894 23.5922-3.49849Q20.0173-7.05067 20.0173-12.3797L20.0173-59.7174Q20.0173-65.1189 23.5922-68.6348Q27.1671-72.1507 32.6998-72.1507L51.0814-72.1507L51.0814-76.0243L32.8832-76.0243Q25.6321-76.0243 20.8581-71.6269Q16.084-67.2295 16.084-60.4792L16.084-11.6179Q16.084-4.8675 20.8581-0.470141Q25.6321 3.92722 32.8832 3.92722ZM131.368 3.92722Q138.618 3.92722 143.356-0.470141Q148.094-4.8675 148.094-11.6179L148.094-60.4792Q148.094-67.2295 143.356-71.6269Q138.618-76.0243 131.368-76.0243L113.168-76.0243L113.168-72.1507L131.479-72.1507Q137.004-72.1507 140.619-68.6348Q144.234-65.1189 144.234-59.7174L144.234-12.3797Q144.234-7.05067 140.619-3.49849Q137.004 0.0536894 131.479 0.0536894L113.168 0.0536894L113.168 3.92722ZM82.0853 35.6289Q82.8809 35.6289 83.5314 34.9227L105.72 13.0562Q106.244 12.5477 106.647 12.0869Q107.049 11.6262 107.049 10.9321Q107.049 10.0482 106.501 9.54066Q105.953 9.03311 105.069 9.03311Q104.185 9.03311 103.575 9.56936L96.7064 16.5821L83.8652 29.5933L84.0598 16.0299L84.0598-9.85496Q84.0598-10.6663 83.4828-11.2355Q82.9057-11.8047 82.0853-11.8047Q81.2728-11.8047 80.6957-11.2355Q80.1186-10.6663 80.1186-9.85496L80.1186 16.0299L80.3133 29.5933L67.472 16.5821L60.6032 9.56936Q59.9944 9.03311 59.1897 9.03311Q58.2344 9.03311 57.7184 9.54066Q57.2024 10.0482 57.2024 10.9321Q57.2024 11.6262 57.6045 12.0869Q58.0066 12.5477 58.5308 13.0562L80.647 34.9227Q81.3701 35.6289 82.0853 35.6289ZM82.0853-60.2923Q82.9057-60.2923 83.4828-60.8615Q84.0598-61.4307 84.0598-62.2512L84.0598-88.1995L83.8652-101.69L96.7064-88.6804L103.575-81.6664Q104.185-81.1302 105.06-81.1302Q105.944-81.1302 106.496-81.6377Q107.049-82.1452 107.049-83.0292Q107.049-83.7311 106.647-84.1885Q106.244-84.6459 105.72-85.1611L83.5314-107.02Q82.8809-107.726 82.0853-107.726Q81.3701-107.726 80.647-107.02L58.5308-85.1611Q58.0066-84.6459 57.6045-84.1885Q57.2024-83.7311 57.2024-83.0292Q57.2024-82.1452 57.7139-81.6377Q58.2254-81.1302 59.1818-81.1302Q59.9944-81.1302 60.6032-81.6664L67.472-88.6804L80.3133-101.69L80.1186-88.1995L80.1186-62.2512Q80.1186-61.4307 80.6957-60.8615Q81.2728-60.2923 82.0853-60.2923Z"/>
  </g>
  <g id="Ultralight-L" transform="matrix(1 0 0 1 478.701 1556)">
   <path d="M32.6505 3.38418L50.3186 3.38418L50.3186 0.764862L32.1309 0.764862Q26.3266 0.764862 22.4997-3.01366Q18.6728-6.79218 18.6728-12.4572L18.6728-59.7174Q18.6728-65.468 22.4997-69.2037Q26.3266-72.9395 32.1309-72.9395L50.3186-72.9395L50.3186-75.5588L32.6505-75.5588Q25.5416-75.5588 20.8128-71.2455Q16.084-66.9322 16.084-60.2982L16.084-11.8764Q16.084-5.24242 20.8128-0.929123Q25.5416 3.38418 32.6505 3.38418ZM129.454 3.38418Q136.562 3.38418 141.249-0.929123Q145.935-5.24242 145.935-11.8764L145.935-60.2982Q145.935-66.9322 141.249-71.2455Q136.562-75.5588 129.454-75.5588L111.785-75.5588L111.785-72.9395L129.888-72.9395Q135.698-72.9395 139.565-69.2037Q143.432-65.468 143.432-59.7174L143.432-12.4572Q143.432-6.79218 139.565-3.01366Q135.698 0.764862 129.888 0.764862L111.785 0.764862L111.785 3.38418ZM81.0122 34.8143Q81.5752 34.8143 81.967 34.328L104.415 11.9573Q104.874 11.4874 105.276 11.1173Q105.678 10.7471 105.678 10.1306Q105.678 9.49234 105.292 9.1464Q104.906 8.80047 104.268 8.80047Q103.629 8.80047 103.213 9.12971L96.6417 15.8709L82.1585 30.5112L82.3015 16.2883L82.3015-10.7212Q82.3015-11.2739 81.9313-11.6492Q81.5611-12.0245 81.0122-12.0245Q80.4582-12.0245 80.088-11.6492Q79.7179-11.2739 79.7179-10.7212L79.7179 16.2883L79.8608 30.5112L65.3776 15.8709L58.8062 9.12971Q58.3913 8.80047 57.8321 8.80047Q57.1097 8.80047 56.7682 9.1464Q56.4267 9.49234 56.4267 10.1306Q56.4267 10.7471 56.8288 11.1173Q57.2309 11.4874 57.6904 11.9573L80.0523 34.328Q80.5297 34.8143 81.0122 34.8143ZM81.0122-60.1501Q81.5611-60.1501 81.9313-60.5254Q82.3015-60.9007 82.3015-61.4496L82.3015-88.5485L82.1585-102.686L96.6417-88.0469L103.213-81.3043Q103.629-80.9751 104.271-80.9751Q104.91-80.9751 105.294-81.321Q105.678-81.6669 105.678-82.3052Q105.678-82.9166 105.276-83.29Q104.874-83.6634 104.415-84.1267L81.967-106.503Q81.5752-106.989 81.0122-106.989Q80.5297-106.989 80.0523-106.503L57.6904-84.1267Q57.2309-83.6634 56.8288-83.29Q56.4267-82.9166 56.4267-82.3052Q56.4267-81.6669 56.7701-81.321Q57.1134-80.9751 57.8373-80.9751Q58.3913-80.9751 58.8062-81.3043L65.3776-88.0469L79.8608-102.686L79.7179-88.5485L79.7179-61.4496Q79.7179-60.9007 80.088-60.5254Q80.4582-60.1501 81.0122-60.1501Z"/>
  </g>
  <g id="Black-M" transform="matrix(1 0 0 1 2859.33 1126)">
   <path d="M30.2529-0.997193L47.3358-0.997193L47.3358-14.289L33.9668-14.289Q31.2571-14.289 29.6661-15.8313Q28.075-17.3737 28.075-19.9883L28.075-51.8032Q28.075-54.4176 29.6661-55.9601Q31.2571-57.5026 33.9668-57.5026L47.3358-57.5026L47.3358-70.7943L30.2529-70.7943Q21.9068-70.7943 17.1839-66.4236Q12.4609-62.0528 12.4609-54.3198L12.4609-17.4717Q12.4609-9.73876 17.1839-5.36798Q21.9068-0.997193 30.2529-0.997193ZM117.894-0.997193Q126.24-0.997193 130.963-5.36798Q135.686-9.73876 135.686-17.4717L135.686-54.3198Q135.686-62.0528 130.963-66.4236Q126.24-70.7943 117.894-70.7943L100.811-70.7943L100.811-57.5026L114.181-57.5026Q116.885-57.5026 118.478-55.9601Q120.072-54.4176 120.072-51.8032L120.072-19.9883Q120.072-17.3737 118.478-15.8313Q116.885-14.289 114.181-14.289L100.811-14.289L100.811-0.997193ZM74.071 27.2528Q76.5524 27.2528 78.8061 25.1246L93.7902 10.8262Q94.6482 9.97917 95.0454 9.00114Q95.4426 8.02312 95.4426 6.92077Q95.4426 4.42861 93.7466 2.73523Q92.0506 1.04184 89.5584 1.04184Q86.9521 1.04184 85.5823 2.81155L81.8264 7.5947L79.9669 10.7262L80.5703 3.07712L80.5703-8.84611Q80.5703-11.7953 78.7694-13.6192Q76.9686-15.4431 74.071-15.4431Q71.1788-15.4431 69.378-13.6192Q67.5771-11.7953 67.5771-8.84611L67.5771 3.07712L68.1805 10.7262L66.3781 7.6518L62.5651 2.81155Q61.1953 1.04184 58.5942 1.04184Q56.1594 1.04184 54.432 2.73523Q52.7045 4.42861 52.7045 6.92077Q52.7045 8.02312 53.1017 9.00114Q53.4989 9.97917 54.414 10.8262L69.3984 25.1246Q71.6518 27.2528 74.071 27.2528ZM74.071-56.3484Q76.9686-56.3484 78.7694-58.1723Q80.5703-59.9962 80.5703-62.9509L80.5703-74.8684L79.9669-82.5177L81.7693-79.4433L85.5823-74.6031Q86.9521-72.8334 89.5529-72.8334Q91.988-72.8334 93.7153-74.5553Q95.4426-76.2772 95.4426-78.7123Q95.4426-79.8201 95.0454-80.7954Q94.6482-81.7707 93.7331-82.6233L78.749-96.9162Q76.4953-99.0444 74.071-99.0444Q71.5947-99.0444 69.3413-96.9162L54.3569-82.6233Q53.4989-81.8278 53.1017-80.824Q52.7045-79.8201 52.7045-78.7123Q52.7045-76.2772 54.4292-74.5553Q56.1539-72.8334 58.5887-72.8334Q61.1953-72.8334 62.5651-74.6031L66.3211-79.3862L68.1805-82.5177L67.5771-74.8684L67.5771-62.9509Q67.5771-59.9962 69.378-58.1723Q71.1788-56.3484 74.071-56.3484Z"/>
  </g>
  <g id="Heavy-M" transform="matrix(1 0 0 1 2564.2 1126)">
   <path d="M29.3176-1.46841L46.1339-1.46841L46.1339-13.3668L32.399-13.3668Q29.5413-13.3668 27.8802-15.0078Q26.2191-16.6488 26.2191-19.3434L26.2191-52.3692Q26.2191-55.066 27.8802-56.7059Q29.5413-58.3457 32.399-58.3457L46.1339-58.3457L46.1339-70.2441L29.3176-70.2441Q21.4981-70.2441 16.9795-66.0315Q12.4609-61.8188 12.4609-54.5805L12.4609-17.1321Q12.4609-9.89376 16.9795-5.68108Q21.4981-1.46841 29.3176-1.46841ZM115.67-1.46841Q123.489-1.46841 128.007-5.68108Q132.524-9.89376 132.524-17.1321L132.524-54.5805Q132.524-61.8188 128.007-66.0315Q123.489-70.2441 115.67-70.2441L98.8533-70.2441L98.8533-58.3457L112.586-58.3457Q115.427-58.3457 117.098-56.7059Q118.768-55.066 118.768-52.3692L118.768-19.3434Q118.768-16.6488 117.098-15.0078Q115.427-13.3668 112.586-13.3668L98.8533-13.3668L98.8533-1.46841ZM72.4843 26.135Q74.7176 26.135 76.7719 24.1985L92.0632 9.69263Q92.868 8.92058 93.245 8.01437Q93.622 7.10816 93.622 6.07504Q93.622 3.80664 92.0927 2.2867Q90.5634 0.766766 88.295 0.766766Q85.9393 0.766766 84.6214 2.38773L80.2505 7.54838L77.8373 10.9751L78.3765 3.19561L78.3765-9.71811Q78.3765-12.3332 76.7243-13.9908Q75.0722-15.6483 72.4843-15.6483Q69.9128-15.6483 68.2607-13.9908Q66.6085-12.3332 66.6085-9.71811L66.6085 3.19561L67.1478 10.9751L64.7782 7.592L60.3636 2.38773Q59.0457 0.766766 56.7087 0.766766Q54.4817 0.766766 52.9235 2.2867Q51.3654 3.80664 51.3654 6.07504Q51.3654 7.10816 51.7423 8.01437Q52.1193 8.92058 52.9677 9.69263L68.2567 24.1985Q70.3133 26.135 72.4843 26.135ZM72.4843-56.0642Q75.0722-56.0642 76.7243-57.7218Q78.3765-59.3793 78.3765-62.0109L78.3765-74.9105L77.8373-82.6876L80.2069-79.3046L84.6214-74.1003Q85.9393-72.4793 88.2786-72.4793Q90.5033-72.4793 92.0626-74.0211Q93.622-75.5628 93.622-77.7876Q93.622-78.8371 93.245-79.7351Q92.868-80.6332 92.0196-81.4216L76.7283-95.9111Q74.674-97.8476 72.4843-97.8476Q70.2697-97.8476 68.2131-95.9111L52.9241-81.4216Q52.1193-80.6768 51.7423-79.7569Q51.3654-78.8371 51.3654-77.7876Q51.3654-75.5628 52.9153-74.0211Q54.4653-72.4793 56.6923-72.4793Q59.0457-72.4793 60.3636-74.1003L64.7345-79.261L67.1478-82.6876L66.6085-74.9105L66.6085-62.0109Q66.6085-59.3793 68.2607-57.7218Q69.9128-56.0642 72.4843-56.0642Z"/>
  </g>
  <g id="Bold-M" transform="matrix(1 0 0 1 2269.25 1126)">
   <path d="M28.2713-1.99553L44.7894-1.99553L44.7894-12.3352L30.6452-12.3352Q27.622-12.3352 25.8825-14.0866Q24.143-15.8379 24.143-18.6219L24.143-53.0022Q24.143-55.7914 25.8825-57.5402Q27.622-59.289 30.6452-59.289L44.7894-59.289L44.7894-69.6287L28.2713-69.6287Q21.041-69.6287 16.7509-65.5929Q12.4609-61.557 12.4609-54.8721L12.4609-16.7521Q12.4609-10.0671 16.7509-6.03133Q21.041-1.99553 28.2713-1.99553ZM113.181-1.99553Q120.412-1.99553 124.699-6.03133Q128.987-10.0671 128.987-16.7521L128.987-54.8721Q128.987-61.557 124.699-65.5929Q120.412-69.6287 113.181-69.6287L96.6631-69.6287L96.6631-59.289L110.802-59.289Q113.797-59.289 115.553-57.5402Q117.31-55.7914 117.31-53.0022L117.31-18.6219Q117.31-15.8379 115.553-14.0866Q113.797-12.3352 110.802-12.3352L96.6631-12.3352L96.6631-1.99553ZM70.7094 24.8846Q72.6652 24.8846 74.4964 23.1626L90.1313 8.42453Q90.8766 7.7364 91.231 6.91052Q91.5853 6.08464 91.5853 5.12898Q91.5853 3.11088 90.2425 1.78496Q88.8997 0.459051 86.8816 0.459051Q84.8064 0.459051 83.5464 1.91363L78.4876 7.49657L75.4549 11.2535L75.9224 3.32817L75.9224-10.6936Q75.9224-12.9349 74.4366-14.4064Q72.9509-15.8778 70.7094-15.8778Q68.4966-15.8778 67.0108-14.4064Q65.525-12.9349 65.525-10.6936L65.525 3.32817L65.9925 11.2535L62.9884 7.52511L57.901 1.91363Q56.6411 0.459051 54.5996 0.459051Q52.6049 0.459051 51.2361 1.78496Q49.8673 3.11088 49.8673 5.12898Q49.8673 6.08464 50.2216 6.91052Q50.576 7.7364 51.3498 8.42453L66.9796 23.1626Q68.816 24.8846 70.7094 24.8846ZM70.7094-55.7464Q72.9509-55.7464 74.4366-57.2178Q75.9224-58.6893 75.9224-60.9593L75.9224-74.9575L75.4549-82.8777L78.4591-79.1494L83.5464-73.5378Q84.8064-72.0832 86.853-72.0832Q88.8425-72.0832 90.2139-73.4234Q91.5853-74.7636 91.5853-76.7532Q91.5853-77.7374 91.231-78.549Q90.8766-79.3607 90.1028-80.0773L74.4679-94.7867Q72.6367-96.5088 70.7094-96.5088Q68.7874-96.5088 66.951-94.7867L51.3213-80.0773Q50.576-79.3892 50.2216-78.5633Q49.8673-77.7374 49.8673-76.7532Q49.8673-74.7636 51.2218-73.4234Q52.5763-72.0832 54.571-72.0832Q56.6411-72.0832 57.901-73.5378L62.9598-79.1208L65.9925-82.8777L65.525-74.9575L65.525-60.9593Q65.525-58.6893 67.0108-57.2178Q68.4966-55.7464 70.7094-55.7464Z"/>
  </g>
  <g id="Semibold-M" transform="matrix(1 0 0 1 1973.76 1126)">
   <path d="M27.55-2.35892L43.8626-2.35892L43.8626-11.624L29.4361-11.624Q26.2988-11.624 24.5052-13.4515Q22.7117-15.2789 22.7117-18.1246L22.7117-53.4387Q22.7117-56.2915 24.5052-58.1154Q26.2988-59.9392 29.4361-59.9392L43.8626-59.9392L43.8626-69.2044L27.55-69.2044Q20.7258-69.2044 16.5934-65.2905Q12.4609-61.3766 12.4609-55.0731L12.4609-16.4902Q12.4609-10.1867 16.5934-6.2728Q20.7258-2.35892 27.55-2.35892ZM111.466-2.35892Q118.29-2.35892 122.419-6.2728Q126.548-10.1867 126.548-16.4902L126.548-55.0731Q126.548-61.3766 122.419-65.2905Q118.29-69.2044 111.466-69.2044L95.1532-69.2044L95.1532-59.9392L109.573-59.9392Q112.673-59.9392 114.489-58.1154Q116.304-56.2915 116.304-53.4387L116.304-18.1246Q116.304-15.2789 114.489-13.4515Q112.673-11.624 109.573-11.624L95.1532-11.624L95.1532-2.35892ZM69.4858 24.0226Q71.2503 24.0226 72.9277 22.4484L88.7995 7.55031Q89.5038 6.92003 89.8425 6.14953Q90.1813 5.37903 90.1813 4.47676Q90.1813 2.63122 88.9671 1.43907Q87.7528 0.246914 85.9073 0.246914Q84.0254 0.246914 82.8054 1.58679L77.2724 7.46084L73.8126 11.4455L74.2306 3.41955L74.2306-11.366Q74.2306-13.3497 72.8595-14.6929Q71.4884-16.036 69.4858-16.036Q67.5202-16.036 66.1492-14.6929Q64.7781-13.3497 64.7781-11.366L64.7781 3.41955L65.1961 11.4455L61.7545 7.479L56.2033 1.58679Q54.9834 0.246914 53.1455 0.246914Q51.3111 0.246914 50.0728 1.43907Q48.8345 2.63122 48.8345 4.47676Q48.8345 5.37903 49.1733 6.14953Q49.5121 6.92003 50.2345 7.55031L66.0991 22.4484Q67.7837 24.0226 69.4858 24.0226ZM69.4858-55.5272Q71.4884-55.5272 72.8595-56.8704Q74.2306-58.2136 74.2306-60.2343L74.2306-74.99L73.8126-83.0088L77.2542-79.0424L82.8054-73.1501Q84.0254-71.8102 85.8702-71.8102Q87.6976-71.8102 88.9394-73.0114Q90.1813-74.2126 90.1813-76.04Q90.1813-76.9793 89.8425-77.7314Q89.5038-78.4834 88.7814-79.1506L72.9096-94.0116Q71.2321-95.5858 69.4858-95.5858Q67.7656-95.5858 66.081-94.0116L50.2163-79.1506Q49.5121-78.5016 49.1733-77.7404Q48.8345-76.9793 48.8345-76.04Q48.8345-74.2126 50.0543-73.0114Q51.274-71.8102 53.1085-71.8102Q54.9834-71.8102 56.2033-73.1501L61.7363-79.0242L65.1961-83.0088L64.7781-74.99L64.7781-60.2343Q64.7781-58.2136 66.1492-56.8704Q67.5202-55.5272 69.4858-55.5272Z"/>
  </g>
  <g id="Medium-M" transform="matrix(1 0 0 1 1677.98 1126)">
   <path d="M27.003-2.63446L43.1598-2.63446L43.1598-11.0848L28.5194-11.0848Q25.2955-11.0848 23.4609-12.9699Q21.6264-14.8551 21.6264-17.7475L21.6264-53.7696Q21.6264-56.6707 23.4609-58.5515Q25.2955-60.4323 28.5194-60.4323L43.1598-60.4323L43.1598-68.8826L27.003-68.8826Q20.4868-68.8826 16.4739-65.0612Q12.4609-61.2398 12.4609-55.2255L12.4609-16.2916Q12.4609-10.2773 16.4739-6.45588Q20.4868-2.63446 27.003-2.63446ZM110.165-2.63446Q116.681-2.63446 120.69-6.45588Q124.699-10.2773 124.699-16.2916L124.699-55.2255Q124.699-61.2398 120.69-65.0612Q116.681-68.8826 110.165-68.8826L94.0083-68.8826L94.0083-60.4323L108.64-60.4323Q111.821-60.4323 113.681-58.5515Q115.542-56.6707 115.542-53.7696L115.542-17.7475Q115.542-14.8551 113.681-12.9699Q111.821-11.0848 108.64-11.0848L94.0083-11.0848L94.0083-2.63446ZM68.5581 23.3689Q70.1774 23.3689 71.7382 21.9068L87.7897 6.88743Q88.4628 6.30103 88.7898 5.57252Q89.1167 4.84401 89.1167 3.98223Q89.1167 2.26753 87.9999 1.17679Q86.8832 0.0860627 85.1685 0.0860627Q83.4332 0.0860627 82.2435 1.33897L76.3509 7.43376L72.5672 11.591L72.9478 3.48884L72.9478-11.8759Q72.9478-13.6642 71.6637-14.9101Q70.3795-16.156 68.5581-16.156Q66.7799-16.156 65.4958-14.9101Q64.2117-13.6642 64.2117-11.8759L64.2117 3.48884L64.5922 11.591L60.8189 7.44403L54.916 1.33897Q53.7264 0.0860627 52.043 0.0860627Q50.3301 0.0860627 49.1908 1.17679Q48.0515 2.26753 48.0515 3.98223Q48.0515 4.84401 48.3784 5.57252Q48.7053 6.30103 49.3887 6.88743L65.4315 21.9068Q67.0011 23.3689 68.5581 23.3689ZM68.5581-55.3611Q70.3795-55.3611 71.6637-56.607Q72.9478-57.8529 72.9478-59.6846L72.9478-75.0146L72.5672-83.1081L76.3406-78.9613L82.2435-72.8561Q83.4332-71.6031 85.125-71.6031Q86.8294-71.6031 87.9731-72.699Q89.1167-73.7949 89.1167-75.4993Q89.1167-76.4045 88.7898-77.1114Q88.4628-77.8183 87.7794-78.4479L71.728-93.4239Q70.1671-94.886 68.5581-94.886Q66.9908-94.886 65.4212-93.4239L49.3785-78.4479Q48.7053-77.8285 48.3784-77.1165Q48.0515-76.4045 48.0515-75.4993Q48.0515-73.7949 49.169-72.699Q50.2866-71.6031 51.9997-71.6031Q53.7264-71.6031 54.916-72.8561L60.8086-78.951L64.5922-83.1081L64.2117-75.0146L64.2117-59.6846Q64.2117-57.8529 65.4958-56.607Q66.7799-55.3611 68.5581-55.3611Z"/>
  </g>
  <g id="Regular-M" transform="matrix(1 0 0 1 1382.47 1126)">
   <path d="M26.2896-2.99386L42.2431-2.99386L42.2431-10.3814L27.3236-10.3814Q23.9868-10.3814 22.0988-12.3418Q20.2109-14.3022 20.2109-17.2556L20.2109-54.2013Q20.2109-57.1652 22.0988-59.1203Q23.9868-61.0754 27.3236-61.0754L42.2431-61.0754L42.2431-68.463L26.2896-68.463Q20.1751-68.463 16.318-64.7622Q12.4609-61.0613 12.4609-55.4243L12.4609-16.0325Q12.4609-10.3955 16.318-6.69469Q20.1751-2.99386 26.2896-2.99386ZM108.469-2.99386Q114.583-2.99386 118.435-6.69469Q122.287-10.3955 122.287-16.0325L122.287-55.4243Q122.287-61.0613 118.435-64.7622Q114.583-68.463 108.469-68.463L92.5149-68.463L92.5149-61.0754L107.424-61.0754Q110.709-61.0754 112.628-59.1203Q114.547-57.1652 114.547-54.2013L114.547-17.2556Q114.547-14.3022 112.628-12.3418Q110.709-10.3814 107.424-10.3814L92.5149-10.3814L92.5149-2.99386ZM67.3479 22.5164Q68.778 22.5164 70.1868 21.2005L86.4725 6.02282Q87.105 5.49363 87.4166 4.8199Q87.7281 4.14616 87.7281 3.33718Q87.7281 1.79314 86.7385 0.8347Q85.7489-0.123743 84.2049-0.123743Q82.6608-0.123743 81.5105 1.01572L75.1489 7.39843L70.9429 11.7809L71.2746 3.57921L71.2746-12.541Q71.2746-14.0744 70.1039-15.1935Q68.9332-16.3125 67.3479-16.3125Q65.8143-16.3125 64.6436-15.1935Q63.4729-14.0744 63.4729-12.541L63.4729 3.57921L63.8046 11.7809L59.5986 7.39843L53.237 1.01572Q52.0869-0.123743 50.605-0.123743Q49.0505-0.123743 48.0403 0.8347Q47.0301 1.79314 47.0301 3.33718Q47.0301 4.14616 47.3416 4.8199Q47.6531 5.49363 48.2856 6.02282L64.5607 21.2005Q65.9802 22.5164 67.3479 22.5164ZM67.3479-55.1443Q68.9332-55.1443 70.1039-56.2634Q71.2746-57.3824 71.2746-58.9677L71.2746-75.0467L70.9429-83.2377L75.1489-78.8554L81.5105-72.4726Q82.6608-71.3331 84.153-71.3331Q85.6971-71.3331 86.7126-72.2915Q87.7281-73.25 87.7281-74.794Q87.7281-75.6547 87.4166-76.3027Q87.105-76.9506 86.4725-77.5313L70.1868-92.6573Q68.778-93.9732 67.3479-93.9732Q65.9802-93.9732 64.5607-92.6573L48.2856-77.5313Q47.6531-76.9506 47.3416-76.3027Q47.0301-75.6547 47.0301-74.794Q47.0301-73.25 48.0143-72.2915Q48.9986-71.3331 50.5533-71.3331Q52.0869-71.3331 53.237-72.4726L59.5986-78.8554L63.8046-83.2377L63.4729-75.0467L63.4729-58.9677Q63.4729-57.3824 64.6436-56.2634Q65.8143-55.1443 67.3479-55.1443Z"/>
  </g>
  <g id="Light-M" transform="matrix(1 0 0 1 1087.19 1126)">
   <path d="M25.9817-3.71257L41.2334-3.71257L41.2334-9.44021L26.5707-9.44021Q22.8745-9.44021 20.6529-11.7002Q18.4314-13.9601 18.4314-17.3582L18.4314-54.2013Q18.4314-57.6272 20.6529-59.8732Q22.8745-62.1193 26.5707-62.1193L41.2334-62.1193L41.2334-67.8469L25.9817-67.8469Q20.0552-67.8469 16.2581-64.2573Q12.4609-60.6678 12.4609-55.1848L12.4609-16.3746Q12.4609-10.8917 16.2581-7.30214Q20.0552-3.71257 25.9817-3.71257ZM105.936-3.71257Q111.862-3.71257 115.646-7.30214Q119.429-10.8917 119.429-16.3746L119.429-55.1848Q119.429-60.6678 115.646-64.2573Q111.862-67.8469 105.936-67.8469L90.6839-67.8469L90.6839-62.1193L105.319-62.1193Q108.981-62.1193 111.234-59.8732Q113.486-57.6272 113.486-54.2013L113.486-17.3582Q113.486-13.9601 111.234-11.7002Q108.981-9.44021 105.319-9.44021L90.6839-9.44021L90.6839-3.71257ZM65.9277 21.4383Q67.0499 21.4383 68.1163 20.4133L84.7444 4.56844Q85.2913 4.09042 85.6028 3.53657Q85.9143 2.98271 85.9143 2.27636Q85.9143 1.05747 85.1386 0.312916Q84.3629-0.431639 83.144-0.431639Q81.9251-0.431639 81.0313 0.433848L75.0633 6.4572L68.6842 12.9958L68.9474 3.92132L68.9474-13.6875Q68.9474-14.8785 68.0505-15.741Q67.1536-16.6034 65.9277-16.6034Q64.7363-16.6034 63.8394-15.741Q62.9425-14.8785 62.9425-13.6875L62.9425 3.92132L63.2057 12.9958L56.8266 6.4572L50.8586 0.433848Q49.9652-0.431639 48.8082-0.431639Q47.5619-0.431639 46.7827 0.312916Q46.0034 1.05747 46.0034 2.27636Q46.0034 2.98271 46.315 3.53657Q46.6265 4.09042 47.1733 4.56844L63.7736 20.4133Q64.8679 21.4383 65.9277 21.4383ZM65.9277-54.956Q67.1536-54.956 68.0505-55.8185Q68.9474-56.6809 68.9474-57.9068L68.9474-75.5087L68.6842-84.5553L75.0633-78.0171L81.0313-71.9933Q81.9251-71.1278 83.1092-71.1278Q84.328-71.1278 85.1212-71.8724Q85.9143-72.6169 85.9143-73.8358Q85.9143-74.5766 85.6028-75.1135Q85.2913-75.6504 84.7444-76.1623L68.1163-91.9728Q67.0499-92.9978 65.9277-92.9978Q64.8679-92.9978 63.7736-91.9728L47.1733-76.1623Q46.6265-75.6504 46.315-75.1135Q46.0034-74.5766 46.0034-73.8358Q46.0034-72.6169 46.7652-71.8724Q47.527-71.1278 48.7738-71.1278Q49.9652-71.1278 50.8586-71.9933L56.8266-78.0171L63.2057-84.5553L62.9425-75.5087L62.9425-57.9068Q62.9425-56.6809 63.8394-55.8185Q64.7363-54.956 65.9277-54.956Z"/>
  </g>
  <g id="Thin-M" transform="matrix(1 0 0 1 792.367 1126)">
   <path d="M25.5745-4.66312L39.8981-4.66312L39.8981-8.19537L25.5749-8.19537Q21.4034-8.19537 18.7406-10.8515Q16.0778-13.5077 16.0778-17.4939L16.0778-54.2013Q16.0778-58.2382 18.7406-60.869Q21.4034-63.4998 25.5749-63.4998L39.8981-63.4998L39.8981-67.0321L25.5745-67.0321Q19.8967-67.0321 16.1788-63.5897Q12.4609-60.1472 12.4609-54.8681L12.4609-16.8271Q12.4609-11.548 16.1788-8.10555Q19.8967-4.66312 25.5745-4.66312ZM102.587-4.66312Q108.264-4.66312 111.957-8.10555Q115.65-11.548 115.65-16.8271L115.65-54.8681Q115.65-60.1472 111.957-63.5897Q108.264-67.0321 102.587-67.0321L88.2623-67.0321L88.2623-63.4998L102.536-63.4998Q106.695-63.4998 109.389-60.869Q112.083-58.2382 112.083-54.2013L112.083-17.4939Q112.083-13.5077 109.389-10.8515Q106.695-8.19537 102.536-8.19537L88.2623-8.19537L88.2623-4.66312ZM64.0495 20.0125Q64.7644 20.0125 65.378 19.3723L82.4589 2.6449Q82.8925 2.23456 83.204 1.83926Q83.5155 1.44396 83.5155 0.873347Q83.5155 0.0844839 83.0227-0.377186Q82.5299-0.838856 81.741-0.838856Q80.9522-0.838856 80.3975-0.33572L74.95 5.21236L65.6968 14.6026L65.8695 4.37378L65.8695-15.2038Q65.8695-15.942 65.3348-16.4651Q64.8001-16.9882 64.0495-16.9882Q63.3104-16.9882 62.7757-16.4651Q62.241-15.942 62.241-15.2038L62.241 4.37378L62.4137 14.6026L53.1606 5.21236L47.713-0.33572Q47.1592-0.838856 46.4318-0.838856Q45.5931-0.838856 45.1194-0.377186Q44.6457 0.0844839 44.6457 0.873347Q44.6457 1.44396 44.9572 1.83926Q45.2687 2.23456 45.7023 2.6449L62.7325 19.3723Q63.3968 20.0125 64.0495 20.0125ZM64.0495-54.707Q64.8001-54.707 65.3348-55.2301Q65.8695-55.7532 65.8695-56.5038L65.8695-76.1197L65.6968-86.2978L74.95-76.9084L80.3975-71.3595Q80.9522-70.8564 81.7286-70.8564Q82.5174-70.8564 83.0165-71.318Q83.5155-71.7797 83.5155-72.5686Q83.5155-73.1508 83.204-73.5407Q82.8925-73.9306 82.4589-74.3517L65.378-91.0675Q64.7644-91.7077 64.0495-91.7077Q63.3968-91.7077 62.7325-91.0675L45.7023-74.3517Q45.2687-73.9306 44.9572-73.5407Q44.6457-73.1508 44.6457-72.5686Q44.6457-71.7797 45.1131-71.318Q45.5806-70.8564 46.4202-70.8564Q47.1592-70.8564 47.713-71.3595L53.1606-76.9084L62.4137-86.2978L62.241-76.1197L62.241-56.5038Q62.241-55.7532 62.7757-55.2301Q63.3104-54.707 64.0495-54.707Z"/>
  </g>
  <g id="Ultralight-M" transform="matrix(1 0 0 1 496.624 1126)">
   <path d="M25.3659-5.14999L39.2141-5.14999L39.2141-7.55776L25.0649-7.55776Q20.65-7.55776 17.7611-10.4168Q14.8723-13.2759 14.8723-17.5635L14.8723-54.2013Q14.8723-58.5512 17.7611-61.3791Q20.65-64.207 25.0649-64.207L39.2141-64.207L39.2141-66.6147L25.3659-66.6147Q19.8155-66.6147 16.1382-63.2477Q12.4609-59.8806 12.4609-54.7059L12.4609-17.0589Q12.4609-11.8841 16.1382-8.51705Q19.8155-5.14999 25.3659-5.14999ZM100.871-5.14999Q106.421-5.14999 110.067-8.51705Q113.714-11.8841 113.714-17.0589L113.714-54.7059Q113.714-59.8806 110.067-63.2477Q106.421-66.6147 100.871-66.6147L87.0219-66.6147L87.0219-64.207L101.11-64.207Q105.525-64.207 108.445-61.3791Q111.365-58.5512 111.365-54.2013L111.365-17.5635Q111.365-13.2759 108.445-10.4168Q105.525-7.55776 101.11-7.55776L87.0219-7.55776L87.0219-5.14999ZM63.0874 19.2822Q63.5938 19.2822 63.9754 18.8391L81.2883 1.65967Q81.6638 1.284 81.9753 0.969905Q82.2869 0.655813 82.2869 0.154729Q82.2869-0.413875 81.9389-0.730653Q81.591-1.04743 81.0224-1.04743Q80.4538-1.04743 80.0728-0.729889L74.8919 4.57475L64.1666 15.4256L64.293 4.60553L64.293-15.9805Q64.293-16.4867 63.9438-16.836Q63.5946-17.1853 63.0874-17.1853Q62.5801-17.1853 62.2309-16.836Q61.8817-16.4867 61.8817-15.9805L61.8817 4.60553L62.0081 15.4256L51.2828 4.57475L46.1019-0.729889Q45.722-1.04743 45.2146-1.04743Q44.5847-1.04743 44.2675-0.730653Q43.9502-0.413875 43.9502 0.154729Q43.9502 0.655813 44.2618 0.969905Q44.5733 1.284 44.9488 1.65967L62.1993 18.8391Q62.6433 19.2822 63.0874 19.2822ZM63.0874-54.5794Q63.5946-54.5794 63.9438-54.9287Q64.293-55.278 64.293-55.7852L64.293-76.4327L64.1666-87.1903L74.8919-76.3405L80.0728-71.0348Q80.4538-70.7173 81.0214-70.7173Q81.59-70.7173 81.9385-71.0341Q82.2869-71.3509 82.2869-71.9195Q82.2869-72.4205 81.9753-72.7351Q81.6638-73.0498 81.2883-73.4243L63.9754-90.6038Q63.5938-91.0469 63.0874-91.0469Q62.6433-91.0469 62.1993-90.6038L44.9488-73.4243Q44.5733-73.0498 44.2618-72.7351Q43.9502-72.4205 43.9502-71.9195Q43.9502-71.3509 44.267-71.0341Q44.5837-70.7173 45.2147-70.7173Q45.722-70.7173 46.1019-71.0348L51.2828-76.3405L62.0081-87.1903L61.8817-76.4327L61.8817-55.7852Q61.8817-55.278 62.2309-54.9287Q62.5801-54.5794 63.0874-54.5794Z"/>
  </g>
  <g id="Black-S" transform="matrix(1 0 0 1 2874.95 696)">
   <path d="M23.9746-8.30078L37.4023-8.30078L37.4023-19.043L27.0508-19.043Q24.9512-19.043 23.7061-20.2393Q22.4609-21.4355 22.4609-23.4863L22.4609-48.0469Q22.4609-50.0977 23.7061-51.2939Q24.9512-52.4902 27.0508-52.4902L37.4023-52.4902L37.4023-63.2324L23.9746-63.2324Q17.2852-63.2324 13.5254-59.7656Q9.76562-56.2988 9.76562-50.0977L9.76562-21.4355Q9.76562-15.2344 13.5254-11.7676Q17.2852-8.30078 23.9746-8.30078ZM92.9199-8.30078Q99.6094-8.30078 103.369-11.7676Q107.129-15.2344 107.129-21.4355L107.129-50.0977Q107.129-56.2988 103.369-59.7656Q99.6094-63.2324 92.9199-63.2324L79.4922-63.2324L79.4922-52.4902L89.8438-52.4902Q91.9434-52.4902 93.1885-51.2939Q94.4336-50.0977 94.4336-48.0469L94.4336-23.4863Q94.4336-21.4355 93.1885-20.2393Q91.9434-19.043 89.8438-19.043L79.4922-19.043L79.4922-8.30078ZM58.4473 14.0137Q60.4492 14.0137 62.2559 12.3047L73.9258 1.12305Q74.6094 0.439453 74.9268-0.341797Q75.2441-1.12305 75.2441-2.00195Q75.2441-4.00391 73.877-5.37109Q72.5098-6.73828 70.5078-6.73828Q68.4082-6.73828 67.334-5.32227L64.5996-1.70898L63.1836 0.78125L63.6719-5.22461L63.6719-14.3555Q63.6719-16.748 62.2314-18.2129Q60.791-19.6777 58.4473-19.6777Q56.1035-19.6777 54.6631-18.2129Q53.2227-16.748 53.2227-14.3555L53.2227-5.22461L53.7109 0.78125L52.3438-1.66016L49.5605-5.32227Q48.4863-6.73828 46.3867-6.73828Q44.4336-6.73828 43.042-5.37109Q41.6504-4.00391 41.6504-2.00195Q41.6504-1.12305 41.9678-0.341797Q42.2852 0.439453 43.0176 1.12305L54.6875 12.3047Q56.4941 14.0137 58.4473 14.0137ZM58.4473-51.8555Q60.791-51.8555 62.2314-53.3203Q63.6719-54.7852 63.6719-57.1777L63.6719-66.3086L63.1836-72.3145L64.5508-69.873L67.334-66.2109Q68.4082-64.7949 70.5078-64.7949Q72.4609-64.7949 73.8525-66.1865Q75.2441-67.5781 75.2441-69.5312Q75.2441-70.4102 74.9268-71.1914Q74.6094-71.9727 73.877-72.6562L62.207-83.8379Q60.4004-85.5469 58.4473-85.5469Q56.4453-85.5469 54.6387-83.8379L42.9688-72.6562Q42.2852-72.0215 41.9678-71.2158Q41.6504-70.4102 41.6504-69.5312Q41.6504-67.5781 43.042-66.1865Q44.4336-64.7949 46.3867-64.7949Q48.4863-64.7949 49.5605-66.2109L52.2949-69.8242L53.7109-72.3145L53.2227-66.3086L53.2227-57.1777Q53.2227-54.7852 54.6631-53.3203Q56.1035-51.8555 58.4473-51.8555Z"/>
  </g>
  <g id="Heavy-S" transform="matrix(1 0 0 1 2579.41 696)">
   <path d="M23.214-8.61194L36.5034-8.61194L36.5034-18.3745L25.8061-18.3745Q23.6259-18.3745 22.3635-19.6169Q21.1011-20.8593 21.1011-22.9216L21.1011-48.5309Q21.1011-50.5932 22.3635-51.8356Q23.6259-53.078 25.8061-53.078L36.5034-53.078L36.5034-62.8406L23.214-62.8406Q16.9509-62.8406 13.3583-59.4948Q9.76562-56.149 9.76562-50.3512L9.76562-21.1013Q9.76562-15.3035 13.3583-11.9577Q16.9509-8.61194 23.214-8.61194ZM91.3411-8.61194Q97.6041-8.61194 101.197-11.9577Q104.789-15.3035 104.789-21.1013L104.789-50.3512Q104.789-56.149 101.197-59.4948Q97.6041-62.8406 91.3411-62.8406L78.0516-62.8406L78.0516-53.078L88.7489-53.078Q90.9177-53.078 92.1858-51.8356Q93.454-50.5932 93.454-48.5309L93.454-22.9216Q93.454-20.8593 92.1858-19.6169Q90.9177-18.3745 88.7489-18.3745L78.0516-18.3745L78.0516-8.61194ZM57.2718 13.1954Q59.1009 13.1954 60.7807 11.6132L72.6696 0.339383Q73.3186-0.286588 73.6187-1.02174Q73.9188-1.75689 73.9188-2.5897Q73.9188-4.44184 72.6669-5.68802Q71.4149-6.9342 69.5628-6.9342Q67.6361-6.9342 66.5734-5.61038L63.2628-1.62831L61.6508 0.838872L62.093-5.16699L62.093-14.9547Q62.093-17.1053 60.7448-18.4607Q59.3966-19.816 57.2718-19.816Q55.1585-19.816 53.8103-18.4607Q52.462-17.1053 52.462-14.9547L52.462-5.16699L52.9042 0.838872L51.3296-1.59101L47.9817-5.61038Q46.919-6.9342 45.0038-6.9342Q43.189-6.9342 41.9126-5.68802Q40.6362-4.44184 40.6362-2.5897Q40.6362-1.75689 40.9363-1.02174Q41.2364-0.286588 41.9228 0.339383L53.8116 11.6132Q55.4915 13.1954 57.2718 13.1954ZM57.2718-51.6365Q59.3966-51.6365 60.7448-52.9919Q62.093-54.3472 62.093-56.5093L62.093-66.2855L61.6508-72.2914L63.2255-69.8615L66.5734-65.8422Q67.6361-64.5183 69.5513-64.5183Q71.3661-64.5183 72.6425-65.7832Q73.9188-67.048 73.9188-68.8628Q73.9188-69.7072 73.6187-70.4366Q73.3186-71.1659 72.6323-71.8034L60.7434-83.0658Q59.0636-84.648 57.2718-84.648Q55.4542-84.648 53.7743-83.0658L41.8855-71.8034Q41.2364-71.2032 40.9363-70.4552Q40.6362-69.7072 40.6362-68.8628Q40.6362-67.048 41.9068-65.7832Q43.1774-64.5183 44.9923-64.5183Q46.919-64.5183 47.9817-65.8422L51.2923-69.8242L52.9042-72.2914L52.462-66.2855L52.462-56.5093Q52.462-54.3472 53.8103-52.9919Q55.1585-51.6365 57.2718-51.6365Z"/>
  </g>
  <g id="Bold-S" transform="matrix(1 0 0 1 2284.01 696)">
   <path d="M22.3633-8.95996L35.498-8.95996L35.498-17.627L24.4141-17.627Q22.1436-17.627 20.8618-18.9209Q19.5801-20.2148 19.5801-22.29L19.5801-49.0723Q19.5801-51.1475 20.8618-52.4414Q22.1436-53.7354 24.4141-53.7354L35.498-53.7354L35.498-62.4023L22.3633-62.4023Q16.5771-62.4023 13.1714-59.1919Q9.76562-55.9814 9.76562-50.6348L9.76562-20.7275Q9.76562-15.3809 13.1714-12.1704Q16.5771-8.95996 22.3633-8.95996ZM89.5752-8.95996Q95.3613-8.95996 98.7671-12.1704Q102.173-15.3809 102.173-20.7275L102.173-50.6348Q102.173-55.9814 98.7671-59.1919Q95.3613-62.4023 89.5752-62.4023L76.4404-62.4023L76.4404-53.7354L87.5244-53.7354Q89.7705-53.7354 91.0645-52.4414Q92.3584-51.1475 92.3584-49.0723L92.3584-22.29Q92.3584-20.2148 91.0645-18.9209Q89.7705-17.627 87.5244-17.627L76.4404-17.627L76.4404-8.95996ZM55.957 12.2803Q57.5928 12.2803 59.1309 10.8398L71.2646-0.537109Q71.875-1.09863 72.1558-1.78223Q72.4365-2.46582 72.4365-3.24707Q72.4365-4.93164 71.3135-6.04248Q70.1904-7.15332 68.5059-7.15332Q66.7725-7.15332 65.7227-5.93262L61.7676-1.53809L59.9365 0.90332L60.3271-5.10254L60.3271-15.625Q60.3271-17.5049 59.082-18.7378Q57.8369-19.9707 55.957-19.9707Q54.1016-19.9707 52.8564-18.7378Q51.6113-17.5049 51.6113-15.625L51.6113-5.10254L52.002 0.90332L50.1953-1.51367L46.2158-5.93262Q45.166-7.15332 43.457-7.15332Q41.7969-7.15332 40.6494-6.04248Q39.502-4.93164 39.502-3.24707Q39.502-2.46582 39.7827-1.78223Q40.0635-1.09863 40.6982-0.537109L52.832 10.8398Q54.3701 12.2803 55.957 12.2803ZM55.957-51.3916Q57.8369-51.3916 59.082-52.6245Q60.3271-53.8574 60.3271-55.7617L60.3271-66.2598L59.9365-72.2656L61.7432-69.8486L65.7227-65.4297Q66.7725-64.209 68.4814-64.209Q70.1416-64.209 71.2891-65.332Q72.4365-66.4551 72.4365-68.1152Q72.4365-68.9209 72.1558-69.5923Q71.875-70.2637 71.2402-70.8496L59.1064-82.2021Q57.5684-83.6426 55.957-83.6426Q54.3457-83.6426 52.8076-82.2021L40.6738-70.8496Q40.0635-70.2881 39.7827-69.6045Q39.502-68.9209 39.502-68.1152Q39.502-66.4551 40.6372-65.332Q41.7725-64.209 43.4326-64.209Q45.166-64.209 46.2158-65.4297L50.1709-69.8242L52.002-72.2656L51.6113-66.2598L51.6113-55.7617Q51.6113-53.8574 52.8564-52.6245Q54.1016-51.3916 55.957-51.3916Z"/>
  </g>
  <g id="Semibold-S" transform="matrix(1 0 0 1 1988.2 696)">
   <path d="M21.7768-9.1999L34.8049-9.1999L34.8049-17.1115L23.4543-17.1115Q21.1216-17.1115 19.8265-18.441Q18.5314-19.7705 18.5314-21.8546L18.5314-49.4455Q18.5314-51.5296 19.8265-52.8591Q21.1216-54.1886 23.4543-54.1886L34.8049-54.1886L34.8049-62.1002L21.7768-62.1002Q16.3194-62.1002 13.0425-58.9831Q9.76562-55.8659 9.76562-50.8303L9.76562-20.4698Q9.76562-15.4342 13.0425-12.317Q16.3194-9.1999 21.7768-9.1999ZM88.3577-9.1999Q93.815-9.1999 97.0919-12.317Q100.369-15.4342 100.369-20.4698L100.369-50.8303Q100.369-55.8659 97.0919-58.9831Q93.815-62.1002 88.3577-62.1002L75.3296-62.1002L75.3296-54.1886L86.6802-54.1886Q88.9796-54.1886 90.2913-52.8591Q91.603-51.5296 91.603-49.4455L91.603-21.8546Q91.603-19.7705 90.2913-18.441Q88.9796-17.1115 86.6802-17.1115L75.3296-17.1115L75.3296-9.1999ZM55.0506 11.6493Q56.553 11.6493 57.9934 10.3066L70.296-1.14141Q70.8797-1.6585 71.1471-2.30654Q71.4146-2.95459 71.4146-3.70029Q71.4146-5.26934 70.3804-6.28687Q69.3462-7.30439 67.7771-7.30439Q66.1771-7.30439 65.1361-6.15479L60.7367-1.47588L58.7546 0.947754L59.1097-5.05811L59.1097-16.0871Q59.1097-17.7804 57.9356-18.9289Q56.7616-20.0773 55.0506-20.0773Q53.3729-20.0773 52.1988-18.9289Q51.0248-17.7804 51.0248-16.0871L51.0248-5.05811L51.3799 0.947754L49.4133-1.46035L44.9983-6.15479Q43.9574-7.30439 42.3906-7.30439Q40.8371-7.30439 39.7785-6.28687Q38.7199-5.26934 38.7199-3.70029Q38.7199-2.95459 38.9874-2.30654Q39.2548-1.6585 39.854-1.14141L52.1566 10.3066Q53.597 11.6493 55.0506 11.6493ZM55.0506-51.2228Q56.7616-51.2228 57.9356-52.3712Q59.1097-53.5197 59.1097-55.2463L59.1097-66.242L58.7546-72.2479L60.7212-69.8397L65.1361-65.1453Q66.1771-63.9957 67.7438-63.9957Q69.2974-63.9957 70.356-65.021Q71.4146-66.0463 71.4146-67.5998Q71.4146-68.3788 71.1471-69.0102Q70.8797-69.6416 70.2805-70.192L57.9778-81.6067Q56.5375-82.9494 55.0506-82.9494Q53.5814-82.9494 52.1411-81.6067L39.8385-70.192Q39.2548-69.6571 38.9874-69.018Q38.7199-68.3788 38.7199-67.5998Q38.7199-66.0463 39.7619-65.021Q40.8038-63.9957 42.3573-63.9957Q43.9574-63.9957 44.9983-65.1453L49.3978-69.8242L51.3799-72.2479L51.0248-66.242L51.0248-55.2463Q51.0248-53.5197 52.1988-52.3712Q53.3729-51.2228 55.0506-51.2228Z"/>
  </g>
  <g id="Medium-S" transform="matrix(1 0 0 1 1692.17 696)">
   <path d="M21.332-9.38184L34.2793-9.38184L34.2793-16.7207L22.7266-16.7207Q20.3467-16.7207 19.0415-18.0771Q17.7363-19.4336 17.7363-21.5244L17.7363-49.7285Q17.7363-51.8193 19.0415-53.1758Q20.3467-54.5322 22.7266-54.5322L34.2793-54.5322L34.2793-61.8711L21.332-61.8711Q16.124-61.8711 12.9448-58.8247Q9.76562-55.7783 9.76562-50.9785L9.76562-20.2744Q9.76562-15.4746 12.9448-12.4282Q16.124-9.38184 21.332-9.38184ZM87.4346-9.38184Q92.6426-9.38184 95.8218-12.4282Q99.001-15.4746 99.001-20.2744L99.001-50.9785Q99.001-55.7783 95.8218-58.8247Q92.6426-61.8711 87.4346-61.8711L74.4873-61.8711L74.4873-54.5322L86.04-54.5322Q88.3799-54.5322 89.7051-53.1758Q91.0303-51.8193 91.0303-49.7285L91.0303-21.5244Q91.0303-19.4336 89.7051-18.0771Q88.3799-16.7207 86.04-16.7207L74.4873-16.7207L74.4873-9.38184ZM54.3633 11.1709Q55.7646 11.1709 57.1309 9.90234L69.5615-1.59961Q70.125-2.08301 70.3823-2.7041Q70.6396-3.3252 70.6396-4.04395Q70.6396-5.52539 69.6729-6.47217Q68.7061-7.41895 67.2246-7.41895Q65.7256-7.41895 64.6914-6.32324L59.9551-1.42871L57.8584 0.981445L58.1865-5.02441L58.1865-16.4375Q58.1865-17.9893 57.0664-19.0737Q55.9463-20.1582 54.3633-20.1582Q52.8203-20.1582 51.7002-19.0737Q50.5801-17.9893 50.5801-16.4375L50.5801-5.02441L50.9082 0.981445L48.8203-1.41992L44.0752-6.32324Q43.041-7.41895 41.582-7.41895Q40.1094-7.41895 39.1182-6.47217Q38.127-5.52539 38.127-4.04395Q38.127-3.3252 38.3843-2.7041Q38.6416-2.08301 39.2139-1.59961L51.6445 9.90234Q53.0107 11.1709 54.3633 11.1709ZM54.3633-51.0947Q55.9463-51.0947 57.0664-52.1792Q58.1865-53.2637 58.1865-54.8555L58.1865-66.2285L57.8584-72.2344L59.9463-69.833L64.6914-64.9297Q65.7256-63.834 67.1846-63.834Q68.6572-63.834 69.6484-64.7852Q70.6396-65.7363 70.6396-67.209Q70.6396-67.9678 70.3823-68.5688Q70.125-69.1699 69.5527-69.6934L57.1221-81.1553Q55.7559-82.4238 54.3633-82.4238Q53.002-82.4238 51.6357-81.1553L39.2051-69.6934Q38.6416-69.1787 38.3843-68.5732Q38.127-67.9678 38.127-67.209Q38.127-65.7363 39.0981-64.7852Q40.0693-63.834 41.542-63.834Q43.041-63.834 44.0752-64.9297L48.8115-69.8242L50.9082-72.2344L50.5801-66.2285L50.5801-54.8555Q50.5801-53.2637 51.7002-52.1792Q52.8203-51.0947 54.3633-51.0947Z"/>
  </g>
  <g id="Regular-S" transform="matrix(1 0 0 1 1396.35 696)">
   <path d="M20.752-9.61914L33.5938-9.61914L33.5938-16.2109L21.7773-16.2109Q19.3359-16.2109 18.0176-17.6025Q16.6992-18.9941 16.6992-21.0938L16.6992-50.0977Q16.6992-52.1973 18.0176-53.5889Q19.3359-54.9805 21.7773-54.9805L33.5938-54.9805L33.5938-61.5723L20.752-61.5723Q15.8691-61.5723 12.8174-58.6182Q9.76562-55.6641 9.76562-51.1719L9.76562-20.0195Q9.76562-15.5273 12.8174-12.5732Q15.8691-9.61914 20.752-9.61914ZM86.2305-9.61914Q91.1133-9.61914 94.165-12.5732Q97.2168-15.5273 97.2168-20.0195L97.2168-51.1719Q97.2168-55.6641 94.165-58.6182Q91.1133-61.5723 86.2305-61.5723L73.3887-61.5723L73.3887-54.9805L85.2051-54.9805Q87.5977-54.9805 88.9404-53.5889Q90.2832-52.1973 90.2832-50.0977L90.2832-21.0938Q90.2832-18.9941 88.9404-17.6025Q87.5977-16.2109 85.2051-16.2109L73.3887-16.2109L73.3887-9.61914ZM53.4668 10.5469Q54.7363 10.5469 56.0059 9.375L68.6035-2.19727Q69.1406-2.63672 69.3848-3.22266Q69.6289-3.80859 69.6289-4.49219Q69.6289-5.85938 68.75-6.71387Q67.8711-7.56836 66.5039-7.56836Q65.1367-7.56836 64.1113-6.54297L58.9355-1.36719L56.6895 1.02539L56.9824-4.98047L56.9824-16.8945Q56.9824-18.2617 55.9326-19.2627Q54.8828-20.2637 53.4668-20.2637Q52.0996-20.2637 51.0498-19.2627Q50-18.2617 50-16.8945L50-4.98047L50.293 1.02539L48.0469-1.36719L42.8711-6.54297Q41.8457-7.56836 40.5273-7.56836Q39.1602-7.56836 38.2568-6.71387Q37.3535-5.85938 37.3535-4.49219Q37.3535-3.80859 37.5977-3.22266Q37.8418-2.63672 38.3789-2.19727L50.9766 9.375Q52.2461 10.5469 53.4668 10.5469ZM53.4668-50.9277Q54.8828-50.9277 55.9326-51.9287Q56.9824-52.9297 56.9824-54.3457L56.9824-66.2109L56.6895-72.2168L58.9355-69.8242L64.1113-64.6484Q65.1367-63.623 66.4551-63.623Q67.8223-63.623 68.7256-64.4775Q69.6289-65.332 69.6289-66.6992Q69.6289-67.4316 69.3848-67.9932Q69.1406-68.5547 68.6035-69.043L56.0059-80.5664Q54.7363-81.7383 53.4668-81.7383Q52.2461-81.7383 50.9766-80.5664L38.3789-69.043Q37.8418-68.5547 37.5977-67.9932Q37.3535-67.4316 37.3535-66.6992Q37.3535-65.332 38.2324-64.4775Q39.1113-63.623 40.4785-63.623Q41.8457-63.623 42.8711-64.6484L48.0469-69.8242L50.293-72.2168L50-66.2109L50-54.3457Q50-52.9297 51.0498-51.9287Q52.0996-50.9277 53.4668-50.9277Z"/>
  </g>
  <g id="Light-S" transform="matrix(1 0 0 1 1100.91 696)">
   <path d="M20.4796-10.2549L32.7006-10.2549L32.7006-15.3783L21.1113-15.3783Q18.352-15.3783 16.7385-17.0349Q15.125-18.6915 15.125-21.1845L15.125-50.0977Q15.125-52.6059 16.7385-54.2549Q18.352-55.9039 21.1113-55.9039L32.7006-55.9039L32.7006-61.0273L20.4796-61.0273Q15.7631-61.0273 12.7644-58.1716Q9.76562-55.3159 9.76562-50.96L9.76562-20.3222Q9.76562-15.9663 12.7644-13.1106Q15.7631-10.2549 20.4796-10.2549ZM83.9902-10.2549Q88.7065-10.2549 91.6977-13.1106Q94.6889-15.9663 94.6889-20.3222L94.6889-50.96Q94.6889-55.3159 91.6977-58.1716Q88.7065-61.0273 83.9902-61.0273L71.769-61.0273L71.769-55.9039L83.3433-55.9039Q86.069-55.9039 87.7069-54.2549Q89.3448-52.6059 89.3448-50.0977L89.3448-21.1845Q89.3448-18.6915 87.7069-17.0349Q86.069-15.3783 83.3433-15.3783L71.769-15.3783L71.769-10.2549ZM52.2105 9.5932Q53.2077 9.5932 54.1743 8.67869L67.0748-3.48384Q67.5362-3.87802 67.7803-4.35791Q68.0244-4.8378 68.0244-5.4306Q68.0244-6.51016 67.3347-7.17545Q66.6451-7.84073 65.5655-7.84073Q64.4859-7.84073 63.6874-7.0577L58.8598-2.19981L54.6913 2.10012L54.9238-4.67784L54.9238-17.9087Q54.9238-18.973 54.1162-19.747Q53.3086-20.521 52.2105-20.521Q51.1459-20.521 50.3384-19.747Q49.5308-18.973 49.5308-17.9087L49.5308-4.67784L49.7632 2.10012L45.5948-2.19981L40.7672-7.0577Q39.9689-7.84073 38.9379-7.84073Q37.8433-7.84073 37.1443-7.17545Q36.4454-6.51016 36.4454-5.4306Q36.4454-4.8378 36.6895-4.35791Q36.9336-3.87802 37.395-3.48384L50.2803 8.67869Q51.2622 9.5932 52.2105 9.5932ZM52.2105-50.7612Q53.3086-50.7612 54.1162-51.5352Q54.9238-52.3092 54.9238-53.4073L54.9238-66.6196L54.6913-73.3823L58.8598-69.0826L63.6874-64.2245Q64.4859-63.4415 65.5317-63.4415Q66.6112-63.4415 67.3178-64.1068Q68.0244-64.772 68.0244-65.8516Q68.0244-66.478 67.7803-66.9412Q67.5362-67.4044 67.0748-67.8319L54.1743-79.9609Q53.2077-80.8754 52.2105-80.8754Q51.2622-80.8754 50.2803-79.9609L37.395-67.8319Q36.9336-67.4044 36.6895-66.9412Q36.4454-66.478 36.4454-65.8516Q36.4454-64.772 37.1274-64.1068Q37.8095-63.4415 38.9043-63.4415Q39.9689-63.4415 40.7672-64.2245L45.5948-69.0826L49.7632-73.3823L49.5308-66.6196L49.5308-53.4073Q49.5308-52.3092 50.3384-51.5352Q51.1459-50.7612 52.2105-50.7612Z"/>
  </g>
  <g id="Thin-S" transform="matrix(1 0 0 1 805.867 696)">
   <path d="M20.1194-11.0958L31.5193-11.0958L31.5193-14.2771L20.2304-14.2771Q17.0507-14.2771 15.0468-16.2842Q13.043-18.2913 13.043-21.3046L13.043-50.0977Q13.043-53.1465 15.0468-55.1358Q17.0507-57.1252 20.2304-57.1252L31.5193-57.1252L31.5193-60.3065L20.1194-60.3065Q15.6228-60.3065 12.6942-57.581Q9.76562-54.8554 9.76562-50.6799L9.76562-20.7224Q9.76562-16.5468 12.6942-13.8213Q15.6228-11.0958 20.1194-11.0958ZM81.0273-11.0958Q85.5232-11.0958 88.4344-13.8213Q91.3456-16.5468 91.3456-20.7224L91.3456-50.6799Q91.3456-54.8554 88.4344-57.581Q85.5232-60.3065 81.0273-60.3065L69.6267-60.3065L69.6267-57.1252L80.8808-57.1252Q84.0472-57.1252 86.0754-55.1358Q88.1037-53.1465 88.1037-50.0977L88.1037-21.3046Q88.1037-18.2913 86.0754-16.2842Q84.0472-14.2771 80.8808-14.2771L69.6267-14.2771L69.6267-11.0958ZM50.5489 8.33189Q51.1859 8.33189 51.7519 7.75777L65.053-5.18543Q65.4141-5.51974 65.6583-5.85938Q65.9024-6.19901 65.9024-6.67173Q65.9024-7.37088 65.463-7.78592Q65.0235-8.20096 64.3244-8.20096Q63.6252-8.20096 63.1267-7.73847L58.7595-3.30102L52.0486 3.52153L52.201-4.27758L52.201-19.2501Q52.201-19.9138 51.7138-20.3876Q51.2266-20.8614 50.5489-20.8614Q49.8846-20.8614 49.3974-20.3876Q48.9102-19.9138 48.9102-19.2501L48.9102-4.27758L49.0626 3.52153L42.3517-3.30102L37.9845-7.73847Q37.4866-8.20096 36.8357-8.20096Q36.1017-8.20096 35.673-7.78592Q35.2443-7.37088 35.2443-6.67173Q35.2443-6.19901 35.4884-5.85938Q35.7325-5.51974 36.0936-5.18543L49.3593 7.75777Q49.9608 8.33189 50.5489 8.33189ZM50.5489-50.5409Q51.2266-50.5409 51.7138-51.0147Q52.201-51.4885 52.201-52.1662L52.201-67.1601L52.0486-74.9238L58.7595-68.1018L63.1267-63.6638Q63.6252-63.2013 64.3104-63.2013Q65.0095-63.2013 65.456-63.6164Q65.9024-64.0314 65.9024-64.7305Q65.9024-65.2167 65.6583-65.5499Q65.4141-65.8831 65.053-66.2302L51.7519-79.16Q51.1859-79.7342 50.5489-79.7342Q49.9608-79.7342 49.3593-79.16L36.0936-66.2302Q35.7325-65.8831 35.4884-65.5499Q35.2443-65.2167 35.2443-64.7305Q35.2443-64.0314 35.666-63.6164Q36.0877-63.2013 36.8223-63.2013Q37.4866-63.2013 37.9845-63.6638L42.3517-68.1018L49.0626-74.9238L48.9102-67.1601L48.9102-52.1662Q48.9102-51.4885 49.3974-51.0147Q49.8846-50.5409 50.5489-50.5409Z"/>
  </g>
  <g id="Ultralight-S" transform="matrix(1 0 0 1 510.012 696)">
   <path d="M19.9348-11.5265L30.9143-11.5265L30.9143-13.7131L19.7792-13.7131Q16.3841-13.7131 14.1804-15.8997Q11.9766-18.0862 11.9766-21.3661L11.9766-50.0977Q11.9766-53.4233 14.1804-55.587Q16.3841-57.7507 19.7792-57.7507L30.9143-57.7507L30.9143-59.9373L19.9348-59.9373Q15.551-59.9373 12.6583-57.2784Q9.76562-54.6196 9.76562-50.5363L9.76562-20.9274Q9.76562-16.8442 12.6583-14.1853Q15.551-11.5265 19.9348-11.5265ZM79.5097-11.5265Q83.8928-11.5265 86.763-14.1853Q89.6332-16.8442 89.6332-20.9274L89.6332-50.5363Q89.6332-54.6196 86.763-57.2784Q83.8928-59.9373 79.5097-59.9373L68.5295-59.9373L68.5295-57.7507L79.6196-57.7507Q83.0116-57.7507 85.2398-55.587Q87.468-53.4233 87.468-50.0977L87.468-21.3661Q87.468-18.0862 85.2398-15.8997Q83.0116-13.7131 79.6196-13.7131L68.5295-13.7131L68.5295-11.5265ZM49.6979 7.68585Q50.1503 7.68585 50.5112 7.28607L64.0175-6.05698Q64.3272-6.36063 64.5714-6.62842Q64.8155-6.89621 64.8155-7.30743Q64.8155-7.81174 64.5042-8.0986Q64.193-8.38547 63.6887-8.38547Q63.1844-8.38547 62.8395-8.08716L58.7082-3.86505L50.695 4.24957L50.8064-4.07257L50.8064-19.9371Q50.8064-20.3957 50.4833-20.7157Q50.1602-21.0358 49.6979-21.0358Q49.2386-21.0358 48.9155-20.7157Q48.5924-20.3957 48.5924-19.9371L48.5924-4.07257L48.7038 4.24957L40.6906-3.86505L36.5593-8.08716Q36.2152-8.38547 35.759-8.38547Q35.2097-8.38547 34.9194-8.0986Q34.6291-7.81174 34.6291-7.30743Q34.6291-6.89621 34.8732-6.62842Q35.1173-6.36063 35.4271-6.05698L48.8876 7.28607Q49.2943 7.68585 49.6979 7.68585ZM49.6979-50.428Q50.1602-50.428 50.4833-50.7481Q50.8064-51.0681 50.8064-51.5305L50.8064-67.437L50.695-75.7133L58.7082-67.5995L62.8395-63.3766Q63.1844-63.0783 63.6848-63.0783Q64.1891-63.0783 64.5023-63.3652Q64.8155-63.652 64.8155-64.1563Q64.8155-64.5706 64.5714-64.8373Q64.3272-65.1039 64.0175-65.4099L50.5112-78.7498Q50.1503-79.1496 49.6979-79.1496Q49.2943-79.1496 48.8876-78.7498L35.4271-65.4099Q35.1173-65.1039 34.8732-64.8373Q34.6291-64.5706 34.6291-64.1563Q34.6291-63.652 34.9174-63.3652Q35.2058-63.0783 35.7559-63.0783Q36.2152-63.0783 36.5593-63.3766L40.6906-67.5995L48.7038-75.7133L48.5924-67.437L48.5924-51.5305Q48.5924-51.0681 48.9155-50.7481Q49.2386-50.428 49.6979-50.428Z"/>
  </g>
 </g>
</svg>
