<?xml version="1.0" encoding="UTF-8"?>
<!--Generator: Apple Native CoreSVG 175-->
<!DOCTYPE svg
PUBLIC "-//W3C//DTD SVG 1.1//EN"
       "http://www.w3.org/Graphics/SVG/1.1/DTD/svg11.dtd">
<svg version="1.1" xmlns="http://www.w3.org/2000/svg" xmlns:xlink="http://www.w3.org/1999/xlink" width="3300" height="2200">
 <!--glyph: "uni100783.medium", point size: 100.0, font version: "17.1d1e1", template writer version: "65.1"-->
 <g id="Notes">
  <rect height="2200" id="artboard" style="fill:white;opacity:1" width="3300" x="0" y="0"/>
  <line style="fill:none;stroke:black;opacity:1;stroke-width:0.5;" x1="263" x2="3036" y1="292" y2="292"/>
  <text style="stroke:none;fill:black;font-family:sans-serif;font-size:13;font-weight:bold;" transform="matrix(1 0 0 1 263 322)">Weight/Scale Variations</text>
  <text style="stroke:none;fill:black;font-family:sans-serif;font-size:13;text-anchor:middle;" transform="matrix(1 0 0 1 559.711 322)">Ultralight</text>
  <text style="stroke:none;fill:black;font-family:sans-serif;font-size:13;text-anchor:middle;" transform="matrix(1 0 0 1 856.422 322)">Thin</text>
  <text style="stroke:none;fill:black;font-family:sans-serif;font-size:13;text-anchor:middle;" transform="matrix(1 0 0 1 1153.13 322)">Light</text>
  <text style="stroke:none;fill:black;font-family:sans-serif;font-size:13;text-anchor:middle;" transform="matrix(1 0 0 1 1449.84 322)">Regular</text>
  <text style="stroke:none;fill:black;font-family:sans-serif;font-size:13;text-anchor:middle;" transform="matrix(1 0 0 1 1746.56 322)">Medium</text>
  <text style="stroke:none;fill:black;font-family:sans-serif;font-size:13;text-anchor:middle;" transform="matrix(1 0 0 1 2043.27 322)">Semibold</text>
  <text style="stroke:none;fill:black;font-family:sans-serif;font-size:13;text-anchor:middle;" transform="matrix(1 0 0 1 2339.98 322)">Bold</text>
  <text style="stroke:none;fill:black;font-family:sans-serif;font-size:13;text-anchor:middle;" transform="matrix(1 0 0 1 2636.69 322)">Heavy</text>
  <text style="stroke:none;fill:black;font-family:sans-serif;font-size:13;text-anchor:middle;" transform="matrix(1 0 0 1 2933.4 322)">Black</text>
  <line style="fill:none;stroke:black;opacity:1;stroke-width:0.5;" x1="263" x2="3036" y1="1903" y2="1903"/>
  <g transform="matrix(1 0 0 1 263 1933)">
   <path d="M9.24805 0.830078Q10.8691 0.830078 12.2949 0.214844Q13.7207-0.400391 14.8096-1.49414Q15.8984-2.58789 16.5186-4.01367Q17.1387-5.43945 17.1387-7.05078Q17.1387-8.66211 16.5186-10.0879Q15.8984-11.5137 14.8047-12.6074Q13.7109-13.7012 12.2852-14.3164Q10.8594-14.9316 9.23828-14.9316Q7.62695-14.9316 6.20117-14.3164Q4.77539-13.7012 3.69141-12.6074Q2.60742-11.5137 1.9873-10.0879Q1.36719-8.66211 1.36719-7.05078Q1.36719-5.43945 1.9873-4.01367Q2.60742-2.58789 3.69629-1.49414Q4.78516-0.400391 6.21094 0.214844Q7.63672 0.830078 9.24805 0.830078ZM9.24805-0.654297Q7.91992-0.654297 6.7627-1.14746Q5.60547-1.64062 4.73145-2.51953Q3.85742-3.39844 3.36426-4.56055Q2.87109-5.72266 2.87109-7.05078Q2.87109-8.37891 3.35938-9.54102Q3.84766-10.7031 4.72168-11.582Q5.5957-12.4609 6.75293-12.9541Q7.91016-13.4473 9.23828-13.4473Q10.5762-13.4473 11.7334-12.9541Q12.8906-12.4609 13.7695-11.582Q14.6484-10.7031 15.1465-9.54102Q15.6445-8.37891 15.6445-7.05078Q15.6445-5.72266 15.1514-4.56055Q14.6582-3.39844 13.7842-2.51953Q12.9102-1.64062 11.748-1.14746Q10.5859-0.654297 9.24805-0.654297ZM5.6543-7.05078Q5.6543-6.72852 5.85938-6.52832Q6.06445-6.32812 6.40625-6.32812L8.51562-6.32812L8.51562-4.20898Q8.51562-3.88672 8.71094-3.67676Q8.90625-3.4668 9.23828-3.4668Q9.56055-3.4668 9.77051-3.67676Q9.98047-3.88672 9.98047-4.20898L9.98047-6.32812L12.0898-6.32812Q12.4219-6.32812 12.627-6.52832Q12.832-6.72852 12.832-7.05078Q12.832-7.38281 12.627-7.58789Q12.4219-7.79297 12.0898-7.79297L9.98047-7.79297L9.98047-9.90234Q9.98047-10.2344 9.77051-10.4443Q9.56055-10.6543 9.23828-10.6543Q8.90625-10.6543 8.71094-10.4443Q8.51562-10.2344 8.51562-9.90234L8.51562-7.79297L6.40625-7.79297Q6.06445-7.79297 5.85938-7.58789Q5.6543-7.38281 5.6543-7.05078Z"/>
  </g>
  <g transform="matrix(1 0 0 1 281.867 1933)">
   <path d="M11.709 2.91016Q13.75 2.91016 15.5518 2.12891Q17.3535 1.34766 18.7305-0.0292969Q20.1074-1.40625 20.8887-3.20801Q21.6699-5.00977 21.6699-7.05078Q21.6699-9.0918 20.8887-10.8936Q20.1074-12.6953 18.7305-14.0723Q17.3535-15.4492 15.5469-16.2305Q13.7402-17.0117 11.6992-17.0117Q9.6582-17.0117 7.85645-16.2305Q6.05469-15.4492 4.68262-14.0723Q3.31055-12.6953 2.5293-10.8936Q1.74805-9.0918 1.74805-7.05078Q1.74805-5.00977 2.5293-3.20801Q3.31055-1.40625 4.6875-0.0292969Q6.06445 1.34766 7.86621 2.12891Q9.66797 2.91016 11.709 2.91016ZM11.709 1.25Q9.98047 1.25 8.47656 0.605469Q6.97266-0.0390625 5.83496-1.17676Q4.69727-2.31445 4.05762-3.81836Q3.41797-5.32227 3.41797-7.05078Q3.41797-8.7793 4.05762-10.2832Q4.69727-11.7871 5.83008-12.9297Q6.96289-14.0723 8.4668-14.7119Q9.9707-15.3516 11.6992-15.3516Q13.4277-15.3516 14.9316-14.7119Q16.4355-14.0723 17.5781-12.9297Q18.7207-11.7871 19.3652-10.2832Q20.0098-8.7793 20.0098-7.05078Q20.0098-5.32227 19.3701-3.81836Q18.7305-2.31445 17.5928-1.17676Q16.4551-0.0390625 14.9463 0.605469Q13.4375 1.25 11.709 1.25ZM7.17773-7.05078Q7.17773-6.69922 7.41211-6.47461Q7.64648-6.25 8.01758-6.25L10.8887-6.25L10.8887-3.36914Q10.8887-2.99805 11.1133-2.76855Q11.3379-2.53906 11.6895-2.53906Q12.0605-2.53906 12.29-2.76855Q12.5195-2.99805 12.5195-3.36914L12.5195-6.25L15.4004-6.25Q15.7715-6.25 16.001-6.47461Q16.2305-6.69922 16.2305-7.05078Q16.2305-7.42188 16.001-7.65137Q15.7715-7.88086 15.4004-7.88086L12.5195-7.88086L12.5195-10.752Q12.5195-11.1328 12.29-11.3623Q12.0605-11.5918 11.6895-11.5918Q11.3379-11.5918 11.1133-11.3574Q10.8887-11.123 10.8887-10.752L10.8887-7.88086L8.01758-7.88086Q7.63672-7.88086 7.40723-7.65137Q7.17773-7.42188 7.17773-7.05078Z"/>
  </g>
  <g transform="matrix(1 0 0 1 305.646 1933)">
   <path d="M14.9707 5.66406Q17.0605 5.66406 18.96 5.01465Q20.8594 4.36523 22.4512 3.19336Q24.043 2.02148 25.2197 0.429688Q26.3965-1.16211 27.0459-3.06641Q27.6953-4.9707 27.6953-7.05078Q27.6953-9.14062 27.0459-11.04Q26.3965-12.9395 25.2197-14.5312Q24.043-16.123 22.4512-17.2998Q20.8594-18.4766 18.9551-19.126Q17.0508-19.7754 14.9609-19.7754Q12.8711-19.7754 10.9717-19.126Q9.07227-18.4766 7.48535-17.2998Q5.89844-16.123 4.72168-14.5312Q3.54492-12.9395 2.90039-11.04Q2.25586-9.14062 2.25586-7.05078Q2.25586-4.9707 2.90527-3.06641Q3.55469-1.16211 4.72656 0.429688Q5.89844 2.02148 7.49023 3.19336Q9.08203 4.36523 10.9814 5.01465Q12.8809 5.66406 14.9707 5.66406ZM14.9707 3.84766Q13.1641 3.84766 11.5283 3.2959Q9.89258 2.74414 8.53516 1.74805Q7.17773 0.751953 6.17676-0.610352Q5.17578-1.97266 4.62891-3.6084Q4.08203-5.24414 4.08203-7.05078Q4.08203-8.86719 4.62891-10.5029Q5.17578-12.1387 6.17188-13.501Q7.16797-14.8633 8.52539-15.8594Q9.88281-16.8555 11.5186-17.4023Q13.1543-17.9492 14.9609-17.9492Q16.7773-17.9492 18.4131-17.4023Q20.0488-16.8555 21.4111-15.8594Q22.7734-14.8633 23.7695-13.501Q24.7656-12.1387 25.3174-10.5029Q25.8691-8.86719 25.8691-7.05078Q25.8789-5.24414 25.332-3.6084Q24.7852-1.97266 23.7842-0.610352Q22.7832 0.751953 21.4209 1.74805Q20.0586 2.74414 18.4229 3.2959Q16.7871 3.84766 14.9707 3.84766ZM9.19922-7.05078Q9.19922-6.66992 9.45801-6.4209Q9.7168-6.17188 10.1172-6.17188L14.0625-6.17188L14.0625-2.2168Q14.0625-1.81641 14.3115-1.55762Q14.5605-1.29883 14.9512-1.29883Q15.3516-1.29883 15.6104-1.55273Q15.8691-1.80664 15.8691-2.2168L15.8691-6.17188L19.8242-6.17188Q20.2246-6.17188 20.4785-6.4209Q20.7324-6.66992 20.7324-7.05078Q20.7324-7.46094 20.4785-7.71484Q20.2246-7.96875 19.8242-7.96875L15.8691-7.96875L15.8691-11.9141Q15.8691-12.3242 15.6104-12.583Q15.3516-12.8418 14.9512-12.8418Q14.5605-12.8418 14.3115-12.583Q14.0625-12.3242 14.0625-11.9141L14.0625-7.96875L10.1172-7.96875Q9.70703-7.96875 9.45312-7.71484Q9.19922-7.46094 9.19922-7.05078Z"/>
  </g>
  <text style="stroke:none;fill:black;font-family:sans-serif;font-size:13;font-weight:bold;" transform="matrix(1 0 0 1 263 1953)">Design Variations</text>
  <text style="stroke:none;fill:black;font-family:sans-serif;font-size:13;" transform="matrix(1 0 0 1 263 1971)">Symbols are supported in up to nine weights and three scales.</text>
  <text style="stroke:none;fill:black;font-family:sans-serif;font-size:13;" transform="matrix(1 0 0 1 263 1989)">For optimal layout with text and other symbols, vertically align</text>
  <text style="stroke:none;fill:black;font-family:sans-serif;font-size:13;" transform="matrix(1 0 0 1 263 2007)">symbols with the adjacent text.</text>
  <line style="fill:none;stroke:#00AEEF;stroke-width:0.5;opacity:1.0;" x1="776" x2="776" y1="1919" y2="1933"/>
  <g transform="matrix(1 0 0 1 776 1933)">
   <path d="M3.31055 0.15625Q3.70117 0.15625 3.91602-0.00976562Q4.13086-0.175781 4.26758-0.585938L5.52734-4.0332L11.2891-4.0332L12.5488-0.585938Q12.6855-0.175781 12.9004-0.00976562Q13.1152 0.15625 13.4961 0.15625Q13.8867 0.15625 14.1162-0.0585938Q14.3457-0.273438 14.3457-0.644531Q14.3457-0.869141 14.2383-1.17188L9.6582-13.3691Q9.48242-13.8184 9.17969-14.043Q8.87695-14.2676 8.4082-14.2676Q7.5-14.2676 7.17773-13.3789L2.59766-1.16211Q2.49023-0.859375 2.49023-0.634766Q2.49023-0.263672 2.70996-0.0537109Q2.92969 0.15625 3.31055 0.15625ZM6.00586-5.51758L8.37891-12.0898L8.42773-12.0898L10.8008-5.51758Z"/>
  </g>
  <line style="fill:none;stroke:#00AEEF;stroke-width:0.5;opacity:1.0;" x1="793.197" x2="793.197" y1="1919" y2="1933"/>
  <text style="stroke:none;fill:black;font-family:sans-serif;font-size:13;font-weight:bold;" transform="matrix(1 0 0 1 776 1953)">Margins</text>
  <text style="stroke:none;fill:black;font-family:sans-serif;font-size:13;" transform="matrix(1 0 0 1 776 1971)">Leading and trailing margins on the left and right side of each symbol</text>
  <text style="stroke:none;fill:black;font-family:sans-serif;font-size:13;" transform="matrix(1 0 0 1 776 1989)">can be adjusted by modifying the x-location of the margin guidelines.</text>
  <text style="stroke:none;fill:black;font-family:sans-serif;font-size:13;" transform="matrix(1 0 0 1 776 2007)">Modifications are automatically applied proportionally to all</text>
  <text style="stroke:none;fill:black;font-family:sans-serif;font-size:13;" transform="matrix(1 0 0 1 776 2025)">scales and weights.</text>
  <g transform="matrix(1 0 0 1 1289 1933)">
   <path d="M2.8418 1.86523L4.54102 3.57422Q5.18555 4.22852 5.90332 4.17969Q6.62109 4.13086 7.31445 3.35938L18.0078-8.42773L17.041-9.4043L6.42578 2.27539Q6.16211 2.57812 5.89355 2.61719Q5.625 2.65625 5.27344 2.30469L4.10156 1.14258Q3.75 0.791016 3.79395 0.522461Q3.83789 0.253906 4.14062-0.0195312L15.6152-10.8203L14.6387-11.7871L3.04688-0.898438Q2.30469-0.214844 2.25098 0.498047Q2.19727 1.21094 2.8418 1.86523ZM9.25781-16.3281Q8.94531-16.0254 8.90625-15.6348Q8.86719-15.2441 9.04297-14.9512Q9.21875-14.6777 9.55566-14.541Q9.89258-14.4043 10.3809-14.5215Q11.4746-14.7754 12.5977-14.7314Q13.7207-14.6875 14.7949-13.9844L14.209-12.5293Q13.9551-11.9043 14.0674-11.4404Q14.1797-10.9766 14.5801-10.5664L16.875-8.25195Q17.2363-7.88086 17.5781-7.82227Q17.9199-7.76367 18.3398-7.8418L19.4043-8.03711L20.0684-7.36328L20.0293-6.80664Q20-6.43555 20.1221-6.12305Q20.2441-5.81055 20.6055-5.44922L21.3672-4.70703Q21.7285-4.3457 22.1533-4.33105Q22.5781-4.31641 22.9297-4.66797L25.8398-7.58789Q26.1914-7.93945 26.1816-8.35449Q26.1719-8.76953 25.8105-9.13086L25.0391-9.89258Q24.6875-10.2539 24.3799-10.3857Q24.0723-10.5176 23.7109-10.4883L23.1348-10.4395L22.4902-11.0742L22.7344-12.1973Q22.832-12.6172 22.6953-12.9834Q22.5586-13.3496 22.1191-13.7891L19.9219-15.9766Q18.6719-17.2168 17.2607-17.8369Q15.8496-18.457 14.4189-18.4814Q12.9883-18.5059 11.665-17.959Q10.3418-17.4121 9.25781-16.3281ZM10.752-15.957Q11.6602-16.6211 12.7002-16.9043Q13.7402-17.1875 14.8047-17.085Q15.8691-16.9824 16.8701-16.5137Q17.8711-16.0449 18.7012-15.2051L21.1328-12.793Q21.3086-12.6172 21.3525-12.4512Q21.3965-12.2852 21.3379-12.0312L21.0156-10.5469L22.5195-9.0625L23.5059-9.12109Q23.6914-9.13086 23.7891-9.09668Q23.8867-9.0625 24.0332-8.91602L24.6094-8.33984L22.168-5.89844L21.5918-6.47461Q21.4453-6.62109 21.4062-6.71875Q21.3672-6.81641 21.377-7.01172L21.4453-7.98828L19.9512-9.47266L18.4277-9.21875Q18.1836-9.16992 18.042-9.2041Q17.9004-9.23828 17.7148-9.41406L15.7129-11.416Q15.5176-11.5918 15.4932-11.7529Q15.4688-11.9141 15.5859-12.1875L16.4648-14.2773Q15.293-15.3711 13.8281-15.791Q12.3633-16.2109 10.8398-15.7617Q10.7227-15.7324 10.6885-15.8057Q10.6543-15.8789 10.752-15.957Z"/>
  </g>
  <text style="stroke:none;fill:black;font-family:sans-serif;font-size:13;font-weight:bold;" transform="matrix(1 0 0 1 1289 1953)">Exporting</text>
  <text style="stroke:none;fill:black;font-family:sans-serif;font-size:13;" transform="matrix(1 0 0 1 1289 1971)">Symbols should be outlined when exporting to ensure the</text>
  <text style="stroke:none;fill:black;font-family:sans-serif;font-size:13;" transform="matrix(1 0 0 1 1289 1989)">design is preserved when submitting to Xcode.</text>
  <text id="template-version" style="stroke:none;fill:black;font-family:sans-serif;font-size:13;text-anchor:end;" transform="matrix(1 0 0 1 3036 1933)">Template v.3.0</text>
  <text style="stroke:none;fill:black;font-family:sans-serif;font-size:13;text-anchor:end;" transform="matrix(1 0 0 1 3036 1951)">Requires Xcode 13 or greater</text>
  <text id="descriptive-name" style="stroke:none;fill:black;font-family:sans-serif;font-size:13;text-anchor:end;" transform="matrix(1 0 0 1 3036 1969)">Generated from lightbulb.slash</text>
  <text style="stroke:none;fill:black;font-family:sans-serif;font-size:13;text-anchor:end;" transform="matrix(1 0 0 1 3036 1987)">Typeset at 100 points</text>
  <text style="stroke:none;fill:black;font-family:sans-serif;font-size:13;" transform="matrix(1 0 0 1 263 726)">Small</text>
  <text style="stroke:none;fill:black;font-family:sans-serif;font-size:13;" transform="matrix(1 0 0 1 263 1156)">Medium</text>
  <text style="stroke:none;fill:black;font-family:sans-serif;font-size:13;" transform="matrix(1 0 0 1 263 1586)">Large</text>
 </g>
 <g id="Guides">
  <g id="H-reference" style="fill:#27AAE1;stroke:none;" transform="matrix(1 0 0 1 339 696)">
   <path d="M0.993347 0L3.6377 0L29.3282-67.1326L30.0301-67.1326L30.0301-70.459L28.1227-70.459ZM11.6882-24.4797L46.9818-24.4797L46.2311-26.7288L12.4382-26.7288ZM55.1193 0L57.7637 0L30.6381-70.459L29.4327-70.459L29.4327-67.1326Z"/>
  </g>
  <line id="Baseline-S" style="fill:none;stroke:#27AAE1;opacity:1;stroke-width:0.5;" x1="263" x2="3036" y1="696" y2="696"/>
  <line id="Capline-S" style="fill:none;stroke:#27AAE1;opacity:1;stroke-width:0.5;" x1="263" x2="3036" y1="625.541" y2="625.541"/>
  <g id="H-reference" style="fill:#27AAE1;stroke:none;" transform="matrix(1 0 0 1 339 1126)">
   <path d="M0.993347 0L3.6377 0L29.3282-67.1326L30.0301-67.1326L30.0301-70.459L28.1227-70.459ZM11.6882-24.4797L46.9818-24.4797L46.2311-26.7288L12.4382-26.7288ZM55.1193 0L57.7637 0L30.6381-70.459L29.4327-70.459L29.4327-67.1326Z"/>
  </g>
  <line id="Baseline-M" style="fill:none;stroke:#27AAE1;opacity:1;stroke-width:0.5;" x1="263" x2="3036" y1="1126" y2="1126"/>
  <line id="Capline-M" style="fill:none;stroke:#27AAE1;opacity:1;stroke-width:0.5;" x1="263" x2="3036" y1="1055.54" y2="1055.54"/>
  <g id="H-reference" style="fill:#27AAE1;stroke:none;" transform="matrix(1 0 0 1 339 1556)">
   <path d="M0.993347 0L3.6377 0L29.3282-67.1326L30.0301-67.1326L30.0301-70.459L28.1227-70.459ZM11.6882-24.4797L46.9818-24.4797L46.2311-26.7288L12.4382-26.7288ZM55.1193 0L57.7637 0L30.6381-70.459L29.4327-70.459L29.4327-67.1326Z"/>
  </g>
  <line id="Baseline-L" style="fill:none;stroke:#27AAE1;opacity:1;stroke-width:0.5;" x1="263" x2="3036" y1="1556" y2="1556"/>
  <line id="Capline-L" style="fill:none;stroke:#27AAE1;opacity:1;stroke-width:0.5;" x1="263" x2="3036" y1="1485.54" y2="1485.54"/>
  <line id="left-margin-Regular-M" style="fill:none;stroke:#00AEEF;stroke-width:0.5;opacity:1.0;" x1="1393.87" x2="1393.87" y1="1030.79" y2="1150.12"/>
  <line id="right-margin-Regular-M" style="fill:none;stroke:#00AEEF;stroke-width:0.5;opacity:1.0;" x1="1505.82" x2="1505.82" y1="1030.79" y2="1150.12"/>
 </g>
 <g id="Symbols">
  <g id="Black-L" transform="matrix(1 0 0 1 2856.18 1556)">
   <path d="M52.4228 6.43979L102.783 6.43979Q103.345 6.43979 103.566 5.91899Q103.788 5.39819 103.334 4.99094L103.334 4.64503L89.3829-9.30376L89.3829-8.91524L61.7927-8.91524L61.7927-10.1691Q61.7927-15.8832 59.5318-20.8435Q57.2708-25.8037 53.9748-30.3501Q50.6787-34.8964 47.3431-39.387Q44.0075-43.8776 41.7563-48.5915Q39.5051-53.3054 39.5051-58.5813Q39.5051-58.809 39.5154-58.9712Q39.5257-59.1334 39.5644-59.308L24.3125-74.5405Q23.6652-71.6575 23.2915-68.554Q22.9178-65.4505 22.9178-62.2043Q22.9178-53.2733 25.2105-46.6358Q27.5031-39.9984 30.9113-34.8333Q34.3195-29.6682 37.7465-25.4027Q41.1735-21.1372 43.4765-17.0981Q45.7795-13.0591 45.7795-8.50371L45.7795-0.0917802Q45.7795 2.77175 47.6317 4.60577Q49.484 6.43979 52.4228 6.43979ZM77.2349-99.556Q88.7323-99.556 97.293-94.9112Q105.854-90.2664 110.606-81.875Q115.359-73.4836 115.359-62.203Q115.359-56.6484 113.806-52.091Q112.253-47.5336 109.829-43.5967Q107.406-39.6599 104.757-36.0168L116.168-24.5485Q119.482-29.0155 123.032-34.2324Q126.582-39.4492 129.057-46.2681Q131.531-53.0869 131.531-62.2043Q131.531-78.1271 124.667-90.1715Q117.803-102.216 105.589-109.002Q93.3758-115.787 77.2349-115.787Q65.5717-115.787 55.8331-112.106Q46.0944-108.425 39.0248-101.747L50.6784-90.1547Q55.5554-94.6401 62.2826-97.0981Q69.0099-99.556 77.2349-99.556ZM77.2337 43.5906Q85.4558 43.5906 90.8336 40.0783Q96.2114 36.5659 96.7511 30.8787L57.7188 30.8787Q58.2948 36.5659 63.6143 40.0783Q68.9337 43.5906 77.2337 43.5906ZM52.6367 25.9499L101.811 25.9499Q104.897 25.9499 107.028 23.7309Q109.159 21.5118 109.159 18.6592Q109.159 15.7275 107.028 13.5377Q104.897 11.3479 101.811 11.3479L52.6367 11.3479Q49.6296 11.3479 47.4703 13.5377Q45.311 15.7275 45.311 18.6592Q45.311 21.5118 47.4703 23.7309Q49.6296 25.9499 52.6367 25.9499ZM128.957 17.1046Q130.628 18.7755 133.002 18.7651Q135.376 18.7547 136.909 17.1046Q138.5 15.4558 138.529 13.1299Q138.558 10.804 136.909 9.1539L19.2512-108.561Q17.5453-110.288 15.1785-110.22Q12.8117-110.152 11.2213-108.561Q9.65039-106.99 9.67959-104.585Q9.7088-102.18 11.2213-100.609Z"/>
  </g>
  <g id="Heavy-L" transform="matrix(1 0 0 1 2560.73 1556)">
   <path d="M51.6942 5.45823L99.9337 5.45823Q100.491 5.45823 100.708 4.94455Q100.926 4.43088 100.509 4.00463L100.509 2.92157L87.9796-9.59588L87.9796-8.38046L60.1641-8.38046L60.1641-10.3086Q60.1641-15.8635 57.9301-20.7691Q55.696-25.6747 52.4447-30.2172Q49.1933-34.7597 45.9048-39.2431Q42.6162-43.7265 40.3941-48.3671Q38.1719-53.0077 38.1719-58.0857Q38.1719-58.5869 38.2202-58.9971Q38.2684-59.4072 38.3827-59.7946L24.4075-73.7461Q23.7992-71.1238 23.4562-68.3032Q23.1132-65.4827 23.1132-62.5323Q23.1132-53.7606 25.3949-47.2004Q27.6766-40.6402 31.0694-35.5022Q34.4621-30.3642 37.8622-26.0868Q41.2623-21.8095 43.5589-17.7374Q45.8555-13.6653 45.8555-9.08056L45.8555-0.315337Q45.8555 2.22931 47.4744 3.84377Q49.0933 5.45823 51.6942 5.45823ZM75.9766-100.182Q87.5313-100.182 96.158-95.495Q104.785-90.8077 109.566-82.3477Q114.347-73.8877 114.347-62.5263Q114.347-56.6542 112.681-51.871Q111.016-47.0879 108.439-42.9692Q105.862-38.8506 103.106-35.0373L113.272-24.8326Q116.555-29.3539 120.154-34.5928Q123.753-39.8318 126.282-46.6357Q128.81-53.4396 128.81-62.5323Q128.81-78.0631 122.151-89.7893Q115.492-101.515 103.6-108.103Q91.7068-114.69 75.9766-114.69Q64.2239-114.69 54.5237-110.896Q44.8235-107.101 37.9292-100.208L48.3692-89.8251Q53.3022-94.7564 60.3106-97.4694Q67.319-100.182 75.9766-100.182ZM75.9705 41.3161Q83.7782 41.3161 88.882 37.981Q93.9859 34.6459 94.507 29.2443L57.4461 29.2443Q57.9761 34.6459 63.0353 37.981Q68.0945 41.3161 75.9705 41.3161ZM52.4143 24.2703L99.503 24.2703Q102.418 24.2703 104.439 22.1789Q106.461 20.0875 106.461 17.3513Q106.461 14.5407 104.439 12.4716Q102.418 10.4025 99.503 10.4025L52.4143 10.4025Q49.574 10.4025 47.5333 12.4716Q45.4925 14.5407 45.4925 17.3513Q45.4925 20.0875 47.5333 22.1789Q49.574 24.2703 52.4143 24.2703ZM125.641 15.0781Q127.246 16.6824 129.497 16.6675Q131.749 16.6526 133.234 15.0781Q134.758 13.5095 134.78 11.2876Q134.803 9.0657 133.234 7.49114L18.8119-106.97Q17.2048-108.607 14.9396-108.55Q12.6745-108.494 11.1506-106.97Q9.65039-105.47 9.6727-103.173Q9.69501-100.877 11.1506-99.3768Z"/>
  </g>
  <g id="Bold-L" transform="matrix(1 0 0 1 2265.59 1556)">
   <path d="M50.8302 4.39188L96.6484 4.39188Q97.1971 4.39188 97.4156 3.89048Q97.6341 3.38909 97.2739 2.93009L97.2739 0.642515L86.545-10.0579L86.545-7.49153L58.1322-7.49153L58.1322-10.2403Q58.1322-15.6458 55.9153-20.4988Q53.6983-25.3519 50.474-29.9045Q47.2496-34.4572 43.9921-38.97Q40.7347-43.4827 38.5291-48.1305Q36.3236-52.7783 36.3236-57.7989Q36.3236-58.7386 36.4374-59.5513Q36.5512-60.364 36.7874-61.1017L24.5713-73.2949Q23.9635-70.8548 23.6275-68.2299Q23.2915-65.6051 23.2915-62.8474Q23.2915-54.2251 25.5711-47.7355Q27.8506-41.2459 31.2375-36.1296Q34.6244-31.0133 38.0075-26.7155Q41.3905-22.4177 43.6885-18.2928Q45.9866-14.168 45.9866-9.51574L45.9866-0.450293Q45.9866 1.7031 47.3199 3.04749Q48.6533 4.39188 50.8302 4.39188ZM74.4077-100.995Q86.0699-100.995 94.8021-96.2387Q103.534-91.4823 108.364-82.9081Q113.195-74.3339 113.195-62.8332Q113.195-56.5973 111.406-51.5501Q109.618-46.5029 106.872-42.1752Q104.126-37.8474 101.246-33.8409L109.849-25.2224Q113.102-29.787 116.732-35.0349Q120.362-40.2828 122.924-47.0484Q125.487-53.814 125.487-62.8474Q125.487-77.9109 119.074-89.2595Q112.66-100.608 101.154-106.962Q89.6469-113.317 74.4077-113.317Q62.6011-113.317 52.9755-109.413Q43.35-105.51 36.6663-98.4063L45.5644-89.5659Q50.5774-94.9988 57.9161-97.997Q65.2548-100.995 74.4077-100.995ZM74.3935 38.5961Q81.7202 38.5961 86.5061 35.4665Q91.2919 32.3369 91.7894 27.2692L57.026 27.2692Q57.5015 32.3369 62.2581 35.4665Q67.0147 38.5961 74.3935 38.5961ZM52.131 22.2591L96.6332 22.2591Q99.3272 22.2591 101.202 20.3334Q103.077 18.4078 103.077 15.8306Q103.077 13.1872 101.202 11.2761Q99.3272 9.36503 96.6332 9.36503L52.131 9.36503Q49.5032 9.36503 47.6209 11.2761Q45.7387 13.1872 45.7387 15.8306Q45.7387 18.4078 47.6209 20.3334Q49.5032 22.2591 52.131 22.2591ZM122.211 12.7189Q123.7 14.2086 125.762 14.1901Q127.824 14.1716 129.218 12.7189Q130.627 11.2805 130.642 9.22962Q130.656 7.17874 129.218 5.72608L18.0959-105.411Q16.6425-106.901 14.5443-106.861Q12.4461-106.82 11.0369-105.411Q9.65039-104.024 9.66499-101.907Q9.67959-99.7902 11.0369-98.4038Z"/>
  </g>
  <g id="Semibold-L" transform="matrix(1 0 0 1 1969.97 1556)">
   <path d="M50.2346 3.65674L94.3836 3.65674Q94.9266 3.65674 95.1458 3.16382Q95.365 2.6709 95.0436 2.18931L95.0436-0.928654L85.5561-10.3765L85.5561-6.87871L56.7314-6.87871L56.7314-10.1932Q56.7314-15.4957 54.5263-20.3125Q52.3211-25.1294 49.1154-29.689Q45.9096-34.2486 42.6736-38.7816Q39.4376-43.3147 37.2435-47.9674Q35.0494-52.6202 35.0494-57.6012Q35.0494-58.8431 35.2084-59.9334Q35.3674-61.0236 35.6875-62.0027L24.6843-72.9839Q24.0768-70.6693 23.7456-68.1794Q23.4144-65.6894 23.4144-63.0647Q23.4144-54.5454 25.6925-48.1045Q27.9705-41.6635 31.3535-36.5622Q34.7364-31.4608 38.1076-27.1488Q41.4788-22.8369 43.7779-18.6757Q46.0769-14.5145 46.0769-9.81575L46.0769-0.543331Q46.0769 1.34033 47.2135 2.49853Q48.35 3.65674 50.2346 3.65674ZM73.3261-101.556Q85.0624-101.556 93.8674-96.7515Q102.672-91.9473 107.536-83.2944Q112.4-74.6415 112.4-63.0448Q112.4-56.5581 110.527-51.3289Q108.654-46.0997 105.792-41.6277Q102.929-37.1558 99.9633-33.0161L107.49-25.4911Q110.721-30.0857 114.372-35.3397Q118.023-40.5937 120.61-47.333Q123.196-54.0722 123.196-63.0647Q123.196-77.8059 116.952-88.8943Q110.708-99.9827 99.4673-106.176Q88.2269-112.37 73.3261-112.37Q61.4823-112.37 51.9082-108.391Q42.3342-104.413 35.7956-97.1639L43.6308-89.3871Q48.6989-95.1658 56.2653-98.3607Q63.8318-101.556 73.3261-101.556ZM73.3062 36.7209Q80.3015 36.7209 84.8681 33.733Q89.4347 30.7451 89.9159 25.9076L56.7364 25.9076Q57.1743 30.7451 61.7223 33.733Q66.2703 36.7209 73.3062 36.7209ZM51.9357 20.8726L94.6547 20.8726Q97.1966 20.8726 98.9702 19.0612Q100.744 17.2498 100.744 14.7822Q100.744 12.2541 98.9702 10.4519Q97.1966 8.64983 94.6547 8.64983L51.9357 8.64983Q49.4544 8.64983 47.6814 10.4519Q45.9084 12.2541 45.9084 14.7822Q45.9084 17.2498 47.6814 19.0612Q49.4544 20.8726 51.9357 20.8726ZM119.846 11.0926Q121.256 12.5032 123.187 12.4822Q125.118 12.4612 126.449 11.0926Q127.779 9.7438 127.789 7.81084Q127.798 5.87788 126.449 4.50925L17.6023-104.336Q16.2549-105.726 14.2718-105.696Q12.2887-105.666 10.9585-104.336Q9.65039-103.028 9.65968-101.035Q9.66896-99.0411 10.9585-97.733Z"/>
  </g>
  <g id="Medium-L" transform="matrix(1 0 0 1 1674.08 1556)">
   <path d="M49.783 3.09933L92.6663 3.09933Q93.2051 3.09933 93.4247 2.61283Q93.6444 2.12633 93.3525 1.62761L93.3525-2.11998L84.8062-10.618L84.8062-6.41404L55.6693-6.41404L55.6693-10.1574Q55.6693-15.3819 53.4731-20.1713Q51.2769-24.9606 48.0852-29.5255Q44.8936-34.0904 41.6738-38.6388Q38.454-43.1872 36.2686-47.8437Q34.0832-52.5003 34.0832-57.4513Q34.0832-58.9224 34.2765-60.2231Q34.4697-61.5237 34.8536-62.6859L24.7699-72.7481Q24.1626-70.5287 23.8351-68.1411Q23.5076-65.7534 23.5076-63.2294Q23.5076-54.7882 25.7846-48.3842Q28.0615-41.9802 31.4414-36.8901Q34.8213-31.8001 38.1836-27.4774Q41.5458-23.1548 43.8456-18.966Q46.1454-14.7772 46.1454-10.0432L46.1454-0.613876Q46.1454 1.06526 47.1327 2.08229Q48.1201 3.09933 49.783 3.09933ZM72.506-101.98Q84.2985-101.98 93.1586-97.1402Q102.019-92.3 106.908-83.5873Q111.798-74.8747 111.798-63.2053Q111.798-56.5284 109.861-51.1612Q107.924-45.7939 104.973-41.2127Q102.022-36.6314 98.9908-32.3907L105.7-25.6949Q108.917-30.3121 112.583-35.5708Q116.25-40.8295 118.855-47.5487Q121.459-54.2679 121.459-63.2294Q121.459-77.7263 115.343-88.6174Q109.227-99.5084 98.1886-105.58Q87.1501-111.652 72.506-111.652Q60.634-111.652 51.099-107.616Q41.5639-103.581 35.1355-96.2219L42.1646-89.2516Q47.2746-95.2925 55.0137-98.6365Q62.7527-101.98 72.506-101.98ZM72.4819 35.2991Q79.2258 35.2991 83.6261 32.4186Q88.0264 29.5381 88.4953 24.8752L56.5167 24.8752Q56.9262 29.5381 61.3161 32.4186Q65.7059 35.2991 72.4819 35.2991ZM51.7876 19.8213L93.1546 19.8213Q95.5811 19.8213 97.278 18.0965Q98.9749 16.3717 98.9749 13.9873Q98.9749 11.5465 97.278 9.82704Q95.5811 8.10753 93.1546 8.10753L51.7876 8.10753Q49.4173 8.10753 47.7272 9.82704Q46.0371 11.5465 46.0371 13.9873Q46.0371 16.3717 47.7272 18.0965Q49.4173 19.8213 51.7876 19.8213ZM118.053 9.85938Q119.403 11.21 121.235 11.1872Q123.066 11.1643 124.35 9.85938Q125.62 8.57862 125.625 6.73507Q125.63 4.89152 124.35 3.58661L17.2281-103.521Q15.961-104.834 14.0651-104.813Q12.1693-104.792 10.899-103.521Q9.65039-102.273 9.65565-100.373Q9.6609-98.473 10.899-97.2244Z"/>
  </g>
  <g id="Regular-L" transform="matrix(1 0 0 1 1378.44 1556)">
   <path d="M49.194 2.37227L90.4263 2.37227Q90.9595 2.37227 91.1799 1.89414Q91.4002 1.41602 91.1468 0.894969L91.1468-3.67388L83.8281-10.933L83.8281-5.80795L54.2839-5.80795L54.2839-10.1108Q54.2839-15.2334 52.0993-19.987Q49.9148-24.7406 46.7416-29.3123Q43.5683-33.8841 40.3698-38.4526Q37.1712-43.021 34.9971-47.6824Q32.8231-52.3439 32.8231-57.2558Q32.8231-59.0258 33.061-60.6009Q33.2989-62.176 33.7659-63.5771L24.8816-72.4405Q24.2747-70.3454 23.9519-68.0911Q23.6292-65.8368 23.6292-63.4443Q23.6292-55.1049 25.9046-48.749Q28.1801-42.3931 31.556-37.3179Q34.932-32.2426 38.2826-27.906Q41.6332-23.5694 43.934-19.3447Q46.2348-15.1199 46.2348-10.3399L46.2348-0.705891Q46.2348 0.706484 47.0274 1.53938Q47.8201 2.37227 49.194 2.37227ZM71.4363-102.535Q83.3021-102.535 92.2341-97.6473Q101.166-92.7599 106.089-83.9694Q111.013-75.1789 111.013-63.4146Q111.013-56.4897 108.992-50.9424Q106.971-45.3951 103.904-40.6712Q100.838-35.9474 97.7224-31.575L103.366-25.9607Q106.562-30.6074 110.25-35.8722Q113.938-41.137 116.565-47.8301Q119.193-54.5232 119.193-63.4443Q119.193-77.6225 113.244-88.2562Q107.296-98.8898 96.5209-104.802Q85.7456-110.715 71.4363-110.715Q59.5275-110.715 50.0434-106.606Q40.5593-102.497 34.2744-94.9932L40.2523-89.0748Q45.4167-95.4577 53.381-98.9962Q61.3453-102.535 71.4363-102.535ZM71.4066 33.4445Q77.8226 33.4445 82.0061 30.7042Q86.1896 27.9638 86.6424 23.5286L56.2303 23.5286Q56.6026 27.9638 60.7862 30.7042Q64.9697 33.4445 71.4066 33.4445ZM51.5944 18.45L91.1979 18.45Q93.4739 18.45 95.0708 16.8382Q96.6677 15.2265 96.6677 12.9504Q96.6677 10.6237 95.0708 9.01194Q93.4739 7.40019 91.1979 7.40019L51.5944 7.40019Q49.369 7.40019 47.787 9.01194Q46.205 10.6237 46.205 12.9504Q46.205 15.2265 47.787 16.8382Q49.369 18.45 51.5944 18.45ZM115.714 8.25088Q116.986 9.52336 118.688 9.49802Q120.389 9.47268 121.611 8.25088Q122.803 7.05882 122.803 5.33189Q122.803 3.60495 121.611 2.38316L16.7399-102.458Q15.5776-103.671 13.7956-103.661Q12.0136-103.651 10.8215-102.458Q9.65039-101.287 9.65039-99.5097Q9.65039-97.7321 10.8215-96.561Z"/>
  </g>
  <g id="Light-L" transform="matrix(1 0 0 1 1082.88 1556)">
   <path d="M48.8451 2.59801L89.7286 2.59801Q90.2413 2.59801 90.5026 2.15067Q90.764 1.70333 90.6132 1.10019L90.6132-6.17756L84.7927-11.8976L84.7927-3.73523L52.7858-3.73523L52.7858-8.51012Q52.7858-13.8379 50.5089-18.6531Q48.232-23.4682 44.8946-28.1426Q41.5572-32.817 38.2047-37.6522Q34.8522-42.4874 32.5653-47.785Q30.2783-53.0826 30.2783-59.1643Q30.2783-61.8784 30.6804-64.3462Q31.0825-66.814 31.8163-69.0154L25.292-75.5598Q24.3773-72.6849 23.8596-69.5687Q23.3419-66.4525 23.3419-63.0749Q23.3419-54.5303 25.6892-48.0616Q28.0364-41.5928 31.4945-36.456Q34.9525-31.3192 38.3955-26.9313Q41.8384-22.5433 44.2008-18.2057Q46.5631-13.8681 46.5631-8.84184L46.5631 0.114988Q46.5631 1.2811 47.1813 1.93955Q47.7996 2.59801 48.8451 2.59801ZM70.2871-103.335Q82.4607-103.335 91.6185-98.2937Q100.776-93.2524 105.823-84.1952Q110.869-75.1379 110.869-63.0247Q110.869-56.0382 108.868-50.4088Q106.868-44.7794 103.822-40.0145Q100.776-35.2497 97.6197-30.8567L102.053-26.4737Q105.29-30.9974 108.803-36.1493Q112.317-41.3012 114.759-47.8403Q117.202-54.3795 117.202-63.0749Q117.202-77.0479 111.367-87.5276Q105.531-98.0074 94.9509-103.838Q84.3707-109.668 70.2871-109.668Q58.7066-109.668 49.4483-105.693Q40.1899-101.717 34.0076-94.4186L38.6721-89.8547Q43.9597-96.2581 52.0368-99.7966Q60.114-103.335 70.2871-103.335ZM70.2369 32.1927Q76.5297 32.1927 80.6312 29.5036Q84.7326 26.8146 85.1648 22.482L55.4094 22.482Q55.7612 26.8146 59.8627 29.5036Q63.9641 32.1927 70.2369 32.1927ZM51.3481 17.506L89.1457 17.506Q91.2165 17.506 92.6389 16.0584Q94.0614 14.6108 94.0614 12.54Q94.0614 10.439 92.6389 8.99141Q91.2165 7.54384 89.1457 7.54384L51.3481 7.54384Q49.3075 7.54384 47.9102 8.99141Q46.5128 10.439 46.5128 12.54Q46.5128 14.6108 47.9102 16.0584Q49.3075 17.506 51.3481 17.506ZM117.704 7.59418Q118.69 8.57935 120.012 8.56427Q121.333 8.54919 122.288 7.59418Q123.193 6.68943 123.193 5.35241Q123.193 4.01539 122.288 3.06038L15.1392-104.039Q14.2847-104.923 12.8824-104.933Q11.48-104.943 10.5752-104.039Q9.65039-103.114 9.65039-101.747Q9.65039-100.379 10.5752-99.4546Z"/>
  </g>
  <g id="Thin-L" transform="matrix(1 0 0 1 787.68 1556)">
   <path d="M48.3837 2.89657L88.8058 2.89657Q89.2913 2.89657 89.6069 2.48994Q89.9226 2.08332 89.9075 1.37161L89.9075-9.48888L86.0683-13.1732L86.0683-0.993895L50.8044-0.993895L50.8044-6.39305Q50.8044-11.9923 48.4054-16.8888Q46.0064-21.7854 42.4518-26.5955Q38.8973-31.4056 35.3412-36.5937Q31.7852-41.7817 29.3489-47.9208Q26.9127-54.0598 26.9127-61.6885Q26.9127-65.6511 27.532-69.2996Q28.1512-72.9481 29.2378-76.208L25.8349-79.6854Q24.513-75.779 23.7375-71.5229Q22.9619-67.2667 22.9619-62.5864Q22.9619-53.7704 25.4042-47.1523Q27.8464-40.5343 31.413-35.316Q34.9796-30.0978 38.5448-25.642Q42.1099-21.1862 44.5536-16.6993Q46.9974-12.2124 46.9974-6.86048L46.9974 1.20067Q46.9974 2.04107 47.3849 2.46882Q47.7725 2.89657 48.3837 2.89657ZM68.7672-104.394Q81.3478-104.394 90.8042-99.1487Q100.261-93.9038 105.47-84.4937Q110.679-75.0836 110.679-62.509Q110.679-55.4411 108.706-49.7031Q106.732-43.9652 103.714-39.146Q100.695-34.3268 97.484-29.9068L100.316-27.1523Q103.607-31.5131 106.89-36.5157Q110.172-41.5183 112.371-47.8539Q114.569-54.1895 114.569-62.5864Q114.569-76.2879 108.883-86.5641Q103.197-96.8403 92.8746-102.562Q82.5522-108.284 68.7672-108.284Q57.6209-108.284 48.6611-104.485Q39.7013-100.685 33.6548-93.6586L36.5821-90.886Q42.0326-97.3166 50.259-100.855Q58.4855-104.394 68.7672-104.394ZM68.6898 30.537Q74.8198 30.537 78.8126 27.9158Q82.8055 25.2946 83.2106 21.0977L54.3237 21.0977Q54.6484 25.2946 58.6413 27.9158Q62.6341 30.537 68.6898 30.537ZM51.0224 16.2574L86.4315 16.2574Q88.2309 16.2574 89.4226 15.027Q90.6144 13.7966 90.6144 11.9971Q90.6144 10.1947 89.4226 8.96427Q88.2309 7.73383 86.4315 7.73383L51.0224 7.73383Q49.226 7.73383 48.073 8.96427Q46.92 10.1947 46.92 11.9971Q46.92 13.7966 48.073 15.027Q49.226 16.2574 51.0224 16.2574ZM120.337 6.72563Q120.942 7.33082 121.762 7.32931Q122.582 7.3278 123.184 6.72563Q123.709 6.20087 123.709 5.37955Q123.709 4.55823 123.184 3.95606L13.0221-106.129Q12.5748-106.579 11.6745-106.616Q10.7743-106.653 10.2495-106.129Q9.65039-105.529 9.65039-104.705Q9.65039-103.881 10.2495-103.282Z"/>
  </g>
  <g id="Ultralight-L" transform="matrix(1 0 0 1 491.744 1556)">
   <path d="M48.1473 3.04949L88.3331 3.04949Q88.8047 3.04949 89.1482 2.66372Q89.4916 2.27795 89.5461 1.51063L89.5461-11.1849L86.7217-13.8266L86.7217 0.410205L49.7896 0.410205L49.7896-5.30869Q49.7896-11.0469 47.328-15.9852Q44.8664-20.9235 41.2006-25.8031Q37.5349-30.6827 33.8746-36.0515Q30.2142-41.4203 27.7016-47.9903Q25.1889-54.5602 25.1889-62.9814Q25.1889-67.5835 25.9193-71.8367Q26.6498-76.0899 27.9171-79.8921L26.1129-81.7985Q24.5825-77.3639 23.6749-72.5238Q22.7673-67.6838 22.7673-62.3361Q22.7673-53.3811 25.2582-46.6866Q27.7491-39.9921 31.3713-34.7321Q34.9936-29.4722 38.6212-24.9817Q42.2489-20.4911 44.7343-15.9278Q47.2198-11.3644 47.2198-5.84564L47.2198 1.75674Q47.2198 2.43033 47.4892 2.73991Q47.7585 3.04949 48.1473 3.04949ZM67.9887-104.936Q80.7779-104.936 90.3871-99.5866Q99.9964-94.2375 105.289-84.6466Q110.582-75.0558 110.582-62.2448Q110.582-55.1352 108.622-49.3417Q106.663-43.5481 103.658-38.7011Q100.653-33.8542 97.4145-29.4202L99.4262-27.4998Q102.745-31.7772 105.91-36.7034Q109.074-41.6295 111.148-47.8609Q113.221-54.0922 113.221-62.3361Q113.221-75.8987 107.611-86.0706Q102.001-96.2425 91.8111-101.909Q81.6207-107.575 67.9887-107.575Q57.0649-107.575 48.258-103.866Q39.4511-100.157 33.474-93.2694L35.5117-91.4143Q41.0456-97.8588 49.3485-101.397Q57.6514-104.936 67.9887-104.936ZM67.8974 29.689Q73.944 29.689 77.8812 27.1026Q81.8185 24.5161 82.2097 20.3887L53.7676 20.3887Q54.0784 24.5161 58.0157 27.1026Q61.9529 29.689 67.8974 29.689ZM50.8556 15.6179L85.0413 15.6179Q86.7017 15.6179 87.7752 14.4987Q88.8488 13.3795 88.8488 11.7191Q88.8488 10.0696 87.7752 8.95037Q86.7017 7.83115 85.0413 7.83115L50.8556 7.83115Q49.1843 7.83115 48.1564 8.95037Q47.1285 10.0696 47.1285 11.7191Q47.1285 13.3795 48.1564 14.4987Q49.1843 15.6179 50.8556 15.6179ZM121.686 6.28077Q122.096 6.69133 122.659 6.69677Q123.221 6.70221 123.643 6.28077Q123.973 5.95064 123.973 5.39345Q123.973 4.83627 123.643 4.41483L11.9378-107.199Q11.6989-107.427 11.0559-107.478Q10.4129-107.529 10.0827-107.199Q9.65039-106.767 9.65039-106.22Q9.65039-105.674 10.0827-105.242Z"/>
  </g>
  <g id="Black-M" transform="matrix(1 0 0 1 2872.64 1126)">
   <path d="M41.193-2.07239L81.9846-2.07239Q82.421-2.07239 82.6021-2.47783Q82.7832-2.88327 82.4131-3.19357L82.4131-3.19506L70.5854-15.0234L70.5854-15.0215L49.0701-15.0215L49.0701-15.4773Q49.0701-20.069 47.2828-23.9672Q45.4956-27.8655 42.8813-31.4049Q40.2671-34.9443 37.6215-38.4657Q34.9759-41.987 33.1916-45.7883Q31.4073-49.5896 31.4073-54.0057Q31.4073-54.0748 31.4048-54.1084Q31.4024-54.1419 31.4037-54.2028L18.8099-66.7907Q18.2331-64.2275 17.8908-61.4631Q17.5485-58.6987 17.5485-55.796Q17.5485-48.7121 19.3439-43.4881Q21.1392-38.2641 23.8041-34.2308Q26.469-30.1976 29.1596-26.8962Q31.8503-23.5948 33.6484-20.4786Q35.4465-17.3625 35.4465-13.8252L35.4465-7.70348Q35.4465-5.2443 37.0584-3.65834Q38.6703-2.07239 41.193-2.07239ZM60.7629-84.6361Q69.6627-84.6361 76.2689-81.0533Q82.8751-77.4705 86.5492-70.9921Q90.2234-64.5138 90.2234-55.7963Q90.2234-51.7574 89.1196-48.4095Q88.0158-45.0616 86.2734-42.1623Q84.531-39.2629 82.5637-36.5839L92.3104-26.7798Q94.911-30.1773 97.5954-34.1847Q100.28-38.1921 102.126-43.467Q103.972-48.7418 103.972-55.796Q103.972-68.4413 98.4928-78.0252Q93.0137-87.6091 83.302-93.0254Q73.5902-98.4417 60.7629-98.4417Q51.8483-98.4417 44.3009-95.706Q36.7535-92.9702 31.1395-88.0084L41.0332-78.1712Q44.7801-81.2659 49.7657-82.951Q54.7513-84.6361 60.7629-84.6361ZM60.7632 27.621Q67.4728 27.621 71.8636 24.7544Q76.2544 21.8878 76.6856 17.2501L44.8403 17.2501Q45.3234 21.8878 49.6571 24.7544Q53.9908 27.621 60.7632 27.621ZM40.9376 13.4843L80.583 13.4843Q83.0937 13.4843 84.8148 11.6777Q86.5359 9.87114 86.5359 7.58887Q86.5359 5.24398 84.8148 3.46596Q83.0937 1.68794 80.583 1.68794L40.9376 1.68794Q38.4896 1.68794 36.7398 3.46596Q34.99 5.24398 34.99 7.58887Q34.99 9.87114 36.7398 11.6777Q38.4896 13.4843 40.9376 13.4843ZM103.028 6.96869Q104.341 8.28135 106.234 8.27859Q108.127 8.27584 109.32 6.96869Q110.57 5.66124 110.599 3.82268Q110.627 1.98411 109.32 0.676968L15.0754-93.6248Q13.7106-94.9951 11.841-94.9351Q9.97146-94.8751 8.7211-93.6248Q7.47656-92.3802 7.50511-90.4791Q7.53366-88.5779 8.7211-87.3334Z"/>
  </g>
  <g id="Heavy-M" transform="matrix(1 0 0 1 2577.06 1126)">
   <path d="M40.5129-3.05275L79.2635-3.05275Q79.6972-3.05275 79.8703-3.45407Q80.0434-3.85538 79.7005-4.17668L79.7005-4.64888L69.1246-15.2199L69.1246-14.6899L47.6162-14.6899L47.6162-15.7614Q47.6162-20.1785 45.8638-24.0176Q44.1113-27.8567 41.5559-31.3829Q39.0005-34.9091 36.4152-38.3989Q33.8298-41.8886 32.0843-45.5595Q30.3387-49.2304 30.3387-53.3451Q30.3387-53.5946 30.3583-53.7882Q30.3778-53.9817 30.4283-54.1768L18.8649-65.7264Q18.3547-63.4899 18.0604-61.0816Q17.7661-58.6734 17.7661-56.1508Q17.7661-49.2415 19.5441-44.1034Q21.3221-38.9654 23.9643-34.9643Q26.6065-30.9632 29.2623-27.6549Q31.9182-24.3467 33.7043-21.2087Q35.4905-18.0706 35.4905-14.5273L35.4905-7.99775Q35.4905-5.82758 36.8904-4.44017Q38.2902-3.05275 40.5129-3.05275ZM59.6388-85.1746Q68.5664-85.1746 75.2162-81.5644Q81.8661-77.9542 85.5568-71.4333Q89.2474-64.9125 89.2474-56.1483Q89.2474-51.8048 88.0319-48.2437Q86.8163-44.6827 84.9217-41.6094Q83.027-38.5361 80.9599-35.6927L89.6012-27.0102Q92.1669-30.4721 94.9155-34.5115Q97.6641-38.551 99.5797-43.8254Q101.495-49.0999 101.495-56.1508Q101.495-68.4317 96.2065-77.7187Q90.9177-87.0058 81.5016-92.2359Q72.0855-97.4661 59.6388-97.4661Q50.6065-97.4661 43.0758-94.6067Q35.5451-91.7473 30.0932-86.557L38.9216-77.7771Q42.7119-81.3057 47.9619-83.2402Q53.2119-85.1746 59.6388-85.1746ZM59.6364 25.5129Q65.9521 25.5129 70.0826 22.8149Q74.2131 20.1169 74.6281 15.749L44.6495 15.749Q45.0894 20.1169 49.1763 22.8149Q53.2632 25.5129 59.6364 25.5129ZM40.7429 11.9295L78.516 11.9295Q80.8779 11.9295 82.5082 10.2325Q84.1385 8.53551 84.1385 6.3481Q84.1385 4.10084 82.5082 2.42566Q80.8779 0.75048 78.516 0.75048L40.7429 0.75048Q38.4409 0.75048 36.79 2.42566Q35.1391 4.10084 35.1391 6.3481Q35.1391 8.53551 36.79 10.2325Q38.4409 11.9295 40.7429 11.9295ZM99.603 5.04815Q100.877 6.32232 102.685 6.3142Q104.494 6.30608 105.665 5.04815Q106.876 3.79266 106.898 2.01981Q106.92 0.24696 105.665-1.01097L14.7936-91.9231Q13.497-93.236 11.6917-93.1854Q9.8865-93.1349 8.67463-91.9231Q7.47656-90.725 7.49837-88.8923Q7.52018-87.0596 8.67463-85.8615Z"/>
  </g>
  <g id="Bold-M" transform="matrix(1 0 0 1 2281.61 1126)">
   <path d="M39.7522-4.14943L76.2196-4.14943Q76.6502-4.14943 76.8144-4.54613Q76.9786-4.94283 76.6662-5.27644L76.6662-6.27519L67.4905-15.4399L67.4905-14.319L45.9899-14.319L45.9899-16.0792Q45.9899-20.3009 44.2763-24.0739Q42.5628-27.8469 40.0732-31.3583Q37.5837-34.8698 35.0657-38.3242Q32.5477-41.7785 30.8456-45.3036Q29.1434-48.8287 29.1434-52.6061Q29.1434-53.0574 29.1876-53.43Q29.2317-53.8025 29.3372-54.1477L18.9264-64.5358Q18.4906-62.6648 18.25-60.6549Q18.0094-58.6451 18.0094-56.5476Q18.0094-49.8337 19.768-44.7918Q21.5267-39.7498 24.1435-35.7847Q26.7603-31.8196 29.3772-28.5037Q31.9942-25.1877 33.7669-22.0253Q35.5397-18.8628 35.5397-15.3127L35.5397-8.32694Q35.5397-6.48006 36.7024-5.31475Q37.8651-4.14943 39.7522-4.14943ZM58.3813-85.7769Q67.3399-85.7769 74.0387-82.1361Q80.7375-78.4953 84.4466-71.9269Q88.1557-65.3586 88.1557-56.5421Q88.1557-51.8577 86.8151-48.0583Q85.4745-44.2588 83.4096-40.991Q81.3447-37.7231 79.1659-34.6957L86.5706-27.268Q89.0972-30.8019 91.9176-34.8771Q94.738-38.9524 96.7315-44.2264Q98.7249-49.5004 98.7249-56.5476Q98.7249-68.4209 93.649-77.3759Q88.5731-86.3309 79.4877-91.3528Q70.4023-96.3747 58.3813-96.3747Q49.2173-96.3747 41.7054-93.377Q34.1935-90.3794 28.9227-84.9334L36.5594-77.3363Q40.3983-81.3503 45.9441-83.5636Q51.4899-85.7769 58.3813-85.7769ZM58.3758 23.1548Q64.251 23.1548 68.0903 20.6453Q71.9297 18.1359 72.3266 14.0697L44.436 14.0697Q44.8277 18.1359 48.6385 20.6453Q52.4493 23.1548 58.3758 23.1548ZM40.5252 10.1902L76.2037 10.1902Q78.3991 10.1902 79.928 8.61582Q81.4568 7.04142 81.4568 4.96013Q81.4568 2.82206 79.928 1.26193Q78.3991-0.298206 76.2037-0.298206L40.5252-0.298206Q38.3865-0.298206 36.8461 1.26193Q35.3058 2.82206 35.3058 4.96013Q35.3058 7.04142 36.8461 8.61582Q38.3865 10.1902 40.5252 10.1902ZM95.7712 2.89974Q97.0023 4.13086 98.716 4.11674Q100.43 4.10262 101.576 2.89974Q102.744 1.70239 102.759 0.0030465Q102.773-1.6963 101.576-2.89917L14.4784-90.0194Q13.258-91.2681 11.5247-91.2282Q9.79146-91.1883 8.62265-90.0194Q7.47656-88.8734 7.49084-87.1172Q7.50511-85.3611 8.62265-84.215Z"/>
  </g>
  <g id="Semibold-M" transform="matrix(1 0 0 1 1985.77 1126)">
   <path d="M39.2278-4.90547L74.1212-4.90547Q74.5497-4.90547 74.7077-5.29899Q74.8658-5.69251 74.5743-6.0346L74.5743-7.39636L66.3639-15.5915L66.3639-14.0633L44.8687-14.0633L44.8687-16.2983Q44.8687-20.3854 43.182-24.1128Q41.4953-27.8401 39.0511-31.3414Q36.6069-34.8427 34.1354-38.2726Q31.6639-41.7026 29.9916-45.1271Q28.3193-48.5517 28.3193-52.0967Q28.3193-52.6871 28.3805-53.183Q28.4416-53.679 28.5851-54.1276L18.9688-63.715Q18.5844-62.0959 18.3808-60.3607Q18.1772-58.6255 18.1772-56.8212Q18.1772-50.242 19.9224-45.2663Q21.6677-40.2906 24.267-36.3504Q26.8663-32.4101 29.4564-29.0888Q32.0465-25.7676 33.8101-22.5882Q35.5736-19.4089 35.5736-15.8542L35.5736-8.55387Q35.5736-6.92988 36.5728-5.91768Q37.572-4.90547 39.2278-4.90547ZM57.5144-86.1921Q66.4944-86.1921 73.2269-82.5302Q79.9594-78.8683 83.6812-72.2672Q87.403-65.6661 87.403-56.8135Q87.403-51.8942 85.9762-47.9304Q84.5494-43.9666 82.3671-40.5646Q80.1848-37.1626 77.9291-34.0084L84.4813-27.4457Q86.9809-31.0292 89.8509-35.1292Q92.7208-39.2292 94.768-44.5028Q96.8151-49.7765 96.8151-56.8212Q96.8151-68.4135 91.8859-77.1396Q86.9567-85.8656 78.0993-90.7439Q69.2418-95.6223 57.5144-95.6223Q48.2596-95.6223 40.7606-92.5293Q33.2616-89.4363 28.1157-83.8141L34.9309-77.0324Q38.8034-81.3811 44.553-83.7866Q50.3027-86.1921 57.5144-86.1921ZM57.5067 21.529Q63.0782 21.529 66.7169 19.1496Q70.3555 16.7702 70.7399 12.912L44.2889 12.912Q44.6472 16.7702 48.2677 19.1496Q51.8882 21.529 57.5067 21.529ZM40.375 8.9912L74.6096 8.9912Q76.6903 8.9912 78.1492 7.5013Q79.608 6.0114 79.608 4.00327Q79.608 1.94048 78.1492 0.459659Q76.6903-1.02116 74.6096-1.02116L40.375-1.02116Q38.3489-1.02116 36.8848 0.459659Q35.4207 1.94048 35.4207 4.00327Q35.4207 6.0114 36.8848 7.5013Q38.3489 8.9912 40.375 8.9912ZM93.1295 1.41865Q94.331 2.62008 95.9795 2.60182Q97.6281 2.58357 98.7567 1.41865Q99.8958 0.261368 99.9049-1.3873Q99.914-3.03597 98.7567-4.20089L14.261-88.7071Q13.0932-89.9114 11.4096-89.8788Q9.72594-89.8462 8.58682-88.7071Q7.47656-87.5968 7.48564-85.8935Q7.49472-84.1902 8.58682-83.0799Z"/>
  </g>
  <g id="Medium-M" transform="matrix(1 0 0 1 1689.72 1126)">
   <path d="M38.8301-5.47874L72.5301-5.47874Q72.957-5.47874 73.1103-5.86984Q73.2637-6.26095 72.9882-6.60947L72.9882-8.24647L65.5097-15.7064L65.5097-13.8694L44.0186-13.8694L44.0186-16.4645Q44.0186-20.4494 42.3522-24.1422Q40.6858-27.835 38.2761-31.3286Q35.8663-34.8221 33.43-38.2336Q30.9937-41.645 29.3441-44.9933Q27.6945-48.3416 27.6945-51.7104Q27.6945-52.4063 27.7685-52.9958Q27.8425-53.5853 28.0147-54.1124L19.001-63.0926Q18.6554-61.6646 18.4799-60.1377Q18.3044-58.6107 18.3044-57.0286Q18.3044-50.5515 20.0395-45.6261Q21.7747-40.7007 24.3607-36.7792Q26.9467-32.8578 29.5165-29.5325Q32.0863-26.2072 33.8428-23.0151Q35.5993-19.823 35.5993-16.2647L35.5993-8.72594Q35.5993-7.27095 36.4746-6.37484Q37.3498-5.47874 38.8301-5.47874ZM56.857-86.5069Q65.8533-86.5069 72.6113-82.829Q79.3694-79.1511 83.1009-72.5252Q86.8323-65.8993 86.8323-57.0194Q86.8323-51.9218 85.3402-47.8334Q83.848-43.745 81.5767-40.2413Q79.3054-36.7376 76.9913-33.4873L82.8971-27.5804Q85.3763-31.2016 88.2838-35.3203Q91.1913-39.439 93.2791-44.7125Q95.3669-49.9859 95.3669-57.0286Q95.3669-68.4079 90.549-76.9604Q85.7311-85.5128 77.0465-90.2823Q68.362-95.0518 56.857-95.0518Q47.5334-95.0518 40.0442-91.8865Q32.5551-88.7212 27.5039-82.9654L33.6962-76.8019Q37.594-81.4044 43.4983-83.9556Q49.4026-86.5069 56.857-86.5069ZM56.8478 20.2964Q62.189 20.2964 65.6755 18.0155Q69.1619 15.7346 69.5368 12.0342L44.1773 12.0342Q44.5104 15.7346 47.9865 18.0155Q51.4627 20.2964 56.8478 20.2964ZM40.2612 8.08204L73.4008 8.08204Q75.3946 8.08204 76.8004 6.65622Q78.2062 5.23039 78.2062 3.27774Q78.2062 1.27203 76.8004-0.148655Q75.3946-1.56934 73.4008-1.56934L40.2612-1.56934Q38.3205-1.56934 36.9142-0.148655Q35.5079 1.27203 35.5079 3.27774Q35.5079 5.23039 36.9142 6.65622Q38.3205 8.08204 40.2612 8.08204ZM91.1266 0.295619Q92.3055 1.47454 93.9046 1.45315Q95.5037 1.43176 96.6193 0.295619Q97.7359-0.831275 97.7411-2.44152Q97.7462-4.05176 96.6193-5.1879L14.0962-87.712Q12.9683-88.8827 11.3223-88.8557Q9.67627-88.8287 8.55965-87.712Q7.47656-86.6289 7.4817-84.9656Q7.48684-83.3023 8.55965-82.2193Z"/>
  </g>
  <g id="Regular-M" transform="matrix(1 0 0 1 1393.87 1126)">
   <path d="M38.3114-6.22647L70.4547-6.22647Q70.8795-6.22647 71.0268-6.61443Q71.1741-7.0024 70.9193-7.3593L70.9193-9.35532L64.3955-15.8564L64.3955-13.6165L42.9097-13.6165L42.9097-16.6812Q42.9097-20.5329 41.2699-24.1806Q39.63-27.8283 37.2652-31.3118Q34.9003-34.7953 32.5099-38.1826Q30.1195-41.57 28.4995-44.8188Q26.8795-48.0677 26.8795-51.2066Q26.8795-52.04 26.9703-52.7516Q27.061-53.4632 27.2708-54.0925L19.0429-62.2808Q18.7481-61.1021 18.6092-59.8467Q18.4703-58.5914 18.4703-57.2992Q18.4703-50.9553 20.1922-46.0954Q21.9141-41.2356 24.4829-37.3386Q27.0516-33.4417 29.5948-30.1112Q32.1381-26.7807 33.8855-23.5719Q35.6329-20.3631 35.6329-16.8002L35.6329-8.95039Q35.6329-7.71583 36.3464-6.97115Q37.0599-6.22647 38.3114-6.22647ZM55.9996-86.9176Q65.0171-86.9176 71.8085-83.2188Q78.5999-79.52 82.3439-72.8617Q86.088-66.2034 86.088-57.2879Q86.088-51.9579 84.5105-47.707Q82.9331-43.456 80.5457-39.8197Q78.1583-36.1833 75.7681-32.8075L80.8307-27.7562Q83.2833-31.4264 86.2398-35.5696Q89.1963-39.7127 91.3372-44.9858Q93.478-50.259 93.478-57.2992Q93.478-68.4006 88.8053-76.7266Q84.1325-85.0527 75.6734-89.6802Q67.2143-94.3076 55.9996-94.3076Q46.5862-94.3076 39.1099-91.0481Q31.6335-87.7885 26.7058-81.8584L32.0856-76.5013Q36.0166-81.4348 42.1225-84.1762Q48.2285-86.9176 55.9996-86.9176ZM55.9883 18.6885Q61.0292 18.6885 64.3171 16.5362Q67.605 14.3839 67.9675 10.8893L44.0317 10.8893Q44.3319 14.3839 47.6198 16.5362Q50.9078 18.6885 55.9883 18.6885ZM40.1127 6.89618L71.8243 6.89618Q73.7046 6.89618 75.0411 5.55394Q76.3777 4.21169 76.3777 2.33139Q76.3777 0.400138 75.0411-0.942107Q73.7046-2.28435 71.8243-2.28435L40.1127-2.28435Q38.2833-2.28435 36.9524-0.942107Q35.6215 0.400138 35.6215 2.33139Q35.6215 4.21169 36.9524 5.55394Q38.2833 6.89618 40.1127 6.89618ZM88.514-1.1692Q89.6635-0.0196373 91.1982-0.045117Q92.7328-0.0705967 93.8314-1.1692Q94.9187-2.25646 94.9187-3.81658Q94.9187-5.37671 93.8314-6.47531L13.8813-86.4141Q12.8054-87.541 11.2084-87.5212Q9.61147-87.5014 8.52421-86.4141Q7.47656-85.3665 7.47656-83.7554Q7.47656-82.1443 8.52421-81.0967Z"/>
  </g>
  <g id="Light-M" transform="matrix(1 0 0 1 1098.19 1126)">
   <path d="M37.9986-6.02408L69.8291-6.02408Q70.2355-6.02408 70.4196-6.38445Q70.6037-6.74481 70.4409-7.17531L70.4409-11.6L65.2603-16.7211L65.2603-11.7582L41.5666-11.7582L41.5666-15.2461Q41.5666-19.2818 39.8439-22.9847Q38.1213-26.6876 35.6092-30.2631Q33.0972-33.8386 30.5688-37.4651Q28.0405-41.0916 26.3192-44.9108Q24.598-48.7301 24.598-52.9177Q24.598-54.5974 24.836-56.1094Q25.0739-57.6213 25.5229-58.9683L19.4109-65.0775Q18.8401-63.1995 18.5264-61.1715Q18.2127-59.1434 18.2127-56.968Q18.2127-50.4401 19.999-45.4791Q21.7853-40.518 24.4277-36.5659Q27.07-32.6138 29.696-29.2372Q32.3221-25.8607 34.1247-22.5508Q35.9273-19.2408 35.9273-15.4571L35.9273-8.21443Q35.9273-7.20066 36.4844-6.61237Q37.0415-6.02408 37.9986-6.02408ZM54.9693-87.6351Q64.2627-87.6351 71.2565-83.7984Q78.2503-79.9616 82.1047-73.0641Q85.9592-66.1666 85.9592-56.9383Q85.9592-51.5531 84.4001-47.2286Q82.8411-42.9041 80.4721-39.2309Q78.1031-35.5577 75.6761-32.1635L79.6532-28.2162Q82.1426-31.776 84.9427-35.818Q87.7428-39.8599 89.718-44.995Q91.6933-50.1302 91.6933-56.968Q91.6933-67.8854 87.1218-76.0735Q82.5502-84.2615 74.2659-88.8154Q65.9815-93.3693 54.9693-93.3693Q45.8503-93.3693 38.5763-90.2293Q31.3023-87.0893 26.4666-81.3432L30.6689-77.2005Q34.7102-82.1523 40.9174-84.8937Q47.1245-87.6351 54.9693-87.6351ZM54.9395 17.5662Q59.8701 17.5662 63.0844 15.4599Q66.2987 13.3536 66.6428 9.95091L43.2958 9.95091Q43.5776 13.3536 46.7919 15.4599Q50.0062 17.5662 54.9395 17.5662ZM39.8919 6.04983L69.9844 6.04983Q71.6807 6.04983 72.8608 4.85478Q74.041 3.65972 74.041 1.96341Q74.041 0.234547 72.8608-0.960506Q71.6807-2.15556 69.9844-2.15556L39.8919-2.15556Q38.2281-2.15556 37.0628-0.960506Q35.8975 0.234547 35.8975 1.96341Q35.8975 3.65972 37.0628 4.85478Q38.2281 6.04983 39.8919 6.04983ZM90.2987-1.75797Q91.1907-0.865991 92.3849-0.882272Q93.5792-0.898552 94.4386-1.75797Q95.2683-2.58764 95.2683-3.79819Q95.2683-5.00873 94.4386-5.86815L12.4462-87.8308Q11.6462-88.6633 10.3897-88.6619Q9.13309-88.6605 8.30342-87.8308Q7.47656-87.004 7.47656-85.7609Q7.47656-84.5178 8.30342-83.6909Z"/>
  </g>
  <g id="Thin-M" transform="matrix(1 0 0 1 802.836 1126)">
   <path d="M37.585-5.75641L69.0018-5.75641Q69.3838-5.75641 69.6166-6.08027Q69.8493-6.40413 69.8082-6.93197L69.8082-14.5688L66.404-17.8648L66.404-9.30048L39.7902-9.30048L39.7902-13.348Q39.7902-17.6271 37.958-21.403Q36.1259-25.1789 33.4192-28.876Q30.7124-32.5732 28.0016-36.516Q25.2907-40.4589 23.4356-45.0325Q21.5806-49.6061 21.5806-55.1808Q21.5806-57.9799 22.0132-60.5504Q22.4459-63.1209 23.2112-65.4168L19.8976-68.7763Q18.9618-65.9736 18.4169-62.9235Q17.872-59.8734 17.872-56.53Q17.872-49.7588 19.7435-44.6639Q21.615-39.569 24.3547-35.5438Q27.0943-31.5187 29.8299-28.0814Q32.5654-24.644 34.441-21.2002Q36.3166-17.7564 36.3166-13.6807L36.3166-7.24106Q36.3166-6.5193 36.6669-6.13785Q37.0172-5.75641 37.585-5.75641ZM53.6066-88.5842Q63.265-88.5842 70.5265-84.5649Q77.7879-80.5456 81.7884-73.3318Q85.7888-66.1179 85.7888-56.4759Q85.7888-51.0178 84.2541-46.5959Q82.7195-42.174 80.3748-38.4522Q78.0301-34.7304 75.5544-31.3118L78.0958-28.8245Q80.6339-32.2383 83.2271-36.1465Q85.8204-40.0546 87.5766-45.0072Q89.3329-49.9598 89.3329-56.53Q89.3329-67.2041 84.8952-75.2096Q80.4575-83.2152 72.4043-87.6717Q64.3512-92.1282 53.6066-92.1282Q44.8769-92.1282 37.8706-89.1464Q30.8643-86.1646 26.1503-80.6619L28.7951-78.1252Q32.9825-83.1013 39.3235-85.8428Q45.6645-88.5842 53.6066-88.5842ZM53.5525 16.0818Q58.337 16.0818 61.454 14.0363Q64.571 11.9908 64.8907 8.70987L42.3224 8.70987Q42.5799 11.9908 45.6968 14.0363Q48.8138 16.0818 53.5525 16.0818ZM39.5999 4.93046L67.5509 4.93046Q69.0039 4.93046 69.9772 3.93008Q70.9506 2.9297 70.9506 1.47673Q70.9506 0.0155399 69.9772-0.98484Q69.0039-1.98522 67.5509-1.98522L39.5999-1.98522Q38.1551-1.98522 37.2088-0.98484Q36.2625 0.0155399 36.2625 1.47673Q36.2625 2.9297 37.2088 3.93008Q38.1551 4.93046 39.5999 4.93046ZM92.6591-2.53666Q93.2104-1.98536 93.9545-1.98948Q94.6985-1.99359 95.2416-2.53666Q95.7306-3.02566 95.7306-3.77385Q95.7306-4.52204 95.2416-5.06512L10.5481-89.7046Q10.1132-90.1477 9.30679-90.1706Q8.50041-90.1936 8.01141-89.7046Q7.47656-89.1697 7.47656-88.4133Q7.47656-87.6569 8.01141-87.122Z"/>
  </g>
  <g id="Ultralight-M" transform="matrix(1 0 0 1 506.82 1126)">
   <path d="M37.3731-5.6193L68.578-5.6193Q68.9476-5.6193 69.2053-5.92447Q69.463-6.22964 69.4842-6.80733L69.4842-16.0894L66.9898-18.4506L66.9898-8.04163L38.8803-8.04163L38.8803-12.3758Q38.8803-16.7795 36.9921-20.5928Q35.1039-24.4061 32.2974-28.1656Q29.491-31.9251 26.6866-36.0299Q23.8823-40.1348 21.9587-45.0948Q20.0351-50.0548 20.0351-56.3399Q20.0351-59.7124 20.5674-62.825Q21.0998-65.9377 22.0271-68.7197L20.1469-70.6708Q19.0241-67.3945 18.3608-63.8209Q17.6975-60.2473 17.6975-56.3057Q17.6975-49.4098 19.6126-44.2463Q21.5278-39.0829 24.3173-35.0204Q27.1068-30.9578 29.8984-27.4893Q32.69-24.0208 34.603-20.5085Q36.516-16.9961 36.516-12.7708L36.516-6.74251Q36.516-6.17031 36.7604-5.89481Q37.0047-5.6193 37.3731-5.6193ZM52.9086-89.0702Q62.754-89.0702 70.1526-84.9575Q77.5511-80.8448 81.6264-73.4689Q85.7016-66.093 85.7016-56.2391Q85.7016-50.7436 84.1794-46.2719Q82.6571-41.8001 80.3249-38.0534Q77.9928-34.3066 75.4921-30.8756L77.2981-29.1361Q79.8611-32.4751 82.3484-36.3147Q84.8357-40.1543 86.4798-45.0134Q88.1239-49.8726 88.1239-56.3057Q88.1239-66.8551 83.7547-74.7671Q79.3856-82.6792 71.4508-87.0859Q63.5161-91.4926 52.9086-91.4926Q44.3783-91.4926 37.5091-88.5918Q30.6399-85.691 25.9883-80.3129L27.8354-78.5988Q32.0976-83.5874 38.5071-86.3288Q44.9166-89.0702 52.9086-89.0702ZM52.842 15.3215Q57.5518 15.3215 60.6189 13.3072Q63.686 11.2929 63.9933 8.07421L41.8239 8.07421Q42.0688 11.2929 45.136 13.3072Q48.2031 15.3215 52.842 15.3215ZM39.4503 4.35712L66.3046 4.35712Q67.6329 4.35712 68.5003 3.45645Q69.3677 2.55578 69.3677 1.22745Q69.3677-0.0966346 68.5003-0.997304Q67.6329-1.89797 66.3046-1.89797L39.4503-1.89797Q38.1178-1.89797 37.2836-0.997304Q36.4495-0.0966346 36.4495 1.22745Q36.4495 2.55578 37.2836 3.45645Q38.1178 4.35712 39.4503 4.35712ZM93.8681-2.93551Q94.2449-2.5587 94.7584-2.55658Q95.2719-2.55446 95.6529-2.93551Q95.9674-3.25001 95.9674-3.76139Q95.9674-4.27277 95.6529-4.65381L9.57591-90.6643Q9.32795-90.908 8.75215-90.9434Q8.17635-90.9788 7.86184-90.6643Q7.47656-90.279 7.47656-89.7719Q7.47656-89.2647 7.86184-88.8794Z"/>
  </g>
  <g id="Black-S" transform="matrix(1 0 0 1 2885.5 696)">
   <path d="M32.4707-8.93555L65.0391-8.93555Q65.3809-8.93555 65.5273-9.25293Q65.6738-9.57031 65.3809-9.81445L65.3809-9.81445L55.8105-19.3848L55.8105-19.3848L38.8184-19.3848L38.8184-19.5801Q38.8184-23.2422 37.4023-26.3184Q35.9863-29.3945 33.9111-32.1777Q31.8359-34.9609 29.7363-37.7441Q27.6367-40.5273 26.2207-43.5791Q24.8047-46.6309 24.8047-50.2441Q24.8047-50.293 24.8047-50.3174Q24.8047-50.3418 24.8047-50.3906L14.7461-60.4492Q14.2578-58.3008 13.9648-55.9814Q13.6719-53.6621 13.6719-51.2207Q13.6719-45.6055 15.0879-41.4795Q16.5039-37.3535 18.6035-34.1797Q20.7031-31.0059 22.8271-28.418Q24.9512-25.8301 26.3672-23.3887Q27.7832-20.9473 27.7832-18.1641L27.7832-13.5254Q27.7832-11.5234 29.1016-10.2295Q30.4199-8.93555 32.4707-8.93555ZM47.9004-73.8281Q54.8828-73.8281 60.0586-71.0205Q65.2344-68.2129 68.1152-63.1348Q70.9961-58.0566 70.9961-51.2207Q70.9961-48.1445 70.166-45.5811Q69.3359-43.0176 68.0176-40.7959Q66.6992-38.5742 65.1855-36.5234L73.0957-28.5645Q75.1465-31.2012 77.2217-34.3262Q79.2969-37.4512 80.7129-41.5771Q82.1289-45.7031 82.1289-51.2207Q82.1289-61.2305 77.7832-68.8232Q73.4375-76.416 65.7471-80.7129Q58.0566-85.0098 47.9004-85.0098Q40.9668-85.0098 35.0586-82.9102Q29.1504-80.8105 24.707-77.002L32.7148-69.043Q35.6445-71.3379 39.4775-72.583Q43.3105-73.8281 47.9004-73.8281ZM47.9004 14.5996Q53.2715 14.5996 56.7871 12.3047Q60.3027 10.0098 60.6445 6.29883L35.1562 6.29883Q35.5469 10.0098 39.0137 12.3047Q42.4805 14.5996 47.9004 14.5996ZM32.1289 3.36914L63.6719 3.36914Q65.6738 3.36914 67.041 1.92871Q68.4082 0.488281 68.4082-1.31836Q68.4082-3.17383 67.041-4.58984Q65.6738-6.00586 63.6719-6.00586L32.1289-6.00586Q30.1758-6.00586 28.7842-4.58984Q27.3926-3.17383 27.3926-1.31836Q27.3926 0.488281 28.7842 1.92871Q30.1758 3.36914 32.1289 3.36914ZM81.8848-1.61133Q82.9102-0.585938 84.3994-0.585938Q85.8887-0.585938 86.8164-1.61133Q87.793-2.63672 87.8174-4.07715Q87.8418-5.51758 86.8164-6.54297L11.8164-81.5918Q10.7422-82.666 9.27734-82.6172Q7.8125-82.5684 6.83594-81.5918Q5.85938-80.6152 5.88379-79.126Q5.9082-77.6367 6.83594-76.6602Z"/>
  </g>
  <g id="Heavy-S" transform="matrix(1 0 0 1 2589.62 696)">
   <path d="M31.9291-9.79988L62.7918-9.79988Q63.1336-9.79988 63.2685-10.1173Q63.4035-10.4346 63.1221-10.6788L63.1221-10.771L54.4507-19.4424L54.4507-19.3387L37.7466-19.3387L37.7466-20.0065Q37.7466-23.4957 36.3709-26.5143Q34.9952-29.5328 32.9892-32.293Q30.9831-35.0531 28.9527-37.7787Q26.9222-40.5043 25.5523-43.3717Q24.1824-46.239 24.1824-49.4605Q24.1824-49.5554 24.1824-49.6144Q24.1824-49.6734 24.1939-49.7453L14.7461-59.1815Q14.35-57.4019 14.1204-55.4859Q13.8908-53.5699 13.8908-51.5664Q13.8908-46.1241 15.2838-42.0845Q16.6768-38.045 18.7476-34.9057Q20.8184-31.7665 22.9021-29.1786Q24.9857-26.5907 26.3845-24.1435Q27.7832-21.6964 27.7832-18.9362L27.7832-13.8711Q27.7832-12.0881 28.9402-10.944Q30.0972-9.79988 31.9291-9.79988ZM47.0706-74.1969Q54.0415-74.1969 59.2288-71.3835Q64.4161-68.5701 67.297-63.4863Q70.1779-58.4024 70.1779-51.5664Q70.1779-48.2367 69.2498-45.5004Q68.3218-42.764 66.8709-40.3983Q65.42-38.0326 63.8257-35.8435L70.9291-28.7027Q72.9453-31.4086 75.0954-34.5739Q77.2455-37.7393 78.7422-41.8825Q80.2389-46.0258 80.2389-51.5664Q80.2389-61.2881 76.043-68.6446Q71.8471-76.0011 64.3872-80.1482Q56.9272-84.2952 47.0706-84.2952Q39.9987-84.2952 34.079-82.0746Q28.1593-79.854 23.8427-75.8265L31.0899-68.6166Q34.0426-71.2803 38.0888-72.7386Q42.1351-74.1969 47.0706-74.1969ZM47.0706 12.9401Q52.119 12.9401 55.4215 10.7835Q58.7239 8.62683 59.0542 5.13486L35.0871 5.13486Q35.4432 8.62683 38.7083 10.7835Q41.9734 12.9401 47.0706 12.9401ZM31.9906 2.14755L62.1391 2.14755Q64.0374 2.14755 65.3469 0.782027Q66.6565-0.583494 66.6565-2.33251Q66.6565-4.13036 65.3469-5.47723Q64.0374-6.8241 62.1391-6.8241L31.9906-6.8241Q30.1412-6.8241 28.813-5.47723Q27.4848-4.13036 27.4848-2.33251Q27.4848-0.583494 28.813 0.782027Q30.1412 2.14755 31.9906 2.14755ZM78.7271-3.17866Q79.7525-2.15326 81.2129-2.15903Q82.6733-2.16479 83.6126-3.17866Q84.5892-4.19252 84.6078-5.62143Q84.6265-7.05033 83.6126-8.0642L11.7588-79.9553Q10.7076-81.018 9.25429-80.975Q7.80098-80.9319 6.82441-79.9553Q5.85938-78.9903 5.87803-77.5126Q5.89668-76.0348 6.82441-75.0698Z"/>
  </g>
  <g id="Bold-S" transform="matrix(1 0 0 1 2293.85 696)">
   <path d="M31.3232-10.7666L60.2783-10.7666Q60.6201-10.7666 60.7422-11.084Q60.8643-11.4014 60.5957-11.6455L60.5957-11.8408L52.9297-19.5068L52.9297-19.2871L36.5479-19.2871L36.5479-20.4834Q36.5479-23.7793 35.2173-26.7334Q33.8867-29.6875 31.958-32.4219Q30.0293-35.1562 28.0762-37.8174Q26.123-40.4785 24.8047-43.1396Q23.4863-45.8008 23.4863-48.584Q23.4863-48.7305 23.4863-48.8281Q23.4863-48.9258 23.5107-49.0234L14.7461-57.7637Q14.4531-56.3965 14.2944-54.9316Q14.1357-53.4668 14.1357-51.9531Q14.1357-46.7041 15.5029-42.7612Q16.8701-38.8184 18.9087-35.7178Q20.9473-32.6172 22.9858-30.0293Q25.0244-27.4414 26.4038-24.9878Q27.7832-22.5342 27.7832-19.7998L27.7832-14.2578Q27.7832-12.7197 28.7598-11.7432Q29.7363-10.7666 31.3232-10.7666ZM46.1426-74.6094Q53.1006-74.6094 58.3008-71.7896Q63.501-68.9697 66.3818-63.8794Q69.2627-58.7891 69.2627-51.9531Q69.2627-48.3398 68.2251-45.4102Q67.1875-42.4805 65.5884-39.9536Q63.9893-37.4268 62.3047-35.083L68.5059-28.8574Q70.4834-31.6406 72.7173-34.8511Q74.9512-38.0615 76.5381-42.2241Q78.125-46.3867 78.125-51.9531Q78.125-61.3525 74.0967-68.4448Q70.0684-75.5371 62.8662-79.5166Q55.6641-83.4961 46.1426-83.4961Q38.916-83.4961 32.9834-81.1401Q27.0508-78.7842 22.876-74.5117L29.2725-68.1396Q32.251-71.2158 36.5356-72.9126Q40.8203-74.6094 46.1426-74.6094ZM46.1426 11.084Q50.8301 11.084 53.894 9.08203Q56.958 7.08008 57.2754 3.83301L35.0098 3.83301Q35.3271 7.08008 38.3667 9.08203Q41.4062 11.084 46.1426 11.084ZM31.8359 0.78125L60.4248 0.78125Q62.207 0.78125 63.4521-0.500488Q64.6973-1.78223 64.6973-3.4668Q64.6973-5.2002 63.4521-6.46973Q62.207-7.73926 60.4248-7.73926L31.8359-7.73926Q30.1025-7.73926 28.8452-6.46973Q27.5879-5.2002 27.5879-3.4668Q27.5879-1.78223 28.8452-0.500488Q30.1025 0.78125 31.8359 0.78125ZM75.1953-4.93164Q76.2207-3.90625 77.6489-3.91846Q79.0771-3.93066 80.0293-4.93164Q81.0059-5.93262 81.0181-7.34863Q81.0303-8.76465 80.0293-9.76562L11.6943-78.125Q10.6689-79.1748 9.22852-79.1382Q7.78809-79.1016 6.81152-78.125Q5.85938-77.1729 5.87158-75.708Q5.88379-74.2432 6.81152-73.291Z"/>
  </g>
  <g id="Semibold-S" transform="matrix(1 0 0 1 1997.78 696)">
   <path d="M30.9056-11.4331L58.5454-11.4331Q58.8872-11.4331 59.0004-11.7505Q59.1136-12.0679 58.8539-12.312L58.8539-12.5784L51.8811-19.5513L51.8811-19.2516L35.7214-19.2516L35.7214-20.8122Q35.7214-23.9748 34.4219-26.8845Q33.1225-29.7941 31.2471-32.5107Q29.3717-35.2273 27.4719-37.844Q25.5721-40.4607 24.2893-42.9797Q23.0064-45.4986 23.0064-47.9797Q23.0064-48.1617 23.0064-48.286Q23.0064-48.4104 23.0397-48.5258L14.7461-56.7861Q14.5242-55.7033 14.4144-54.5495Q14.3046-53.3957 14.3046-52.2197Q14.3046-47.104 15.654-43.2278Q17.0034-39.3516 19.0198-36.2776Q21.0361-33.2037 23.0436-30.6158Q25.0511-28.0279 26.4171-25.5699Q27.7832-23.1118 27.7832-20.3952L27.7832-14.5244Q27.7832-13.1552 28.6354-12.2941Q29.4875-11.4331 30.9056-11.4331ZM45.5027-74.8937Q52.4519-74.8937 57.6609-72.0695Q62.87-69.2452 65.7509-64.1504Q68.6317-59.0557 68.6317-52.2197Q68.6317-48.4109 67.5186-45.3479Q66.4055-42.285 64.7042-39.647Q63.0028-37.0091 61.2561-34.5587L66.8352-28.9641Q68.786-31.8006 71.0777-35.0421Q73.3693-38.2837 75.0185-42.4596Q76.6676-46.6355 76.6676-52.2197Q76.6676-61.397 72.7548-68.3071Q68.842-75.2172 61.8176-79.0812Q54.7932-82.9451 45.5027-82.9451Q38.1695-82.9451 32.228-80.4958Q26.2865-78.0466 22.2095-73.6053L28.0194-67.8108Q31.0157-71.1714 35.4648-73.0326Q39.9139-74.8937 45.5027-74.8937ZM45.5027 9.8043Q49.9414 9.8043 52.841 7.90898Q55.7405 6.01367 56.049 2.93545L34.9564 2.93545Q35.2472 6.01367 38.1312 7.90898Q41.0152 9.8043 45.5027 9.8043ZM31.7293-0.160742L59.2429-0.160742Q60.9451-0.160742 62.1458-1.38472Q63.3465-2.60869 63.3465-4.24883Q63.3465-5.93779 62.1458-7.154Q60.9451-8.37021 59.2429-8.37021L31.7293-8.37021Q30.0759-8.37021 28.8674-7.154Q27.659-5.93779 27.659-4.24883Q27.659-2.60869 28.8674-1.38472Q30.0759-0.160742 31.7293-0.160742ZM72.7604-6.14023Q73.7857-5.11484 75.1917-5.13149Q76.5978-5.14814 77.5588-6.14023Q78.5354-7.13232 78.5431-8.53945Q78.5509-9.94658 77.5588-10.9387L11.6499-76.8631Q10.6423-77.904 9.21074-77.8718Q7.7792-77.8396 6.80264-76.8631Q5.85938-75.9198 5.86714-74.4639Q5.8749-73.0079 6.80264-72.0646Z"/>
  </g>
  <g id="Medium-S" transform="matrix(1 0 0 1 1701.56 696)">
   <path d="M30.5889-11.9385L57.2314-11.9385Q57.5732-11.9385 57.6797-12.2559Q57.7861-12.5732 57.5332-12.8174L57.5332-13.1377L51.0859-19.585L51.0859-19.2246L35.0947-19.2246L35.0947-21.0615Q35.0947-24.123 33.8188-26.999Q32.543-29.875 30.708-32.5781Q28.873-35.2812 27.0137-37.8643Q25.1543-40.4473 23.8984-42.8584Q22.6426-45.2695 22.6426-47.5215Q22.6426-47.7305 22.6426-47.875Q22.6426-48.0195 22.6826-48.1484L14.7461-56.0449Q14.5781-55.1777 14.5054-54.2598Q14.4326-53.3418 14.4326-52.4219Q14.4326-47.4072 15.7686-43.5815Q17.1045-39.7559 19.104-36.7021Q21.1035-33.6484 23.0874-31.0605Q25.0713-28.4727 26.4272-26.0112Q27.7832-23.5498 27.7832-20.8467L27.7832-14.7266Q27.7832-13.4854 28.541-12.7119Q29.2988-11.9385 30.5889-11.9385ZM45.0176-75.1094Q51.96-75.1094 57.1758-72.2817Q62.3916-69.4541 65.2725-64.356Q68.1533-59.2578 68.1533-52.4219Q68.1533-48.4648 66.9829-45.3008Q65.8125-42.1367 64.0337-39.4146Q62.2549-36.6924 60.4609-34.1611L65.5684-29.0449Q67.499-31.9219 69.8345-35.187Q72.1699-38.4521 73.8662-42.6382Q75.5625-46.8242 75.5625-52.4219Q75.5625-61.4307 71.7373-68.2026Q67.9121-74.9746 61.0225-78.751Q54.1328-82.5273 45.0176-82.5273Q37.6035-82.5273 31.6553-80.0073Q25.707-77.4873 21.7041-72.918L27.0693-67.5615Q30.0791-71.1377 34.6528-73.1235Q39.2266-75.1094 45.0176-75.1094ZM45.0176 8.83398Q49.2676 8.83398 52.0425 7.01953Q54.8174 5.20508 55.1191 2.25488L34.916 2.25488Q35.1865 5.20508 37.9526 7.01953Q40.7188 8.83398 45.0176 8.83398ZM31.6484-0.875L58.3467-0.875Q59.9883-0.875 61.1553-2.05518Q62.3223-3.23535 62.3223-4.8418Q62.3223-6.49707 61.1553-7.67285Q59.9883-8.84863 58.3467-8.84863L31.6484-8.84863Q30.0557-8.84863 28.8843-7.67285Q27.7129-6.49707 27.7129-4.8418Q27.7129-3.23535 28.8843-2.05518Q30.0557-0.875 31.6484-0.875ZM70.9141-7.05664Q71.9395-6.03125 73.3286-6.05127Q74.7178-6.07129 75.6855-7.05664Q76.6621-8.04199 76.6665-9.44238Q76.6709-10.8428 75.6855-11.8281L11.6162-75.9062Q10.6221-76.9404 9.19727-76.9116Q7.77246-76.8828 6.7959-75.9062Q5.85938-74.9697 5.86377-73.5205Q5.86816-72.0713 6.7959-71.1348Z"/>
  </g>
  <g id="Regular-S" transform="matrix(1 0 0 1 1405.48 696)">
   <path d="M30.1758-12.5977L55.5176-12.5977Q55.8594-12.5977 55.957-12.915Q56.0547-13.2324 55.8105-13.4766L55.8105-13.8672L50.0488-19.6289L50.0488-19.1895L34.2773-19.1895L34.2773-21.3867Q34.2773-24.3164 33.0322-27.1484Q31.7871-29.9805 30.0049-32.666Q28.2227-35.3516 26.416-37.8906Q24.6094-40.4297 23.3887-42.7002Q22.168-44.9707 22.168-46.9238Q22.168-47.168 22.168-47.3389Q22.168-47.5098 22.2168-47.6562L14.7461-55.0781Q14.6484-54.4922 14.624-53.8818Q14.5996-53.2715 14.5996-52.6855Q14.5996-47.8027 15.918-44.043Q17.2363-40.2832 19.2139-37.2559Q21.1914-34.2285 23.1445-31.6406Q25.0977-29.0527 26.4404-26.5869Q27.7832-24.1211 27.7832-21.4355L27.7832-14.9902Q27.7832-13.916 28.418-13.2568Q29.0527-12.5977 30.1758-12.5977ZM44.3848-75.3906Q51.3184-75.3906 56.543-72.5586Q61.7676-69.7266 64.6484-64.624Q67.5293-59.5215 67.5293-52.6855Q67.5293-48.5352 66.2842-45.2393Q65.0391-41.9434 63.1592-39.1113Q61.2793-36.2793 59.4238-33.6426L63.916-29.1504Q65.8203-32.0801 68.2129-35.376Q70.6055-38.6719 72.3633-42.8711Q74.1211-47.0703 74.1211-52.6855Q74.1211-61.4746 70.4102-68.0664Q66.6992-74.6582 59.9854-78.3203Q53.2715-81.9824 44.3848-81.9824Q36.8652-81.9824 30.9082-79.3701Q24.9512-76.7578 21.0449-72.0215L25.8301-67.2363Q28.8574-71.0938 33.5938-73.2422Q38.3301-75.3906 44.3848-75.3906ZM44.3848 7.56836Q48.3887 7.56836 51.001 5.85938Q53.6133 4.15039 53.9062 1.36719L34.8633 1.36719Q35.1074 4.15039 37.7197 5.85938Q40.332 7.56836 44.3848 7.56836ZM31.543-1.80664L57.1777-1.80664Q58.7402-1.80664 59.8633-2.92969Q60.9863-4.05273 60.9863-5.61523Q60.9863-7.22656 59.8633-8.34961Q58.7402-9.47266 57.1777-9.47266L31.543-9.47266Q30.0293-9.47266 28.9062-8.34961Q27.7832-7.22656 27.7832-5.61523Q27.7832-4.05273 28.9062-2.92969Q30.0293-1.80664 31.543-1.80664ZM68.5059-8.25195Q69.5312-7.22656 70.8984-7.25098Q72.2656-7.27539 73.2422-8.25195Q74.2188-9.22852 74.2188-10.6201Q74.2188-12.0117 73.2422-12.9883L11.5723-74.6582Q10.5957-75.6836 9.17969-75.6592Q7.76367-75.6348 6.78711-74.6582Q5.85938-73.7305 5.85938-72.29Q5.85938-70.8496 6.78711-69.9219Z"/>
  </g>
  <g id="Light-S" transform="matrix(1 0 0 1 1109.68 696)">
   <path d="M29.8991-12.4186L54.9642-12.4186Q55.2897-12.4186 55.4199-12.7116Q55.5501-13.0046 55.3874-13.3138L55.3874-15.8529L50.8138-20.3939L50.8138-17.5456L33.0892-17.5456L33.0892-20.1172Q33.0892-23.2096 31.7708-26.0905Q30.4525-28.9714 28.54-31.7383Q26.6276-34.5052 24.6989-37.2559Q22.7702-40.0065 21.46-42.7816Q20.1497-45.5566 20.1497-48.4375Q20.1497-49.4303 20.2799-50.3092Q20.4102-51.1882 20.6706-51.9694L15.0716-57.5521Q14.7298-56.3477 14.5508-55.0537Q14.3717-53.7598 14.3717-52.3926Q14.3717-47.347 15.7471-43.4977Q17.1224-39.6484 19.165-36.5723Q21.2077-33.4961 23.234-30.8675Q25.2604-28.2389 26.652-25.6836Q28.0436-23.1283 28.0436-20.2474L28.0436-14.3392Q28.0436-13.4603 28.54-12.9395Q29.0365-12.4186 29.8991-12.4186ZM43.4733-76.0254Q50.651-76.0254 56.0547-73.0713Q61.4583-70.1172 64.4368-64.8031Q67.4154-59.4889 67.4154-52.3763Q67.4154-48.1771 66.1865-44.8161Q64.9577-41.4551 63.0941-38.5905Q61.2305-35.7259 59.3424-33.0729L62.8743-29.5573Q64.8112-32.3893 67.0654-35.5957Q69.3197-38.8021 70.931-42.8792Q72.5423-46.9564 72.5423-52.3926Q72.5423-61.0189 68.9209-67.4886Q65.2995-73.9583 58.7402-77.5553Q52.181-81.1523 43.4733-81.1523Q36.2142-81.1523 30.4362-78.6458Q24.6582-76.1393 20.8333-71.5658L24.5768-67.8548Q27.7018-71.7285 32.5277-73.877Q37.3535-76.0254 43.4733-76.0254ZM43.457 6.57552Q47.3633 6.57552 49.9105 4.90723Q52.4577 3.23893 52.7344 0.537109L34.2122 0.537109Q34.4401 3.23893 36.9873 4.90723Q39.5345 6.57552 43.457 6.57552ZM31.3477-2.55534L55.5501-2.55534Q56.9499-2.55534 57.9346-3.54818Q58.9193-4.54102 58.9193-5.94076Q58.9193-7.37305 57.9346-8.36589Q56.9499-9.35872 55.5501-9.35872L31.3477-9.35872Q29.9805-9.35872 29.0039-8.36589Q28.0273-7.37305 28.0273-5.94076Q28.0273-4.54102 29.0039-3.54818Q29.9805-2.55534 31.3477-2.55534ZM70.0846-8.77279Q70.8822-7.97526 71.9482-7.99154Q73.0143-8.00781 73.7793-8.77279Q74.528-9.52148 74.528-10.6038Q74.528-11.6862 73.7793-12.4512L10.3027-75.9115Q9.57031-76.6764 8.4554-76.6683Q7.34049-76.6602 6.5918-75.9115Q5.85938-75.179 5.85938-74.0641Q5.85938-72.9492 6.5918-72.2168Z"/>
  </g>
  <g id="Thin-S" transform="matrix(1 0 0 1 814.171 696)">
   <path d="M29.5331-12.1818L54.2323-12.1818Q54.5363-12.1818 54.7096-12.4425Q54.8828-12.7032 54.8277-13.0985L54.8277-18.4791L51.8255-21.4056L51.8255-15.3714L31.5178-15.3714L31.5178-18.4381Q31.5178-21.7458 30.1025-24.6913Q28.6873-27.6367 26.6027-30.5113Q24.518-33.3858 22.4279-36.4163Q20.3377-39.4468 18.9091-42.8892Q17.4805-46.3316 17.4805-50.4395Q17.4805-52.4225 17.7829-54.2378Q18.0853-56.0531 18.6256-57.6739L15.5021-60.8241Q14.8374-58.8017 14.4539-56.6036Q14.0704-54.4056 14.0704-52.0051Q14.0704-46.7443 15.521-42.7766Q16.9717-38.8089 19.1005-35.6682Q21.2292-32.5274 23.3524-29.845Q25.4757-27.1626 26.9319-24.4889Q28.388-21.8151 28.388-18.676L28.388-13.4781Q28.388-12.8575 28.7015-12.5197Q29.0149-12.1818 29.5331-12.1818ZM42.2678-76.8649Q49.7685-76.8649 55.4089-73.7494Q61.0493-70.6338 64.157-65.0399Q67.2647-59.4459 67.2647-51.9673Q67.2647-47.7035 66.0574-44.2564Q64.8501-40.8093 63.008-37.9017Q61.1659-34.994 59.2348-32.3195L61.4967-30.0955Q63.4766-32.7983 65.5478-35.8863Q67.6191-38.9743 69.0367-42.89Q70.4543-46.8057 70.4543-52.0051Q70.4543-60.4161 66.9512-66.7244Q63.4482-73.0327 57.0935-76.5436Q50.7387-80.0545 42.2678-80.0545Q35.3531-80.0545 29.8119-77.6879Q24.2707-75.3213 20.5535-70.963L22.9193-68.6728Q26.1735-72.568 31.1177-74.7165Q36.0619-76.8649 42.2678-76.8649ZM42.23 5.26241Q46.0071 5.26241 48.4682 3.64793Q50.9293 2.03346 51.1845-0.560736L33.3512-0.560736Q33.5575 2.03346 36.0186 3.64793Q38.4797 5.26241 42.23 5.26241ZM31.0893-3.54555L53.3975-3.54555Q54.582-3.54555 55.3837-4.36618Q56.1854-5.18681 56.1854-6.37128Q56.1854-7.56678 55.3837-8.38741Q54.582-9.20804 53.3975-9.20804L31.0893-9.20804Q29.9159-9.20804 29.1331-8.38741Q28.3502-7.56678 28.3502-6.37128Q28.3502-5.18681 29.1331-4.36618Q29.9159-3.54555 31.0893-3.54555ZM72.1727-9.46163Q72.6689-8.96547 73.3367-8.97099Q74.0045-8.9765 74.4897-9.46163Q74.937-9.90896 74.937-10.5823Q74.937-11.2557 74.4897-11.7408L8.62368-77.569Q8.21415-77.9895 7.49748-78.0029Q6.78081-78.0163 6.33348-77.569Q5.85938-77.0949 5.85938-76.4105Q5.85938-75.7261 6.33348-75.252Z"/>
  </g>
  <g id="Ultralight-S" transform="matrix(1 0 0 1 518.075 696)">
   <path d="M29.3457-12.0605L53.8574-12.0605Q54.1504-12.0605 54.3457-12.3047Q54.541-12.5488 54.541-12.9883L54.541-19.8242L52.3438-21.9238L52.3438-14.2578L30.7129-14.2578L30.7129-17.5781Q30.7129-20.9961 29.248-23.9746Q27.7832-26.9531 25.6104-29.8828Q23.4375-32.8125 21.2646-35.9863Q19.0918-39.1602 17.6025-42.9443Q16.1133-46.7285 16.1133-51.4648Q16.1133-53.9551 16.5039-56.25Q16.8945-58.5449 17.5781-60.5957L15.7227-62.5Q14.8926-60.0586 14.4043-57.3975Q13.916-54.7363 13.916-51.8066Q13.916-46.4355 15.4053-42.4072Q16.8945-38.3789 19.0674-35.2051Q21.2402-32.0312 23.4131-29.3213Q25.5859-26.6113 27.0752-23.877Q28.5645-21.1426 28.5645-17.8711L28.5645-13.0371Q28.5645-12.5488 28.7842-12.3047Q29.0039-12.0605 29.3457-12.0605ZM41.6504-77.2949Q49.3164-77.2949 55.0781-74.0967Q60.8398-70.8984 64.0137-65.1611Q67.1875-59.4238 67.1875-51.7578Q67.1875-47.4609 65.9912-43.9697Q64.7949-40.4785 62.9639-37.5488Q61.1328-34.6191 59.1797-31.9336L60.791-30.3711Q62.793-33.0078 64.7705-36.0352Q66.748-39.0625 68.0664-42.8955Q69.3848-46.7285 69.3848-51.8066Q69.3848-60.1074 65.9424-66.333Q62.5-72.5586 56.25-76.0254Q50-79.4922 41.6504-79.4922Q34.9121-79.4922 29.4922-77.1973Q24.0723-74.9023 20.4102-70.6543L22.0703-69.0918Q25.3906-72.998 30.3955-75.1465Q35.4004-77.2949 41.6504-77.2949ZM41.6016 4.58984Q45.3125 4.58984 47.7295 3.00293Q50.1465 1.41602 50.3906-1.12305L32.9102-1.12305Q33.1055 1.41602 35.5225 3.00293Q37.9395 4.58984 41.6016 4.58984ZM30.957-4.05273L52.2949-4.05273Q53.3691-4.05273 54.0771-4.78516Q54.7852-5.51758 54.7852-6.5918Q54.7852-7.66602 54.0771-8.39844Q53.3691-9.13086 52.2949-9.13086L30.957-9.13086Q29.8828-9.13086 29.1992-8.39844Q28.5156-7.66602 28.5156-6.5918Q28.5156-5.51758 29.1992-4.78516Q29.8828-4.05273 30.957-4.05273ZM73.2422-9.81445Q73.584-9.47266 74.0479-9.47266Q74.5117-9.47266 74.8535-9.81445Q75.1465-10.1074 75.1465-10.5713Q75.1465-11.0352 74.8535-11.377L7.76367-78.418Q7.51953-78.6621 7.00684-78.6865Q6.49414-78.7109 6.20117-78.418Q5.85938-78.0762 5.85938-77.6123Q5.85938-77.1484 6.20117-76.8066Z"/>
  </g>
 </g>
</svg>
