<?xml version="1.0" encoding="UTF-8"?>
<!--Generator: Apple Native CoreSVG 175-->
<!DOCTYPE svg
PUBLIC "-//W3C//DTD SVG 1.1//EN"
       "http://www.w3.org/Graphics/SVG/1.1/DTD/svg11.dtd">
<svg version="1.1" xmlns="http://www.w3.org/2000/svg" xmlns:xlink="http://www.w3.org/1999/xlink" width="3300" height="2200">
 <!--glyph: "uni1002ED.medium", point size: 100.0, font version: "17.1d1e1", template writer version: "65.1"-->
 <g id="Notes">
  <rect height="2200" id="artboard" style="fill:white;opacity:1" width="3300" x="0" y="0"/>
  <line style="fill:none;stroke:black;opacity:1;stroke-width:0.5;" x1="263" x2="3036" y1="292" y2="292"/>
  <text style="stroke:none;fill:black;font-family:sans-serif;font-size:13;font-weight:bold;" transform="matrix(1 0 0 1 263 322)">Weight/Scale Variations</text>
  <text style="stroke:none;fill:black;font-family:sans-serif;font-size:13;text-anchor:middle;" transform="matrix(1 0 0 1 559.711 322)">Ultralight</text>
  <text style="stroke:none;fill:black;font-family:sans-serif;font-size:13;text-anchor:middle;" transform="matrix(1 0 0 1 856.422 322)">Thin</text>
  <text style="stroke:none;fill:black;font-family:sans-serif;font-size:13;text-anchor:middle;" transform="matrix(1 0 0 1 1153.13 322)">Light</text>
  <text style="stroke:none;fill:black;font-family:sans-serif;font-size:13;text-anchor:middle;" transform="matrix(1 0 0 1 1449.84 322)">Regular</text>
  <text style="stroke:none;fill:black;font-family:sans-serif;font-size:13;text-anchor:middle;" transform="matrix(1 0 0 1 1746.56 322)">Medium</text>
  <text style="stroke:none;fill:black;font-family:sans-serif;font-size:13;text-anchor:middle;" transform="matrix(1 0 0 1 2043.27 322)">Semibold</text>
  <text style="stroke:none;fill:black;font-family:sans-serif;font-size:13;text-anchor:middle;" transform="matrix(1 0 0 1 2339.98 322)">Bold</text>
  <text style="stroke:none;fill:black;font-family:sans-serif;font-size:13;text-anchor:middle;" transform="matrix(1 0 0 1 2636.69 322)">Heavy</text>
  <text style="stroke:none;fill:black;font-family:sans-serif;font-size:13;text-anchor:middle;" transform="matrix(1 0 0 1 2933.4 322)">Black</text>
  <line style="fill:none;stroke:black;opacity:1;stroke-width:0.5;" x1="263" x2="3036" y1="1903" y2="1903"/>
  <g transform="matrix(1 0 0 1 263 1933)">
   <path d="M9.24805 0.830078Q10.8691 0.830078 12.2949 0.214844Q13.7207-0.400391 14.8096-1.49414Q15.8984-2.58789 16.5186-4.01367Q17.1387-5.43945 17.1387-7.05078Q17.1387-8.66211 16.5186-10.0879Q15.8984-11.5137 14.8047-12.6074Q13.7109-13.7012 12.2852-14.3164Q10.8594-14.9316 9.23828-14.9316Q7.62695-14.9316 6.20117-14.3164Q4.77539-13.7012 3.69141-12.6074Q2.60742-11.5137 1.9873-10.0879Q1.36719-8.66211 1.36719-7.05078Q1.36719-5.43945 1.9873-4.01367Q2.60742-2.58789 3.69629-1.49414Q4.78516-0.400391 6.21094 0.214844Q7.63672 0.830078 9.24805 0.830078ZM9.24805-0.654297Q7.91992-0.654297 6.7627-1.14746Q5.60547-1.64062 4.73145-2.51953Q3.85742-3.39844 3.36426-4.56055Q2.87109-5.72266 2.87109-7.05078Q2.87109-8.37891 3.35938-9.54102Q3.84766-10.7031 4.72168-11.582Q5.5957-12.4609 6.75293-12.9541Q7.91016-13.4473 9.23828-13.4473Q10.5762-13.4473 11.7334-12.9541Q12.8906-12.4609 13.7695-11.582Q14.6484-10.7031 15.1465-9.54102Q15.6445-8.37891 15.6445-7.05078Q15.6445-5.72266 15.1514-4.56055Q14.6582-3.39844 13.7842-2.51953Q12.9102-1.64062 11.748-1.14746Q10.5859-0.654297 9.24805-0.654297ZM5.6543-7.05078Q5.6543-6.72852 5.85938-6.52832Q6.06445-6.32812 6.40625-6.32812L8.51562-6.32812L8.51562-4.20898Q8.51562-3.88672 8.71094-3.67676Q8.90625-3.4668 9.23828-3.4668Q9.56055-3.4668 9.77051-3.67676Q9.98047-3.88672 9.98047-4.20898L9.98047-6.32812L12.0898-6.32812Q12.4219-6.32812 12.627-6.52832Q12.832-6.72852 12.832-7.05078Q12.832-7.38281 12.627-7.58789Q12.4219-7.79297 12.0898-7.79297L9.98047-7.79297L9.98047-9.90234Q9.98047-10.2344 9.77051-10.4443Q9.56055-10.6543 9.23828-10.6543Q8.90625-10.6543 8.71094-10.4443Q8.51562-10.2344 8.51562-9.90234L8.51562-7.79297L6.40625-7.79297Q6.06445-7.79297 5.85938-7.58789Q5.6543-7.38281 5.6543-7.05078Z"/>
  </g>
  <g transform="matrix(1 0 0 1 281.867 1933)">
   <path d="M11.709 2.91016Q13.75 2.91016 15.5518 2.12891Q17.3535 1.34766 18.7305-0.0292969Q20.1074-1.40625 20.8887-3.20801Q21.6699-5.00977 21.6699-7.05078Q21.6699-9.0918 20.8887-10.8936Q20.1074-12.6953 18.7305-14.0723Q17.3535-15.4492 15.5469-16.2305Q13.7402-17.0117 11.6992-17.0117Q9.6582-17.0117 7.85645-16.2305Q6.05469-15.4492 4.68262-14.0723Q3.31055-12.6953 2.5293-10.8936Q1.74805-9.0918 1.74805-7.05078Q1.74805-5.00977 2.5293-3.20801Q3.31055-1.40625 4.6875-0.0292969Q6.06445 1.34766 7.86621 2.12891Q9.66797 2.91016 11.709 2.91016ZM11.709 1.25Q9.98047 1.25 8.47656 0.605469Q6.97266-0.0390625 5.83496-1.17676Q4.69727-2.31445 4.05762-3.81836Q3.41797-5.32227 3.41797-7.05078Q3.41797-8.7793 4.05762-10.2832Q4.69727-11.7871 5.83008-12.9297Q6.96289-14.0723 8.4668-14.7119Q9.9707-15.3516 11.6992-15.3516Q13.4277-15.3516 14.9316-14.7119Q16.4355-14.0723 17.5781-12.9297Q18.7207-11.7871 19.3652-10.2832Q20.0098-8.7793 20.0098-7.05078Q20.0098-5.32227 19.3701-3.81836Q18.7305-2.31445 17.5928-1.17676Q16.4551-0.0390625 14.9463 0.605469Q13.4375 1.25 11.709 1.25ZM7.17773-7.05078Q7.17773-6.69922 7.41211-6.47461Q7.64648-6.25 8.01758-6.25L10.8887-6.25L10.8887-3.36914Q10.8887-2.99805 11.1133-2.76855Q11.3379-2.53906 11.6895-2.53906Q12.0605-2.53906 12.29-2.76855Q12.5195-2.99805 12.5195-3.36914L12.5195-6.25L15.4004-6.25Q15.7715-6.25 16.001-6.47461Q16.2305-6.69922 16.2305-7.05078Q16.2305-7.42188 16.001-7.65137Q15.7715-7.88086 15.4004-7.88086L12.5195-7.88086L12.5195-10.752Q12.5195-11.1328 12.29-11.3623Q12.0605-11.5918 11.6895-11.5918Q11.3379-11.5918 11.1133-11.3574Q10.8887-11.123 10.8887-10.752L10.8887-7.88086L8.01758-7.88086Q7.63672-7.88086 7.40723-7.65137Q7.17773-7.42188 7.17773-7.05078Z"/>
  </g>
  <g transform="matrix(1 0 0 1 305.646 1933)">
   <path d="M14.9707 5.66406Q17.0605 5.66406 18.96 5.01465Q20.8594 4.36523 22.4512 3.19336Q24.043 2.02148 25.2197 0.429688Q26.3965-1.16211 27.0459-3.06641Q27.6953-4.9707 27.6953-7.05078Q27.6953-9.14062 27.0459-11.04Q26.3965-12.9395 25.2197-14.5312Q24.043-16.123 22.4512-17.2998Q20.8594-18.4766 18.9551-19.126Q17.0508-19.7754 14.9609-19.7754Q12.8711-19.7754 10.9717-19.126Q9.07227-18.4766 7.48535-17.2998Q5.89844-16.123 4.72168-14.5312Q3.54492-12.9395 2.90039-11.04Q2.25586-9.14062 2.25586-7.05078Q2.25586-4.9707 2.90527-3.06641Q3.55469-1.16211 4.72656 0.429688Q5.89844 2.02148 7.49023 3.19336Q9.08203 4.36523 10.9814 5.01465Q12.8809 5.66406 14.9707 5.66406ZM14.9707 3.84766Q13.1641 3.84766 11.5283 3.2959Q9.89258 2.74414 8.53516 1.74805Q7.17773 0.751953 6.17676-0.610352Q5.17578-1.97266 4.62891-3.6084Q4.08203-5.24414 4.08203-7.05078Q4.08203-8.86719 4.62891-10.5029Q5.17578-12.1387 6.17188-13.501Q7.16797-14.8633 8.52539-15.8594Q9.88281-16.8555 11.5186-17.4023Q13.1543-17.9492 14.9609-17.9492Q16.7773-17.9492 18.4131-17.4023Q20.0488-16.8555 21.4111-15.8594Q22.7734-14.8633 23.7695-13.501Q24.7656-12.1387 25.3174-10.5029Q25.8691-8.86719 25.8691-7.05078Q25.8789-5.24414 25.332-3.6084Q24.7852-1.97266 23.7842-0.610352Q22.7832 0.751953 21.4209 1.74805Q20.0586 2.74414 18.4229 3.2959Q16.7871 3.84766 14.9707 3.84766ZM9.19922-7.05078Q9.19922-6.66992 9.45801-6.4209Q9.7168-6.17188 10.1172-6.17188L14.0625-6.17188L14.0625-2.2168Q14.0625-1.81641 14.3115-1.55762Q14.5605-1.29883 14.9512-1.29883Q15.3516-1.29883 15.6104-1.55273Q15.8691-1.80664 15.8691-2.2168L15.8691-6.17188L19.8242-6.17188Q20.2246-6.17188 20.4785-6.4209Q20.7324-6.66992 20.7324-7.05078Q20.7324-7.46094 20.4785-7.71484Q20.2246-7.96875 19.8242-7.96875L15.8691-7.96875L15.8691-11.9141Q15.8691-12.3242 15.6104-12.583Q15.3516-12.8418 14.9512-12.8418Q14.5605-12.8418 14.3115-12.583Q14.0625-12.3242 14.0625-11.9141L14.0625-7.96875L10.1172-7.96875Q9.70703-7.96875 9.45312-7.71484Q9.19922-7.46094 9.19922-7.05078Z"/>
  </g>
  <text style="stroke:none;fill:black;font-family:sans-serif;font-size:13;font-weight:bold;" transform="matrix(1 0 0 1 263 1953)">Design Variations</text>
  <text style="stroke:none;fill:black;font-family:sans-serif;font-size:13;" transform="matrix(1 0 0 1 263 1971)">Symbols are supported in up to nine weights and three scales.</text>
  <text style="stroke:none;fill:black;font-family:sans-serif;font-size:13;" transform="matrix(1 0 0 1 263 1989)">For optimal layout with text and other symbols, vertically align</text>
  <text style="stroke:none;fill:black;font-family:sans-serif;font-size:13;" transform="matrix(1 0 0 1 263 2007)">symbols with the adjacent text.</text>
  <line style="fill:none;stroke:#00AEEF;stroke-width:0.5;opacity:1.0;" x1="776" x2="776" y1="1919" y2="1933"/>
  <g transform="matrix(1 0 0 1 776 1933)">
   <path d="M3.31055 0.15625Q3.70117 0.15625 3.91602-0.00976562Q4.13086-0.175781 4.26758-0.585938L5.52734-4.0332L11.2891-4.0332L12.5488-0.585938Q12.6855-0.175781 12.9004-0.00976562Q13.1152 0.15625 13.4961 0.15625Q13.8867 0.15625 14.1162-0.0585938Q14.3457-0.273438 14.3457-0.644531Q14.3457-0.869141 14.2383-1.17188L9.6582-13.3691Q9.48242-13.8184 9.17969-14.043Q8.87695-14.2676 8.4082-14.2676Q7.5-14.2676 7.17773-13.3789L2.59766-1.16211Q2.49023-0.859375 2.49023-0.634766Q2.49023-0.263672 2.70996-0.0537109Q2.92969 0.15625 3.31055 0.15625ZM6.00586-5.51758L8.37891-12.0898L8.42773-12.0898L10.8008-5.51758Z"/>
  </g>
  <line style="fill:none;stroke:#00AEEF;stroke-width:0.5;opacity:1.0;" x1="793.197" x2="793.197" y1="1919" y2="1933"/>
  <text style="stroke:none;fill:black;font-family:sans-serif;font-size:13;font-weight:bold;" transform="matrix(1 0 0 1 776 1953)">Margins</text>
  <text style="stroke:none;fill:black;font-family:sans-serif;font-size:13;" transform="matrix(1 0 0 1 776 1971)">Leading and trailing margins on the left and right side of each symbol</text>
  <text style="stroke:none;fill:black;font-family:sans-serif;font-size:13;" transform="matrix(1 0 0 1 776 1989)">can be adjusted by modifying the x-location of the margin guidelines.</text>
  <text style="stroke:none;fill:black;font-family:sans-serif;font-size:13;" transform="matrix(1 0 0 1 776 2007)">Modifications are automatically applied proportionally to all</text>
  <text style="stroke:none;fill:black;font-family:sans-serif;font-size:13;" transform="matrix(1 0 0 1 776 2025)">scales and weights.</text>
  <g transform="matrix(1 0 0 1 1289 1933)">
   <path d="M2.8418 1.86523L4.54102 3.57422Q5.18555 4.22852 5.90332 4.17969Q6.62109 4.13086 7.31445 3.35938L18.0078-8.42773L17.041-9.4043L6.42578 2.27539Q6.16211 2.57812 5.89355 2.61719Q5.625 2.65625 5.27344 2.30469L4.10156 1.14258Q3.75 0.791016 3.79395 0.522461Q3.83789 0.253906 4.14062-0.0195312L15.6152-10.8203L14.6387-11.7871L3.04688-0.898438Q2.30469-0.214844 2.25098 0.498047Q2.19727 1.21094 2.8418 1.86523ZM9.25781-16.3281Q8.94531-16.0254 8.90625-15.6348Q8.86719-15.2441 9.04297-14.9512Q9.21875-14.6777 9.55566-14.541Q9.89258-14.4043 10.3809-14.5215Q11.4746-14.7754 12.5977-14.7314Q13.7207-14.6875 14.7949-13.9844L14.209-12.5293Q13.9551-11.9043 14.0674-11.4404Q14.1797-10.9766 14.5801-10.5664L16.875-8.25195Q17.2363-7.88086 17.5781-7.82227Q17.9199-7.76367 18.3398-7.8418L19.4043-8.03711L20.0684-7.36328L20.0293-6.80664Q20-6.43555 20.1221-6.12305Q20.2441-5.81055 20.6055-5.44922L21.3672-4.70703Q21.7285-4.3457 22.1533-4.33105Q22.5781-4.31641 22.9297-4.66797L25.8398-7.58789Q26.1914-7.93945 26.1816-8.35449Q26.1719-8.76953 25.8105-9.13086L25.0391-9.89258Q24.6875-10.2539 24.3799-10.3857Q24.0723-10.5176 23.7109-10.4883L23.1348-10.4395L22.4902-11.0742L22.7344-12.1973Q22.832-12.6172 22.6953-12.9834Q22.5586-13.3496 22.1191-13.7891L19.9219-15.9766Q18.6719-17.2168 17.2607-17.8369Q15.8496-18.457 14.4189-18.4814Q12.9883-18.5059 11.665-17.959Q10.3418-17.4121 9.25781-16.3281ZM10.752-15.957Q11.6602-16.6211 12.7002-16.9043Q13.7402-17.1875 14.8047-17.085Q15.8691-16.9824 16.8701-16.5137Q17.8711-16.0449 18.7012-15.2051L21.1328-12.793Q21.3086-12.6172 21.3525-12.4512Q21.3965-12.2852 21.3379-12.0312L21.0156-10.5469L22.5195-9.0625L23.5059-9.12109Q23.6914-9.13086 23.7891-9.09668Q23.8867-9.0625 24.0332-8.91602L24.6094-8.33984L22.168-5.89844L21.5918-6.47461Q21.4453-6.62109 21.4062-6.71875Q21.3672-6.81641 21.377-7.01172L21.4453-7.98828L19.9512-9.47266L18.4277-9.21875Q18.1836-9.16992 18.042-9.2041Q17.9004-9.23828 17.7148-9.41406L15.7129-11.416Q15.5176-11.5918 15.4932-11.7529Q15.4688-11.9141 15.5859-12.1875L16.4648-14.2773Q15.293-15.3711 13.8281-15.791Q12.3633-16.2109 10.8398-15.7617Q10.7227-15.7324 10.6885-15.8057Q10.6543-15.8789 10.752-15.957Z"/>
  </g>
  <text style="stroke:none;fill:black;font-family:sans-serif;font-size:13;font-weight:bold;" transform="matrix(1 0 0 1 1289 1953)">Exporting</text>
  <text style="stroke:none;fill:black;font-family:sans-serif;font-size:13;" transform="matrix(1 0 0 1 1289 1971)">Symbols should be outlined when exporting to ensure the</text>
  <text style="stroke:none;fill:black;font-family:sans-serif;font-size:13;" transform="matrix(1 0 0 1 1289 1989)">design is preserved when submitting to Xcode.</text>
  <text id="template-version" style="stroke:none;fill:black;font-family:sans-serif;font-size:13;text-anchor:end;" transform="matrix(1 0 0 1 3036 1933)">Template v.3.0</text>
  <text style="stroke:none;fill:black;font-family:sans-serif;font-size:13;text-anchor:end;" transform="matrix(1 0 0 1 3036 1951)">Requires Xcode 13 or greater</text>
  <text id="descriptive-name" style="stroke:none;fill:black;font-family:sans-serif;font-size:13;text-anchor:end;" transform="matrix(1 0 0 1 3036 1969)">Generated from eye</text>
  <text style="stroke:none;fill:black;font-family:sans-serif;font-size:13;text-anchor:end;" transform="matrix(1 0 0 1 3036 1987)">Typeset at 100 points</text>
  <text style="stroke:none;fill:black;font-family:sans-serif;font-size:13;" transform="matrix(1 0 0 1 263 726)">Small</text>
  <text style="stroke:none;fill:black;font-family:sans-serif;font-size:13;" transform="matrix(1 0 0 1 263 1156)">Medium</text>
  <text style="stroke:none;fill:black;font-family:sans-serif;font-size:13;" transform="matrix(1 0 0 1 263 1586)">Large</text>
 </g>
 <g id="Guides">
  <g id="H-reference" style="fill:#27AAE1;stroke:none;" transform="matrix(1 0 0 1 339 696)">
   <path d="M0.993347 0L3.6377 0L29.3282-67.1326L30.0301-67.1326L30.0301-70.459L28.1227-70.459ZM11.6882-24.4797L46.9818-24.4797L46.2311-26.7288L12.4382-26.7288ZM55.1193 0L57.7637 0L30.6381-70.459L29.4327-70.459L29.4327-67.1326Z"/>
  </g>
  <line id="Baseline-S" style="fill:none;stroke:#27AAE1;opacity:1;stroke-width:0.5;" x1="263" x2="3036" y1="696" y2="696"/>
  <line id="Capline-S" style="fill:none;stroke:#27AAE1;opacity:1;stroke-width:0.5;" x1="263" x2="3036" y1="625.541" y2="625.541"/>
  <g id="H-reference" style="fill:#27AAE1;stroke:none;" transform="matrix(1 0 0 1 339 1126)">
   <path d="M0.993347 0L3.6377 0L29.3282-67.1326L30.0301-67.1326L30.0301-70.459L28.1227-70.459ZM11.6882-24.4797L46.9818-24.4797L46.2311-26.7288L12.4382-26.7288ZM55.1193 0L57.7637 0L30.6381-70.459L29.4327-70.459L29.4327-67.1326Z"/>
  </g>
  <line id="Baseline-M" style="fill:none;stroke:#27AAE1;opacity:1;stroke-width:0.5;" x1="263" x2="3036" y1="1126" y2="1126"/>
  <line id="Capline-M" style="fill:none;stroke:#27AAE1;opacity:1;stroke-width:0.5;" x1="263" x2="3036" y1="1055.54" y2="1055.54"/>
  <g id="H-reference" style="fill:#27AAE1;stroke:none;" transform="matrix(1 0 0 1 339 1556)">
   <path d="M0.993347 0L3.6377 0L29.3282-67.1326L30.0301-67.1326L30.0301-70.459L28.1227-70.459ZM11.6882-24.4797L46.9818-24.4797L46.2311-26.7288L12.4382-26.7288ZM55.1193 0L57.7637 0L30.6381-70.459L29.4327-70.459L29.4327-67.1326Z"/>
  </g>
  <line id="Baseline-L" style="fill:none;stroke:#27AAE1;opacity:1;stroke-width:0.5;" x1="263" x2="3036" y1="1556" y2="1556"/>
  <line id="Capline-L" style="fill:none;stroke:#27AAE1;opacity:1;stroke-width:0.5;" x1="263" x2="3036" y1="1485.54" y2="1485.54"/>
  <line id="left-margin-Regular-M" style="fill:none;stroke:#00AEEF;stroke-width:0.5;opacity:1.0;" x1="1373.17" x2="1373.17" y1="1030.79" y2="1150.12"/>
  <line id="right-margin-Regular-M" style="fill:none;stroke:#00AEEF;stroke-width:0.5;opacity:1.0;" x1="1526.51" x2="1526.51" y1="1030.79" y2="1150.12"/>
 </g>
 <g id="Symbols">
  <g id="Black-L" transform="matrix(1 0 0 1 2832.29 1556)">
   <path d="M101.086 21.2461Q117.345 21.2461 131.061 16.7416Q144.776 12.2371 155.59 5.19281Q166.405-1.85151 173.941-9.68782Q181.477-17.5241 185.42-24.3694Q189.363-31.2147 189.363-35.1309Q189.363-39.0094 185.419-45.8443Q181.476-52.6792 173.939-60.5155Q166.402-68.3518 155.587-75.3962Q144.773-82.4405 131.058-86.945Q117.344-91.4495 101.086-91.4495Q85.0652-91.4495 71.4592-86.945Q57.8533-82.4405 46.999-75.3962Q36.1446-68.3518 28.5283-60.5155Q20.912-52.6792 16.8896-45.8443Q12.8672-39.0094 12.8672-35.1309Q12.8672-31.2147 16.889-24.3694Q20.9108-17.5241 28.5265-9.68782Q36.1423-1.85151 46.996 5.19281Q57.8497 12.2371 71.4568 16.7416Q85.064 21.2461 101.086 21.2461ZM101.086 1.74764Q90.2624 1.74764 80.7488-1.22376Q71.2353-4.19516 63.4501-8.80938Q55.665-13.4236 50.035-18.532Q44.4051-23.6403 41.376-28.1251Q38.3469-32.6099 38.3469-35.1309Q38.3469-37.1766 41.376-41.5029Q44.4051-45.8292 50.035-51.0174Q55.665-56.2055 63.4501-60.9782Q71.2353-65.7509 80.7488-68.8521Q90.2624-71.9534 101.086-71.9534Q111.909-71.9534 121.452-68.8521Q130.995-65.7509 138.78-60.9782Q146.565-56.2055 152.195-51.0174Q157.825-45.8292 160.843-41.5029Q163.862-37.1766 163.862-35.1309Q163.862-32.6099 160.843-28.1251Q157.825-23.6403 152.195-18.532Q146.565-13.4236 138.78-8.80938Q130.995-4.19516 121.452-1.22376Q111.909 1.74764 101.086 1.74764ZM101.145-5.66958Q109.396-5.66958 116.055-9.70569Q122.714-13.7418 126.643-20.4398Q130.571-27.1379 130.571-35.1309Q130.571-43.3263 126.643-49.9556Q122.714-56.5848 116.055-60.5301Q109.396-64.4754 101.145-64.4754Q92.9481-64.4754 86.2494-60.5593Q79.5508-56.6432 75.5945-49.9848Q71.6382-43.3263 71.6394-35.1309Q71.6614-27.1379 75.6177-20.4398Q79.574-13.7418 86.261-9.70569Q92.9481-5.66958 101.145-5.66958ZM101.029-26.561Q97.5128-26.561 95.051-29.0988Q92.5893-31.6366 92.5893-35.1309Q92.5893-38.6472 95.051-41.1552Q97.5128-43.6632 101.029-43.6632Q104.603-43.6632 107.111-41.1552Q109.62-38.6472 109.62-35.1309Q109.62-31.6366 107.111-29.0988Q104.603-26.561 101.029-26.561Z"/>
  </g>
  <g id="Heavy-L" transform="matrix(1 0 0 1 2536.18 1556)">
   <path d="M100.487 20.635Q116.487 20.635 130.062 16.1876Q143.638 11.7403 154.396 4.77588Q165.154-2.1885 172.686-9.93352Q180.219-17.6785 184.183-24.4648Q188.146-31.2511 188.146-35.1447Q188.146-39.0237 184.18-45.7949Q180.213-52.5661 172.678-60.3112Q165.143-68.0562 154.382-75.0206Q143.621-81.985 130.051-86.4323Q116.482-90.8797 100.487-90.8797Q84.7115-90.8797 71.239-86.4323Q57.7665-81.985 46.9682-75.0206Q36.1699-68.0562 28.5597-60.3112Q20.9495-52.5661 16.9083-45.7949Q12.8672-39.0237 12.8672-35.1447Q12.8672-31.2511 16.9055-24.4648Q20.9438-17.6785 28.5513-9.93352Q36.1587-2.1885 46.9542 4.77588Q57.7497 11.7403 71.2277 16.1876Q84.7058 20.635 100.487 20.635ZM100.487 3.52282Q89.2578 3.52282 79.3186 0.38462Q69.3793-2.75358 61.2135-7.6212Q53.0476-12.4888 47.1188-17.8597Q41.19-23.2305 37.9837-27.9091Q34.7774-32.5877 34.7774-35.1447Q34.7774-37.2527 37.9837-41.7817Q41.19-46.3107 47.1188-51.7591Q53.0476-57.2076 61.2135-62.2249Q69.3793-67.2422 79.3186-70.5105Q89.2578-73.7787 100.487-73.7787Q111.711-73.7787 121.672-70.5105Q131.634-67.2422 139.8-62.2249Q147.966-57.2076 153.895-51.7591Q159.823-46.3107 163.015-41.7817Q166.206-37.2527 166.206-35.1447Q166.206-32.5877 163.015-27.9091Q159.823-23.2305 153.895-17.8597Q147.966-12.4888 139.8-7.6212Q131.634-2.75358 121.672 0.38462Q111.711 3.52282 100.487 3.52282ZM100.532-4.3138Q109.152-4.3138 116.13-8.53381Q123.108-12.7538 127.234-19.7667Q131.359-26.7795 131.359-35.1447Q131.359-43.731 127.234-50.6842Q123.108-57.6373 116.13-61.7618Q109.152-65.8863 100.532-65.8863Q91.9398-65.8863 84.9242-61.7841Q77.9085-57.682 73.7661-50.7065Q69.6238-43.731 69.6293-35.1447Q69.6651-26.7795 73.8075-19.7667Q77.9499-12.7538 84.9449-8.53381Q91.9398-4.3138 100.532-4.3138ZM100.448-25.8681Q96.6226-25.8681 93.9254-28.6115Q91.2282-31.3549 91.2282-35.1447Q91.2282-38.9702 93.9254-41.6885Q96.6226-44.4068 100.448-44.4068Q104.313-44.4068 107.034-41.6885Q109.755-38.9702 109.755-35.1447Q109.755-31.3549 107.034-28.6115Q104.313-25.8681 100.448-25.8681Z"/>
  </g>
  <g id="Bold-L" transform="matrix(1 0 0 1 2240.33 1556)">
   <path d="M99.6376 19.8818Q115.3 19.8818 128.688 15.5037Q142.075 11.1256 152.749 4.2573Q163.423-2.61098 170.941-10.2445Q178.458-17.8781 182.441-24.5876Q186.424-31.2972 186.424-35.1601Q186.424-39.0317 182.434-45.7223Q178.445-52.4129 170.921-60.0464Q163.397-67.68 152.716-74.5483Q142.035-81.4165 128.661-85.7947Q115.287-90.1728 99.6376-90.1728Q84.1766-90.1728 70.8843-85.7947Q57.5919-81.4165 46.8776-74.5483Q36.1634-67.68 28.5721-60.0464Q20.9807-52.4129 16.924-45.7223Q12.8672-39.0317 12.8672-35.1601Q12.8672-31.2972 16.9173-24.5876Q20.9674-17.8781 28.5522-10.2445Q36.1369-2.61098 46.8445 4.2573Q57.5521 11.1256 70.8577 15.5037Q84.1633 19.8818 99.6376 19.8818ZM99.6376 5.69062Q87.9013 5.69062 77.4617 2.35244Q67.0221-0.985741 58.421-6.16089Q49.82-11.336 43.5596-17.026Q37.2991-22.7159 33.8999-27.6328Q30.5006-32.5496 30.5006-35.1601Q30.5006-37.3674 33.8999-42.1498Q37.2991-46.9323 43.5596-52.696Q49.82-58.4597 58.421-63.7693Q67.0221-69.079 77.4617-72.5435Q87.9013-76.008 99.6376-76.008Q111.361-76.008 121.815-72.5435Q132.269-69.079 140.87-63.7693Q149.471-58.4597 155.732-52.696Q161.992-46.9323 165.372-42.1498Q168.752-37.3674 168.752-35.1601Q168.752-32.5496 165.372-27.6328Q161.992-22.7159 155.732-17.026Q149.471-11.336 140.87-6.16089Q132.269-0.985741 121.815 2.35244Q111.361 5.69062 99.6376 5.69062ZM99.6668-2.80251Q108.688-2.80251 116.025-7.22691Q123.361-11.6513 127.711-19.0149Q132.06-26.3786 132.06-35.1601Q132.06-44.1784 127.711-51.4939Q123.361-58.8094 116.025-63.1343Q108.688-67.4592 99.6668-67.4592Q90.6353-67.4592 83.265-63.1489Q75.8947-58.8386 71.5442-51.5085Q67.1936-44.1784 67.2068-35.1601Q67.258-26.3786 71.6085-19.0149Q75.959-11.6513 83.2972-7.22691Q90.6353-2.80251 99.6668-2.80251ZM99.6217-25.1492Q95.4715-25.1492 92.5271-28.1052Q89.5826-31.0611 89.5826-35.1601Q89.5826-39.3102 92.5271-42.2451Q95.4715-45.1799 99.6217-45.1799Q103.788-45.1799 106.729-42.2451Q109.67-39.3102 109.67-35.1601Q109.67-31.0611 106.729-28.1052Q103.788-25.1492 99.6217-25.1492Z"/>
  </g>
  <g id="Semibold-L" transform="matrix(1 0 0 1 1944.21 1556)">
   <path d="M99.0518 19.3626Q114.482 19.3626 127.74 15.0322Q140.998 10.7018 151.614 3.89979Q162.23-2.90224 169.737-10.4589Q177.244-18.0156 181.24-24.6723Q185.237-31.3289 185.237-35.1707Q185.237-39.0371 181.231-45.6722Q177.226-52.3073 169.709-59.8639Q162.193-67.4206 151.567-74.2226Q140.942-81.0247 127.703-85.355Q114.463-89.6854 99.0518-89.6854Q83.8079-89.6854 70.6397-85.355Q57.4715-81.0247 46.8152-74.2226Q36.1589-67.4206 28.5806-59.8639Q21.0022-52.3073 16.9347-45.6722Q12.8672-39.0371 12.8672-35.1707Q12.8672-31.3289 16.9254-24.6723Q20.9836-18.0156 28.5528-10.4589Q36.1219-2.90224 46.7689 3.89979Q57.4159 10.7018 70.6026 15.0322Q83.7893 19.3626 99.0518 19.3626ZM99.0518 7.18509Q86.9661 7.18509 76.1816 3.70904Q65.397 0.233 56.4959-5.15416Q47.5948-10.5413 41.1058-16.4512Q34.6168-22.3611 31.0845-27.4422Q27.5523-32.5233 27.5523-35.1707Q27.5523-37.4464 31.0845-42.4036Q34.6168-47.3608 41.1058-53.3418Q47.5948-59.3229 56.4959-64.8341Q65.397-70.3453 76.1816-73.9451Q86.9661-77.5449 99.0518-77.5449Q111.119-77.5449 121.913-73.9451Q132.707-70.3453 141.608-64.8341Q150.509-59.3229 156.998-53.3418Q163.487-47.3608 166.998-42.4036Q170.508-37.4464 170.508-35.1707Q170.508-32.5233 166.998-27.4422Q163.487-22.3611 156.998-16.4512Q150.509-10.5413 141.608-5.15416Q132.707 0.233 121.913 3.70904Q111.119 7.18509 99.0518 7.18509ZM99.0704-1.76064Q108.368-1.76064 115.952-6.32594Q123.536-10.8912 128.039-18.4967Q132.542-26.1022 132.542-35.1707Q132.542-44.4868 128.039-52.0521Q123.536-59.6174 115.952-64.0805Q108.368-68.5436 99.0704-68.5436Q89.736-68.5436 82.1212-64.0898Q74.5064-59.636 70.0124-52.0614Q65.5183-44.4868 65.5367-35.1707Q65.5985-26.1022 70.0925-18.4967Q74.5866-10.8912 82.1613-6.32594Q89.736-1.76064 99.0704-1.76064ZM99.0519-24.6535Q94.678-24.6535 91.5631-27.7561Q88.4481-30.8587 88.4481-35.1707Q88.4481-39.5446 91.5631-42.6287Q94.678-45.7128 99.0519-45.7128Q103.426-45.7128 106.519-42.6287Q109.612-39.5446 109.612-35.1707Q109.612-30.8587 106.519-27.7561Q103.426-24.6535 99.0519-24.6535Z"/>
  </g>
  <g id="Medium-L" transform="matrix(1 0 0 1 1647.95 1556)">
   <path d="M98.6077 18.9688Q113.861 18.9688 127.021 14.6747Q140.181 10.3805 150.753 3.62871Q161.325-3.12308 168.824-10.6215Q176.323-18.1199 180.33-24.7364Q184.337-31.353 184.337-35.1788Q184.337-39.0413 180.319-45.6342Q176.301-52.2272 168.791-59.7255Q161.28-67.2239 150.697-73.9757Q140.113-80.7275 126.976-85.0217Q113.839-89.3159 98.6077-89.3159Q83.5283-89.3159 70.4543-85.0217Q57.3802-80.7275 46.7678-73.9757Q36.1555-67.2239 28.587-59.7255Q21.0186-52.2272 16.9429-45.6342Q12.8672-39.0413 12.8672-35.1788Q12.8672-31.353 16.9316-24.7364Q20.9959-18.1199 28.5532-10.6215Q36.1105-3.12308 46.7116 3.62871Q57.3127 10.3805 70.4092 14.6747Q83.5057 18.9688 98.6077 18.9688ZM98.6077 8.31825Q86.257 8.31825 75.2109 4.73768Q64.1649 1.1571 55.0362-4.39081Q45.9076-9.93872 39.2453-16.0154Q32.5829-22.0921 28.9498-27.2978Q25.3167-32.5034 25.3167-35.1788Q25.3167-37.5064 28.9498-42.5961Q32.5829-47.6858 39.2453-53.8316Q45.9076-59.9774 55.0362-65.6414Q64.1649-71.3054 75.2109-75.0078Q86.257-78.7102 98.6077-78.7102Q110.936-78.7102 121.987-75.0078Q133.038-71.3054 142.167-65.6414Q151.296-59.9774 157.958-53.8316Q164.621-47.6858 168.23-42.5961Q171.839-37.5064 171.839-35.1788Q171.839-32.5034 168.23-27.2978Q164.621-22.0921 157.958-16.0154Q151.296-9.93872 142.167-4.39081Q133.038 1.1571 121.987 4.73768Q110.936 8.31825 98.6077 8.31825ZM98.6182-0.970653Q108.126-0.970653 115.897-5.64279Q123.668-10.3149 128.288-18.1038Q132.908-25.8927 132.908-35.1788Q132.908-44.7206 128.288-52.4753Q123.668-60.2301 115.897-64.798Q108.126-69.3659 98.6182-69.3659Q89.0541-69.3659 81.2539-64.8032Q73.4537-60.2406 68.8509-52.4806Q64.248-44.7206 64.2703-35.1788Q64.3402-25.8927 68.9431-18.1038Q73.5459-10.3149 81.3-5.64279Q89.0541-0.970653 98.6182-0.970653ZM98.6199-24.2777Q94.0763-24.2777 90.8321-27.4914Q87.5879-30.7051 87.5879-35.1788Q87.5879-39.7223 90.8321-42.9196Q94.0763-46.1169 98.6199-46.1169Q103.151-46.1169 106.36-42.9196Q109.568-39.7223 109.568-35.1788Q109.568-30.7051 106.36-27.4914Q103.151-24.2777 98.6199-24.2777Z"/>
  </g>
  <g id="Regular-L" transform="matrix(1 0 0 1 1351.83 1556)">
   <path d="M98.0285 18.4553Q113.052 18.4553 126.083 14.2083Q139.115 9.96141 149.63 3.27514Q160.145-3.41113 167.634-10.8335Q175.123-18.2559 179.142-24.8202Q183.162-31.3844 183.162-35.1893Q183.162-39.0467 179.129-45.5847Q175.095-52.1227 167.592-59.545Q160.09-66.9674 149.561-73.6537Q139.032-80.34 126.028-84.5869Q113.024-88.8338 98.0285-88.8338Q83.1636-88.8338 70.2124-84.5869Q57.2612-80.34 46.7061-73.6537Q36.151-66.9674 28.5954-59.545Q21.0398-52.1227 16.9535-45.5847Q12.8672-39.0467 12.8672-35.1893Q12.8672-31.3844 16.9396-24.8202Q21.012-18.2559 28.5538-10.8335Q36.0957-3.41113 46.6368 3.27514Q57.178 9.96141 70.1569 14.2083Q83.1357 18.4553 98.0285 18.4553ZM98.0285 9.7963Q85.3321 9.7963 73.9449 6.07937Q62.5577 2.36245 53.1323-3.39515Q43.7069-9.15274 36.8185-15.447Q29.93-21.7413 26.1654-27.1093Q22.4007-32.4774 22.4007-35.1893Q22.4007-37.5846 26.1654-42.8471Q29.93-48.1096 36.8185-54.4703Q43.7069-60.8311 53.1323-66.6944Q62.5577-72.5578 73.9449-76.394Q85.3321-80.2302 98.0285-80.2302Q110.697-80.2302 122.084-76.394Q133.471-72.5578 142.897-66.6944Q152.323-60.8311 159.211-54.4703Q166.099-48.1096 169.838-42.8471Q173.576-37.5846 173.576-35.1893Q173.576-32.4774 169.838-27.1093Q166.099-21.7413 159.211-15.447Q152.323-9.15274 142.897-3.39515Q133.471 2.36245 122.084 6.07937Q110.697 9.7963 98.0285 9.7963ZM98.0285 0.0597683Q107.81 0.0597683 115.825-4.75172Q123.841-9.56321 128.613-17.5913Q133.386-25.6193 133.386-35.1893Q133.386-45.0256 128.613-53.0274Q123.841-61.0292 115.825-65.7338Q107.81-70.4383 98.0285-70.4383Q88.1647-70.4383 80.1227-65.7338Q72.0807-61.0292 67.3359-53.0274Q62.5912-45.0256 62.6186-35.1893Q62.699-25.6193 67.4438-17.5913Q72.1885-9.56321 80.1766-4.75172Q88.1647 0.0597683 98.0285 0.0597683ZM98.0563-23.7875Q93.2915-23.7875 89.8787-27.1462Q86.4659-30.5048 86.4659-35.1893Q86.4659-39.9541 89.8787-43.2991Q93.2915-46.644 98.0563-46.644Q102.793-46.644 106.152-43.2991Q109.511-39.9541 109.511-35.1893Q109.511-30.5048 106.152-27.1462Q102.793-23.7875 98.0563-23.7875Z"/>
  </g>
  <g id="Light-L" transform="matrix(1 0 0 1 1056.41 1556)">
   <path d="M96.7497 17.9589Q111.43 17.9589 124.242 13.7503Q137.054 9.54167 147.416 2.90301Q157.778-3.73564 165.191-11.0912Q172.603-18.4467 176.595-24.9346Q180.586-31.4226 180.586-35.1893Q180.586-38.9893 176.571-45.4606Q172.557-51.9319 165.121-59.2874Q157.685-66.6429 147.299-73.2816Q136.913-79.9202 124.148-84.1289Q111.383-88.3375 96.7497-88.3375Q82.1712-88.3375 69.4395-84.1289Q56.7077-79.9202 46.3053-73.2816Q35.9028-66.6429 28.4332-59.2874Q20.9635-51.9319 16.9154-45.4606Q12.8672-38.9893 12.8672-35.1893Q12.8672-31.4226 16.8918-24.9346Q20.9164-18.4467 28.3629-11.0912Q35.8094-3.73564 46.1882 2.90301Q56.5671 9.54167 69.3456 13.7503Q82.1241 17.9589 96.7497 17.9589ZM96.7497 11.094Q83.6717 11.094 72.1127 7.28167Q60.5536 3.46935 51.0615-2.45995Q41.5694-8.38926 34.7001-14.8649Q27.8307-21.3404 24.1042-26.8611Q20.3777-32.3818 20.3777-35.1893Q20.3777-37.7946 24.1042-43.2479Q27.8307-48.7012 34.7001-55.2336Q41.5694-61.7661 51.0615-67.7632Q60.5536-73.7603 72.1127-77.6631Q83.6717-81.566 96.7497-81.566Q109.781-81.566 121.34-77.6631Q132.899-73.7603 142.391-67.7632Q151.884-61.7661 158.753-55.2336Q165.622-48.7012 169.332-43.2479Q173.041-37.7946 173.041-35.1893Q173.041-32.3818 169.332-26.8611Q165.622-21.3404 158.753-14.8649Q151.884-8.38926 142.391-2.45995Q132.899 3.46935 121.34 7.28167Q109.781 11.094 96.7497 11.094ZM96.7497 0.0216103Q106.454 0.0216103 114.48-4.78042Q122.505-9.58245 127.297-17.6009Q132.088-25.6193 132.088-35.1893Q132.088-44.9875 127.297-52.9893Q122.505-60.991 114.48-65.6956Q106.454-70.4002 96.7497-70.4002Q86.9052-70.4002 78.8632-65.6956Q70.8212-60.991 66.0764-52.9893Q61.3316-44.9875 61.3779-35.1893Q61.4584-25.6193 66.2031-17.6009Q70.9479-9.58245 78.9265-4.78042Q86.9052 0.0216103 96.7497 0.0216103ZM96.7968-24.1884Q92.1846-24.1884 88.8863-27.4229Q85.5879-30.6575 85.5879-35.1893Q85.5879-39.8015 88.8863-43.0129Q92.1846-46.2243 96.7968-46.2243Q101.362-46.2243 104.596-43.0129Q107.831-39.8015 107.831-35.1893Q107.831-30.6575 104.596-27.4229Q101.362-24.1884 96.7968-24.1884Z"/>
  </g>
  <g id="Thin-L" transform="matrix(1 0 0 1 761.4 1556)">
   <path d="M95.0584 17.3024Q109.284 17.3024 121.806 13.1445Q134.328 8.98653 144.488 2.41085Q154.649-4.16482 161.96-11.4319Q169.271-18.699 173.225-25.086Q177.178-31.473 177.178-35.1893Q177.178-38.9134 173.189-45.2965Q169.2-51.6795 161.852-58.9466Q154.505-66.2137 144.308-72.7894Q134.111-79.3651 121.661-83.523Q109.212-87.681 95.0584-87.681Q80.8586-87.681 68.4172-83.523Q55.9757-79.3651 45.7751-72.7894Q35.5746-66.2137 28.2186-58.9466Q20.8626-51.6795 16.8649-45.2965Q12.8672-38.9134 12.8672-35.1893Q12.8672-31.473 16.8286-25.086Q20.79-18.699 28.1103-11.4319Q35.4306-4.16482 45.5949 2.41085Q55.7592 8.98653 68.2727 13.1445Q80.7861 17.3024 95.0584 17.3024ZM95.0584 12.8103Q81.4758 12.8103 69.6894 8.87181Q57.903 4.93332 48.3227-1.22309Q38.7424-7.37949 31.8983-14.0949Q25.0541-20.8103 21.3781-26.5329Q17.7021-32.2554 17.7021-35.1893Q17.7021-38.0724 21.3781-43.778Q25.0541-49.4836 31.8983-56.2432Q38.7424-63.0028 48.3227-69.1767Q57.903-75.3506 69.6894-79.3417Q81.4758-83.3328 95.0584-83.3328Q108.57-83.3328 120.355-79.3417Q132.141-75.3506 141.722-69.1767Q151.303-63.0028 158.147-56.2432Q164.991-49.4836 168.663-43.778Q172.334-38.0724 172.334-35.1893Q172.334-32.2554 168.663-26.5329Q164.991-20.8103 158.147-14.0949Q151.303-7.37949 141.722-1.22309Q132.141 4.93332 120.355 8.87181Q108.57 12.8103 95.0584 12.8103ZM95.0584-0.0288568Q104.662-0.0288568 112.7-4.81837Q120.738-9.60789 125.555-17.6136Q130.372-25.6193 130.372-35.1893Q130.372-44.937 125.555-52.9388Q120.738-60.9406 112.7-65.6451Q104.662-70.3497 95.0584-70.3497Q85.2393-70.3497 77.1973-65.6451Q69.1553-60.9406 64.4106-52.9388Q59.6658-44.937 59.7371-35.1893Q59.8176-25.6193 64.5623-17.6136Q69.3071-9.60789 77.2732-4.81837Q85.2393-0.0288568 95.0584-0.0288568ZM95.131-24.7185Q90.7206-24.7185 87.5737-27.7889Q84.4268-30.8593 84.4268-35.1893Q84.4268-39.5996 87.5737-42.6344Q90.7206-45.6691 95.131-45.6691Q99.4688-45.6691 102.539-42.6344Q105.61-39.5996 105.61-35.1893Q105.61-30.8593 102.539-27.7889Q99.4688-24.7185 95.131-24.7185Z"/>
  </g>
  <g id="Ultralight-L" transform="matrix(1 0 0 1 465.561 1556)">
   <path d="M94.1921 16.9662Q108.185 16.9662 120.558 12.8342Q132.932 8.70219 142.989 2.15877Q153.046-4.38465 160.305-11.6065Q167.564-18.8283 171.499-25.1636Q175.433-31.4989 175.433-35.1893Q175.433-38.8745 171.457-45.2124Q167.48-51.5503 160.178-58.7721Q152.876-65.9939 142.776-72.5373Q132.676-79.0808 120.388-83.2127Q108.1-87.3447 94.1921-87.3447Q80.1863-87.3447 67.8936-83.2127Q55.6008-79.0808 45.5036-72.5373Q35.4064-65.9939 28.1087-58.7721Q20.8109-51.5503 16.839-45.2124Q12.8672-38.8745 12.8672-35.1893Q12.8672-31.4989 16.7962-25.1636Q20.7253-18.8283 27.981-11.6065Q35.2367-4.38465 45.2911 2.15877Q55.3454 8.70219 67.7231 12.8342Q80.1007 16.9662 94.1921 16.9662ZM94.1921 13.6894Q80.351 13.6894 68.4482 9.68627Q56.5454 5.68316 46.9199-0.589568Q37.2945-6.86229 30.4632-13.7005Q23.632-20.5388 19.9818-26.3648Q16.3317-32.1907 16.3317-35.1893Q16.3317-38.2146 19.9818-44.0495Q23.632-49.8844 30.4632-56.7603Q37.2945-63.6362 46.9199-69.9007Q56.5454-76.1652 68.4482-80.2014Q80.351-84.2377 94.1921-84.2377Q107.949-84.2377 119.851-80.2014Q131.753-76.1652 141.379-69.9007Q151.006-63.6362 157.837-56.7603Q164.668-49.8844 168.32-44.0495Q171.972-38.2146 171.972-35.1893Q171.972-32.1907 168.32-26.3648Q164.668-20.5388 157.837-13.7005Q151.006-6.86229 141.379-0.589568Q131.753 5.68316 119.851 9.68627Q107.949 13.6894 94.1921 13.6894ZM94.1921-0.0547058Q103.744-0.0547058 111.789-4.83782Q119.833-9.62093 124.663-17.6201Q129.493-25.6193 129.493-35.1893Q129.493-44.9112 124.663-52.9129Q119.833-60.9147 111.789-65.6193Q103.744-70.3239 94.1921-70.3239Q84.3861-70.3239 76.3441-65.6193Q68.3021-60.9147 63.5573-52.9129Q58.8125-44.9112 58.8967-35.1893Q58.9771-25.6193 63.7219-17.6201Q68.4667-9.62093 76.4264-4.83782Q84.3861-0.0547058 94.1921-0.0547058ZM94.2777-24.99Q89.9708-24.99 86.9014-27.9764Q83.832-30.9627 83.832-35.1893Q83.832-39.4962 86.9014-42.4405Q89.9708-45.3848 94.2777-45.3848Q98.4991-45.3848 101.485-42.4405Q104.472-39.4962 104.472-35.1893Q104.472-30.9627 101.485-27.9764Q98.4991-24.99 94.2777-24.99Z"/>
  </g>
  <g id="Black-M" transform="matrix(1 0 0 1 2854.71 1126)">
   <path d="M78.6575 8.98246Q91.4297 8.98246 102.147 5.44875Q112.864 1.91505 121.269-3.60473Q129.675-9.12452 135.507-15.265Q141.338-21.4055 144.371-26.7492Q147.404-32.093 147.404-35.1412Q147.404-38.1379 144.371-43.4789Q141.339-48.8199 135.507-54.9604Q129.675-61.1009 121.27-66.6207Q112.864-72.1404 102.147-75.6741Q91.4299-79.2079 78.6575-79.2079Q66.0731-79.2079 55.447-75.6741Q44.8209-72.1404 36.3842-66.6207Q27.9474-61.1009 22.0532-54.9604Q16.1589-48.8199 13.0638-43.4789Q9.96875-38.1379 9.96875-35.1412Q9.96875-32.093 13.064-26.7492Q16.1592-21.4055 22.0536-15.265Q27.948-9.12452 36.3849-3.60473Q44.8218 1.91505 55.4476 5.44875Q66.0734 8.98246 78.6575 8.98246ZM78.6575-7.93158Q70.5684-7.93158 63.5404-10.1032Q56.5125-12.2748 50.7992-15.6552Q45.0859-19.0355 40.9835-22.7921Q36.8811-26.5488 34.6919-29.8774Q32.5027-33.206 32.5027-35.1412Q32.5027-36.701 34.6919-39.9044Q36.8811-43.1079 40.9835-46.9269Q45.0859-50.746 50.7992-54.2515Q56.5125-57.757 63.5404-60.0251Q70.5684-62.2932 78.6575-62.2932Q86.7469-62.2932 93.8034-60.0251Q100.86-57.757 106.573-54.2515Q112.287-50.746 116.389-46.9269Q120.491-43.1079 122.678-39.9044Q124.864-36.701 124.864-35.1412Q124.864-33.206 122.678-29.8774Q120.491-26.5488 116.389-22.7921Q112.287-19.0355 106.573-15.6552Q100.86-12.2748 93.8034-10.1032Q86.7469-7.93158 78.6575-7.93158ZM78.7146-13.4986Q84.7805-13.4986 89.6665-16.4662Q94.5524-19.4338 97.4288-24.3512Q100.305-29.2686 100.305-35.1412Q100.305-41.1495 97.4288-46.007Q94.5524-50.8646 89.6665-53.7672Q84.7805-56.6697 78.7146-56.6697Q72.7066-56.6697 67.7894-53.7957Q62.8721-50.9217 59.967-46.0356Q57.0618-41.1495 57.0615-35.1412Q57.0667-29.2686 59.9719-24.3512Q62.8771-19.4338 67.7918-16.4662Q72.7066-13.4986 78.7146-13.4986ZM78.6001-29.1635Q76.1624-29.1635 74.473-30.9361Q72.7835-32.7087 72.7835-35.1412Q72.7835-37.579 74.473-39.3232Q76.1624-41.0674 78.6001-41.0674Q81.0953-41.0674 82.8393-39.3232Q84.5834-37.579 84.5834-35.1412Q84.5834-32.7087 82.8393-30.9361Q81.0953-29.1635 78.6001-29.1635Z"/>
  </g>
  <g id="Heavy-M" transform="matrix(1 0 0 1 2558.48 1126)">
   <path d="M78.1897 8.43087Q90.7407 8.43087 101.341 4.94946Q111.941 1.46805 120.306-3.97798Q128.671-9.42401 134.506-15.4815Q140.341-21.5389 143.396-26.832Q146.452-32.125 146.452-35.1547Q146.452-38.1572 143.395-43.4421Q140.338-48.7269 134.502-54.7844Q128.666-60.8418 120.3-66.2878Q111.934-71.7339 101.336-75.2153Q90.7384-78.6967 78.1897-78.6967Q65.8189-78.6967 55.303-75.2153Q44.7872-71.7339 36.3911-66.2878Q27.995-60.8418 22.0988-54.7844Q16.2026-48.7269 13.0857-43.4421Q9.96875-38.1572 9.96875-35.1547Q9.96875-32.125 13.0845-26.832Q16.2003-21.5389 22.0954-15.4815Q27.9905-9.42401 36.3854-3.97798Q44.7803 1.46805 55.2985 4.94946Q65.8166 8.43087 78.1897 8.43087ZM78.1897-6.31594Q69.7396-6.31594 62.3113-8.64183Q54.883-10.9677 48.8037-14.5799Q42.7244-18.1921 38.3281-22.1886Q33.9319-26.1851 31.5659-29.6892Q29.1998-33.1932 29.1998-35.1547Q29.1998-36.756 31.5659-40.14Q33.9319-43.524 38.3281-47.5817Q42.7244-51.6393 48.8037-55.3716Q54.883-59.1039 62.3113-61.5291Q69.7396-63.9544 78.1897-63.9544Q86.6377-63.9544 94.0877-61.5291Q101.538-59.1039 107.617-55.3716Q113.696-51.6393 118.093-47.5817Q122.489-43.524 124.847-40.14Q127.205-36.756 127.205-35.1547Q127.205-33.1932 124.847-29.6892Q122.489-26.1851 118.093-22.1886Q113.696-18.1921 107.617-14.5799Q101.538-10.9677 94.0877-8.64183Q86.6377-6.31594 78.1897-6.31594ZM78.2334-12.1697Q84.6663-12.1697 89.8635-15.3179Q95.0607-18.4662 98.1282-23.6922Q101.196-28.9182 101.196-35.1547Q101.196-41.5486 98.1282-46.7228Q95.0607-51.897 89.8635-54.9748Q84.6663-58.0525 78.2334-58.0525Q71.8372-58.0525 66.61-54.9966Q61.3829-51.9407 58.2958-46.7446Q55.2087-41.5486 55.211-35.1547Q55.2296-28.9182 58.3167-23.6922Q61.4038-18.4662 66.6205-15.3179Q71.8372-12.1697 78.2334-12.1697ZM78.1484-28.4491Q75.3943-28.4491 73.4641-30.4342Q71.534-32.4192 71.534-35.1547Q71.534-37.9089 73.4641-39.871Q75.3943-41.8331 78.1484-41.8331Q80.9439-41.8331 82.9072-39.871Q84.8704-37.9089 84.8704-35.1547Q84.8704-32.4192 82.9072-30.4342Q80.9439-28.4491 78.1484-28.4491Z"/>
  </g>
  <g id="Bold-M" transform="matrix(1 0 0 1 2262.3 1126)">
   <path d="M77.6665 7.81384Q89.97 7.81384 100.439 4.39093Q110.908 0.968014 119.228-4.39551Q127.547-9.75904 133.386-15.7236Q139.224-21.6881 142.306-26.9245Q145.388-32.1609 145.388-35.1698Q145.388-38.1787 142.304-43.4008Q139.219-48.623 133.378-54.5875Q127.537-60.552 119.215-65.9155Q110.893-71.279 100.429-74.702Q89.9649-78.1249 77.6665-78.1249Q65.5345-78.1249 55.142-74.702Q44.7495-71.279 36.3989-65.9155Q28.0483-60.552 22.1498-54.5875Q16.2514-48.623 13.1101-43.4008Q9.96875-38.1787 9.96875-35.1698Q9.96875-32.1609 13.1075-26.9245Q16.2462-21.6881 22.1421-15.7236Q28.038-9.75904 36.386-4.39551Q44.734 0.968014 55.1317 4.39093Q65.5293 7.81384 77.6665 7.81384ZM77.6665-4.5086Q68.8124-4.5086 60.9364-7.00706Q53.0603-9.50553 46.5715-13.3771Q40.0828-17.2487 35.3577-21.5135Q30.6327-25.7784 28.0689-29.4786Q25.5051-33.1789 25.5051-35.1698Q25.5051-36.8177 28.0689-40.4036Q30.6327-43.9895 35.3577-48.3141Q40.0828-52.6386 46.5715-56.6246Q53.0603-60.6105 60.9364-63.2116Q68.8124-65.8127 77.6665-65.8127Q86.5154-65.8127 94.4058-63.2116Q102.296-60.6105 108.785-56.6246Q115.274-52.6386 119.999-48.3141Q124.724-43.9895 127.273-40.4036Q129.823-36.8177 129.823-35.1698Q129.823-33.1789 127.273-29.4786Q124.724-25.7784 119.999-21.5135Q115.274-17.2487 108.785-13.3771Q102.296-9.50553 94.4058-7.00706Q86.5154-4.5086 77.6665-4.5086ZM77.695-10.6831Q84.5386-10.6831 90.0839-14.0335Q95.6292-17.3838 98.9107-22.9551Q102.192-28.5263 102.192-35.1698Q102.192-41.9951 98.9107-47.5235Q95.6292-53.052 90.0839-56.3257Q84.5386-59.5994 77.695-59.5994Q70.8646-59.5994 65.2908-56.3399Q59.7169-53.0805 56.4263-47.5378Q53.1358-41.9951 53.1408-35.1698Q53.1746-28.5263 56.4652-22.9551Q59.7558-17.3838 65.3102-14.0335Q70.8646-10.6831 77.695-10.6831ZM77.6431-27.65Q74.535-27.65 72.3356-29.8727Q70.1363-32.0954 70.1363-35.1698Q70.1363-38.2779 72.3356-40.4838Q74.535-42.6897 77.6431-42.6897Q80.7746-42.6897 82.983-40.4838Q85.1915-38.2779 85.1915-35.1698Q85.1915-32.0954 82.983-29.8727Q80.7746-27.65 77.6431-27.65Z"/>
  </g>
  <g id="Semibold-M" transform="matrix(1 0 0 1 1965.96 1126)">
   <path d="M77.3058 7.38846Q89.4387 7.38846 99.8176 4.00588Q110.196 0.623294 118.485-4.68335Q126.773-9.99 132.614-15.8905Q138.455-21.7909 141.554-26.9883Q144.654-32.1856 144.654-35.1802Q144.654-38.1936 141.551-43.3724Q138.448-48.5513 132.603-54.4517Q126.758-60.3522 118.467-65.6589Q110.175-70.9655 99.8033-74.3481Q89.4316-77.7307 77.3058-77.7307Q65.3384-77.7307 55.0309-74.3481Q44.7235-70.9655 36.4042-65.6589Q28.085-60.3522 22.185-54.4517Q16.2851-48.5513 13.1269-43.3724Q9.96875-38.1936 9.96875-35.1802Q9.96875-32.1856 13.1233-26.9883Q16.2779-21.7909 22.1744-15.8905Q28.0708-9.99 36.3864-4.68335Q44.7021 0.623294 55.0167 4.00588Q65.3313 7.38846 77.3058 7.38846ZM77.3058-3.26263Q68.1733-3.26263 59.9885-5.88006Q51.8037-8.4975 45.0326-12.5479Q38.2616-16.5982 33.31-21.0481Q28.3583-25.498 25.6582-29.3335Q22.958-33.169 22.958-35.1802Q22.958-36.8601 25.6582-40.5853Q28.3583-44.3104 33.31-48.819Q38.2616-53.3276 45.0326-57.4884Q51.8037-61.6492 59.9885-64.3715Q68.1733-67.0938 77.3058-67.0938Q86.4312-67.0938 94.625-64.3715Q102.819-61.6492 109.59-57.4884Q116.361-53.3276 121.313-48.819Q126.264-44.3104 128.946-40.5853Q131.628-36.8601 131.628-35.1802Q131.628-33.169 128.946-29.3335Q126.264-25.498 121.313-21.0481Q116.361-16.5982 109.59-12.5479Q102.819-8.4975 94.625-5.88006Q86.4312-3.26263 77.3058-3.26263ZM77.3239-9.6583Q84.4506-9.6583 90.2359-13.1479Q96.0212-16.6376 99.4501-22.4469Q102.879-28.2562 102.879-35.1802Q102.879-42.3029 99.4501-48.0755Q96.0212-53.8482 90.2359-57.257Q84.4506-60.6658 77.3239-60.6658Q70.1941-60.6658 64.3813-57.266Q58.5684-53.8663 55.1375-48.0846Q51.7067-42.3029 51.7137-35.1802Q51.7579-28.2562 55.1887-22.4469Q58.6196-16.6376 64.4069-13.1479Q70.1941-9.6583 77.3239-9.6583ZM77.2948-27.0991Q73.9426-27.0991 71.5577-29.4856Q69.1727-31.8722 69.1727-35.1802Q69.1727-38.5323 71.5577-40.9063Q73.9426-43.2802 77.2948-43.2802Q80.6579-43.2802 83.0354-40.9063Q85.4128-38.5323 85.4128-35.1802Q85.4128-31.8722 83.0354-29.4856Q80.6579-27.0991 77.2948-27.0991Z"/>
  </g>
  <g id="Medium-M" transform="matrix(1 0 0 1 1669.52 1126)">
   <path d="M77.0322 7.06592Q89.0359 7.06592 99.3463 3.71392Q109.657 0.361913 117.921-4.90161Q126.185-10.1651 132.028-16.017Q137.872-21.8689 140.985-27.0366Q144.097-32.2044 144.097-35.1881Q144.097-38.2048 140.98-43.3509Q137.863-48.4969 132.016-54.3488Q126.168-60.2007 117.9-65.4642Q109.631-70.7278 99.3291-74.0798Q89.0272-77.4318 77.0322-77.4318Q65.1898-77.4318 54.9468-74.0798Q44.7037-70.7278 36.4083-65.4642Q28.1128-60.2007 22.2117-54.3488Q16.3106-48.4969 13.1397-43.3509Q9.96875-38.2048 9.96875-35.1881Q9.96875-32.2044 13.1354-27.0366Q16.302-21.8689 22.1988-16.017Q28.0956-10.1651 36.3867-4.90161Q44.6779 0.361913 54.9295 3.71392Q65.1811 7.06592 77.0322 7.06592ZM77.0322-2.31789Q67.6886-2.31789 59.2698-5.02553Q50.8509-7.73316 43.8658-11.9191Q36.8808-16.1051 31.7573-20.6952Q26.6338-25.2853 23.8302-29.2234Q21.0267-33.1615 21.0267-35.1881Q21.0267-36.8924 23.8302-40.723Q26.6338-44.5537 31.7573-49.2018Q36.8808-53.8499 43.8658-58.1434Q50.8509-62.4368 59.2698-65.251Q67.6886-68.0652 77.0322-68.0652Q86.3673-68.0652 94.7913-65.251Q103.215-62.4368 110.2-58.1434Q117.185-53.8499 122.309-49.2018Q127.432-44.5537 130.214-40.723Q132.996-36.8924 132.996-35.1881Q132.996-33.1615 130.214-29.2234Q127.432-25.2853 122.309-20.6952Q117.185-16.1051 110.2-11.9191Q103.215-7.73316 94.7913-5.02553Q86.3673-2.31789 77.0322-2.31789ZM77.0425-8.88124Q84.3838-8.88124 90.3511-12.4765Q96.3184-16.0718 99.8591-22.0615Q103.4-28.0513 103.4-35.1881Q103.4-42.5363 99.8591-48.4941Q96.3184-54.4519 90.3511-57.9631Q84.3838-61.4743 77.0425-61.4743Q69.6857-61.4743 63.6917-57.9683Q57.6976-54.4622 54.1603-48.4992Q50.6231-42.5363 50.6316-35.1881Q50.6837-28.0513 54.2209-22.0615Q57.7581-16.0718 63.7219-12.4765Q69.6857-8.88124 77.0425-8.88124ZM77.0306-26.6814Q73.4935-26.6814 70.9678-29.1921Q68.4421-31.7029 68.4421-35.1881Q68.4421-38.7252 70.9678-41.2266Q73.4935-43.728 77.0306-43.728Q80.5694-43.728 83.075-41.2266Q85.5807-38.7252 85.5807-35.1881Q85.5807-31.7029 83.075-29.1921Q80.5694-26.6814 77.0306-26.6814Z"/>
  </g>
  <g id="Regular-M" transform="matrix(1 0 0 1 1373.17 1126)">
   <path d="M76.6755 6.64521Q88.5104 6.64521 98.7317 3.3331Q108.953 0.0209807 117.186-5.18629Q125.419-10.3936 131.265-16.1821Q137.111-21.9706 140.241-27.0997Q143.372-32.2288 143.372-35.1983Q143.372-38.2195 140.236-43.3228Q137.1-48.4261 131.249-54.2146Q125.398-60.0031 117.16-65.2104Q108.921-70.4177 98.7105-73.7298Q88.4998-77.0419 76.6755-77.0419Q64.9959-77.0419 54.8369-73.7298Q44.678-70.4177 36.4136-65.2104Q28.1491-60.0031 22.2465-54.2146Q16.3439-48.4261 13.1563-43.3228Q9.96875-38.2195 9.96875-35.1983Q9.96875-32.2288 13.151-27.0997Q16.3333-21.9706 22.2307-16.1821Q28.128-10.3936 36.3872-5.18629Q44.6463 0.0209807 54.8158 3.3331Q64.9852 6.64521 76.6755 6.64521ZM76.6755-1.08561Q67.0565-1.08561 58.3323-3.91091Q49.6081-6.73621 42.3439-11.099Q35.0796-15.4618 29.732-20.2349Q24.3843-25.008 21.446-29.0799Q18.5076-33.1518 18.5076-35.1983Q18.5076-36.9344 21.446-40.9027Q24.3843-44.8711 29.732-49.7012Q35.0796-54.5313 42.3439-58.9977Q49.6081-63.4641 58.3323-66.3981Q67.0565-69.3322 76.6755-69.3322Q86.284-69.3322 95.0081-66.3981Q103.732-63.4641 110.997-58.9977Q118.261-54.5313 123.608-49.7012Q128.956-44.8711 131.869-40.9027Q134.781-36.9344 134.781-35.1983Q134.781-33.1518 131.869-29.0799Q128.956-25.008 123.608-20.2349Q118.261-15.4618 110.997-11.099Q103.732-6.73621 95.0081-3.91091Q86.284-1.08561 76.6755-1.08561ZM76.6755-7.86768Q84.2968-7.86768 90.5014-11.6007Q96.706-15.3338 100.393-21.5589Q104.079-27.7841 104.079-35.1983Q104.079-42.8407 100.393-49.04Q96.706-55.2394 90.5014-58.8842Q84.2968-62.529 76.6755-62.529Q69.0226-62.529 62.7922-58.8842Q56.5617-55.2394 52.8857-49.04Q49.2097-42.8407 49.2202-35.1983Q49.2825-27.7841 52.9585-21.5589Q56.6345-15.3338 62.8285-11.6007Q69.0226-7.86768 76.6755-7.86768ZM76.6861-26.1365Q72.9076-26.1365 70.1983-28.8093Q67.489-31.4821 67.489-35.1983Q67.489-38.9768 70.1983-41.6444Q72.9076-44.312 76.6861-44.312Q80.454-44.312 83.1268-41.6444Q85.7996-38.9768 85.7996-35.1983Q85.7996-31.4821 83.1268-28.8093Q80.454-26.1365 76.6861-26.1365Z"/>
  </g>
  <g id="Light-M" transform="matrix(1 0 0 1 1077.62 1126)">
   <path d="M75.529 6.20019Q87.056 6.20019 97.0805 2.92243Q107.105-0.355336 115.201-5.51991Q123.298-10.6845 129.075-16.4131Q134.852-22.1417 137.957-27.2023Q141.062-32.263 141.062-35.1983Q141.062-38.1681 137.943-43.2115Q134.824-48.255 129.033-53.9836Q123.243-59.7122 115.132-64.8768Q107.022-70.0413 97.0249-73.3191Q87.0281-76.5969 75.529-76.5969Q64.1061-76.5969 54.144-73.3191Q44.1818-70.0413 36.0542-64.8768Q27.9266-59.7122 22.1011-53.9836Q16.2755-48.255 13.1221-43.2115Q9.96875-38.1681 9.96875-35.1983Q9.96875-32.263 13.1082-27.2023Q16.2476-22.1417 22.0595-16.4131Q27.8713-10.6845 35.985-5.51991Q44.0986-0.355336 54.0884 2.92243Q64.0782 6.20019 75.529 6.20019ZM75.529 0.0778345Q65.5679 0.0778345 56.6896-2.83299Q47.8113-5.74381 40.4873-10.2606Q33.1633-14.7773 27.8327-19.713Q22.5022-24.6486 19.598-28.8574Q16.6938-33.0661 16.6938-35.1983Q16.6938-37.1227 19.598-41.2621Q22.5022-45.4015 27.8327-50.3855Q33.1633-55.3696 40.4873-59.9559Q47.8113-64.5421 56.6896-67.536Q65.5679-70.5298 75.529-70.5298Q85.4626-70.5298 94.3407-67.536Q103.219-64.5421 110.543-59.9559Q117.867-55.3696 123.198-50.3855Q128.528-45.4015 131.415-41.2621Q134.302-37.1227 134.302-35.1983Q134.302-33.0661 131.415-28.8574Q128.528-24.6486 123.198-19.713Q117.867-14.7773 110.543-10.2606Q103.219-5.74381 94.3407-2.83299Q85.4626 0.0778345 75.529 0.0778345ZM75.529-7.90189Q83.0818-7.90189 89.2951-11.6265Q95.5084-15.351 99.212-21.5676Q102.916-27.7841 102.916-35.1983Q102.916-42.8065 99.212-49.0058Q95.5084-55.2051 89.2951-58.85Q83.0818-62.4948 75.529-62.4948Q67.8934-62.4948 61.6629-58.85Q55.4325-55.2051 51.7565-49.0058Q48.0805-42.8065 48.1079-35.1983Q48.1702-27.7841 51.8462-21.5676Q55.5222-15.351 61.7078-11.6265Q67.8934-7.90189 75.529-7.90189ZM75.5569-26.4959Q71.9152-26.4959 69.3086-29.0574Q66.7019-31.619 66.7019-35.1983Q66.7019-38.84 69.3086-41.3878Q71.9152-43.9357 75.5569-43.9357Q79.1706-43.9357 81.7322-41.3878Q84.2937-38.84 84.2937-35.1983Q84.2937-31.619 81.7322-29.0574Q79.1706-26.4959 75.5569-26.4959Z"/>
  </g>
  <g id="Thin-M" transform="matrix(1 0 0 1 782.435 1126)">
   <path d="M74.0127 5.61161Q85.1325 5.61161 94.8967 2.37928Q104.661-0.853046 112.576-5.96116Q120.492-11.0693 126.178-16.7186Q131.864-22.3679 134.936-27.3381Q138.007-32.3083 138.007-35.1983Q138.007-38.1 134.911-43.0644Q131.814-48.0288 126.103-53.6781Q120.391-59.3274 112.45-64.4355Q104.51-69.5436 94.7957-72.776Q85.0818-76.0083 74.0127-76.0083Q62.9293-76.0083 53.2274-72.776Q43.5256-69.5436 35.5789-64.4355Q27.6323-59.3274 21.9087-53.6781Q16.185-48.0288 13.0769-43.0644Q9.96875-38.1 9.96875-35.1983Q9.96875-32.3083 13.0515-27.3381Q16.1343-22.3679 21.833-16.7186Q27.5318-11.0693 35.453-5.96116Q43.3743-0.853046 53.1265 2.37928Q62.8786 5.61161 74.0127 5.61161ZM74.0127 1.61659Q63.5991 1.61659 54.517-1.40735Q45.4349-4.43129 38.0318-9.15164Q30.6287-13.872 25.3208-19.0227Q20.0129-24.1734 17.1539-28.5631Q14.295-32.9528 14.295-35.1983Q14.295-37.3717 17.1539-41.7374Q20.0129-46.103 25.3208-51.2907Q30.6287-56.4783 38.0318-61.2231Q45.4349-65.968 54.517-69.0409Q63.5991-72.1138 74.0127-72.1138Q84.3763-72.1138 93.458-69.0409Q102.54-65.968 109.943-61.2231Q117.347-56.4783 122.655-51.2907Q127.963-46.103 130.815-41.7374Q133.668-37.3717 133.668-35.1983Q133.668-32.9528 130.815-28.5631Q127.963-24.1734 122.655-19.0227Q117.347-13.872 109.943-9.15164Q102.54-4.43129 93.458-1.40735Q84.3763 1.61659 74.0127 1.61659ZM74.0127-7.94713Q81.475-7.94713 87.6997-11.6605Q93.9244-15.3738 97.6506-21.579Q101.377-27.7841 101.377-35.1983Q101.377-42.7613 97.6506-48.9606Q93.9244-55.1599 87.6997-58.8047Q81.475-62.4495 74.0127-62.4495Q66.3999-62.4495 60.1694-58.8047Q53.9389-55.1599 50.263-48.9606Q46.587-42.7613 46.6368-35.1983Q46.6991-27.7841 50.3751-21.579Q54.0511-15.3738 60.2255-11.6605Q66.3999-7.94713 74.0127-7.94713ZM74.0634-26.9712Q70.6027-26.9712 68.1318-29.3856Q65.6609-31.8 65.6609-35.1983Q65.6609-38.659 68.1318-41.0485Q70.6027-43.438 74.0634-43.438Q77.4733-43.438 79.8877-41.0485Q82.3021-38.659 82.3021-35.1983Q82.3021-31.8 79.8877-29.3856Q77.4733-26.9712 74.0634-26.9712Z"/>
  </g>
  <g id="Ultralight-M" transform="matrix(1 0 0 1 486.506 1126)">
   <path d="M73.236 5.31014Q84.1473 5.31014 93.7782 2.10108Q103.409-1.10797 111.232-6.18717Q119.055-11.2664 124.694-16.8751Q130.334-22.4838 133.388-27.4076Q136.442-32.3314 136.442-35.1983Q136.442-38.0652 133.357-42.989Q130.273-47.9129 124.602-53.5216Q118.931-59.1303 111.077-64.2095Q103.223-69.2887 93.6539-72.4978Q84.0849-75.7068 73.236-75.7068Q62.3266-75.7068 52.758-72.4978Q43.1894-69.2887 35.3355-64.2095Q27.4816-59.1303 21.8101-53.5216Q16.1387-47.9129 13.0537-42.989Q9.96875-38.0652 9.96875-35.1983Q9.96875-32.3314 13.0225-27.4076Q16.0763-22.4838 21.7171-16.8751Q27.3579-11.2664 35.1806-6.18717Q43.0033-1.10797 52.6338 2.10108Q62.2642 5.31014 73.236 5.31014ZM73.236 2.40473Q62.5907 2.40473 53.4042-0.677143Q44.2177-3.75902 36.7741-8.58366Q29.3305-13.4083 24.0342-18.6691Q18.7379-23.9299 15.9021-28.4123Q13.0664-32.8948 13.0664-35.1983Q13.0664-37.4993 15.9021-41.9808Q18.7379-46.4623 24.0342-51.7543Q29.3305-57.0462 36.7741-61.8722Q44.2177-66.6983 53.4042-69.8117Q62.5907-72.9251 73.236-72.9251Q83.8199-72.9251 93.0059-69.8117Q102.192-66.6983 109.636-61.8722Q117.08-57.0462 122.376-51.7543Q127.673-46.4623 130.508-41.9808Q133.343-37.4993 133.343-35.1983Q133.343-32.8948 130.508-28.4123Q127.673-23.9299 122.376-18.6691Q117.08-13.4083 109.636-8.58366Q102.192-3.75902 93.0059-0.677143Q83.8199 2.40473 73.236 2.40473ZM73.236-7.97031Q80.652-7.97031 86.8825-11.6779Q93.113-15.3855 96.8509-21.5848Q100.589-27.7841 100.589-35.1983Q100.589-42.7381 96.8509-48.9374Q93.113-55.1367 86.8825-58.7815Q80.652-62.4264 73.236-62.4264Q65.6349-62.4264 59.4044-58.7815Q53.174-55.1367 49.498-48.9374Q45.822-42.7381 45.8834-35.1983Q45.9457-27.7841 49.6216-21.5848Q53.2976-15.3855 59.4663-11.6779Q65.6349-7.97031 73.236-7.97031ZM73.2984-27.2146Q69.9304-27.2146 67.529-29.5536Q65.1277-31.8927 65.1277-35.1983Q65.1277-38.5663 67.529-40.8747Q69.9304-43.183 73.2984-43.183Q76.604-43.183 78.943-40.8747Q81.2821-38.5663 81.2821-35.1983Q81.2821-31.8927 78.943-29.5536Q76.604-27.2146 73.2984-27.2146Z"/>
  </g>
  <g id="Black-S" transform="matrix(1 0 0 1 2871.66 696)">
   <path d="M61.7188-0.439453Q71.7773-0.439453 80.2002-3.22266Q88.623-6.00586 95.2148-10.3516Q101.807-14.6973 106.372-19.5312Q110.938-24.3652 113.306-28.5645Q115.674-32.7637 115.674-35.1562Q115.674-37.5 113.306-41.6992Q110.938-45.8984 106.372-50.7324Q101.807-55.5664 95.2148-59.9121Q88.623-64.2578 80.2002-67.041Q71.7773-69.8242 61.7188-69.8242Q51.8066-69.8242 43.457-67.041Q35.1074-64.2578 28.4912-59.9121Q21.875-55.5664 17.2607-50.7324Q12.6465-45.8984 10.2295-41.6992Q7.8125-37.5 7.8125-35.1562Q7.8125-32.7637 10.2295-28.5645Q12.6465-24.3652 17.2607-19.5312Q21.875-14.6973 28.4912-10.3516Q35.1074-6.00586 43.457-3.22266Q51.8066-0.439453 61.7188-0.439453ZM61.7188-14.2578Q55.4688-14.2578 50.0732-15.918Q44.6777-17.5781 40.3076-20.166Q35.9375-22.7539 32.8125-25.6348Q29.6875-28.5156 28.0273-31.0791Q26.3672-33.6426 26.3672-35.1562Q26.3672-36.377 28.0273-38.8428Q29.6875-41.3086 32.8125-44.2383Q35.9375-47.168 40.3076-49.8535Q44.6777-52.5391 50.0732-54.2725Q55.4688-56.0059 61.7188-56.0059Q67.9688-56.0059 73.3887-54.2725Q78.8086-52.5391 83.1787-49.8535Q87.5488-47.168 90.6738-44.2383Q93.7988-41.3086 95.459-38.8428Q97.1191-36.377 97.1191-35.1562Q97.1191-33.6426 95.459-31.0791Q93.7988-28.5156 90.6738-25.6348Q87.5488-22.7539 83.1787-20.166Q78.8086-17.5781 73.3887-15.918Q67.9688-14.2578 61.7188-14.2578ZM61.7676-18.6035Q66.4062-18.6035 70.1416-20.874Q73.877-23.1445 76.0742-26.9043Q78.2715-30.6641 78.2715-35.1562Q78.2715-39.7461 76.0742-43.457Q73.877-47.168 70.1416-49.3896Q66.4062-51.6113 61.7676-51.6113Q57.1777-51.6113 53.418-49.4141Q49.6582-47.2168 47.4365-43.4814Q45.2148-39.7461 45.2148-35.1562Q45.2148-30.6641 47.4365-26.9043Q49.6582-23.1445 53.418-20.874Q57.1777-18.6035 61.7676-18.6035ZM61.6699-30.7129Q59.8633-30.7129 58.6182-32.0312Q57.373-33.3496 57.373-35.1562Q57.373-36.9629 58.6182-38.2568Q59.8633-39.5508 61.6699-39.5508Q63.5254-39.5508 64.8193-38.2568Q66.1133-36.9629 66.1133-35.1562Q66.1133-33.3496 64.8193-32.0312Q63.5254-30.7129 61.6699-30.7129Z"/>
  </g>
  <g id="Heavy-S" transform="matrix(1 0 0 1 2575.21 696)">
   <path d="M61.4652-0.854334Q71.374-0.854334 79.7219-3.5972Q88.0699-6.34007 94.6444-10.6281Q101.219-14.9162 105.796-19.6868Q110.373-24.4574 112.764-28.6221Q115.155-32.7867 115.155-35.1678Q115.155-37.523 112.764-41.6819Q110.373-45.8408 105.796-50.6114Q101.219-55.382 94.6444-59.6701Q88.0699-63.9582 79.7219-66.701Q71.374-69.4439 61.4652-69.4439Q51.7029-69.4439 43.4225-66.701Q35.142-63.9582 28.5431-59.6701Q21.9441-55.382 17.3184-50.6114Q12.6926-45.8408 10.2525-41.6819Q7.8125-37.523 7.8125-35.1678Q7.8125-32.7867 10.2525-28.6221Q12.6926-24.4574 17.3184-19.6868Q21.9441-14.9162 28.5431-10.6281Q35.142-6.34007 43.4225-3.5972Q51.7029-0.854334 61.4652-0.854334ZM61.4652-13.0247Q54.9501-13.0247 49.232-14.8059Q43.5138-16.587 38.8382-19.3535Q34.1627-22.1201 30.7842-25.1853Q27.4057-28.2506 25.5899-30.9466Q23.7742-33.6426 23.7742-35.1678Q23.7742-36.4 25.5899-38.9984Q27.4057-41.5967 30.7842-44.7108Q34.1627-47.8249 38.8382-50.689Q43.5138-53.5532 49.232-55.4134Q54.9501-57.2736 61.4652-57.2736Q67.9803-57.2736 73.7171-55.4134Q79.454-53.5532 84.1295-50.689Q88.805-47.8249 92.1835-44.7108Q95.5621-41.5967 97.372-38.9984Q99.182-36.4 99.182-35.1678Q99.182-33.6426 97.372-30.9466Q95.5621-28.2506 92.1835-25.1853Q88.805-22.1201 84.1295-19.3535Q79.454-16.587 73.7171-14.8059Q67.9803-13.0247 61.4652-13.0247ZM61.5025-17.4626Q66.4639-17.4626 70.4643-19.8887Q74.4647-22.3148 76.8233-26.3396Q79.1819-30.3644 79.1819-35.1678Q79.1819-40.0918 76.8233-44.0736Q74.4647-48.0554 70.4643-50.4269Q66.4639-52.7983 61.5025-52.7983Q56.5785-52.7983 52.5536-50.4455Q48.5288-48.0927 46.1515-44.0922Q43.7743-40.0918 43.7743-35.1678Q43.7858-30.3644 46.1631-26.3396Q48.5403-22.3148 52.5594-19.8887Q56.5785-17.4626 61.5025-17.4626ZM61.4279-30.056Q59.3332-30.056 57.8691-31.5703Q56.405-33.0845 56.405-35.1678Q56.405-37.2625 57.8691-38.7582Q59.3332-40.2538 61.4279-40.2538Q63.56-40.2538 65.0556-38.7582Q66.5512-37.2625 66.5512-35.1678Q66.5512-33.0845 65.0556-31.5703Q63.56-30.056 61.4279-30.056Z"/>
  </g>
  <g id="Bold-S" transform="matrix(1 0 0 1 2278.78 696)">
   <path d="M61.1816-1.31836Q70.9229-1.31836 79.187-4.01611Q87.4512-6.71387 94.0063-10.9375Q100.562-15.1611 105.151-19.8608Q109.741-24.5605 112.158-28.6865Q114.575-32.8125 114.575-35.1807Q114.575-37.5488 112.158-41.6626Q109.741-45.7764 105.151-50.4761Q100.562-55.1758 94.0063-59.3994Q87.4512-63.623 79.187-66.3208Q70.9229-69.0186 61.1816-69.0186Q51.5869-69.0186 43.3838-66.3208Q35.1807-63.623 28.6011-59.3994Q22.0215-55.1758 17.3828-50.4761Q12.7441-45.7764 10.2783-41.6626Q7.8125-37.5488 7.8125-35.1807Q7.8125-32.8125 10.2783-28.6865Q12.7441-24.5605 17.3828-19.8608Q22.0215-15.1611 28.6011-10.9375Q35.1807-6.71387 43.3838-4.01611Q51.5869-1.31836 61.1816-1.31836ZM61.1816-11.6455Q54.3701-11.6455 48.291-13.562Q42.2119-15.4785 37.1948-18.4448Q32.1777-21.4111 28.5156-24.6826Q24.8535-27.9541 22.8638-30.7983Q20.874-33.6426 20.874-35.1807Q20.874-36.4258 22.8638-39.1724Q24.8535-41.9189 28.5156-45.2393Q32.1777-48.5596 37.1948-51.6235Q42.2119-54.6875 48.291-56.6895Q54.3701-58.6914 61.1816-58.6914Q67.9932-58.6914 74.0845-56.6895Q80.1758-54.6875 85.1929-51.6235Q90.21-48.5596 93.8721-45.2393Q97.5342-41.9189 99.5117-39.1724Q101.489-36.4258 101.489-35.1807Q101.489-33.6426 99.5117-30.7983Q97.5342-27.9541 93.8721-24.6826Q90.21-21.4111 85.1929-18.4448Q80.1758-15.4785 74.0845-13.562Q67.9932-11.6455 61.1816-11.6455ZM61.2061-16.1865Q66.5283-16.1865 70.8252-18.7866Q75.1221-21.3867 77.6611-25.708Q80.2002-30.0293 80.2002-35.1807Q80.2002-40.4785 77.6611-44.7632Q75.1221-49.0479 70.8252-51.5869Q66.5283-54.126 61.2061-54.126Q55.9082-54.126 51.5869-51.5991Q47.2656-49.0723 44.7144-44.7754Q42.1631-40.4785 42.1631-35.1807Q42.1875-30.0293 44.7388-25.708Q47.29-21.3867 51.5991-18.7866Q55.9082-16.1865 61.2061-16.1865ZM61.1572-29.3213Q58.7402-29.3213 57.0312-31.0547Q55.3223-32.7881 55.3223-35.1807Q55.3223-37.5977 57.0312-39.3188Q58.7402-41.04 61.1572-41.04Q63.5986-41.04 65.3198-39.3188Q67.041-37.5977 67.041-35.1807Q67.041-32.7881 65.3198-31.0547Q63.5986-29.3213 61.1572-29.3213Z"/>
  </g>
  <g id="Semibold-S" transform="matrix(1 0 0 1 1982.27 696)">
   <path d="M60.9861-1.63828Q70.6118-1.63828 78.8182-4.30493Q87.0246-6.97158 93.5665-11.1508Q100.108-15.33 104.707-19.9808Q109.306-24.6316 111.741-28.731Q114.175-32.8303 114.175-35.1896Q114.175-37.5666 111.741-41.6493Q109.306-45.7319 104.707-50.3828Q100.108-55.0336 93.5665-59.2128Q87.0246-63.392 78.8182-66.0586Q70.6118-68.7253 60.9861-68.7253Q51.5069-68.7253 43.3571-66.0586Q35.2073-63.392 28.6411-59.2128Q22.0748-55.0336 17.4272-50.3828Q12.7797-45.7319 10.2961-41.6493Q7.8125-37.5666 7.8125-35.1896Q7.8125-32.8303 10.2961-28.731Q12.7797-24.6316 17.4272-19.9808Q22.0748-15.33 28.6411-11.1508Q35.2073-6.97158 43.3571-4.30493Q51.5069-1.63828 60.9861-1.63828ZM60.9861-10.6946Q53.9702-10.6946 47.6423-12.7044Q41.3144-14.7143 36.0618-17.8183Q30.8092-20.9224 26.9516-24.336Q23.0939-27.7497 20.9842-30.6961Q18.8745-33.6426 18.8745-35.1896Q18.8745-36.4436 20.9842-39.2923Q23.0939-42.1411 26.9516-45.6036Q30.8092-49.0661 36.0618-52.2678Q41.3144-55.4695 47.6423-57.5692Q53.9702-59.6689 60.9861-59.6689Q68.0021-59.6689 74.3377-57.5692Q80.6734-55.4695 85.926-52.2678Q91.1786-49.0661 95.0362-45.6036Q98.8938-42.1411 100.987-39.2923Q103.08-36.4436 103.08-35.1896Q103.08-33.6426 100.987-30.6961Q98.8938-27.7497 95.0362-24.336Q91.1786-20.9224 85.926-17.8183Q80.6734-14.7143 74.3377-12.7044Q68.0021-10.6946 60.9861-10.6946ZM61.0017-15.3067Q66.5728-15.3067 71.074-18.0268Q75.5753-20.7469 78.2388-25.2726Q80.9022-29.7982 80.9022-35.1896Q80.9022-40.7451 78.2388-45.2386Q75.5753-49.7321 71.074-52.3867Q66.5728-55.0413 61.0017-55.0413Q55.4461-55.0413 50.9204-52.3945Q46.3947-49.7477 43.7235-45.2464Q41.0522-40.7451 41.0522-35.1896Q41.0855-29.7982 43.7568-25.2726Q46.428-20.7469 50.9371-18.0268Q55.4461-15.3067 61.0017-15.3067ZM60.9706-28.8147Q58.3314-28.8147 56.4536-30.6992Q54.5758-32.5837 54.5758-35.1896Q54.5758-37.8287 56.4536-39.7054Q58.3314-41.5821 60.9706-41.5821Q63.6253-41.5821 65.502-39.7054Q67.3787-37.8287 67.3787-35.1896Q67.3787-32.5837 65.502-30.6992Q63.6253-28.8147 60.9706-28.8147Z"/>
  </g>
  <g id="Medium-S" transform="matrix(1 0 0 1 1685.71 696)">
   <path d="M60.8379-1.88086Q70.376-1.88086 78.5386-4.52393Q86.7012-7.16699 93.2329-11.3125Q99.7646-15.458 104.37-20.0718Q108.976-24.6855 111.424-28.7646Q113.872-32.8438 113.872-35.1963Q113.872-37.5801 111.424-41.6392Q108.976-45.6982 104.37-50.312Q99.7646-54.9258 93.2329-59.0713Q86.7012-63.2168 78.5386-65.8599Q70.376-68.5029 60.8379-68.5029Q51.4463-68.5029 43.3369-65.8599Q35.2275-63.2168 28.6714-59.0713Q22.1152-54.9258 17.4609-50.312Q12.8066-45.6982 10.3096-41.6392Q7.8125-37.5801 7.8125-35.1963Q7.8125-32.8438 10.3096-28.7646Q12.8066-24.6855 17.4609-20.0718Q22.1152-15.458 28.6714-11.3125Q35.2275-7.16699 43.3369-4.52393Q51.4463-1.88086 60.8379-1.88086ZM60.8379-9.97363Q53.667-9.97363 47.1504-12.0542Q40.6338-14.1348 35.2026-17.3433Q29.7715-20.5518 25.7656-24.0732Q21.7598-27.5947 19.5591-30.6187Q17.3584-33.6426 17.3584-35.1963Q17.3584-36.457 19.5591-39.3833Q21.7598-42.3096 25.7656-45.8799Q29.7715-49.4502 35.2026-52.7563Q40.6338-56.0625 47.1504-58.2363Q53.667-60.4102 60.8379-60.4102Q68.0088-60.4102 74.5298-58.2363Q81.0508-56.0625 86.4819-52.7563Q91.9131-49.4502 95.9189-45.8799Q99.9248-42.3096 102.105-39.3833Q104.286-36.457 104.286-35.1963Q104.286-33.6426 102.105-30.6187Q99.9248-27.5947 95.9189-24.0732Q91.9131-20.5518 86.4819-17.3433Q81.0508-14.1348 74.5298-12.0542Q68.0088-9.97363 60.8379-9.97363ZM60.8467-14.6396Q66.6064-14.6396 71.2627-17.4507Q75.9189-20.2617 78.6768-24.9424Q81.4346-29.623 81.4346-35.1963Q81.4346-40.9473 78.6768-45.5991Q75.9189-50.251 71.2627-52.9932Q66.6064-55.7354 60.8467-55.7354Q55.0957-55.7354 50.415-52.9976Q45.7344-50.2598 42.9722-45.6035Q40.21-40.9473 40.21-35.1963Q40.25-29.623 43.0122-24.9424Q45.7744-20.2617 50.4351-17.4507Q55.0957-14.6396 60.8467-14.6396ZM60.8291-28.4307Q58.0215-28.4307 56.0156-30.4297Q54.0098-32.4287 54.0098-35.1963Q54.0098-38.0039 56.0156-39.9985Q58.0215-41.9932 60.8291-41.9932Q63.6455-41.9932 65.6401-39.9985Q67.6348-38.0039 67.6348-35.1963Q67.6348-32.4287 65.6401-30.4297Q63.6455-28.4307 60.8291-28.4307Z"/>
  </g>
  <g id="Regular-S" transform="matrix(1 0 0 1 1389.2 696)">
   <path d="M60.6445-2.19727Q70.0684-2.19727 78.1738-4.80957Q86.2793-7.42188 92.7979-11.5234Q99.3164-15.625 103.931-20.1904Q108.545-24.7559 111.011-28.8086Q113.477-32.8613 113.477-35.2051Q113.477-37.5977 111.011-41.626Q108.545-45.6543 103.931-50.2197Q99.3164-54.7852 92.7979-58.8867Q86.2793-62.9883 78.1738-65.6006Q70.0684-68.2129 60.6445-68.2129Q51.3672-68.2129 43.3105-65.6006Q35.2539-62.9883 28.7109-58.8867Q22.168-54.7852 17.5049-50.2197Q12.8418-45.6543 10.3271-41.626Q7.8125-37.5977 7.8125-35.2051Q7.8125-32.8613 10.3271-28.8086Q12.8418-24.7559 17.5049-20.1904Q22.168-15.625 28.7109-11.5234Q35.2539-7.42188 43.3105-4.80957Q51.3672-2.19727 60.6445-2.19727ZM60.6445-9.0332Q53.2715-9.0332 46.5088-11.2061Q39.7461-13.3789 34.082-16.7236Q28.418-20.0684 24.2188-23.7305Q20.0195-27.3926 17.7002-30.5176Q15.3809-33.6426 15.3809-35.2051Q15.3809-36.4746 17.7002-39.502Q20.0195-42.5293 24.2188-46.2402Q28.418-49.9512 34.082-53.3936Q39.7461-56.8359 46.5088-59.1064Q53.2715-61.377 60.6445-61.377Q68.0176-61.377 74.7803-59.1064Q81.543-56.8359 87.207-53.3936Q92.8711-49.9512 97.0703-46.2402Q101.27-42.5293 103.564-39.502Q105.859-36.4746 105.859-35.2051Q105.859-33.6426 103.564-30.5176Q101.27-27.3926 97.0703-23.7305Q92.8711-20.0684 87.207-16.7236Q81.543-13.3789 74.7803-11.2061Q68.0176-9.0332 60.6445-9.0332ZM60.6445-13.7695Q66.6504-13.7695 71.5088-16.6992Q76.3672-19.6289 79.248-24.5117Q82.1289-29.3945 82.1289-35.2051Q82.1289-41.2109 79.248-46.0693Q76.3672-50.9277 71.5088-53.7842Q66.6504-56.6406 60.6445-56.6406Q54.6387-56.6406 49.7559-53.7842Q44.873-50.9277 41.9922-46.0693Q39.1113-41.2109 39.1113-35.2051Q39.1602-29.3945 42.041-24.5117Q44.9219-19.6289 49.7803-16.6992Q54.6387-13.7695 60.6445-13.7695ZM60.6445-27.9297Q57.6172-27.9297 55.4443-30.0781Q53.2715-32.2266 53.2715-35.2051Q53.2715-38.2324 55.4443-40.3809Q57.6172-42.5293 60.6445-42.5293Q63.6719-42.5293 65.8203-40.3809Q67.9688-38.2324 67.9688-35.2051Q67.9688-32.2266 65.8203-30.0781Q63.6719-27.9297 60.6445-27.9297Z"/>
  </g>
  <g id="Light-S" transform="matrix(1 0 0 1 1093.51 696)">
   <path d="M59.6303-2.59094Q68.7818-2.59094 76.7132-5.17286Q84.6446-7.75477 91.0421-11.8186Q97.4396-15.8824 101.993-20.3948Q106.547-24.9072 108.99-28.8994Q111.433-32.8916 111.433-35.2051Q111.433-37.5521 108.982-41.5276Q106.532-45.503 101.971-50.0154Q97.4093-54.5278 91.0042-58.5916Q84.599-62.6554 76.6828-65.2373Q68.7665-67.8192 59.6303-67.8192Q50.5801-67.8192 42.6975-65.2373Q34.815-62.6554 28.393-58.5916Q21.9711-54.5278 17.3762-50.0154Q12.7813-45.503 10.2969-41.5276Q7.8125-37.5521 7.8125-35.2051Q7.8125-32.8916 10.2893-28.8994Q12.766-24.9072 17.3534-20.3948Q21.9409-15.8824 28.3552-11.8186Q34.7694-7.75477 42.6671-5.17286Q50.5648-2.59094 59.6303-2.59094ZM59.6303-8.004Q51.9547-8.004 45.0556-10.2525Q38.1566-12.501 32.4397-15.9819Q26.7227-19.4628 22.5386-23.2688Q18.3545-27.0747 16.0655-30.3207Q13.7764-33.5668 13.7764-35.2051Q13.7764-36.6412 16.0655-39.8198Q18.3545-42.9985 22.5386-46.8456Q26.7227-50.6927 32.4397-54.2412Q38.1566-57.7896 45.0556-60.113Q51.9547-62.4364 59.6303-62.4364Q67.291-62.4364 74.1899-60.113Q81.0888-57.7896 86.8059-54.2412Q92.5229-50.6927 96.707-46.8456Q100.891-42.9985 103.163-39.8198Q105.435-36.6412 105.435-35.2051Q105.435-33.5668 103.163-30.3207Q100.891-27.0747 96.707-23.2688Q92.5229-19.4628 86.8059-15.9819Q81.0888-12.501 74.1899-10.2525Q67.291-8.004 59.6303-8.004ZM59.6303-13.7998Q65.5757-13.7998 70.4417-16.722Q75.3077-19.6442 78.2037-24.5193Q81.0997-29.3945 81.0997-35.2051Q81.0997-41.1807 78.2037-46.0391Q75.3077-50.8975 70.4417-53.7539Q65.5757-56.6104 59.6303-56.6104Q53.6397-56.6104 48.7569-53.7539Q43.8741-50.8975 40.9932-46.0391Q38.1124-41.1807 38.1274-35.2051Q38.1762-29.3945 41.0571-24.5193Q43.9379-19.6442 48.7888-16.722Q53.6397-13.7998 59.6303-13.7998ZM59.6456-28.2476Q56.7393-28.2476 54.6572-30.2976Q52.5752-32.3476 52.5752-35.2051Q52.5752-38.1114 54.6572-40.1539Q56.7393-42.1964 59.6456-42.1964Q62.5366-42.1964 64.5866-40.1539Q66.6367-38.1114 66.6367-35.2051Q66.6367-32.3476 64.5866-30.2976Q62.5366-28.2476 59.6456-28.2476Z"/>
  </g>
  <g id="Thin-S" transform="matrix(1 0 0 1 798.151 696)">
   <path d="M58.289-3.11161Q67.0802-3.11161 74.7814-5.65333Q82.4825-8.19505 88.7199-12.2089Q94.9573-16.2228 99.4307-20.665Q103.904-25.1073 106.317-29.0195Q108.731-32.9316 108.731-35.2051Q108.731-37.4919 106.3-41.3974Q103.869-45.3029 99.3781-49.7451Q94.887-54.1874 88.6319-58.2013Q82.3768-62.2151 74.7108-64.7568Q67.0448-67.2985 58.289-67.2985Q49.5391-67.2985 41.8868-64.7568Q34.2344-62.2151 27.9726-58.2013Q21.7108-54.1874 17.206-49.7451Q12.7012-45.3029 10.2569-41.3974Q7.8125-37.4919 7.8125-35.2051Q7.8125-32.9316 10.2391-29.0195Q12.6658-25.1073 17.1531-20.665Q21.6405-16.2228 27.8846-12.2089Q34.1287-8.19505 41.8162-5.65333Q49.5036-3.11161 58.289-3.11161ZM58.289-6.64279Q50.213-6.64279 43.1337-8.99136Q36.0545-11.3399 30.2675-15.001Q24.4806-18.662 20.3165-22.6581Q16.1525-26.6542 13.9034-30.0604Q11.6544-33.4666 11.6544-35.2051Q11.6544-36.8615 13.9034-40.2403Q16.1525-43.6191 20.3165-47.6463Q24.4806-51.6735 30.2675-55.3622Q36.0545-59.0509 43.1337-61.4443Q50.213-63.8377 58.289-63.8377Q66.3301-63.8377 73.409-61.4443Q80.488-59.0509 86.2753-55.3622Q92.0625-51.6735 96.2266-47.6463Q100.391-43.6191 102.633-40.2403Q104.875-36.8615 104.875-35.2051Q104.875-33.4666 102.633-30.0604Q100.391-26.6542 96.2266-22.6581Q92.0625-18.662 86.2753-15.001Q80.488-11.3399 73.409-8.99136Q66.3301-6.64279 58.289-6.64279ZM58.289-13.8398Q64.1542-13.8398 69.0304-16.7521Q73.9065-19.6643 76.8225-24.5294Q79.7385-29.3945 79.7385-35.2051Q79.7385-41.1406 76.8225-45.999Q73.9065-50.8574 69.0304-53.7139Q64.1542-56.5703 58.289-56.5703Q52.3185-56.5703 47.4357-53.7139Q42.5529-50.8574 39.6721-45.999Q36.7912-41.1406 36.8261-35.2051Q36.8749-29.3945 39.7557-24.5294Q42.6366-19.6643 47.4776-16.7521Q52.3185-13.8398 58.289-13.8398ZM58.3244-28.668Q55.5782-28.668 53.6162-30.5879Q51.6542-32.5077 51.6542-35.2051Q51.6542-37.9513 53.6162-39.8537Q55.5782-41.7561 58.3244-41.7561Q61.0352-41.7561 62.955-39.8537Q64.8749-37.9513 64.8749-35.2051Q64.8749-32.5077 62.955-30.5879Q61.0352-28.668 58.3244-28.668Z"/>
  </g>
  <g id="Ultralight-S" transform="matrix(1 0 0 1 502.132 696)">
   <path d="M57.6019-3.3783Q66.2086-3.3783 73.7919-5.89943Q81.3751-8.42056 87.5305-12.4088Q93.6859-16.3971 98.1182-20.8035Q102.551-25.2098 104.948-29.081Q107.346-32.9521 107.346-35.2051Q107.346-37.4611 104.926-41.3307Q102.505-45.2003 98.0503-49.6067Q93.5951-54.0131 87.4168-58.0013Q81.2386-61.9896 73.7007-64.5107Q66.1629-67.0319 57.6019-67.0319Q49.0059-67.0319 41.4715-64.5107Q33.9371-61.9896 27.7573-58.0013Q21.5775-54.0131 17.1188-49.6067Q12.6602-45.2003 10.2364-41.3307Q7.8125-37.4611 7.8125-35.2051Q7.8125-32.9521 10.2135-29.081Q12.6144-25.2098 17.0506-20.8035Q21.4867-16.3971 27.6436-12.4088Q33.8005-8.42056 41.3803-5.89943Q48.9601-3.3783 57.6019-3.3783ZM57.6019-5.94559Q49.321-5.94559 42.1494-8.34541Q34.9777-10.7452 29.155-14.4985Q23.3322-18.2518 19.1784-22.3454Q15.0246-26.4389 12.796-29.9271Q10.5675-33.4152 10.5675-35.2051Q10.5675-36.9743 12.796-40.4556Q15.0246-43.9369 19.1784-48.0564Q23.3322-52.1759 29.155-55.9364Q34.9777-59.697 42.1494-62.1262Q49.321-64.5554 57.6019-64.5554Q65.8379-64.5554 73.0091-62.1262Q80.1804-59.697 86.0035-55.9364Q91.8266-52.1759 95.9805-48.0564Q100.134-43.9369 102.361-40.4556Q104.588-36.9743 104.588-35.2051Q104.588-33.4152 102.361-29.9271Q100.134-26.4389 95.9805-22.3454Q91.8266-18.2518 86.0035-14.4985Q80.1804-10.7452 73.0091-8.34541Q65.8379-5.94559 57.6019-5.94559ZM57.6019-13.8603Q63.4262-13.8603 68.3075-16.7675Q73.1888-19.6747 76.115-24.5346Q79.0413-29.3945 79.0413-35.2051Q79.0413-41.1201 76.115-45.9785Q73.1888-50.8369 68.3075-53.6934Q63.4262-56.5498 57.6019-56.5498Q51.6418-56.5498 46.759-53.6934Q41.8762-50.8369 38.9954-45.9785Q36.1145-41.1201 36.1595-35.2051Q36.2083-29.3945 39.0892-24.5346Q41.9701-19.6747 46.806-16.7675Q51.6418-13.8603 57.6019-13.8603ZM57.6477-28.8834Q54.9835-28.8834 53.083-30.7365Q51.1826-32.5897 51.1826-35.2051Q51.1826-37.8693 53.083-39.6999Q54.9835-41.5306 57.6477-41.5306Q60.2661-41.5306 62.1193-39.6999Q63.9725-37.8693 63.9725-35.2051Q63.9725-32.5897 62.1193-30.7365Q60.2661-28.8834 57.6477-28.8834Z"/>
  </g>
 </g>
</svg>
