<?xml version="1.0" encoding="UTF-8"?>
<!--Generator: Apple Native CoreSVG 175-->
<!DOCTYPE svg
PUBLIC "-//W3C//DTD SVG 1.1//EN"
       "http://www.w3.org/Graphics/SVG/1.1/DTD/svg11.dtd">
<svg version="1.1" xmlns="http://www.w3.org/2000/svg" xmlns:xlink="http://www.w3.org/1999/xlink" width="3300" height="2200">
 <!--glyph: "uni10017D.medium", point size: 100.0, font version: "17.1d1e1", template writer version: "65.1"-->
 <g id="Notes">
  <rect height="2200" id="artboard" style="fill:white;opacity:1" width="3300" x="0" y="0"/>
  <line style="fill:none;stroke:black;opacity:1;stroke-width:0.5;" x1="263" x2="3036" y1="292" y2="292"/>
  <text style="stroke:none;fill:black;font-family:sans-serif;font-size:13;font-weight:bold;" transform="matrix(1 0 0 1 263 322)">Weight/Scale Variations</text>
  <text style="stroke:none;fill:black;font-family:sans-serif;font-size:13;text-anchor:middle;" transform="matrix(1 0 0 1 559.711 322)">Ultralight</text>
  <text style="stroke:none;fill:black;font-family:sans-serif;font-size:13;text-anchor:middle;" transform="matrix(1 0 0 1 856.422 322)">Thin</text>
  <text style="stroke:none;fill:black;font-family:sans-serif;font-size:13;text-anchor:middle;" transform="matrix(1 0 0 1 1153.13 322)">Light</text>
  <text style="stroke:none;fill:black;font-family:sans-serif;font-size:13;text-anchor:middle;" transform="matrix(1 0 0 1 1449.84 322)">Regular</text>
  <text style="stroke:none;fill:black;font-family:sans-serif;font-size:13;text-anchor:middle;" transform="matrix(1 0 0 1 1746.56 322)">Medium</text>
  <text style="stroke:none;fill:black;font-family:sans-serif;font-size:13;text-anchor:middle;" transform="matrix(1 0 0 1 2043.27 322)">Semibold</text>
  <text style="stroke:none;fill:black;font-family:sans-serif;font-size:13;text-anchor:middle;" transform="matrix(1 0 0 1 2339.98 322)">Bold</text>
  <text style="stroke:none;fill:black;font-family:sans-serif;font-size:13;text-anchor:middle;" transform="matrix(1 0 0 1 2636.69 322)">Heavy</text>
  <text style="stroke:none;fill:black;font-family:sans-serif;font-size:13;text-anchor:middle;" transform="matrix(1 0 0 1 2933.4 322)">Black</text>
  <line style="fill:none;stroke:black;opacity:1;stroke-width:0.5;" x1="263" x2="3036" y1="1903" y2="1903"/>
  <g transform="matrix(1 0 0 1 263 1933)">
   <path d="M9.24805 0.830078Q10.8691 0.830078 12.2949 0.214844Q13.7207-0.400391 14.8096-1.49414Q15.8984-2.58789 16.5186-4.01367Q17.1387-5.43945 17.1387-7.05078Q17.1387-8.66211 16.5186-10.0879Q15.8984-11.5137 14.8047-12.6074Q13.7109-13.7012 12.2852-14.3164Q10.8594-14.9316 9.23828-14.9316Q7.62695-14.9316 6.20117-14.3164Q4.77539-13.7012 3.69141-12.6074Q2.60742-11.5137 1.9873-10.0879Q1.36719-8.66211 1.36719-7.05078Q1.36719-5.43945 1.9873-4.01367Q2.60742-2.58789 3.69629-1.49414Q4.78516-0.400391 6.21094 0.214844Q7.63672 0.830078 9.24805 0.830078ZM9.24805-0.654297Q7.91992-0.654297 6.7627-1.14746Q5.60547-1.64062 4.73145-2.51953Q3.85742-3.39844 3.36426-4.56055Q2.87109-5.72266 2.87109-7.05078Q2.87109-8.37891 3.35938-9.54102Q3.84766-10.7031 4.72168-11.582Q5.5957-12.4609 6.75293-12.9541Q7.91016-13.4473 9.23828-13.4473Q10.5762-13.4473 11.7334-12.9541Q12.8906-12.4609 13.7695-11.582Q14.6484-10.7031 15.1465-9.54102Q15.6445-8.37891 15.6445-7.05078Q15.6445-5.72266 15.1514-4.56055Q14.6582-3.39844 13.7842-2.51953Q12.9102-1.64062 11.748-1.14746Q10.5859-0.654297 9.24805-0.654297ZM5.6543-7.05078Q5.6543-6.72852 5.85938-6.52832Q6.06445-6.32812 6.40625-6.32812L8.51562-6.32812L8.51562-4.20898Q8.51562-3.88672 8.71094-3.67676Q8.90625-3.4668 9.23828-3.4668Q9.56055-3.4668 9.77051-3.67676Q9.98047-3.88672 9.98047-4.20898L9.98047-6.32812L12.0898-6.32812Q12.4219-6.32812 12.627-6.52832Q12.832-6.72852 12.832-7.05078Q12.832-7.38281 12.627-7.58789Q12.4219-7.79297 12.0898-7.79297L9.98047-7.79297L9.98047-9.90234Q9.98047-10.2344 9.77051-10.4443Q9.56055-10.6543 9.23828-10.6543Q8.90625-10.6543 8.71094-10.4443Q8.51562-10.2344 8.51562-9.90234L8.51562-7.79297L6.40625-7.79297Q6.06445-7.79297 5.85938-7.58789Q5.6543-7.38281 5.6543-7.05078Z"/>
  </g>
  <g transform="matrix(1 0 0 1 281.867 1933)">
   <path d="M11.709 2.91016Q13.75 2.91016 15.5518 2.12891Q17.3535 1.34766 18.7305-0.0292969Q20.1074-1.40625 20.8887-3.20801Q21.6699-5.00977 21.6699-7.05078Q21.6699-9.0918 20.8887-10.8936Q20.1074-12.6953 18.7305-14.0723Q17.3535-15.4492 15.5469-16.2305Q13.7402-17.0117 11.6992-17.0117Q9.6582-17.0117 7.85645-16.2305Q6.05469-15.4492 4.68262-14.0723Q3.31055-12.6953 2.5293-10.8936Q1.74805-9.0918 1.74805-7.05078Q1.74805-5.00977 2.5293-3.20801Q3.31055-1.40625 4.6875-0.0292969Q6.06445 1.34766 7.86621 2.12891Q9.66797 2.91016 11.709 2.91016ZM11.709 1.25Q9.98047 1.25 8.47656 0.605469Q6.97266-0.0390625 5.83496-1.17676Q4.69727-2.31445 4.05762-3.81836Q3.41797-5.32227 3.41797-7.05078Q3.41797-8.7793 4.05762-10.2832Q4.69727-11.7871 5.83008-12.9297Q6.96289-14.0723 8.4668-14.7119Q9.9707-15.3516 11.6992-15.3516Q13.4277-15.3516 14.9316-14.7119Q16.4355-14.0723 17.5781-12.9297Q18.7207-11.7871 19.3652-10.2832Q20.0098-8.7793 20.0098-7.05078Q20.0098-5.32227 19.3701-3.81836Q18.7305-2.31445 17.5928-1.17676Q16.4551-0.0390625 14.9463 0.605469Q13.4375 1.25 11.709 1.25ZM7.17773-7.05078Q7.17773-6.69922 7.41211-6.47461Q7.64648-6.25 8.01758-6.25L10.8887-6.25L10.8887-3.36914Q10.8887-2.99805 11.1133-2.76855Q11.3379-2.53906 11.6895-2.53906Q12.0605-2.53906 12.29-2.76855Q12.5195-2.99805 12.5195-3.36914L12.5195-6.25L15.4004-6.25Q15.7715-6.25 16.001-6.47461Q16.2305-6.69922 16.2305-7.05078Q16.2305-7.42188 16.001-7.65137Q15.7715-7.88086 15.4004-7.88086L12.5195-7.88086L12.5195-10.752Q12.5195-11.1328 12.29-11.3623Q12.0605-11.5918 11.6895-11.5918Q11.3379-11.5918 11.1133-11.3574Q10.8887-11.123 10.8887-10.752L10.8887-7.88086L8.01758-7.88086Q7.63672-7.88086 7.40723-7.65137Q7.17773-7.42188 7.17773-7.05078Z"/>
  </g>
  <g transform="matrix(1 0 0 1 305.646 1933)">
   <path d="M14.9707 5.66406Q17.0605 5.66406 18.96 5.01465Q20.8594 4.36523 22.4512 3.19336Q24.043 2.02148 25.2197 0.429688Q26.3965-1.16211 27.0459-3.06641Q27.6953-4.9707 27.6953-7.05078Q27.6953-9.14062 27.0459-11.04Q26.3965-12.9395 25.2197-14.5312Q24.043-16.123 22.4512-17.2998Q20.8594-18.4766 18.9551-19.126Q17.0508-19.7754 14.9609-19.7754Q12.8711-19.7754 10.9717-19.126Q9.07227-18.4766 7.48535-17.2998Q5.89844-16.123 4.72168-14.5312Q3.54492-12.9395 2.90039-11.04Q2.25586-9.14062 2.25586-7.05078Q2.25586-4.9707 2.90527-3.06641Q3.55469-1.16211 4.72656 0.429688Q5.89844 2.02148 7.49023 3.19336Q9.08203 4.36523 10.9814 5.01465Q12.8809 5.66406 14.9707 5.66406ZM14.9707 3.84766Q13.1641 3.84766 11.5283 3.2959Q9.89258 2.74414 8.53516 1.74805Q7.17773 0.751953 6.17676-0.610352Q5.17578-1.97266 4.62891-3.6084Q4.08203-5.24414 4.08203-7.05078Q4.08203-8.86719 4.62891-10.5029Q5.17578-12.1387 6.17188-13.501Q7.16797-14.8633 8.52539-15.8594Q9.88281-16.8555 11.5186-17.4023Q13.1543-17.9492 14.9609-17.9492Q16.7773-17.9492 18.4131-17.4023Q20.0488-16.8555 21.4111-15.8594Q22.7734-14.8633 23.7695-13.501Q24.7656-12.1387 25.3174-10.5029Q25.8691-8.86719 25.8691-7.05078Q25.8789-5.24414 25.332-3.6084Q24.7852-1.97266 23.7842-0.610352Q22.7832 0.751953 21.4209 1.74805Q20.0586 2.74414 18.4229 3.2959Q16.7871 3.84766 14.9707 3.84766ZM9.19922-7.05078Q9.19922-6.66992 9.45801-6.4209Q9.7168-6.17188 10.1172-6.17188L14.0625-6.17188L14.0625-2.2168Q14.0625-1.81641 14.3115-1.55762Q14.5605-1.29883 14.9512-1.29883Q15.3516-1.29883 15.6104-1.55273Q15.8691-1.80664 15.8691-2.2168L15.8691-6.17188L19.8242-6.17188Q20.2246-6.17188 20.4785-6.4209Q20.7324-6.66992 20.7324-7.05078Q20.7324-7.46094 20.4785-7.71484Q20.2246-7.96875 19.8242-7.96875L15.8691-7.96875L15.8691-11.9141Q15.8691-12.3242 15.6104-12.583Q15.3516-12.8418 14.9512-12.8418Q14.5605-12.8418 14.3115-12.583Q14.0625-12.3242 14.0625-11.9141L14.0625-7.96875L10.1172-7.96875Q9.70703-7.96875 9.45312-7.71484Q9.19922-7.46094 9.19922-7.05078Z"/>
  </g>
  <text style="stroke:none;fill:black;font-family:sans-serif;font-size:13;font-weight:bold;" transform="matrix(1 0 0 1 263 1953)">Design Variations</text>
  <text style="stroke:none;fill:black;font-family:sans-serif;font-size:13;" transform="matrix(1 0 0 1 263 1971)">Symbols are supported in up to nine weights and three scales.</text>
  <text style="stroke:none;fill:black;font-family:sans-serif;font-size:13;" transform="matrix(1 0 0 1 263 1989)">For optimal layout with text and other symbols, vertically align</text>
  <text style="stroke:none;fill:black;font-family:sans-serif;font-size:13;" transform="matrix(1 0 0 1 263 2007)">symbols with the adjacent text.</text>
  <line style="fill:none;stroke:#00AEEF;stroke-width:0.5;opacity:1.0;" x1="776" x2="776" y1="1919" y2="1933"/>
  <g transform="matrix(1 0 0 1 776 1933)">
   <path d="M3.31055 0.15625Q3.70117 0.15625 3.91602-0.00976562Q4.13086-0.175781 4.26758-0.585938L5.52734-4.0332L11.2891-4.0332L12.5488-0.585938Q12.6855-0.175781 12.9004-0.00976562Q13.1152 0.15625 13.4961 0.15625Q13.8867 0.15625 14.1162-0.0585938Q14.3457-0.273438 14.3457-0.644531Q14.3457-0.869141 14.2383-1.17188L9.6582-13.3691Q9.48242-13.8184 9.17969-14.043Q8.87695-14.2676 8.4082-14.2676Q7.5-14.2676 7.17773-13.3789L2.59766-1.16211Q2.49023-0.859375 2.49023-0.634766Q2.49023-0.263672 2.70996-0.0537109Q2.92969 0.15625 3.31055 0.15625ZM6.00586-5.51758L8.37891-12.0898L8.42773-12.0898L10.8008-5.51758Z"/>
  </g>
  <line style="fill:none;stroke:#00AEEF;stroke-width:0.5;opacity:1.0;" x1="793.197" x2="793.197" y1="1919" y2="1933"/>
  <text style="stroke:none;fill:black;font-family:sans-serif;font-size:13;font-weight:bold;" transform="matrix(1 0 0 1 776 1953)">Margins</text>
  <text style="stroke:none;fill:black;font-family:sans-serif;font-size:13;" transform="matrix(1 0 0 1 776 1971)">Leading and trailing margins on the left and right side of each symbol</text>
  <text style="stroke:none;fill:black;font-family:sans-serif;font-size:13;" transform="matrix(1 0 0 1 776 1989)">can be adjusted by modifying the x-location of the margin guidelines.</text>
  <text style="stroke:none;fill:black;font-family:sans-serif;font-size:13;" transform="matrix(1 0 0 1 776 2007)">Modifications are automatically applied proportionally to all</text>
  <text style="stroke:none;fill:black;font-family:sans-serif;font-size:13;" transform="matrix(1 0 0 1 776 2025)">scales and weights.</text>
  <g transform="matrix(1 0 0 1 1289 1933)">
   <path d="M2.8418 1.86523L4.54102 3.57422Q5.18555 4.22852 5.90332 4.17969Q6.62109 4.13086 7.31445 3.35938L18.0078-8.42773L17.041-9.4043L6.42578 2.27539Q6.16211 2.57812 5.89355 2.61719Q5.625 2.65625 5.27344 2.30469L4.10156 1.14258Q3.75 0.791016 3.79395 0.522461Q3.83789 0.253906 4.14062-0.0195312L15.6152-10.8203L14.6387-11.7871L3.04688-0.898438Q2.30469-0.214844 2.25098 0.498047Q2.19727 1.21094 2.8418 1.86523ZM9.25781-16.3281Q8.94531-16.0254 8.90625-15.6348Q8.86719-15.2441 9.04297-14.9512Q9.21875-14.6777 9.55566-14.541Q9.89258-14.4043 10.3809-14.5215Q11.4746-14.7754 12.5977-14.7314Q13.7207-14.6875 14.7949-13.9844L14.209-12.5293Q13.9551-11.9043 14.0674-11.4404Q14.1797-10.9766 14.5801-10.5664L16.875-8.25195Q17.2363-7.88086 17.5781-7.82227Q17.9199-7.76367 18.3398-7.8418L19.4043-8.03711L20.0684-7.36328L20.0293-6.80664Q20-6.43555 20.1221-6.12305Q20.2441-5.81055 20.6055-5.44922L21.3672-4.70703Q21.7285-4.3457 22.1533-4.33105Q22.5781-4.31641 22.9297-4.66797L25.8398-7.58789Q26.1914-7.93945 26.1816-8.35449Q26.1719-8.76953 25.8105-9.13086L25.0391-9.89258Q24.6875-10.2539 24.3799-10.3857Q24.0723-10.5176 23.7109-10.4883L23.1348-10.4395L22.4902-11.0742L22.7344-12.1973Q22.832-12.6172 22.6953-12.9834Q22.5586-13.3496 22.1191-13.7891L19.9219-15.9766Q18.6719-17.2168 17.2607-17.8369Q15.8496-18.457 14.4189-18.4814Q12.9883-18.5059 11.665-17.959Q10.3418-17.4121 9.25781-16.3281ZM10.752-15.957Q11.6602-16.6211 12.7002-16.9043Q13.7402-17.1875 14.8047-17.085Q15.8691-16.9824 16.8701-16.5137Q17.8711-16.0449 18.7012-15.2051L21.1328-12.793Q21.3086-12.6172 21.3525-12.4512Q21.3965-12.2852 21.3379-12.0312L21.0156-10.5469L22.5195-9.0625L23.5059-9.12109Q23.6914-9.13086 23.7891-9.09668Q23.8867-9.0625 24.0332-8.91602L24.6094-8.33984L22.168-5.89844L21.5918-6.47461Q21.4453-6.62109 21.4062-6.71875Q21.3672-6.81641 21.377-7.01172L21.4453-7.98828L19.9512-9.47266L18.4277-9.21875Q18.1836-9.16992 18.042-9.2041Q17.9004-9.23828 17.7148-9.41406L15.7129-11.416Q15.5176-11.5918 15.4932-11.7529Q15.4688-11.9141 15.5859-12.1875L16.4648-14.2773Q15.293-15.3711 13.8281-15.791Q12.3633-16.2109 10.8398-15.7617Q10.7227-15.7324 10.6885-15.8057Q10.6543-15.8789 10.752-15.957Z"/>
  </g>
  <text style="stroke:none;fill:black;font-family:sans-serif;font-size:13;font-weight:bold;" transform="matrix(1 0 0 1 1289 1953)">Exporting</text>
  <text style="stroke:none;fill:black;font-family:sans-serif;font-size:13;" transform="matrix(1 0 0 1 1289 1971)">Symbols should be outlined when exporting to ensure the</text>
  <text style="stroke:none;fill:black;font-family:sans-serif;font-size:13;" transform="matrix(1 0 0 1 1289 1989)">design is preserved when submitting to Xcode.</text>
  <text id="template-version" style="stroke:none;fill:black;font-family:sans-serif;font-size:13;text-anchor:end;" transform="matrix(1 0 0 1 3036 1933)">Template v.3.0</text>
  <text style="stroke:none;fill:black;font-family:sans-serif;font-size:13;text-anchor:end;" transform="matrix(1 0 0 1 3036 1951)">Requires Xcode 13 or greater</text>
  <text id="descriptive-name" style="stroke:none;fill:black;font-family:sans-serif;font-size:13;text-anchor:end;" transform="matrix(1 0 0 1 3036 1969)">Generated from minus</text>
  <text style="stroke:none;fill:black;font-family:sans-serif;font-size:13;text-anchor:end;" transform="matrix(1 0 0 1 3036 1987)">Typeset at 100 points</text>
  <text style="stroke:none;fill:black;font-family:sans-serif;font-size:13;" transform="matrix(1 0 0 1 263 726)">Small</text>
  <text style="stroke:none;fill:black;font-family:sans-serif;font-size:13;" transform="matrix(1 0 0 1 263 1156)">Medium</text>
  <text style="stroke:none;fill:black;font-family:sans-serif;font-size:13;" transform="matrix(1 0 0 1 263 1586)">Large</text>
 </g>
 <g id="Guides">
  <g id="H-reference" style="fill:#27AAE1;stroke:none;" transform="matrix(1 0 0 1 339 696)">
   <path d="M0.993347 0L3.6377 0L29.3282-67.1326L30.0301-67.1326L30.0301-70.459L28.1227-70.459ZM11.6882-24.4797L46.9818-24.4797L46.2311-26.7288L12.4382-26.7288ZM55.1193 0L57.7637 0L30.6381-70.459L29.4327-70.459L29.4327-67.1326Z"/>
  </g>
  <line id="Baseline-S" style="fill:none;stroke:#27AAE1;opacity:1;stroke-width:0.5;" x1="263" x2="3036" y1="696" y2="696"/>
  <line id="Capline-S" style="fill:none;stroke:#27AAE1;opacity:1;stroke-width:0.5;" x1="263" x2="3036" y1="625.541" y2="625.541"/>
  <g id="H-reference" style="fill:#27AAE1;stroke:none;" transform="matrix(1 0 0 1 339 1126)">
   <path d="M0.993347 0L3.6377 0L29.3282-67.1326L30.0301-67.1326L30.0301-70.459L28.1227-70.459ZM11.6882-24.4797L46.9818-24.4797L46.2311-26.7288L12.4382-26.7288ZM55.1193 0L57.7637 0L30.6381-70.459L29.4327-70.459L29.4327-67.1326Z"/>
  </g>
  <line id="Baseline-M" style="fill:none;stroke:#27AAE1;opacity:1;stroke-width:0.5;" x1="263" x2="3036" y1="1126" y2="1126"/>
  <line id="Capline-M" style="fill:none;stroke:#27AAE1;opacity:1;stroke-width:0.5;" x1="263" x2="3036" y1="1055.54" y2="1055.54"/>
  <g id="H-reference" style="fill:#27AAE1;stroke:none;" transform="matrix(1 0 0 1 339 1556)">
   <path d="M0.993347 0L3.6377 0L29.3282-67.1326L30.0301-67.1326L30.0301-70.459L28.1227-70.459ZM11.6882-24.4797L46.9818-24.4797L46.2311-26.7288L12.4382-26.7288ZM55.1193 0L57.7637 0L30.6381-70.459L29.4327-70.459L29.4327-67.1326Z"/>
  </g>
  <line id="Baseline-L" style="fill:none;stroke:#27AAE1;opacity:1;stroke-width:0.5;" x1="263" x2="3036" y1="1556" y2="1556"/>
  <line id="Capline-L" style="fill:none;stroke:#27AAE1;opacity:1;stroke-width:0.5;" x1="263" x2="3036" y1="1485.54" y2="1485.54"/>
  <line id="left-margin-Regular-M" style="fill:none;stroke:#00AEEF;stroke-width:0.5;opacity:1.0;" x1="1397.12" x2="1397.12" y1="1030.79" y2="1150.12"/>
  <line id="right-margin-Regular-M" style="fill:none;stroke:#00AEEF;stroke-width:0.5;opacity:1.0;" x1="1502.57" x2="1502.57" y1="1030.79" y2="1150.12"/>
 </g>
 <g id="Symbols">
  <g id="Black-L" transform="matrix(1 0 0 1 2862.21 1556)">
   <path d="M27.7804-23.258L114.614-23.258Q119.261-23.258 122.775-26.8014Q126.289-30.3447 126.289-35.1881Q126.289-40.0315 122.775-43.5748Q119.261-47.1181 114.614-47.1181L27.7804-47.1181Q23.3459-47.1181 19.7149-43.5748Q16.084-40.0315 16.084-35.1881Q16.084-30.3447 19.7149-26.8014Q23.3459-23.258 27.7804-23.258Z"/>
  </g>
  <g id="Heavy-L" transform="matrix(1 0 0 1 2566.3 1556)">
   <path d="M26.2661-24.8232L114.535-24.8232Q118.58-24.8232 121.634-27.8988Q124.687-30.9744 124.687-35.1836Q124.687-39.3928 121.634-42.4685Q118.58-45.5442 114.535-45.5442L26.2661-45.5442Q22.3692-45.5442 19.2266-42.4685Q16.084-39.3928 16.084-35.1836Q16.084-30.9744 19.2266-27.8988Q22.3692-24.8232 26.2661-24.8232Z"/>
  </g>
  <g id="Bold-L" transform="matrix(1 0 0 1 2270.6 1556)">
   <path d="M24.4061-26.7373L114.383-26.7373Q117.691-26.7373 120.179-29.2402Q122.667-31.7431 122.667-35.1759Q122.667-38.6088 120.179-41.1118Q117.691-43.6148 114.383-43.6148L24.4061-43.6148Q21.1777-43.6148 18.6308-41.1118Q16.084-38.6088 16.084-35.1759Q16.084-31.7431 18.6308-29.2402Q21.1777-26.7373 24.4061-26.7373Z"/>
  </g>
  <g id="Semibold-L" transform="matrix(1 0 0 1 1974.59 1556)">
   <path d="M23.1238-28.0568L114.279-28.0568Q117.077-28.0568 119.176-30.1649Q121.275-32.273 121.275-35.1707Q121.275-38.0683 119.176-40.1765Q117.077-42.2848 114.279-42.2848L23.1238-42.2848Q20.3562-42.2848 18.2201-40.1765Q16.084-38.0683 16.084-35.1707Q16.084-32.273 18.2201-30.1649Q20.3562-28.0568 23.1238-28.0568Z"/>
  </g>
  <g id="Medium-L" transform="matrix(1 0 0 1 1678.4 1556)">
   <path d="M22.1516-29.0574L114.199-29.0574Q116.612-29.0574 118.416-30.8661Q120.219-32.6749 120.219-35.1666Q120.219-37.6584 118.416-39.4673Q116.612-41.2763 114.199-41.2763L22.1516-41.2763Q19.7334-41.2763 17.9087-39.4673Q16.084-37.6584 16.084-35.1666Q16.084-32.6749 17.9087-30.8661Q19.7334-29.0574 22.1516-29.0574Z"/>
  </g>
  <g id="Regular-L" transform="matrix(1 0 0 1 1382.38 1556)">
   <path d="M20.8834-30.3625L114.096-30.3625Q116.005-30.3625 117.424-31.7807Q118.842-33.199 118.842-35.1614Q118.842-37.1238 117.424-38.5423Q116.005-39.9608 114.096-39.9608L20.8834-39.9608Q18.9209-39.9608 17.5025-38.5423Q16.084-37.1238 16.084-35.1614Q16.084-33.199 17.5025-31.7807Q18.9209-30.3625 20.8834-30.3625Z"/>
  </g>
  <g id="Light-L" transform="matrix(1 0 0 1 1086.48 1556)">
   <path d="M19.7002-31.5268L113.638-31.5268Q115.089-31.5268 116.154-32.5918Q117.22-33.6569 117.22-35.1422Q117.22-36.6275 116.154-37.6929Q115.089-38.7583 113.638-38.7583L19.7002-38.7583Q18.2149-38.7583 17.1494-37.6929Q16.084-36.6275 16.084-35.1422Q16.084-33.6569 17.1494-32.5918Q18.2149-31.5268 19.7002-31.5268Z"/>
  </g>
  <g id="Thin-L" transform="matrix(1 0 0 1 790.843 1556)">
   <path d="M18.1353-33.0667L113.032-33.0667Q113.877-33.0667 114.476-33.6646Q115.074-34.2625 115.074-35.1167Q115.074-35.971 114.476-36.5695Q113.877-37.168 113.032-37.168L18.1353-37.168Q17.281-37.168 16.6825-36.5695Q16.084-35.971 16.084-35.1167Q16.084-34.2625 16.6825-33.6646Q17.281-33.0667 18.1353-33.0667Z"/>
  </g>
  <g id="Ultralight-L" transform="matrix(1 0 0 1 494.681 1556)">
   <path d="M17.3337-33.8554L112.722-33.8554Q113.257-33.8554 113.616-34.214Q113.975-34.5727 113.975-35.1037Q113.975-35.6347 113.616-35.9941Q113.257-36.3534 112.722-36.3534L17.3337-36.3534Q16.8027-36.3534 16.4433-35.9941Q16.084-35.6347 16.084-35.1037Q16.084-34.5727 16.4433-34.214Q16.8027-33.8554 17.3337-33.8554Z"/>
  </g>
  <g id="Black-M" transform="matrix(1 0 0 1 2877.67 1126)">
   <path d="M22.6638-24.7673L88.8014-24.7673Q92.8574-24.7673 95.9281-27.8666Q98.9988-30.9658 98.9988-35.1986Q98.9988-39.4314 95.9281-42.5307Q92.8574-45.6299 88.8014-45.6299L22.6638-45.6299Q18.8307-45.6299 15.6458-42.5307Q12.4609-39.4314 12.4609-35.1986Q12.4609-30.9658 15.6458-27.8666Q18.8307-24.7673 22.6638-24.7673Z"/>
  </g>
  <g id="Heavy-M" transform="matrix(1 0 0 1 2581.67 1126)">
   <path d="M21.2926-26.1899L88.767-26.1899Q92.2765-26.1899 94.9294-28.8646Q97.5822-31.5392 97.5822-35.196Q97.5822-38.8529 94.9294-41.5275Q92.2765-44.2022 88.767-44.2022L21.2926-44.2022Q17.9411-44.2022 15.201-41.5275Q12.4609-38.8529 12.4609-35.196Q12.4609-31.5392 15.201-28.8646Q17.9411-26.1899 21.2926-26.1899Z"/>
  </g>
  <g id="Bold-M" transform="matrix(1 0 0 1 2285.75 1126)">
   <path d="M19.7587-27.7813L88.7285-27.7813Q91.6267-27.7813 93.8122-29.981Q95.9976-32.1806 95.9976-35.1932Q95.9976-38.2057 93.8122-40.4054Q91.6267-42.6051 88.7285-42.6051L19.7587-42.6051Q16.946-42.6051 14.7035-40.4054Q12.4609-38.2057 12.4609-35.1932Q12.4609-32.1806 14.7035-29.981Q16.946-27.7813 19.7587-27.7813Z"/>
  </g>
  <g id="Semibold-M" transform="matrix(1 0 0 1 1989.58 1126)">
   <path d="M18.7012-28.8784L88.702-28.8784Q91.1788-28.8784 93.042-30.7506Q94.9051-32.6228 94.9051-35.1912Q94.9051-37.7595 93.042-39.6318Q91.1788-41.504 88.702-41.504L18.7012-41.504Q16.2599-41.504 14.3604-39.6318Q12.4609-37.7595 12.4609-35.1912Q12.4609-32.6228 14.3604-30.7506Q16.2599-28.8784 18.7012-28.8784Z"/>
  </g>
  <g id="Medium-M" transform="matrix(1 0 0 1 1693.29 1126)">
   <path d="M17.8994-29.7103L88.6819-29.7103Q90.8391-29.7103 92.458-31.3342Q94.0768-32.9581 94.0768-35.1897Q94.0768-37.4212 92.458-39.0452Q90.8391-40.6692 88.6819-40.6692L17.8994-40.6692Q15.7397-40.6692 14.1003-39.0452Q12.4609-37.4212 12.4609-35.1897Q12.4609-32.9581 14.1003-31.3342Q15.7397-29.7103 17.8994-29.7103Z"/>
  </g>
  <g id="Regular-M" transform="matrix(1 0 0 1 1397.12 1126)">
   <path d="M16.8535-30.7953L88.6556-30.7953Q90.3961-30.7953 91.6962-32.0954Q92.9964-33.3954 92.9964-35.1877Q92.9964-36.98 91.6962-38.2801Q90.3961-39.5803 88.6556-39.5803L16.8535-39.5803Q15.0612-39.5803 13.7611-38.2801Q12.4609-36.98 12.4609-35.1877Q12.4609-33.3954 13.7611-32.0954Q15.0612-30.7953 16.8535-30.7953Z"/>
  </g>
  <g id="Light-M" transform="matrix(1 0 0 1 1101.13 1126)">
   <path d="M15.7927-31.8392L88.2451-31.8392Q89.5747-31.8392 90.5584-32.8226Q91.542-33.806 91.542-35.1705Q91.542-36.535 90.5584-37.5186Q89.5747-38.5022 88.2451-38.5022L15.7927-38.5022Q14.4282-38.5022 13.4446-37.5186Q12.4609-36.535 12.4609-35.1705Q12.4609-33.806 13.4446-32.8226Q14.4282-31.8392 15.7927-31.8392Z"/>
  </g>
  <g id="Thin-M" transform="matrix(1 0 0 1 805.383 1126)">
   <path d="M14.3897-33.2198L87.7022-33.2198Q88.4884-33.2198 89.0534-33.7843Q89.6184-34.3489 89.6184-35.1476Q89.6184-35.9464 89.0534-36.5114Q88.4884-37.0764 87.7022-37.0764L14.3897-37.0764Q13.5909-37.0764 13.0259-36.5114Q12.4609-35.9464 12.4609-35.1476Q12.4609-34.3489 13.0259-33.7843Q13.5909-33.2198 14.3897-33.2198Z"/>
  </g>
  <g id="Ultralight-M" transform="matrix(1 0 0 1 509.164 1126)">
   <path d="M13.671-33.9269L87.4241-33.9269Q87.932-33.9269 88.2826-34.277Q88.6332-34.627 88.6332-35.136Q88.6332-35.6449 88.2826-35.9955Q87.932-36.3461 87.4241-36.3461L13.671-36.3461Q13.1621-36.3461 12.8115-35.9955Q12.4609-35.6449 12.4609-35.136Q12.4609-34.627 12.8115-34.277Q13.1621-33.9269 13.671-33.9269Z"/>
  </g>
  <g id="Black-S" transform="matrix(1 0 0 1 2889.55 696)">
   <path d="M18.1152-26.6602L69.5801-26.6602Q72.9004-26.6602 75.415-29.1992Q77.9297-31.7383 77.9297-35.2051Q77.9297-38.6719 75.415-41.2109Q72.9004-43.75 69.5801-43.75L18.1152-43.75Q14.9902-43.75 12.3779-41.2109Q9.76562-38.6719 9.76562-35.2051Q9.76562-31.7383 12.3779-29.1992Q14.9902-26.6602 18.1152-26.6602Z"/>
  </g>
  <g id="Heavy-S" transform="matrix(1 0 0 1 2593.35 696)">
   <path d="M17.078-27.7435L69.6031-27.7435Q72.5086-27.7435 74.7063-29.9598Q76.904-32.1762 76.904-35.2051Q76.904-38.2339 74.7063-40.4503Q72.5086-42.6667 69.6031-42.6667L17.078-42.6667Q14.3103-42.6667 12.038-40.4503Q9.76562-38.2339 9.76562-35.2051Q9.76562-32.1762 12.038-29.9598Q14.3103-27.7435 17.078-27.7435Z"/>
  </g>
  <g id="Bold-S" transform="matrix(1 0 0 1 2297.22 696)">
   <path d="M15.918-28.9551L69.6289-28.9551Q72.0703-28.9551 73.9136-30.8105Q75.7568-32.666 75.7568-35.2051Q75.7568-37.7441 73.9136-39.5996Q72.0703-41.4551 69.6289-41.4551L15.918-41.4551Q13.5498-41.4551 11.6577-39.5996Q9.76562-37.7441 9.76562-35.2051Q9.76562-32.666 11.6577-30.8105Q13.5498-28.9551 15.918-28.9551Z"/>
  </g>
  <g id="Semibold-S" transform="matrix(1 0 0 1 2000.9 696)">
   <path d="M15.1182-29.7904L69.6467-29.7904Q71.7682-29.7904 73.367-31.3971Q74.9659-33.0037 74.9659-35.2051Q74.9659-37.4064 73.367-39.0131Q71.7682-40.6197 69.6467-40.6197L15.1182-40.6197Q13.0255-40.6197 11.3956-39.0131Q9.76562-37.4064 9.76562-35.2051Q9.76562-33.0037 11.3956-31.3971Q13.0255-29.7904 15.1182-29.7904Z"/>
  </g>
  <g id="Medium-S" transform="matrix(1 0 0 1 1704.49 696)">
   <path d="M14.5117-30.4238L69.6602-30.4238Q71.5391-30.4238 72.9526-31.8418Q74.3662-33.2598 74.3662-35.2051Q74.3662-37.1504 72.9526-38.5684Q71.5391-39.9863 69.6602-39.9863L14.5117-39.9863Q12.6279-39.9863 11.1968-38.5684Q9.76562-37.1504 9.76562-35.2051Q9.76562-33.2598 11.1968-31.8418Q12.6279-30.4238 14.5117-30.4238Z"/>
  </g>
  <g id="Regular-S" transform="matrix(1 0 0 1 1408.17 696)">
   <path d="M13.7207-31.25L69.6777-31.25Q71.2402-31.25 72.4121-32.4219Q73.584-33.5938 73.584-35.2051Q73.584-36.8164 72.4121-37.9883Q71.2402-39.1602 69.6777-39.1602L13.7207-39.1602Q12.1094-39.1602 10.9375-37.9883Q9.76562-36.8164 9.76562-35.2051Q9.76562-33.5938 10.9375-32.4219Q12.1094-31.25 13.7207-31.25Z"/>
  </g>
  <g id="Light-S" transform="matrix(1 0 0 1 1112.1 696)">
   <path d="M12.7823-32.1734L69.3146-32.1734Q70.5137-32.1734 71.4055-33.0652Q72.2974-33.9569 72.2974-35.1898Q72.2974-36.4227 71.4055-37.3146Q70.5137-38.2065 69.3146-38.2065L12.7823-38.2065Q11.5494-38.2065 10.6575-37.3146Q9.76562-36.4227 9.76562-35.1898Q9.76562-33.9569 10.6575-33.0652Q11.5494-32.1734 12.7823-32.1734Z"/>
  </g>
  <g id="Thin-S" transform="matrix(1 0 0 1 816.242 696)">
   <path d="M11.5412-33.3947L68.8343-33.3947Q69.5527-33.3947 70.0743-33.916Q70.5958-34.4372 70.5958-35.1696Q70.5958-35.9021 70.0743-36.4236Q69.5527-36.9452 68.8343-36.9452L11.5412-36.9452Q10.8087-36.9452 10.2872-36.4236Q9.76562-35.9021 9.76562-35.1696Q9.76562-34.4372 10.2872-33.916Q10.8087-33.3947 11.5412-33.3947Z"/>
  </g>
  <g id="Ultralight-S" transform="matrix(1 0 0 1 519.966 696)">
   <path d="M10.9055-34.0202L68.5883-34.0202Q69.0605-34.0202 69.3924-34.3517Q69.7243-34.6832 69.7243-35.1593Q69.7243-35.6354 69.3924-35.9673Q69.0605-36.2991 68.5883-36.2991L10.9055-36.2991Q10.4294-36.2991 10.0975-35.9673Q9.76562-35.6354 9.76562-35.1593Q9.76562-34.6832 10.0975-34.3517Q10.4294-34.0202 10.9055-34.0202Z"/>
  </g>
 </g>
</svg>
