<?xml version="1.0" encoding="UTF-8"?>
<!--Generator: Apple Native CoreSVG 175-->
<!DOCTYPE svg
PUBLIC "-//W3C//DTD SVG 1.1//EN"
       "http://www.w3.org/Graphics/SVG/1.1/DTD/svg11.dtd">
<svg version="1.1" xmlns="http://www.w3.org/2000/svg" xmlns:xlink="http://www.w3.org/1999/xlink" width="3300" height="2200">
 <!--glyph: "uni10041E.medium", point size: 100.0, font version: "17.1d1e1", template writer version: "65.1"-->
 <g id="Notes">
  <rect height="2200" id="artboard" style="fill:white;opacity:1" width="3300" x="0" y="0"/>
  <line style="fill:none;stroke:black;opacity:1;stroke-width:0.5;" x1="263" x2="3036" y1="292" y2="292"/>
  <text style="stroke:none;fill:black;font-family:sans-serif;font-size:13;font-weight:bold;" transform="matrix(1 0 0 1 263 322)">Weight/Scale Variations</text>
  <text style="stroke:none;fill:black;font-family:sans-serif;font-size:13;text-anchor:middle;" transform="matrix(1 0 0 1 559.711 322)">Ultralight</text>
  <text style="stroke:none;fill:black;font-family:sans-serif;font-size:13;text-anchor:middle;" transform="matrix(1 0 0 1 856.422 322)">Thin</text>
  <text style="stroke:none;fill:black;font-family:sans-serif;font-size:13;text-anchor:middle;" transform="matrix(1 0 0 1 1153.13 322)">Light</text>
  <text style="stroke:none;fill:black;font-family:sans-serif;font-size:13;text-anchor:middle;" transform="matrix(1 0 0 1 1449.84 322)">Regular</text>
  <text style="stroke:none;fill:black;font-family:sans-serif;font-size:13;text-anchor:middle;" transform="matrix(1 0 0 1 1746.56 322)">Medium</text>
  <text style="stroke:none;fill:black;font-family:sans-serif;font-size:13;text-anchor:middle;" transform="matrix(1 0 0 1 2043.27 322)">Semibold</text>
  <text style="stroke:none;fill:black;font-family:sans-serif;font-size:13;text-anchor:middle;" transform="matrix(1 0 0 1 2339.98 322)">Bold</text>
  <text style="stroke:none;fill:black;font-family:sans-serif;font-size:13;text-anchor:middle;" transform="matrix(1 0 0 1 2636.69 322)">Heavy</text>
  <text style="stroke:none;fill:black;font-family:sans-serif;font-size:13;text-anchor:middle;" transform="matrix(1 0 0 1 2933.4 322)">Black</text>
  <line style="fill:none;stroke:black;opacity:1;stroke-width:0.5;" x1="263" x2="3036" y1="1903" y2="1903"/>
  <g transform="matrix(1 0 0 1 263 1933)">
   <path d="M9.24805 0.830078Q10.8691 0.830078 12.2949 0.214844Q13.7207-0.400391 14.8096-1.49414Q15.8984-2.58789 16.5186-4.01367Q17.1387-5.43945 17.1387-7.05078Q17.1387-8.66211 16.5186-10.0879Q15.8984-11.5137 14.8047-12.6074Q13.7109-13.7012 12.2852-14.3164Q10.8594-14.9316 9.23828-14.9316Q7.62695-14.9316 6.20117-14.3164Q4.77539-13.7012 3.69141-12.6074Q2.60742-11.5137 1.9873-10.0879Q1.36719-8.66211 1.36719-7.05078Q1.36719-5.43945 1.9873-4.01367Q2.60742-2.58789 3.69629-1.49414Q4.78516-0.400391 6.21094 0.214844Q7.63672 0.830078 9.24805 0.830078ZM9.24805-0.654297Q7.91992-0.654297 6.7627-1.14746Q5.60547-1.64062 4.73145-2.51953Q3.85742-3.39844 3.36426-4.56055Q2.87109-5.72266 2.87109-7.05078Q2.87109-8.37891 3.35938-9.54102Q3.84766-10.7031 4.72168-11.582Q5.5957-12.4609 6.75293-12.9541Q7.91016-13.4473 9.23828-13.4473Q10.5762-13.4473 11.7334-12.9541Q12.8906-12.4609 13.7695-11.582Q14.6484-10.7031 15.1465-9.54102Q15.6445-8.37891 15.6445-7.05078Q15.6445-5.72266 15.1514-4.56055Q14.6582-3.39844 13.7842-2.51953Q12.9102-1.64062 11.748-1.14746Q10.5859-0.654297 9.24805-0.654297ZM5.6543-7.05078Q5.6543-6.72852 5.85938-6.52832Q6.06445-6.32812 6.40625-6.32812L8.51562-6.32812L8.51562-4.20898Q8.51562-3.88672 8.71094-3.67676Q8.90625-3.4668 9.23828-3.4668Q9.56055-3.4668 9.77051-3.67676Q9.98047-3.88672 9.98047-4.20898L9.98047-6.32812L12.0898-6.32812Q12.4219-6.32812 12.627-6.52832Q12.832-6.72852 12.832-7.05078Q12.832-7.38281 12.627-7.58789Q12.4219-7.79297 12.0898-7.79297L9.98047-7.79297L9.98047-9.90234Q9.98047-10.2344 9.77051-10.4443Q9.56055-10.6543 9.23828-10.6543Q8.90625-10.6543 8.71094-10.4443Q8.51562-10.2344 8.51562-9.90234L8.51562-7.79297L6.40625-7.79297Q6.06445-7.79297 5.85938-7.58789Q5.6543-7.38281 5.6543-7.05078Z"/>
  </g>
  <g transform="matrix(1 0 0 1 281.867 1933)">
   <path d="M11.709 2.91016Q13.75 2.91016 15.5518 2.12891Q17.3535 1.34766 18.7305-0.0292969Q20.1074-1.40625 20.8887-3.20801Q21.6699-5.00977 21.6699-7.05078Q21.6699-9.0918 20.8887-10.8936Q20.1074-12.6953 18.7305-14.0723Q17.3535-15.4492 15.5469-16.2305Q13.7402-17.0117 11.6992-17.0117Q9.6582-17.0117 7.85645-16.2305Q6.05469-15.4492 4.68262-14.0723Q3.31055-12.6953 2.5293-10.8936Q1.74805-9.0918 1.74805-7.05078Q1.74805-5.00977 2.5293-3.20801Q3.31055-1.40625 4.6875-0.0292969Q6.06445 1.34766 7.86621 2.12891Q9.66797 2.91016 11.709 2.91016ZM11.709 1.25Q9.98047 1.25 8.47656 0.605469Q6.97266-0.0390625 5.83496-1.17676Q4.69727-2.31445 4.05762-3.81836Q3.41797-5.32227 3.41797-7.05078Q3.41797-8.7793 4.05762-10.2832Q4.69727-11.7871 5.83008-12.9297Q6.96289-14.0723 8.4668-14.7119Q9.9707-15.3516 11.6992-15.3516Q13.4277-15.3516 14.9316-14.7119Q16.4355-14.0723 17.5781-12.9297Q18.7207-11.7871 19.3652-10.2832Q20.0098-8.7793 20.0098-7.05078Q20.0098-5.32227 19.3701-3.81836Q18.7305-2.31445 17.5928-1.17676Q16.4551-0.0390625 14.9463 0.605469Q13.4375 1.25 11.709 1.25ZM7.17773-7.05078Q7.17773-6.69922 7.41211-6.47461Q7.64648-6.25 8.01758-6.25L10.8887-6.25L10.8887-3.36914Q10.8887-2.99805 11.1133-2.76855Q11.3379-2.53906 11.6895-2.53906Q12.0605-2.53906 12.29-2.76855Q12.5195-2.99805 12.5195-3.36914L12.5195-6.25L15.4004-6.25Q15.7715-6.25 16.001-6.47461Q16.2305-6.69922 16.2305-7.05078Q16.2305-7.42188 16.001-7.65137Q15.7715-7.88086 15.4004-7.88086L12.5195-7.88086L12.5195-10.752Q12.5195-11.1328 12.29-11.3623Q12.0605-11.5918 11.6895-11.5918Q11.3379-11.5918 11.1133-11.3574Q10.8887-11.123 10.8887-10.752L10.8887-7.88086L8.01758-7.88086Q7.63672-7.88086 7.40723-7.65137Q7.17773-7.42188 7.17773-7.05078Z"/>
  </g>
  <g transform="matrix(1 0 0 1 305.646 1933)">
   <path d="M14.9707 5.66406Q17.0605 5.66406 18.96 5.01465Q20.8594 4.36523 22.4512 3.19336Q24.043 2.02148 25.2197 0.429688Q26.3965-1.16211 27.0459-3.06641Q27.6953-4.9707 27.6953-7.05078Q27.6953-9.14062 27.0459-11.04Q26.3965-12.9395 25.2197-14.5312Q24.043-16.123 22.4512-17.2998Q20.8594-18.4766 18.9551-19.126Q17.0508-19.7754 14.9609-19.7754Q12.8711-19.7754 10.9717-19.126Q9.07227-18.4766 7.48535-17.2998Q5.89844-16.123 4.72168-14.5312Q3.54492-12.9395 2.90039-11.04Q2.25586-9.14062 2.25586-7.05078Q2.25586-4.9707 2.90527-3.06641Q3.55469-1.16211 4.72656 0.429688Q5.89844 2.02148 7.49023 3.19336Q9.08203 4.36523 10.9814 5.01465Q12.8809 5.66406 14.9707 5.66406ZM14.9707 3.84766Q13.1641 3.84766 11.5283 3.2959Q9.89258 2.74414 8.53516 1.74805Q7.17773 0.751953 6.17676-0.610352Q5.17578-1.97266 4.62891-3.6084Q4.08203-5.24414 4.08203-7.05078Q4.08203-8.86719 4.62891-10.5029Q5.17578-12.1387 6.17188-13.501Q7.16797-14.8633 8.52539-15.8594Q9.88281-16.8555 11.5186-17.4023Q13.1543-17.9492 14.9609-17.9492Q16.7773-17.9492 18.4131-17.4023Q20.0488-16.8555 21.4111-15.8594Q22.7734-14.8633 23.7695-13.501Q24.7656-12.1387 25.3174-10.5029Q25.8691-8.86719 25.8691-7.05078Q25.8789-5.24414 25.332-3.6084Q24.7852-1.97266 23.7842-0.610352Q22.7832 0.751953 21.4209 1.74805Q20.0586 2.74414 18.4229 3.2959Q16.7871 3.84766 14.9707 3.84766ZM9.19922-7.05078Q9.19922-6.66992 9.45801-6.4209Q9.7168-6.17188 10.1172-6.17188L14.0625-6.17188L14.0625-2.2168Q14.0625-1.81641 14.3115-1.55762Q14.5605-1.29883 14.9512-1.29883Q15.3516-1.29883 15.6104-1.55273Q15.8691-1.80664 15.8691-2.2168L15.8691-6.17188L19.8242-6.17188Q20.2246-6.17188 20.4785-6.4209Q20.7324-6.66992 20.7324-7.05078Q20.7324-7.46094 20.4785-7.71484Q20.2246-7.96875 19.8242-7.96875L15.8691-7.96875L15.8691-11.9141Q15.8691-12.3242 15.6104-12.583Q15.3516-12.8418 14.9512-12.8418Q14.5605-12.8418 14.3115-12.583Q14.0625-12.3242 14.0625-11.9141L14.0625-7.96875L10.1172-7.96875Q9.70703-7.96875 9.45312-7.71484Q9.19922-7.46094 9.19922-7.05078Z"/>
  </g>
  <text style="stroke:none;fill:black;font-family:sans-serif;font-size:13;font-weight:bold;" transform="matrix(1 0 0 1 263 1953)">Design Variations</text>
  <text style="stroke:none;fill:black;font-family:sans-serif;font-size:13;" transform="matrix(1 0 0 1 263 1971)">Symbols are supported in up to nine weights and three scales.</text>
  <text style="stroke:none;fill:black;font-family:sans-serif;font-size:13;" transform="matrix(1 0 0 1 263 1989)">For optimal layout with text and other symbols, vertically align</text>
  <text style="stroke:none;fill:black;font-family:sans-serif;font-size:13;" transform="matrix(1 0 0 1 263 2007)">symbols with the adjacent text.</text>
  <line style="fill:none;stroke:#00AEEF;stroke-width:0.5;opacity:1.0;" x1="776" x2="776" y1="1919" y2="1933"/>
  <g transform="matrix(1 0 0 1 776 1933)">
   <path d="M3.31055 0.15625Q3.70117 0.15625 3.91602-0.00976562Q4.13086-0.175781 4.26758-0.585938L5.52734-4.0332L11.2891-4.0332L12.5488-0.585938Q12.6855-0.175781 12.9004-0.00976562Q13.1152 0.15625 13.4961 0.15625Q13.8867 0.15625 14.1162-0.0585938Q14.3457-0.273438 14.3457-0.644531Q14.3457-0.869141 14.2383-1.17188L9.6582-13.3691Q9.48242-13.8184 9.17969-14.043Q8.87695-14.2676 8.4082-14.2676Q7.5-14.2676 7.17773-13.3789L2.59766-1.16211Q2.49023-0.859375 2.49023-0.634766Q2.49023-0.263672 2.70996-0.0537109Q2.92969 0.15625 3.31055 0.15625ZM6.00586-5.51758L8.37891-12.0898L8.42773-12.0898L10.8008-5.51758Z"/>
  </g>
  <line style="fill:none;stroke:#00AEEF;stroke-width:0.5;opacity:1.0;" x1="793.197" x2="793.197" y1="1919" y2="1933"/>
  <text style="stroke:none;fill:black;font-family:sans-serif;font-size:13;font-weight:bold;" transform="matrix(1 0 0 1 776 1953)">Margins</text>
  <text style="stroke:none;fill:black;font-family:sans-serif;font-size:13;" transform="matrix(1 0 0 1 776 1971)">Leading and trailing margins on the left and right side of each symbol</text>
  <text style="stroke:none;fill:black;font-family:sans-serif;font-size:13;" transform="matrix(1 0 0 1 776 1989)">can be adjusted by modifying the x-location of the margin guidelines.</text>
  <text style="stroke:none;fill:black;font-family:sans-serif;font-size:13;" transform="matrix(1 0 0 1 776 2007)">Modifications are automatically applied proportionally to all</text>
  <text style="stroke:none;fill:black;font-family:sans-serif;font-size:13;" transform="matrix(1 0 0 1 776 2025)">scales and weights.</text>
  <g transform="matrix(1 0 0 1 1289 1933)">
   <path d="M2.8418 1.86523L4.54102 3.57422Q5.18555 4.22852 5.90332 4.17969Q6.62109 4.13086 7.31445 3.35938L18.0078-8.42773L17.041-9.4043L6.42578 2.27539Q6.16211 2.57812 5.89355 2.61719Q5.625 2.65625 5.27344 2.30469L4.10156 1.14258Q3.75 0.791016 3.79395 0.522461Q3.83789 0.253906 4.14062-0.0195312L15.6152-10.8203L14.6387-11.7871L3.04688-0.898438Q2.30469-0.214844 2.25098 0.498047Q2.19727 1.21094 2.8418 1.86523ZM9.25781-16.3281Q8.94531-16.0254 8.90625-15.6348Q8.86719-15.2441 9.04297-14.9512Q9.21875-14.6777 9.55566-14.541Q9.89258-14.4043 10.3809-14.5215Q11.4746-14.7754 12.5977-14.7314Q13.7207-14.6875 14.7949-13.9844L14.209-12.5293Q13.9551-11.9043 14.0674-11.4404Q14.1797-10.9766 14.5801-10.5664L16.875-8.25195Q17.2363-7.88086 17.5781-7.82227Q17.9199-7.76367 18.3398-7.8418L19.4043-8.03711L20.0684-7.36328L20.0293-6.80664Q20-6.43555 20.1221-6.12305Q20.2441-5.81055 20.6055-5.44922L21.3672-4.70703Q21.7285-4.3457 22.1533-4.33105Q22.5781-4.31641 22.9297-4.66797L25.8398-7.58789Q26.1914-7.93945 26.1816-8.35449Q26.1719-8.76953 25.8105-9.13086L25.0391-9.89258Q24.6875-10.2539 24.3799-10.3857Q24.0723-10.5176 23.7109-10.4883L23.1348-10.4395L22.4902-11.0742L22.7344-12.1973Q22.832-12.6172 22.6953-12.9834Q22.5586-13.3496 22.1191-13.7891L19.9219-15.9766Q18.6719-17.2168 17.2607-17.8369Q15.8496-18.457 14.4189-18.4814Q12.9883-18.5059 11.665-17.959Q10.3418-17.4121 9.25781-16.3281ZM10.752-15.957Q11.6602-16.6211 12.7002-16.9043Q13.7402-17.1875 14.8047-17.085Q15.8691-16.9824 16.8701-16.5137Q17.8711-16.0449 18.7012-15.2051L21.1328-12.793Q21.3086-12.6172 21.3525-12.4512Q21.3965-12.2852 21.3379-12.0312L21.0156-10.5469L22.5195-9.0625L23.5059-9.12109Q23.6914-9.13086 23.7891-9.09668Q23.8867-9.0625 24.0332-8.91602L24.6094-8.33984L22.168-5.89844L21.5918-6.47461Q21.4453-6.62109 21.4062-6.71875Q21.3672-6.81641 21.377-7.01172L21.4453-7.98828L19.9512-9.47266L18.4277-9.21875Q18.1836-9.16992 18.042-9.2041Q17.9004-9.23828 17.7148-9.41406L15.7129-11.416Q15.5176-11.5918 15.4932-11.7529Q15.4688-11.9141 15.5859-12.1875L16.4648-14.2773Q15.293-15.3711 13.8281-15.791Q12.3633-16.2109 10.8398-15.7617Q10.7227-15.7324 10.6885-15.8057Q10.6543-15.8789 10.752-15.957Z"/>
  </g>
  <text style="stroke:none;fill:black;font-family:sans-serif;font-size:13;font-weight:bold;" transform="matrix(1 0 0 1 1289 1953)">Exporting</text>
  <text style="stroke:none;fill:black;font-family:sans-serif;font-size:13;" transform="matrix(1 0 0 1 1289 1971)">Symbols should be outlined when exporting to ensure the</text>
  <text style="stroke:none;fill:black;font-family:sans-serif;font-size:13;" transform="matrix(1 0 0 1 1289 1989)">design is preserved when submitting to Xcode.</text>
  <text id="template-version" style="stroke:none;fill:black;font-family:sans-serif;font-size:13;text-anchor:end;" transform="matrix(1 0 0 1 3036 1933)">Template v.3.0</text>
  <text style="stroke:none;fill:black;font-family:sans-serif;font-size:13;text-anchor:end;" transform="matrix(1 0 0 1 3036 1951)">Requires Xcode 13 or greater</text>
  <text id="descriptive-name" style="stroke:none;fill:black;font-family:sans-serif;font-size:13;text-anchor:end;" transform="matrix(1 0 0 1 3036 1969)">Generated from square.stack.3d.up</text>
  <text style="stroke:none;fill:black;font-family:sans-serif;font-size:13;text-anchor:end;" transform="matrix(1 0 0 1 3036 1987)">Typeset at 100 points</text>
  <text style="stroke:none;fill:black;font-family:sans-serif;font-size:13;" transform="matrix(1 0 0 1 263 726)">Small</text>
  <text style="stroke:none;fill:black;font-family:sans-serif;font-size:13;" transform="matrix(1 0 0 1 263 1156)">Medium</text>
  <text style="stroke:none;fill:black;font-family:sans-serif;font-size:13;" transform="matrix(1 0 0 1 263 1586)">Large</text>
 </g>
 <g id="Guides">
  <g id="H-reference" style="fill:#27AAE1;stroke:none;" transform="matrix(1 0 0 1 339 696)">
   <path d="M0.993347 0L3.6377 0L29.3282-67.1326L30.0301-67.1326L30.0301-70.459L28.1227-70.459ZM11.6882-24.4797L46.9818-24.4797L46.2311-26.7288L12.4382-26.7288ZM55.1193 0L57.7637 0L30.6381-70.459L29.4327-70.459L29.4327-67.1326Z"/>
  </g>
  <line id="Baseline-S" style="fill:none;stroke:#27AAE1;opacity:1;stroke-width:0.5;" x1="263" x2="3036" y1="696" y2="696"/>
  <line id="Capline-S" style="fill:none;stroke:#27AAE1;opacity:1;stroke-width:0.5;" x1="263" x2="3036" y1="625.541" y2="625.541"/>
  <g id="H-reference" style="fill:#27AAE1;stroke:none;" transform="matrix(1 0 0 1 339 1126)">
   <path d="M0.993347 0L3.6377 0L29.3282-67.1326L30.0301-67.1326L30.0301-70.459L28.1227-70.459ZM11.6882-24.4797L46.9818-24.4797L46.2311-26.7288L12.4382-26.7288ZM55.1193 0L57.7637 0L30.6381-70.459L29.4327-70.459L29.4327-67.1326Z"/>
  </g>
  <line id="Baseline-M" style="fill:none;stroke:#27AAE1;opacity:1;stroke-width:0.5;" x1="263" x2="3036" y1="1126" y2="1126"/>
  <line id="Capline-M" style="fill:none;stroke:#27AAE1;opacity:1;stroke-width:0.5;" x1="263" x2="3036" y1="1055.54" y2="1055.54"/>
  <g id="H-reference" style="fill:#27AAE1;stroke:none;" transform="matrix(1 0 0 1 339 1556)">
   <path d="M0.993347 0L3.6377 0L29.3282-67.1326L30.0301-67.1326L30.0301-70.459L28.1227-70.459ZM11.6882-24.4797L46.9818-24.4797L46.2311-26.7288L12.4382-26.7288ZM55.1193 0L57.7637 0L30.6381-70.459L29.4327-70.459L29.4327-67.1326Z"/>
  </g>
  <line id="Baseline-L" style="fill:none;stroke:#27AAE1;opacity:1;stroke-width:0.5;" x1="263" x2="3036" y1="1556" y2="1556"/>
  <line id="Capline-L" style="fill:none;stroke:#27AAE1;opacity:1;stroke-width:0.5;" x1="263" x2="3036" y1="1485.54" y2="1485.54"/>
  <line id="left-margin-Regular-M" style="fill:none;stroke:#00AEEF;stroke-width:0.5;opacity:1.0;" x1="1387.78" x2="1387.78" y1="1030.79" y2="1150.12"/>
  <line id="right-margin-Regular-M" style="fill:none;stroke:#00AEEF;stroke-width:0.5;opacity:1.0;" x1="1511.9" x2="1511.9" y1="1030.79" y2="1150.12"/>
 </g>
 <g id="Symbols">
  <g id="Black-L" transform="matrix(1 0 0 1 2850.68 1556)">
   <path d="M82.7157-21.4967Q85.1403-21.4967 87.5735-22.4675Q90.0067-23.4383 93.2011-25.2828L141.033-52.9172Q145.723-55.6199 148.239-58.7084Q150.755-61.7969 150.755-66.1683Q150.755-70.5408 148.239-73.6183Q145.723-76.6958 141.033-79.3997L93.2011-107.034Q90.0067-108.899 87.5735-109.86Q85.1403-110.82 82.7157-110.82Q80.3507-110.82 77.8883-109.86Q75.4259-108.899 72.2523-107.034L24.3997-79.3997Q19.7097-76.6958 17.1937-73.6183Q14.6777-70.5408 14.6777-66.1683Q14.6777-61.7969 17.1937-58.7084Q19.7097-55.6199 24.3997-52.9172L72.2523-25.2828Q75.4259-23.4383 77.8883-22.4675Q80.3507-21.4967 82.7157-21.4967ZM82.7157-42.1Q82.0226-42.1 80.8678-42.689L39.948-65.6302Q39.6119-65.8578 39.6119-66.1683Q39.6119-66.4799 39.948-66.7075L80.8678-89.6279Q82.0226-90.2378 82.7157-90.2378Q83.4308-90.2378 84.5648-89.6279L125.485-66.7075Q125.821-66.4799 125.821-66.1683Q125.821-65.8578 125.485-65.6302L84.5648-42.689Q83.4308-42.1 82.7157-42.1ZM82.7157 10.3174Q85.0987 10.3174 87.4278 9.31474Q89.757 8.31211 92.8472 6.5093L142.121-22.2347Q146.199-24.5996 148.479-27.548Q150.758-30.4964 150.758-34.5435Q150.758-37.977 149.117-40.6104Q147.476-43.2438 144.742-45.2078L90.2429-13.3292Q87.9458-11.9938 86.1957-11.2572Q84.4456-10.5207 82.7157-10.5207Q80.9858-10.5207 79.2467-11.2572Q77.5076-11.9938 75.2105-13.3292L20.6908-45.2078Q17.9566-43.2438 16.3154-40.6104Q14.6741-37.977 14.6741-34.5435Q14.6741-30.4964 16.9643-27.5376Q19.2546-24.5788 23.3313-22.2347L72.605 6.5093Q75.6953 8.31211 78.0542 9.31474Q80.4131 10.3174 82.7157 10.3174ZM82.7157 40.9686Q85.0987 40.9686 87.4278 39.9666Q89.757 38.9645 92.8472 37.1617L142.121 8.39687Q146.178 6.05282 148.468 3.10442Q150.758 0.156028 150.758-3.8911Q150.758-7.34547 149.117-9.97946Q147.476-12.6134 144.742-14.5554L90.2429 17.3024Q87.9458 18.6378 86.1957 19.3848Q84.4456 20.1317 82.7157 20.1317Q80.9858 20.1317 79.2467 19.3848Q77.5076 18.6378 75.2105 17.3024L20.6908-14.5554Q17.9566-12.6134 16.3154-9.97946Q14.6741-7.34547 14.6741-3.8911Q14.6741 0.156028 16.9643 3.10442Q19.2546 6.05282 23.3313 8.39687L72.605 37.1617Q75.6953 38.9645 78.0542 39.9666Q80.4131 40.9686 82.7157 40.9686Z"/>
  </g>
  <g id="Heavy-L" transform="matrix(1 0 0 1 2554.68 1556)">
   <path d="M82.0013-22.255Q84.2814-22.255 86.5681-23.1392Q88.8549-24.0234 91.8181-25.7272L140.055-53.6287Q144.489-56.188 146.78-58.9919Q149.07-61.7958 149.07-65.7199Q149.07-69.6496 146.78-72.4356Q144.489-75.2215 140.055-77.7865L91.8181-105.688Q88.8549-107.422 86.5681-108.291Q84.2814-109.16 82.0013-109.16Q79.7715-109.16 77.4624-108.291Q75.1534-107.422 72.2203-105.688L23.9529-77.7865Q19.5188-75.2215 17.2284-72.4356Q14.938-69.6496 14.938-65.7199Q14.938-61.7958 17.2284-58.9919Q19.5188-56.188 23.9529-53.6287L72.2203-25.7272Q75.1534-24.0234 77.4624-23.1392Q79.7715-22.255 82.0013-22.255ZM82.0013-40.4211Q81.2057-40.4211 79.9578-41.0658L37.2682-65.1387Q36.8792-65.3834 36.8792-65.7199Q36.8792-66.0619 37.2682-66.3066L79.9578-90.3493Q81.2057-91.0242 82.0013-91.0242Q82.8327-91.0242 84.0505-90.3493L126.74-66.3066Q127.129-66.0619 127.129-65.7199Q127.129-65.3834 126.74-65.1387L84.0505-41.0658Q82.8327-40.4211 82.0013-40.4211ZM82.0013 9.39981Q84.221 9.39981 86.3569 8.46753Q88.4927 7.53526 91.305 5.89182L141.718-23.5849Q145.238-25.6388 147.162-28.224Q149.087-30.8092 149.087-34.2245Q149.087-37.2708 147.581-39.6061Q146.075-41.9415 143.705-43.5988L88.3172-11.2907Q86.4054-10.1803 84.9283-9.56536Q83.4511-8.95042 82.0013-8.95042Q80.5516-8.95042 79.0923-9.56536Q77.633-10.1803 75.7213-11.2907L20.303-43.5988Q17.9333-41.9415 16.4273-39.6061Q14.9212-37.2708 14.9212-34.2245Q14.9212-30.8092 16.861-28.2089Q18.8008-25.6085 22.3145-23.5849L72.7278 5.89182Q75.5401 7.53526 77.7011 8.46753Q79.862 9.39981 82.0013 9.39981ZM82.0013 39.7149Q84.221 39.7149 86.3569 38.7854Q88.4927 37.8559 91.305 36.2125L141.718 6.70561Q145.207 4.68189 147.147 2.09665Q149.087-0.488587 149.087-3.9038Q149.087-6.98041 147.581-9.31851Q146.075-11.6566 143.705-13.2781L88.3172 18.9997Q86.4054 20.1102 84.9283 20.7402Q83.4511 21.3702 82.0013 21.3702Q80.5516 21.3702 79.0923 20.7402Q77.633 20.1102 75.7213 18.9997L20.303-13.2781Q17.9333-11.6566 16.4273-9.31851Q14.9212-6.98041 14.9212-3.9038Q14.9212-0.488587 16.861 2.09665Q18.8008 4.68189 22.3145 6.70561L72.7278 36.2125Q75.5401 37.8559 77.7011 38.7854Q79.862 39.7149 82.0013 39.7149Z"/>
  </g>
  <g id="Bold-L" transform="matrix(1 0 0 1 2258.94 1556)">
   <path d="M81.0282-23.446Q83.1091-23.446 85.1892-24.2226Q87.2692-24.9991 89.9258-26.5188L138.737-54.7805Q142.796-57.1258 144.806-59.5726Q146.816-62.0194 146.816-65.3976Q146.816-68.7892 144.806-71.2102Q142.796-73.6313 138.737-75.9899L89.9258-104.252Q87.2692-105.809 85.1892-106.567Q83.1091-107.324 81.0282-107.324Q78.9897-107.324 76.8951-106.567Q74.8005-105.809 72.1817-104.252L23.3326-75.9899Q19.2733-73.6313 17.2633-71.2102Q15.2534-68.7892 15.2534-65.3976Q15.2534-62.0194 17.2633-59.5726Q19.2733-57.1258 23.3326-54.7805L72.1817-26.5188Q74.8005-24.9991 76.8951-24.2226Q78.9897-23.446 81.0282-23.446ZM81.0282-38.5699Q80.1393-38.5699 78.806-39.2689L33.9413-64.7255Q33.4609-65.008 33.4609-65.3976Q33.4609-65.8003 33.9413-66.0831L78.806-91.5015Q80.1393-92.2385 81.0282-92.2385Q81.9682-92.2385 83.2637-91.5015L128.128-66.0831Q128.609-65.8003 128.609-65.3976Q128.609-65.008 128.128-64.7255L83.2637-39.2689Q81.9682-38.5699 81.0282-38.5699ZM81.0282 8.07626Q83.0331 8.07626 84.9233 7.23609Q86.8135 6.39592 89.28 4.95217L140.965-25.3121Q143.831-26.9966 145.343-29.1435Q146.856-31.2904 146.856-33.9666Q146.856-36.529 145.541-38.4881Q144.227-40.4471 142.31-41.7427L85.9649-8.98631Q84.4922-8.13029 83.3271-7.65403Q82.162-7.17777 81.0282-7.17777Q79.8945-7.17777 78.7549-7.65403Q77.6153-8.13029 76.1428-8.98631L19.7594-41.7427Q17.8431-40.4471 16.5283-38.4881Q15.2136-36.529 15.2136-33.9666Q15.2136-31.2904 16.7453-29.1244Q18.2771-26.9585 21.129-25.3121L72.8144 4.95217Q75.2809 6.39592 77.1922 7.23609Q79.1036 8.07626 81.0282 8.07626ZM81.0282 38.0957Q83.0331 38.0957 84.9233 37.262Q86.8135 36.4284 89.28 34.9847L140.965 4.68256Q143.793 3.03588 145.324 0.889018Q146.856-1.25784 146.856-3.93407Q146.856-6.53458 145.541-8.5002Q144.227-10.4658 142.31-11.7102L85.9649 21.0081Q84.4922 21.8643 83.3271 22.3595Q82.162 22.8547 81.0282 22.8547Q79.8945 22.8547 78.7549 22.3595Q77.6153 21.8643 76.1428 21.0081L19.7594-11.7102Q17.8431-10.4658 16.5283-8.5002Q15.2136-6.53458 15.2136-3.93407Q15.2136-1.25784 16.7453 0.889018Q18.2771 3.03588 21.129 4.68256L72.8144 34.9847Q75.2809 36.4284 77.1922 37.262Q79.1036 38.0957 81.0282 38.0957Z"/>
  </g>
  <g id="Semibold-L" transform="matrix(1 0 0 1 1962.9 1556)">
   <path d="M80.3573-24.267Q82.301-24.267 84.2385-24.9694Q86.176-25.6718 88.6212-27.0646L137.828-55.5746Q141.629-57.7724 143.446-59.9729Q145.262-62.1735 145.262-65.1754Q145.262-68.196 143.446-70.3655Q141.629-72.5349 137.828-74.7514L88.6212-103.261Q86.176-104.697 84.2385-105.378Q82.301-106.059 80.3573-106.059Q78.4508-106.059 76.504-105.378Q74.5572-104.697 72.1552-103.261L22.905-74.7514Q19.104-72.5349 17.2873-70.3655Q15.4707-68.196 15.4707-65.1754Q15.4707-62.1735 17.2873-59.9729Q19.104-57.7724 22.905-55.5746L72.1552-27.0646Q74.5572-25.6718 76.504-24.9694Q78.4508-24.267 80.3573-24.267ZM80.3573-37.2936Q79.4041-37.2936 78.0119-38.0301L31.6477-64.4406Q31.1043-64.7492 31.1043-65.1754Q31.1043-65.62 31.6477-65.9289L78.0119-92.2959Q79.4041-93.0756 80.3573-93.0756Q81.3723-93.0756 82.7213-92.2959L129.085-65.9289Q129.629-65.62 129.629-65.1754Q129.629-64.7492 129.085-64.4406L82.7213-38.0301Q81.3723-37.2936 80.3573-37.2936ZM80.3573 7.16381Q82.2142 7.16381 83.9351 6.38713Q85.6559 5.61046 87.884 4.30439L140.446-26.5028Q142.861-27.9327 144.089-29.7774Q145.318-31.622 145.318-33.7888Q145.318-36.0176 144.135-37.7172Q142.952-39.4169 141.348-40.4631L84.3433-7.39767Q83.1733-6.71702 82.2233-6.33637Q81.2734-5.95571 80.3573-5.95571Q79.4415-5.95571 78.5223-6.33637Q77.6031-6.71702 76.4334-7.39767L19.3847-40.4631Q17.7809-39.4169 16.598-37.7172Q15.4151-36.0176 15.4151-33.7888Q15.4151-31.622 16.6656-29.7556Q17.916-27.8892 20.3116-26.5028L72.874 4.30439Q75.1022 5.61046 76.8415 6.38713Q78.5807 7.16381 80.3573 7.16381ZM80.3573 36.9794Q82.2142 36.9794 83.9351 36.2118Q85.6559 35.4443 87.884 34.1383L140.446 3.28788Q142.817 1.90113 144.068 0.0564827Q145.318-1.78817 145.318-3.95494Q145.318-6.22723 144.135-7.93606Q142.952-9.64489 141.348-10.6292L84.3433 22.3927Q83.1733 23.0736 82.2233 23.4759Q81.2734 23.8782 80.3573 23.8782Q79.4415 23.8782 78.5223 23.4759Q77.6031 23.0736 76.4334 22.3927L19.3847-10.6292Q17.7809-9.64489 16.598-7.93606Q15.4151-6.22723 15.4151-3.95494Q15.4151-1.78817 16.6656 0.0564827Q17.916 1.90113 20.3116 3.28788L72.874 34.1383Q75.1022 35.4443 76.8415 36.2118Q78.5807 36.9794 80.3573 36.9794Z"/>
  </g>
  <g id="Medium-L" transform="matrix(1 0 0 1 1666.7 1556)">
   <path d="M79.8486-24.8895Q81.6882-24.8895 83.5177-25.5357Q85.3471-26.1818 87.632-27.4784L137.139-56.1767Q140.744-58.2627 142.414-60.2765Q144.084-62.2904 144.084-65.007Q144.084-67.7462 142.414-69.7249Q140.744-71.7036 137.139-73.8122L87.632-102.511Q85.3471-103.854 83.5177-104.477Q81.6882-105.099 79.8486-105.099Q78.0421-105.099 76.2074-104.477Q74.3727-103.854 72.1351-102.511L22.5807-73.8122Q18.9756-71.7036 17.3056-69.7249Q15.6355-67.7462 15.6355-65.007Q15.6355-62.2904 17.3056-60.2765Q18.9756-58.2627 22.5807-56.1767L72.1351-27.4784Q74.3727-26.1818 76.2074-25.5357Q78.0421-24.8895 79.8486-24.8895ZM79.8486-36.3259Q78.8466-36.3259 77.4098-37.0908L29.9086-64.2246Q29.3175-64.5529 29.3175-65.007Q29.3175-65.4833 29.9086-65.812L77.4098-92.8982Q78.8466-93.7103 79.8486-93.7103Q80.9204-93.7103 82.31-92.8982L129.811-65.812Q130.402-65.4833 130.402-65.007Q130.402-64.5529 129.811-64.2246L82.31-37.0908Q80.9204-36.3259 79.8486-36.3259ZM79.8486 6.47195Q81.5933 6.47195 83.1857 5.74342Q84.7781 5.0149 86.8255 3.8132L140.053-27.4056Q142.125-28.6425 143.138-30.258Q144.152-31.8735 144.152-33.654Q144.152-35.6298 143.069-37.1328Q141.986-38.6358 140.619-39.4929L83.1137-6.19309Q82.1733-5.64543 81.3864-5.33726Q80.5995-5.02909 79.8486-5.02909Q79.098-5.02909 78.3459-5.33726Q77.5938-5.64543 76.6537-6.19309L19.1005-39.4929Q17.7337-38.6358 16.6509-37.1328Q15.568-35.6298 15.568-33.654Q15.568-31.8735 16.6051-30.2342Q17.6423-28.5949 19.6919-27.4056L72.9193 3.8132Q74.9667 5.0149 76.5755 5.74342Q78.1843 6.47195 79.8486 6.47195ZM79.8486 36.1329Q81.5933 36.1329 83.1857 35.4155Q84.7781 34.6982 86.8255 33.4965L140.053 2.23037Q142.078 1.04072 143.115-0.57478Q144.152-2.19028 144.152-3.97076Q144.152-5.99418 143.069-7.50831Q141.986-9.02243 140.619-9.80961L83.1137 23.4425Q82.1733 23.9906 81.3864 24.3224Q80.5995 24.6542 79.8486 24.6542Q79.098 24.6542 78.3459 24.3224Q77.5938 23.9906 76.6537 23.4425L19.1005-9.80961Q17.7337-9.02243 16.6509-7.50831Q15.568-5.99418 15.568-3.97076Q15.568-2.19028 16.6051-0.57478Q17.6423 1.04072 19.6919 2.23037L72.9193 33.4965Q74.9667 34.6982 76.5755 35.4155Q78.1843 36.1329 79.8486 36.1329Z"/>
  </g>
  <g id="Regular-L" transform="matrix(1 0 0 1 1370.65 1556)">
   <path d="M79.1851-25.7015Q80.8889-25.7015 82.5775-26.2743Q84.266-26.847 86.3418-28.0181L136.24-56.9621Q139.59-58.9021 141.069-60.6725Q142.547-62.4428 142.547-64.7872Q142.547-67.1596 141.069-68.8895Q139.59-70.6194 136.24-72.5873L86.3418-101.531Q84.266-102.755 82.5775-103.301Q80.8889-103.848 79.1851-103.848Q77.5091-103.848 75.8206-103.301Q74.132-102.755 72.1088-101.531L22.1578-72.5873Q18.8082-70.6194 17.3293-68.8895Q15.8505-67.1596 15.8505-64.7872Q15.8505-62.4428 17.3293-60.6725Q18.8082-58.9021 22.1578-56.9621L72.1088-28.0181Q74.132-26.847 75.8206-26.2743Q77.5091-25.7015 79.1851-25.7015ZM79.1851-35.0637Q78.1195-35.0637 76.6245-35.8656L27.6403-63.9428Q26.9868-64.2969 26.9868-64.7872Q26.9868-65.305 27.6403-65.6596L76.6245-93.6838Q78.1195-94.5382 79.1851-94.5382Q80.331-94.5382 81.7735-93.6838L130.758-65.6596Q131.411-65.305 131.411-64.7872Q131.411-64.2969 130.758-63.9428L81.7735-35.8656Q80.331-35.0637 79.1851-35.0637ZM79.1851 5.56953Q80.7834 5.56953 82.2083 4.9038Q83.6332 4.23807 85.4449 3.17253L139.54-28.5832Q141.166-29.5684 141.898-30.885Q142.631-32.2016 142.631-33.4782Q142.631-35.124 141.678-36.3705Q140.726-37.6169 139.668-38.2273L81.5099-4.62191Q80.8688-4.24769 80.2947-4.03408Q79.7206-3.82047 79.1851-3.82047Q78.65-3.82047 78.1159-4.03408Q77.5817-4.24769 76.9411-4.62191L18.7299-38.2273Q17.6722-37.6169 16.7198-36.3705Q15.7674-35.124 15.7674-33.4782Q15.7674-32.2016 16.5263-30.8585Q17.2852-29.5154 18.8835-28.5832L72.9783 3.17253Q74.79 4.23807 76.2286 4.9038Q77.6672 5.56953 79.1851 5.56953ZM79.1851 35.0289Q80.7834 35.0289 82.2083 34.3769Q83.6332 33.7249 85.4449 32.6593L139.54 0.851017Q141.113-0.081561 141.872-1.39817Q142.631-2.71477 142.631-3.9914Q142.631-5.6902 141.678-6.95037Q140.726-8.21053 139.668-8.74055L81.5099 24.8119Q80.8688 25.1866 80.2947 25.4265Q79.7206 25.6663 79.1851 25.6663Q78.65 25.6663 78.1159 25.4265Q77.5817 25.1866 76.9411 24.8119L18.7299-8.74055Q17.6722-8.21053 16.7198-6.95037Q15.7674-5.6902 15.7674-3.9914Q15.7674-2.71477 16.5263-1.39817Q17.2852-0.081561 18.8835 0.851017L72.9783 32.6593Q74.79 33.7249 76.2286 34.3769Q77.6672 35.0289 79.1851 35.0289Z"/>
  </g>
  <g id="Light-L" transform="matrix(1 0 0 1 1075.17 1556)">
   <path d="M77.9445-28.1446Q79.3812-28.1446 80.7643-28.6409Q82.1474-29.1372 83.8798-30.1174L134.637-59.5004Q137.357-61.0589 138.635-62.5525Q139.914-64.0461 139.914-66.066Q139.914-68.1331 138.635-69.5861Q137.357-71.0391 134.637-72.6447L83.8798-102.028Q82.1474-103.041 80.7643-103.521Q79.3812-104 77.9445-104Q76.5548-104 75.1717-103.521Q73.7886-103.041 72.0896-102.028L21.2991-72.6447Q18.5792-71.0391 17.3008-69.5861Q16.0224-68.1331 16.0224-66.066Q16.0224-64.0461 17.3008-62.5525Q18.5792-61.0589 21.2991-59.5004L72.0896-30.1174Q73.7886-29.1372 75.1717-28.6409Q76.5548-28.1446 77.9445-28.1446ZM77.9445-35.2544Q77.0315-35.2544 75.6702-35.9993L25.2928-64.9163Q24.4104-65.4038 24.4104-66.066Q24.4104-66.7745 25.2928-67.2629L75.6702-96.1458Q77.0315-96.9239 77.9445-96.9239Q78.9378-96.9239 80.2658-96.1458L130.643-67.2629Q131.526-66.7745 131.526-66.066Q131.526-65.4038 130.643-64.9163L80.2658-35.9993Q78.9378-35.2544 77.9445-35.2544ZM77.9445 3.45096Q79.3138 3.45096 80.5288 2.88078Q81.7439 2.31061 83.3074 1.39771L137.383-30.1291Q138.799-30.9616 139.427-32.0491Q140.054-33.1366 140.054-34.1843Q140.054-35.4674 139.388-36.4086Q138.722-37.3498 137.988-37.8265L80.0977-4.45004Q79.5138-4.09506 78.9874-3.90053Q78.4611-3.70599 77.9445-3.70599Q77.4286-3.70599 76.9421-3.90053Q76.4556-4.09506 75.8724-4.45004L17.9475-37.8265Q17.2143-37.3498 16.5481-36.4086Q15.8818-35.4674 15.8818-34.1843Q15.8818-33.1366 16.5263-32.0321Q17.1708-30.9275 18.5401-30.1291L72.6156 1.39771Q74.1791 2.31061 75.4173 2.88078Q76.6555 3.45096 77.9445 3.45096ZM77.9445 33.483Q79.3138 33.483 80.5288 32.936Q81.7439 32.389 83.3074 31.4761L137.383-0.084015Q138.765-0.8832 139.41-1.9707Q140.054-3.05819 140.054-4.10587Q140.054-5.4231 139.388-6.38746Q138.722-7.35182 137.988-7.74812L80.0977 25.5943Q79.5138 25.95 78.9874 26.1612Q78.4611 26.3724 77.9445 26.3724Q77.4286 26.3724 76.9421 26.1612Q76.4556 25.95 75.8724 25.5943L17.9475-7.74812Q17.2143-7.35182 16.5481-6.38746Q15.8818-5.4231 15.8818-4.10587Q15.8818-3.05819 16.5263-1.9707Q17.1708-0.8832 18.5401-0.084015L72.6156 31.4761Q74.1791 32.389 75.4173 32.936Q76.6555 33.483 77.9445 33.483Z"/>
  </g>
  <g id="Thin-L" transform="matrix(1 0 0 1 780.082 1556)">
   <path d="M76.3036-31.3758Q77.3871-31.3758 78.3663-31.7709Q79.3454-32.166 80.6236-32.894L132.516-62.8575Q134.403-63.9113 135.417-65.0389Q136.43-66.1665 136.43-67.7573Q136.43-69.4206 135.417-70.5074Q134.403-71.5942 132.516-72.7206L80.6236-102.684Q79.3454-103.42 78.3663-103.811Q77.3871-104.202 76.3036-104.202Q75.2927-104.202 74.3136-103.811Q73.3344-103.42 72.0641-102.684L20.1634-72.7206Q18.2764-71.5942 17.2631-70.5074Q16.2497-69.4206 16.2497-67.7573Q16.2497-66.1665 17.2631-65.0389Q18.2764-63.9113 20.1634-62.8575L72.0641-32.894Q73.3344-32.166 74.3136-31.7709Q75.2927-31.3758 76.3036-31.3758ZM76.3036-35.5068Q75.5926-35.5068 74.4081-36.1761L22.188-66.2038Q21.0028-66.8678 21.0028-67.7573Q21.0028-68.7182 22.188-69.3833L74.4081-99.402Q75.5926-100.079 76.3036-100.079Q77.0951-100.079 78.2717-99.402L130.492-69.3833Q131.677-68.7182 131.677-67.7573Q131.677-66.8678 130.492-66.2038L78.2717-36.1761Q77.0951-35.5068 76.3036-35.5068ZM76.3036 0.648976Q77.3702 0.648976 78.3077 0.205182Q79.2451-0.238612 80.4804-0.94965L134.53-32.1737Q135.67-32.8043 136.158-33.5888Q136.647-34.3733 136.647-35.1181Q136.647-35.9216 136.359-36.4591Q136.071-36.9965 135.767-37.2964L78.23-4.22273Q77.7215-3.89319 77.2584-3.72389Q76.7952-3.55459 76.3036-3.55459Q75.8133-3.55459 75.3897-3.72389Q74.9662-3.89319 74.4589-4.22273L16.9128-37.2964Q16.6087-36.9965 16.321-36.4591Q16.0332-35.9216 16.0332-35.1181Q16.0332-34.3733 16.5263-33.5842Q17.0194-32.7952 18.0859-32.1737L72.136-0.94965Q73.3712-0.238612 74.3444 0.205182Q75.3175 0.648976 76.3036 0.648976ZM76.3036 31.4385Q77.3702 31.4385 78.3077 31.0304Q79.2451 30.6222 80.4804 29.9112L134.53-1.32067Q135.66-1.94343 136.154-2.72791Q136.647-3.5124 136.647-4.25727Q136.647-5.06983 136.359-5.64296Q136.071-6.2161 135.767-6.43555L78.23 26.6291Q77.7215 26.9598 77.2584 27.133Q76.7952 27.3063 76.3036 27.3063Q75.8133 27.3063 75.3897 27.133Q74.9662 26.9598 74.4589 26.6291L16.9128-6.43555Q16.6087-6.2161 16.321-5.64296Q16.0332-5.06983 16.0332-4.25727Q16.0332-3.5124 16.5263-2.72791Q17.0194-1.94343 18.0859-1.32067L72.136 29.9112Q73.3712 30.6222 74.3444 31.0304Q75.3175 31.4385 76.3036 31.4385Z"/>
  </g>
  <g id="Ultralight-L" transform="matrix(1 0 0 1 484.205 1556)">
   <path d="M75.4632-33.0308Q76.3658-33.0308 77.138-33.3741Q77.9103-33.7174 78.9558-34.3161L131.43-64.577Q132.891-65.3723 133.768-66.3125Q134.646-67.2526 134.646-68.6236Q134.646-70.0801 133.768-70.9793Q132.891-71.8786 131.43-72.7595L78.9558-103.02Q77.9103-103.614 77.138-103.96Q76.3658-104.306 75.4632-104.306Q74.6463-104.306 73.874-103.96Q73.1018-103.614 72.0511-103.02L19.5817-72.7595Q18.1213-71.8786 17.2437-70.9793Q16.3661-70.0801 16.3661-68.6236Q16.3661-67.2526 17.2437-66.3125Q18.1213-65.3723 19.5817-64.577L72.0511-34.3161Q73.1018-33.7174 73.874-33.3741Q74.6463-33.0308 75.4632-33.0308ZM75.4632-35.636Q74.8556-35.636 73.7617-36.2667L20.5977-66.8633Q19.2574-67.6176 19.2574-68.6236Q19.2574-69.7137 20.5977-70.4694L73.7617-101.07Q74.8556-101.695 75.4632-101.695Q76.1513-101.695 77.2504-101.07L130.414-70.4694Q131.755-69.7137 131.755-68.6236Q131.755-67.6176 130.414-66.8633L77.2504-36.2667Q76.1513-35.636 75.4632-35.636ZM75.4632-0.786186Q76.3747-0.786186 77.17-1.16525Q77.9653-1.54431 79.0324-2.15195L133.069-33.2209Q134.066-33.7481 134.484-34.3774Q134.901-35.0067 134.901-35.5964Q134.901-36.1543 134.807-36.4849Q134.714-36.8156 134.629-37.0249L77.2734-4.1063Q76.8036-3.78979 76.3728-3.63342Q75.942-3.47704 75.4632-3.47704Q74.9859-3.47704 74.5946-3.63342Q74.2033-3.78979 73.7349-4.1063L16.3827-37.0249Q16.2985-36.8156 16.2046-36.4849Q16.1108-36.1543 16.1108-35.5964Q16.1108-35.0067 16.5263-34.3793Q16.9418-33.7519 17.8533-33.2209L71.8903-2.15195Q72.9574-1.54431 73.7948-1.16525Q74.6322-0.786186 75.4632-0.786186ZM75.4632 30.3913Q76.3747 30.3913 77.17 30.0543Q77.9653 29.7173 79.0324 29.1097L133.069-1.95408Q134.07-2.48648 134.486-3.11576Q134.901-3.74504 134.901-4.33482Q134.901-4.88889 134.807-5.26164Q134.714-5.63439 134.629-5.76326L77.2734 27.1591Q76.8036 27.477 76.3728 27.6308Q75.942 27.7846 75.4632 27.7846Q74.9859 27.7846 74.5946 27.6308Q74.2033 27.477 73.7349 27.1591L16.3827-5.76326Q16.2985-5.63439 16.2046-5.26164Q16.1108-4.88889 16.1108-4.33482Q16.1108-3.74504 16.5263-3.11576Q16.9418-2.48648 17.8533-1.95408L71.8903 29.1097Q72.9574 29.7173 73.7948 30.0543Q74.6322 30.3913 75.4632 30.3913Z"/>
  </g>
  <g id="Black-M" transform="matrix(1 0 0 1 2868.87 1126)">
   <path d="M64.5292-24.2694Q66.4957-24.2694 68.4653-25.0856Q70.4349-25.9018 73.0618-27.4258L109.887-48.6654Q113.655-50.8309 115.771-53.4307Q117.887-56.0306 117.887-59.7577Q117.887-63.4845 115.771-66.0818Q113.655-68.679 109.887-70.8442L73.0618-92.0838Q70.4349-93.6133 68.4653-94.4268Q66.4957-95.2402 64.5292-95.2402Q62.6196-95.2402 60.6214-94.4268Q58.6232-93.6133 56.0018-92.0838L19.1711-70.8442Q15.4029-68.679 13.2869-66.0818Q11.171-63.4845 11.171-59.7577Q11.171-56.0306 13.2869-53.4307Q15.4029-50.8309 19.1711-48.6654L56.0018-27.4258Q58.6232-25.9018 60.6214-25.0856Q62.6196-24.2694 64.5292-24.2694ZM64.5292-42.021Q64.101-42.021 63.3045-42.4217L32.9344-59.3365Q32.6885-59.5162 32.6885-59.7577Q32.6885-59.9989 32.9344-60.1786L63.3045-77.0879Q64.101-77.4941 64.5292-77.4941Q64.9626-77.4941 65.7536-77.0879L96.1238-60.1786Q96.3696-59.9989 96.3696-59.7577Q96.3696-59.5162 96.1238-59.3365L65.7536-42.4217Q64.9626-42.021 64.5292-42.021ZM64.5292 0.559123Q66.4847 0.559123 68.4269-0.265178Q70.369-1.08948 72.9685-2.60249L110.161-24.211Q113.772-26.2897 115.829-28.855Q117.886-31.4203 117.886-35.0679Q117.886-38.0116 116.537-40.2666Q115.188-42.5216 112.801-44.2886L71.3787-19.991Q69.2755-18.7656 67.6915-18.0931Q66.1075-17.4206 64.5292-17.4206Q62.9509-17.4206 61.3695-18.0931Q59.7881-18.7656 57.6849-19.991L16.2573-44.2886Q13.8697-42.5216 12.5208-40.2666Q11.1719-38.0116 11.1719-35.0679Q11.1719-31.4203 13.2318-28.8523Q15.2918-26.2842 18.9031-24.211L56.0954-2.60249Q58.6949-1.08948 60.6654-0.265178Q62.636 0.559123 64.5292 0.559123ZM64.5292 24.6724Q66.4847 24.6724 68.4269 23.8479Q70.369 23.0235 72.9685 21.5105L110.161-0.103483Q113.766-2.17675 115.826-4.74206Q117.886-7.30737 117.886-10.9549Q117.886-13.9041 116.537-16.159Q115.188-18.4139 112.801-20.1756L71.3787 4.11649Q69.2755 5.34183 67.6915 6.0171Q66.1075 6.69236 64.5292 6.69236Q62.9509 6.69236 61.3695 6.0171Q59.7881 5.34183 57.6849 4.11649L16.2573-20.1756Q13.8697-18.4139 12.5208-16.159Q11.1719-13.9041 11.1719-10.9549Q11.1719-7.30737 13.2318-4.74206Q15.2918-2.17675 18.9031-0.103483L56.0954 21.5105Q58.6949 23.0235 60.6654 23.8479Q62.636 24.6724 64.5292 24.6724Z"/>
  </g>
  <g id="Heavy-M" transform="matrix(1 0 0 1 2572.74 1126)">
   <path d="M63.9453-24.7853Q65.7951-24.7853 67.6497-25.5239Q69.5043-26.2625 71.937-27.6666L109.079-49.1267Q112.655-51.1872 114.569-53.5344Q116.483-55.8816 116.483-59.2014Q116.483-62.5235 114.569-64.8613Q112.655-67.1991 109.079-69.2619L71.937-90.722Q69.5043-92.1425 67.6497-92.8729Q65.7951-93.6033 63.9453-93.6033Q62.1414-93.6033 60.265-92.8729Q58.3885-92.1425 55.9723-90.722L18.8135-69.2619Q15.2375-67.1991 13.3235-64.8613Q11.4096-62.5235 11.4096-59.2014Q11.4096-55.8816 13.3235-53.5344Q15.2375-51.1872 18.8135-49.1267L55.9723-27.6666Q58.3885-26.2625 60.265-25.5239Q62.1414-24.7853 63.9453-24.7853ZM63.9453-40.3622Q63.4028-40.3622 62.5029-40.8227L30.5313-58.7662Q30.2548-58.9504 30.2548-59.2014Q30.2548-59.4546 30.5313-59.6388L62.5029-77.5659Q63.4028-78.0428 63.9453-78.0428Q64.5064-78.0428 65.3899-77.5659L97.3616-59.6388Q97.6381-59.4546 97.6381-59.2014Q97.6381-58.9504 97.3616-58.7662L65.3899-40.8227Q64.5064-40.3622 63.9453-40.3622ZM63.9453-0.142418Q65.7623-0.142418 67.5349-0.906756Q69.3074-1.67109 71.658-3.04238L109.966-25.3882Q113.051-27.1771 114.77-29.4085Q116.49-31.6399 116.49-34.6909Q116.49-37.2896 115.247-39.2813Q114.004-41.2731 111.942-42.7527L69.6264-18.0141Q67.8947-17.007 66.5732-16.4515Q65.2516-15.8961 63.9453-15.8961Q62.639-15.8961 61.3268-16.4515Q60.0145-17.007 58.2829-18.0141L15.9504-42.7527Q13.8892-41.2731 12.646-39.2813Q11.4028-37.2896 11.4028-34.6909Q11.4028-31.6399 13.1308-29.4003Q14.8587-27.1606 17.9408-25.3882L56.249-3.04238Q58.5996-1.67109 60.3951-0.906756Q62.1906-0.142418 63.9453-0.142418ZM63.9453 23.5894Q65.7623 23.5894 67.5349 22.8262Q69.3074 22.063 71.658 20.6917L109.966-1.67055Q113.034-3.44297 114.762-5.67441Q116.49-7.90585 116.49-10.9568Q116.49-13.5719 115.247-15.5648Q114.004-17.5577 111.942-19.0186L69.6264 5.70353Q67.8947 6.71074 66.5732 7.27436Q65.2516 7.83798 63.9453 7.83798Q62.639 7.83798 61.3268 7.27436Q60.0145 6.71074 58.2829 5.70353L15.9504-19.0186Q13.8892-17.5577 12.646-15.5648Q11.4028-13.5719 11.4028-10.9568Q11.4028-7.90585 13.1308-5.67441Q14.8587-3.44297 17.9408-1.67055L56.249 20.6917Q58.5996 22.063 60.3951 22.8262Q62.1906 23.5894 63.9453 23.5894Z"/>
  </g>
  <g id="Bold-M" transform="matrix(1 0 0 1 2276.68 1126)">
   <path d="M63.2921-25.3625Q65.0114-25.3625 66.7374-26.0143Q68.4633-26.666 70.6787-27.936L108.176-49.6428Q111.537-51.5858 113.225-53.6503Q114.913-55.7149 114.913-58.5791Q114.913-61.4484 113.225-63.496Q111.537-65.5437 108.176-67.4918L70.6787-89.1986Q68.4633-90.4972 66.7374-91.1346Q65.0114-91.7721 63.2921-91.7721Q61.6064-91.7721 59.8662-91.1346Q58.126-90.4972 55.9392-89.1986L18.4135-67.4918Q15.0524-65.5437 13.3645-63.496Q11.6766-61.4484 11.6766-58.5791Q11.6766-55.7149 13.3645-53.6503Q15.0524-51.5858 18.4135-49.6428L55.9392-27.936Q58.126-26.666 59.8662-26.0143Q61.6064-25.3625 63.2921-25.3625ZM63.2921-38.5067Q62.6217-38.5067 61.6063-39.0339L27.8431-58.1283Q27.5323-58.3174 27.5323-58.5791Q27.5323-58.8458 27.8431-59.035L61.6063-78.1007Q62.6217-78.6565 63.2921-78.6565Q63.9962-78.6565 64.9831-78.1007L98.7463-59.035Q99.0571-58.8458 99.0571-58.5791Q99.0571-58.3174 98.7463-58.1283L64.9831-39.0339Q63.9962-38.5067 63.2921-38.5067ZM63.2921-0.927193Q64.9542-0.927193 66.537-1.62445Q68.1199-2.32171 70.1921-3.53446L109.749-26.7052Q112.244-28.1697 113.586-30.0276Q114.928-31.8856 114.928-34.2691Q114.928-36.4818 113.803-38.1792Q112.678-39.8765 110.982-41.0345L67.6663-15.8027Q66.3501-15.0396 65.3221-14.6152Q64.2941-14.1907 63.2921-14.1907Q62.2902-14.1907 61.279-14.6152Q60.2678-15.0396 58.9517-15.8027L15.607-41.0345Q13.911-39.8765 12.7861-38.1792Q11.6611-36.4818 11.6611-34.2691Q11.6611-31.8856 13.0177-30.0133Q14.3743-28.141 16.8643-26.7052L56.4207-3.53446Q58.4929-2.32171 60.0926-1.62445Q61.6923-0.927193 63.2921-0.927193ZM63.2921 22.378Q64.9542 22.378 66.537 21.6833Q68.1199 20.9885 70.1921 19.7758L109.749-3.42353Q112.215-4.85943 113.572-6.71737Q114.928-8.57532 114.928-10.9589Q114.928-13.2003 113.803-14.9001Q112.678-16.6 110.982-17.7243L67.6663 7.47886Q66.3501 8.24206 65.3221 8.6808Q64.2941 9.11953 63.2921 9.11953Q62.2902 9.11953 61.279 8.6808Q60.2678 8.24206 58.9517 7.47886L15.607-17.7243Q13.911-16.6 12.7861-14.9001Q11.6611-13.2003 11.6611-10.9589Q11.6611-8.57532 13.0177-6.71737Q14.3743-4.85943 16.8643-3.42353L56.4207 19.7758Q58.4929 20.9885 60.0926 21.6833Q61.6923 22.378 63.2921 22.378Z"/>
  </g>
  <g id="Semibold-M" transform="matrix(1 0 0 1 1980.42 1126)">
   <path d="M62.8418-25.7604Q64.4712-25.7604 66.1084-26.3523Q67.7456-26.9442 69.8112-28.1217L107.553-49.9985Q110.766-51.8605 112.298-53.7302Q113.83-55.6 113.83-58.15Q113.83-60.7073 112.298-62.5548Q110.766-64.4024 107.553-66.2716L69.8112-88.1484Q67.7456-89.3629 66.1084-89.9363Q64.4712-90.5097 62.8418-90.5097Q61.2377-90.5097 59.5914-89.9363Q57.9451-89.3629 55.9165-88.1484L18.1378-66.2716Q14.9248-64.4024 13.3927-62.5548Q11.8606-60.7073 11.8606-58.15Q11.8606-55.6 13.3927-53.7302Q14.9248-51.8605 18.1378-49.9985L55.9165-28.1217Q57.9451-26.9442 59.5914-26.3523Q61.2377-25.7604 62.8418-25.7604ZM62.8418-37.2274Q62.0833-37.2274 60.9881-37.8007L25.9899-57.6885Q25.6554-57.881 25.6554-58.15Q25.6554-58.4261 25.9899-58.6187L60.9881-78.4694Q62.0833-79.0797 62.8418-79.0797Q63.6444-79.0797 64.7026-78.4694L99.7008-58.6187Q100.035-58.4261 100.035-58.15Q100.035-57.881 99.7008-57.6885L64.7026-37.8007Q63.6444-37.2274 62.8418-37.2274ZM62.8418-1.46821Q64.3971-1.46821 65.8492-2.11923Q67.3012-2.77025 69.1815-3.87371L109.598-27.6131Q111.687-28.854 112.769-30.4545Q113.851-32.0549 113.851-33.9784Q113.851-35.925 112.808-37.4193Q111.765-38.9137 110.32-39.85L66.315-14.2782Q65.2852-13.6833 64.4596-13.3492Q63.634-13.015 62.8418-13.015Q62.0497-13.015 61.2461-13.3492Q60.4424-13.6833 59.4128-14.2782L15.3703-39.85Q13.926-38.9137 12.8826-37.4193Q11.8392-35.925 11.8392-33.9784Q11.8392-32.0549 12.9398-30.4359Q14.0404-28.8169 16.1222-27.6131L56.5391-3.87371Q58.4194-2.77025 59.8841-2.11923Q61.3488-1.46821 62.8418-1.46821ZM62.8418 21.5428Q64.3971 21.5428 65.8492 20.8953Q67.3012 20.2478 69.1815 19.1444L109.598-4.63203Q111.65-5.83592 112.751-7.43639Q113.851-9.03686 113.851-10.9603Q113.851-12.944 112.808-14.4419Q111.765-15.9397 110.32-16.832L66.315 8.70276Q65.2852 9.29775 64.4596 9.65038Q63.634 10.003 62.8418 10.003Q62.0497 10.003 61.2461 9.65038Q60.4424 9.29775 59.4128 8.70276L15.3703-16.832Q13.926-15.9397 12.8826-14.4419Q11.8392-12.944 11.8392-10.9603Q11.8392-9.03686 12.9398-7.43639Q14.0404-5.83592 16.1222-4.63203L56.5391 19.1444Q58.4194 20.2478 59.8841 20.8953Q61.3488 21.5428 62.8418 21.5428Z"/>
  </g>
  <g id="Medium-M" transform="matrix(1 0 0 1 1684.05 1126)">
   <path d="M62.5003-26.0621Q64.0615-26.0621 65.6315-26.6086Q67.2015-27.1551 69.1535-28.2626L107.081-50.2683Q110.181-52.0689 111.595-53.7909Q113.009-55.5128 113.009-57.8247Q113.009-60.1453 111.595-61.8412Q110.181-63.537 107.081-65.3463L69.1535-87.3521Q67.2015-88.5029 65.6315-89.0277Q64.0615-89.5525 62.5003-89.5525Q60.9581-89.5525 59.383-89.0277Q57.8079-88.5029 55.8992-87.3521L17.9287-65.3463Q14.8281-63.537 13.4141-61.8412Q12.0001-60.1453 12.0001-57.8247Q12.0001-55.5128 13.4141-53.7909Q14.8281-52.0689 17.9287-50.2683L55.8992-28.2626Q57.8079-27.1551 59.383-26.6086Q60.9581-26.0621 62.5003-26.0621ZM62.5003-36.2575Q61.675-36.2575 60.5194-36.8657L24.5847-57.3551Q24.2323-57.5501 24.2323-57.8247Q24.2323-58.1079 24.5847-58.303L60.5194-78.7489Q61.675-79.4005 62.5003-79.4005Q63.3777-79.4005 64.49-78.7489L100.425-58.303Q100.777-58.1079 100.777-57.8247Q100.777-57.5501 100.425-57.3551L64.49-36.8657Q63.3777-36.2575 62.5003-36.2575ZM62.5003-1.87844Q63.9747-1.87844 65.3276-2.49439Q66.6804-3.11035 68.4153-4.13093L109.485-28.3015Q111.266-29.3728 112.15-30.7781Q113.035-32.1833 113.035-33.7579Q113.035-35.5028 112.053-36.8432Q111.072-38.1836 109.818-38.9519L65.2903-13.1222Q64.4778-12.6549 63.8057-12.3893Q63.1335-12.1236 62.5003-12.1236Q61.8673-12.1236 61.2211-12.3893Q60.5748-12.6549 59.7625-13.1222L15.1908-38.9519Q13.9375-38.1836 12.9559-36.8432Q11.9743-35.5028 11.9743-33.7579Q11.9743-32.1833 12.8807-30.7563Q13.7871-29.3293 15.5595-28.3015L56.6289-4.13093Q58.3637-3.11035 59.726-2.49439Q61.0883-1.87844 62.5003-1.87844ZM62.5003 20.9095Q63.9747 20.9095 65.3276 20.2979Q66.6804 19.6862 68.4153 18.6656L109.485-5.54836Q111.222-6.57634 112.129-7.98158Q113.035-9.38681 113.035-10.9614Q113.035-12.7498 112.053-14.0944Q111.072-15.4391 109.818-16.1554L65.2903 9.63078Q64.4778 10.0982 63.8057 10.3856Q63.1335 10.6729 62.5003 10.6729Q61.8673 10.6729 61.2211 10.3856Q60.5748 10.0982 59.7625 9.63078L15.1908-16.1554Q13.9375-15.4391 12.9559-14.0944Q11.9743-12.7498 11.9743-10.9614Q11.9743-9.38681 12.8807-7.98158Q13.7871-6.57634 15.5595-5.54836L56.6289 18.6656Q58.3637 19.6862 59.726 20.2979Q61.0883 20.9095 62.5003 20.9095Z"/>
  </g>
  <g id="Regular-M" transform="matrix(1 0 0 1 1387.78 1126)">
   <path d="M62.055-26.4556Q63.5272-26.4556 65.0094-26.9429Q66.4917-27.4302 68.2956-28.4462L106.465-50.6202Q109.419-52.3407 110.679-53.8699Q111.938-55.3991 111.938-57.4004Q111.938-59.4123 110.679-60.9103Q109.419-62.4083 106.465-64.1394L68.2956-86.3134Q66.4917-87.3811 65.0094-87.8425Q63.5272-88.304 62.055-88.304Q60.5933-88.304 59.1111-87.8425Q57.6289-87.3811 55.8767-86.3134L17.6559-64.1394Q14.7019-62.4083 13.442-60.9103Q12.1821-59.4123 12.1821-57.4004Q12.1821-55.3991 13.442-53.8699Q14.7019-52.3407 17.6559-50.6202L55.8767-28.4462Q57.6289-27.4302 59.1111-26.9429Q60.5933-26.4556 62.055-26.4556ZM62.055-34.9923Q61.1425-34.9923 59.908-35.6461L22.7518-56.9201Q22.376-57.1185 22.376-57.4004Q22.376-57.6928 22.7518-57.8913L59.908-79.1135Q61.1425-79.819 62.055-79.819Q63.0298-79.819 64.2126-79.1135L101.369-57.8913Q101.745-57.6928 101.745-57.4004Q101.745-57.1185 101.369-56.9201L64.2126-35.6461Q63.0298-34.9923 62.055-34.9923ZM62.055-2.41351Q63.4237-2.41351 64.6472-2.98373Q65.8708-3.55395 67.4158-4.46644L109.336-29.1994Q110.716-30.0496 111.343-31.2002Q111.97-32.3508 111.97-33.4703Q111.97-34.9521 111.069-36.0917Q110.168-37.2313 109.164-37.7805L63.9539-11.6145Q63.4247-11.3136 62.9527-11.1372Q62.4806-10.9608 62.055-10.9608Q61.6295-10.9608 61.1885-11.1372Q60.7475-11.3136 60.2185-11.6145L14.9567-37.7805Q13.9523-37.2313 13.0514-36.0917Q12.1504-34.9521 12.1504-33.4703Q12.1504-32.3508 12.8036-31.1743Q13.4568-29.9978 14.8256-29.1994L56.746-4.46644Q58.291-3.55395 59.5198-2.98373Q60.7485-2.41351 62.055-2.41351ZM62.055 20.0836Q63.4237 20.0836 64.6472 19.5186Q65.8708 18.9536 67.4158 18.0411L109.336-6.74358Q110.664-7.5421 111.317-8.69269Q111.97-9.84327 111.97-10.9628Q111.97-12.4964 111.069-13.6412Q110.168-14.7861 109.164-15.2729L63.9539 10.8412Q63.4247 11.1423 62.9527 11.3445Q62.4806 11.5467 62.055 11.5467Q61.6295 11.5467 61.1885 11.3445Q60.7475 11.1423 60.2185 10.8412L14.9567-15.2729Q13.9523-14.7861 13.0514-13.6412Q12.1504-12.4964 12.1504-10.9628Q12.1504-9.84327 12.8036-8.69269Q13.4568-7.5421 14.8256-6.74358L56.746 18.0411Q58.291 18.9536 59.5198 19.5186Q60.7485 20.0836 62.055 20.0836Z"/>
  </g>
  <g id="Light-M" transform="matrix(1 0 0 1 1092.18 1126)">
   <path d="M60.9427-28.6459Q62.1755-28.6459 63.3839-29.0647Q64.5923-29.4834 66.0883-30.3284L105.027-52.8959Q107.417-54.2743 108.497-55.5554Q109.577-56.8366 109.577-58.5469Q109.577-60.2851 108.497-61.5349Q107.417-62.7846 105.027-64.1909L66.0883-86.7584Q64.5923-87.6378 63.3839-88.0393Q62.1755-88.4409 60.9427-88.4409Q59.7378-88.4409 58.5294-88.0393Q57.321-87.6378 55.8594-86.7584L16.8861-64.1909Q14.4967-62.7846 13.4164-61.5349Q12.3362-60.2851 12.3362-58.5469Q12.3362-56.8366 13.4164-55.5554Q14.4967-54.2743 16.8861-52.8959L55.8594-30.3284Q57.321-29.4834 58.5294-29.0647Q59.7378-28.6459 60.9427-28.6459ZM60.9427-35.1633Q60.167-35.1633 59.0524-35.766L20.6471-57.7929Q20.0661-58.1109 20.0661-58.5469Q20.0661-59.0103 20.6471-59.3288L59.0524-81.3208Q60.167-81.9579 60.9427-81.9579Q61.7806-81.9579 62.8608-81.3208L101.266-59.3288Q101.847-59.0103 101.847-58.5469Q101.847-58.1109 101.266-57.7929L62.8608-35.766Q61.7806-35.1633 60.9427-35.1633ZM60.9427-4.31292Q62.1062-4.31292 63.1415-4.79747Q64.1769-5.28202 65.4994-6.05767L107.403-30.5854Q108.594-31.2988 109.127-32.2439Q109.66-33.1891 109.66-34.1034Q109.66-35.26 109.016-36.1259Q108.371-36.9919 107.658-37.4211L62.6878-11.4604Q62.2098-11.1767 61.7806-11.0175Q61.3514-10.8582 60.9427-10.8582Q60.5344-10.8582 60.1362-11.0175Q59.7379-11.1767 59.2603-11.4604L14.2553-37.4211Q13.5418-36.9919 12.8974-36.1259Q12.253-35.26 12.253-34.1034Q12.253-33.1891 12.8036-32.2265Q13.3542-31.2639 14.5177-30.5854L56.4208-6.05767Q57.7434-5.28202 58.7924-4.79747Q59.8415-4.31292 60.9427-4.31292ZM60.9427 18.6976Q62.1062 18.6976 63.1415 18.2268Q64.1769 17.7559 65.4994 16.9803L107.403-7.58188Q108.559-8.26081 109.11-9.20599Q109.66-10.1512 109.66-11.0654Q109.66-12.2569 109.016-13.1366Q108.371-14.0162 107.658-14.3832L62.6878 11.5427Q62.2098 11.8268 61.7806 12.0033Q61.3514 12.1797 60.9427 12.1797Q60.5344 12.1797 60.1362 12.0033Q59.7379 11.8268 59.2603 11.5427L14.2553-14.3832Q13.5418-14.0162 12.8974-13.1366Q12.253-12.2569 12.253-11.0654Q12.253-10.1512 12.8036-9.20599Q13.3542-8.26081 14.5177-7.58188L56.4208 16.9803Q57.7434 17.7559 58.7924 18.2268Q59.8415 18.6976 60.9427 18.6976Z"/>
  </g>
  <g id="Thin-M" transform="matrix(1 0 0 1 796.925 1126)">
   <path d="M59.4716-31.5429Q60.3877-31.5429 61.2339-31.8709Q62.0801-32.199 63.1689-32.8177L103.126-55.9057Q104.769-56.8316 105.611-57.7847Q106.454-58.7377 106.454-60.0632Q106.454-61.4395 105.611-62.3609Q104.769-63.2823 103.126-64.259L63.1689-87.347Q62.0801-87.9773 61.2339-88.2996Q60.3877-88.6218 59.4716-88.6218Q58.6063-88.6218 57.76-88.2996Q56.9138-87.9773 55.8366-87.347L15.8678-64.259Q14.2252-63.2823 13.3826-62.3609Q12.54-61.4395 12.54-60.0632Q12.54-58.7377 13.3826-57.7847Q14.2252-56.8316 15.8678-55.9057L55.8366-32.8177Q56.9138-32.199 57.76-31.8709Q58.6063-31.5429 59.4716-31.5429ZM59.4716-35.3896Q58.8769-35.3896 57.9209-35.9245L17.8635-58.9473Q17.011-59.4234 17.011-60.0632Q17.011-60.7529 17.8635-61.2299L57.9209-84.2402Q58.8769-84.7867 59.4716-84.7867Q60.1286-84.7867 61.073-84.2402L101.13-61.2299Q101.983-60.7529 101.983-60.0632Q101.983-59.4234 101.13-58.9473L61.073-35.9245Q60.1286-35.3896 59.4716-35.3896ZM59.4716-6.82504Q60.3636-6.82504 61.1501-7.19629Q61.9366-7.56753 62.9649-8.1622L104.845-32.4185Q105.788-32.9508 106.197-33.6243Q106.605-34.2978 106.605-34.9406Q106.605-35.6672 106.3-36.1712Q105.995-36.6751 105.666-36.9458L61.0133-11.2566Q60.603-10.9957 60.2304-10.8591Q59.8579-10.7225 59.4716-10.7225Q59.0862-10.7225 58.7444-10.8591Q58.4026-10.9957 57.9931-11.2566L13.3275-36.9458Q12.9988-36.6751 12.6938-36.1712Q12.3888-35.6672 12.3888-34.9406Q12.3888-34.2978 12.8036-33.6181Q13.2185-32.9384 14.1105-32.4185L55.9908-8.1622Q57.019-7.56753 57.8305-7.19629Q58.6419-6.82504 59.4716-6.82504ZM59.4716 16.8646Q60.3636 16.8646 61.1501 16.5182Q61.9366 16.1719 62.9649 15.5773L104.845-8.69061Q105.775-9.21137 106.19-9.88488Q106.605-10.5584 106.605-11.2012Q106.605-11.9402 106.3-12.4691Q105.995-12.998 105.666-13.2064L61.0133 12.4704Q60.603 12.7321 60.2304 12.8745Q59.8579 13.017 59.4716 13.017Q59.0862 13.017 58.7444 12.8745Q58.4026 12.7321 57.9931 12.4704L13.3275-13.2064Q12.9988-12.998 12.6938-12.4691Q12.3888-11.9402 12.3888-11.2012Q12.3888-10.5584 12.8036-9.88488Q13.2185-9.21137 14.1105-8.69061L55.9908 15.5773Q57.019 16.1719 57.8305 16.5182Q58.6419 16.8646 59.4716 16.8646Z"/>
  </g>
  <g id="Ultralight-M" transform="matrix(1 0 0 1 500.962 1126)">
   <path d="M58.7181-33.0266Q59.472-33.0266 60.1327-33.3082Q60.7934-33.5899 61.6736-34.0927L102.152-57.4473Q103.412-58.1415 104.133-58.9265Q104.854-59.7114 104.854-60.8399Q104.854-62.0307 104.133-62.784Q103.412-63.5373 102.152-64.2938L61.6736-87.6485Q60.7934-88.1512 60.1327-88.4329Q59.472-88.7145 58.7181-88.7145Q58.0267-88.7145 57.3659-88.4329Q56.7052-88.1512 55.8249-87.6485L15.3463-64.2938Q14.0862-63.5373 13.3653-62.784Q12.6444-62.0307 12.6444-60.8399Q12.6444-59.7114 13.3653-58.9265Q14.0862-58.1415 15.3463-57.4473L55.8249-34.0927Q56.7052-33.5899 57.3659-33.3082Q58.0267-33.0266 58.7181-33.0266ZM58.7181-35.5055Q58.2162-35.5055 57.3413-36.0057L16.4378-59.5385Q15.4462-60.0957 15.4462-60.8399Q15.4462-61.6454 16.4378-62.2036L57.3413-85.7354Q58.2162-86.2356 58.7181-86.2356Q59.2824-86.2356 60.1573-85.7354L101.061-62.2036Q102.052-61.6454 102.052-60.8399Q102.052-60.0957 101.061-59.5385L60.1573-36.0057Q59.2824-35.5055 58.7181-35.5055ZM58.7181-8.11174Q59.4711-8.11174 60.1301-8.42495Q60.7892-8.73816 61.6667-9.24012L103.535-33.3573Q104.351-33.797 104.696-34.3314Q105.04-34.8657 105.04-35.3695Q105.04-35.8758 104.909-36.1943Q104.778-36.5129 104.646-36.7024L60.1556-11.1522Q59.78-10.903 59.4364-10.778Q59.0929-10.6529 58.7181-10.6529Q58.3444-10.6529 58.0315-10.778Q57.7186-10.903 57.344-11.1522L12.8523-36.7024Q12.7207-36.5129 12.5895-36.1943Q12.4583-35.8758 12.4583-35.3695Q12.4583-34.8657 12.8036-34.3309Q13.1489-33.796 13.9019-33.3573L55.7706-9.24012Q56.648-8.73816 57.3378-8.42495Q58.0275-8.11174 58.7181-8.11174ZM58.7181 15.9257Q59.4711 15.9257 60.1301 15.6431Q60.7892 15.3606 61.6667 14.8586L103.535-9.25849Q104.35-9.69823 104.695-10.2326Q105.04-10.767 105.04-11.2707Q105.04-11.778 104.909-12.1272Q104.778-12.4765 104.646-12.6036L60.1556 12.9456Q59.78 13.1958 59.4364 13.3208Q59.0929 13.4458 58.7181 13.4458Q58.3444 13.4458 58.0315 13.3208Q57.7186 13.1958 57.344 12.9456L12.8523-12.6036Q12.7207-12.4765 12.5895-12.1272Q12.4583-11.778 12.4583-11.2707Q12.4583-10.767 12.8036-10.2326Q13.1489-9.69823 13.9019-9.25849L55.7706 14.8586Q56.648 15.3606 57.3378 15.6431Q58.0275 15.9257 58.7181 15.9257Z"/>
  </g>
  <g id="Black-S" transform="matrix(1 0 0 1 2882.72 696)">
   <path d="M50.6836-26.6113Q52.2461-26.6113 53.8086-27.2705Q55.3711-27.9297 57.4707-29.1504L86.2793-45.752Q89.2578-47.4609 90.9668-49.5605Q92.6758-51.6602 92.6758-54.6875Q92.6758-57.7148 90.9668-59.8145Q89.2578-61.9141 86.2793-63.623L57.4707-80.2246Q55.3711-81.4453 53.8086-82.1045Q52.2461-82.7637 50.6836-82.7637Q49.1699-82.7637 47.583-82.1045Q45.9961-81.4453 43.8965-80.2246L15.0879-63.623Q12.1094-61.9141 10.4004-59.8145Q8.69141-57.7148 8.69141-54.6875Q8.69141-51.6602 10.4004-49.5605Q12.1094-47.4609 15.0879-45.752L43.8965-29.1504Q45.9961-27.9297 47.583-27.2705Q49.1699-26.6113 50.6836-26.6113ZM50.6836-41.0645Q50.3906-41.0645 49.8047-41.3574L26.416-54.3457Q26.2207-54.4922 26.2207-54.6875Q26.2207-54.8828 26.416-55.0293L49.8047-68.0176Q50.3906-68.3105 50.6836-68.3105Q50.9766-68.3105 51.5625-68.0176L74.9512-55.0293Q75.1465-54.8828 75.1465-54.6875Q75.1465-54.4922 74.9512-54.3457L51.5625-41.3574Q50.9766-41.0645 50.6836-41.0645ZM50.6836-7.08008Q52.2461-7.08008 53.8086-7.73926Q55.3711-8.39844 57.4707-9.61914L86.2793-26.3184Q89.2578-28.0273 90.9668-30.127Q92.6758-32.2266 92.6758-35.2539Q92.6758-37.6465 91.6016-39.4775Q90.5273-41.3086 88.5742-42.7734L56.3965-23.877Q54.6387-22.8516 53.3203-22.29Q52.002-21.7285 50.6836-21.7285Q49.3652-21.7285 48.0469-22.29Q46.7285-22.8516 44.9707-23.877L12.793-42.7734Q10.8398-41.3086 9.76562-39.4775Q8.69141-37.6465 8.69141-35.2539Q8.69141-32.2266 10.4004-30.127Q12.1094-28.0273 15.0879-26.3184L43.8965-9.61914Q45.9961-8.39844 47.583-7.73926Q49.1699-7.08008 50.6836-7.08008ZM50.6836 11.9629Q52.2461 11.9629 53.8086 11.3037Q55.3711 10.6445 57.4707 9.42383L86.2793-7.27539Q89.2578-8.98438 90.9668-11.084Q92.6758-13.1836 92.6758-16.2109Q92.6758-18.6035 91.6016-20.4346Q90.5273-22.2656 88.5742-23.7305L56.3965-4.83398Q54.6387-3.80859 53.3203-3.24707Q52.002-2.68555 50.6836-2.68555Q49.3652-2.68555 48.0469-3.24707Q46.7285-3.80859 44.9707-4.83398L12.793-23.7305Q10.8398-22.2656 9.76562-20.4346Q8.69141-18.6035 8.69141-16.2109Q8.69141-13.1836 10.4004-11.084Q12.1094-8.98438 15.0879-7.27539L43.8965 9.42383Q45.9961 10.6445 47.583 11.3037Q49.1699 11.9629 50.6836 11.9629Z"/>
  </g>
  <g id="Heavy-S" transform="matrix(1 0 0 1 2586.36 696)">
   <path d="M50.3263-26.7727Q51.8197-26.7727 53.3188-27.3742Q54.8179-27.9758 56.7908-29.1158L85.7722-45.8557Q88.6585-47.5186 90.2177-49.4338Q91.7769-51.349 91.7769-54.0652Q91.7769-56.7814 90.2177-58.6908Q88.6585-60.6003 85.7722-62.2632L56.7908-79.003Q54.8179-80.1546 53.3188-80.7504Q51.8197-81.3462 50.3263-81.3462Q48.8703-81.3462 47.3525-80.7504Q45.8348-80.1546 43.8734-79.003L14.8805-62.2632Q11.9941-60.6003 10.435-58.6908Q8.8758-56.7814 8.8758-54.0652Q8.8758-51.349 10.435-49.4338Q11.9941-47.5186 14.8805-45.8557L43.8734-29.1158Q45.8348-27.9758 47.3525-27.3742Q48.8703-26.7727 50.3263-26.7727ZM50.3263-39.6239Q49.9181-39.6239 49.2285-39.9745L24.6297-53.7464Q24.4344-53.8814 24.4344-54.0652Q24.4344-54.249 24.6297-54.3839L49.2285-68.1443Q49.9181-68.5065 50.3263-68.5065Q50.7461-68.5065 51.4242-68.1443L76.0229-54.3839Q76.2183-54.249 76.2183-54.0652Q76.2183-53.8814 76.0229-53.7464L51.4242-39.9745Q50.7461-39.6239 50.3263-39.6239ZM50.3263-7.43734Q51.7966-7.43734 53.2381-8.05618Q54.6796-8.67502 56.5948-9.79201L86.36-27.1481Q88.9121-28.6266 90.3445-30.4669Q91.7769-32.3072 91.7769-34.8505Q91.7769-36.9896 90.7603-38.6305Q89.7437-40.2714 88.0326-41.5057L55.0596-22.2059Q53.613-21.3649 52.5136-20.9013Q51.4142-20.4378 50.3263-20.4378Q49.2385-20.4378 48.1448-20.9013Q47.0512-21.3649 45.6045-22.2059L12.6201-41.5057Q10.909-40.2714 9.89239-38.6305Q8.8758-36.9896 8.8758-34.8505Q8.8758-32.3072 10.314-30.4612Q11.7521-28.6151 14.3042-27.1481L44.0694-9.79201Q45.9846-8.67502 47.4447-8.05618Q48.9049-7.43734 50.3263-7.43734ZM50.3263 11.2138Q51.7966 11.2138 53.2381 10.595Q54.6796 9.97611 56.5948 8.85913L86.36-8.50851Q88.9006-9.97548 90.3387-11.8158Q91.7769-13.6561 91.7769-16.1994Q91.7769-18.35 90.7603-19.9909Q89.7437-21.6318 88.0326-22.8546L55.0596-3.56629Q53.613-2.72529 52.5136-2.25597Q51.4142-1.78664 50.3263-1.78664Q49.2385-1.78664 48.1448-2.25597Q47.0512-2.72529 45.6045-3.56629L12.6201-22.8546Q10.909-21.6318 9.89239-19.9909Q8.8758-18.35 8.8758-16.1994Q8.8758-13.6561 10.314-11.8158Q11.7521-9.97548 14.3042-8.50851L44.0694 8.85913Q45.9846 9.97611 47.4447 10.595Q48.9049 11.2138 50.3263 11.2138Z"/>
  </g>
  <g id="Bold-S" transform="matrix(1 0 0 1 2290.05 696)">
   <path d="M49.9268-26.9531Q51.3428-26.9531 52.771-27.4902Q54.1992-28.0273 56.0303-29.0771L85.2051-45.9717Q87.9883-47.583 89.3799-49.292Q90.7715-51.001 90.7715-53.3691Q90.7715-55.7373 89.3799-57.4341Q87.9883-59.1309 85.2051-60.7422L56.0303-77.6367Q54.1992-78.7109 52.771-79.2358Q51.3428-79.7607 49.9268-79.7607Q48.5352-79.7607 47.0947-79.2358Q45.6543-78.7109 43.8477-77.6367L14.6484-60.7422Q11.8652-59.1309 10.4736-57.4341Q9.08203-55.7373 9.08203-53.3691Q9.08203-51.001 10.4736-49.292Q11.8652-47.583 14.6484-45.9717L43.8477-29.0771Q45.6543-28.0273 47.0947-27.4902Q48.5352-26.9531 49.9268-26.9531ZM49.9268-38.0127Q49.3896-38.0127 48.584-38.4277L22.6318-53.0762Q22.4365-53.1982 22.4365-53.3691Q22.4365-53.54 22.6318-53.6621L48.584-68.2861Q49.3896-68.7256 49.9268-68.7256Q50.4883-68.7256 51.2695-68.2861L77.2217-53.6621Q77.417-53.54 77.417-53.3691Q77.417-53.1982 77.2217-53.0762L51.2695-38.4277Q50.4883-38.0127 49.9268-38.0127ZM49.9268-7.83691Q51.2939-7.83691 52.6001-8.41064Q53.9062-8.98438 55.6152-9.98535L86.4502-28.0762Q88.5254-29.2969 89.6484-30.8472Q90.7715-32.3975 90.7715-34.3994Q90.7715-36.2549 89.8193-37.6831Q88.8672-39.1113 87.4268-40.0879L53.5645-20.3369Q52.4658-19.7021 51.6113-19.3481Q50.7568-18.9941 49.9268-18.9941Q49.0967-18.9941 48.2544-19.3481Q47.4121-19.7021 46.3135-20.3369L12.4268-40.0879Q10.9863-39.1113 10.0342-37.6831Q9.08203-36.2549 9.08203-34.3994Q9.08203-32.3975 10.2173-30.835Q11.3525-29.2725 13.4277-28.0762L44.2627-9.98535Q45.9717-8.98438 47.29-8.41064Q48.6084-7.83691 49.9268-7.83691ZM49.9268 10.376Q51.2939 10.376 52.6001 9.80225Q53.9062 9.22852 55.6152 8.22754L86.4502-9.8877Q88.501-11.084 89.6362-12.6343Q90.7715-14.1846 90.7715-16.1865Q90.7715-18.0664 89.8193-19.4946Q88.8672-20.9229 87.4268-21.875L53.5645-2.14844Q52.4658-1.51367 51.6113-1.14746Q50.7568-0.78125 49.9268-0.78125Q49.0967-0.78125 48.2544-1.14746Q47.4121-1.51367 46.3135-2.14844L12.4268-21.875Q10.9863-20.9229 10.0342-19.4946Q9.08203-18.0664 9.08203-16.1865Q9.08203-14.1846 10.2173-12.6343Q11.3525-11.084 13.4277-9.8877L44.2627 8.22754Q45.9717 9.22852 47.29 9.80225Q48.6084 10.376 49.9268 10.376Z"/>
  </g>
  <g id="Semibold-S" transform="matrix(1 0 0 1 1993.62 696)">
   <path d="M49.6513-27.0775Q51.014-27.0775 52.3933-27.5702Q53.7727-28.0629 55.506-29.0505L84.8141-46.0517Q87.5262-47.6274 88.8022-49.1942Q90.0783-50.761 90.0783-52.8893Q90.0783-55.0175 88.8022-56.5676Q87.5262-58.1178 84.8141-59.6936L55.506-76.6947Q53.7727-77.7156 52.3933-78.1917Q51.014-78.6677 49.6513-78.6677Q48.3041-78.6677 46.917-78.1917Q45.5299-77.7156 43.8299-76.6947L14.4885-59.6936Q11.7764-58.1178 10.5003-56.5676Q9.22422-55.0175 9.22422-52.8893Q9.22422-50.761 10.5003-49.1942Q11.7764-47.6274 14.4885-46.0517L43.8299-29.0505Q45.5299-28.0629 46.917-27.5702Q48.3041-27.0775 49.6513-27.0775ZM49.6513-36.9019Q49.0253-36.9019 48.1396-37.3613L21.2544-52.6141Q21.0591-52.7272 21.0591-52.8893Q21.0591-53.0513 21.2544-53.1645L48.1396-68.3839Q49.0253-68.8767 49.6513-68.8767Q50.3105-68.8767 51.1629-68.3839L78.0481-53.1645Q78.2435-53.0513 78.2435-52.8893Q78.2435-52.7272 78.0481-52.6141L51.1629-37.3613Q50.3105-36.9019 49.6513-36.9019ZM49.6513-8.1124Q50.9474-8.1124 52.1602-8.65503Q53.373-9.19766 54.9398-10.1187L86.5124-28.716Q88.2588-29.759 89.1686-31.1093Q90.0783-32.4597 90.0783-34.0884Q90.0783-35.7483 89.1706-37.0299Q88.2629-38.3115 87.0091-39.1104L52.5336-19.0483Q51.6749-18.5558 50.9893-18.2773Q50.3036-17.9988 49.6513-17.9988Q48.9989-17.9988 48.3299-18.2773Q47.6609-18.5558 46.8022-19.0483L12.2935-39.1104Q11.0396-38.3115 10.1319-37.0299Q9.22422-35.7483 9.22422-34.0884Q9.22422-32.4597 10.1506-31.0927Q11.0771-29.7257 12.8234-28.716L44.396-10.1187Q45.9628-9.19766 47.1834-8.65503Q48.404-8.1124 49.6513-8.1124ZM49.6513 9.79834Q50.9474 9.79834 52.1602 9.25571Q53.373 8.71309 54.9398 7.79209L86.5124-10.8386Q88.2255-11.8482 89.1519-13.1986Q90.0783-14.5489 90.0783-16.1776Q90.0783-17.8709 89.1706-19.1525Q88.2629-20.4341 87.0091-21.1996L52.5336-1.1709Q51.6749-0.67832 50.9893-0.383203Q50.3036-0.0880859 49.6513-0.0880859Q48.9989-0.0880859 48.3299-0.383203Q47.6609-0.67832 46.8022-1.1709L12.2935-21.1996Q11.0396-20.4341 10.1319-19.1525Q9.22422-17.8709 9.22422-16.1776Q9.22422-14.5489 10.1506-13.1986Q11.0771-11.8482 12.8234-10.8386L44.396 7.79209Q45.9628 8.71309 47.1834 9.25571Q48.404 9.79834 49.6513 9.79834Z"/>
  </g>
  <g id="Medium-S" transform="matrix(1 0 0 1 1697.11 696)">
   <path d="M49.4424-27.1719Q50.7646-27.1719 52.1069-27.6309Q53.4492-28.0898 55.1084-29.0303L84.5176-46.1123Q87.1758-47.6611 88.3643-49.1201Q89.5527-50.5791 89.5527-52.5254Q89.5527-54.4717 88.3643-55.9106Q87.1758-57.3496 84.5176-58.8984L55.1084-75.9805Q53.4492-76.9609 52.1069-77.3999Q50.7646-77.8389 49.4424-77.8389Q48.1289-77.8389 46.7822-77.3999Q45.4355-76.9609 43.8164-75.9805L14.3672-58.8984Q11.709-57.3496 10.5205-55.9106Q9.33203-54.4717 9.33203-52.5254Q9.33203-50.5791 10.5205-49.1201Q11.709-47.6611 14.3672-46.1123L43.8164-29.0303Q45.4355-28.0898 46.7822-27.6309Q48.1289-27.1719 49.4424-27.1719ZM49.4424-36.0596Q48.749-36.0596 47.8027-36.5527L20.21-52.2637Q20.0146-52.3701 20.0146-52.5254Q20.0146-52.6807 20.21-52.7871L47.8027-68.458Q48.749-68.9912 49.4424-68.9912Q50.1758-68.9912 51.082-68.458L78.6748-52.7871Q78.8701-52.6807 78.8701-52.5254Q78.8701-52.3701 78.6748-52.2637L51.082-36.5527Q50.1758-36.0596 49.4424-36.0596ZM49.4424-8.32129Q50.6846-8.32129 51.8267-8.84033Q52.9688-9.35938 54.4277-10.2197L86.5596-29.2012Q88.0566-30.1094 88.8047-31.3081Q89.5527-32.5068 89.5527-33.8525Q89.5527-35.3643 88.6787-36.5347Q87.8047-37.7051 86.6924-38.3691L51.752-18.0713Q51.0752-17.6865 50.5176-17.4653Q49.96-17.2441 49.4424-17.2441Q48.9248-17.2441 48.3872-17.4653Q47.8496-17.6865 47.1729-18.0713L12.1924-38.3691Q11.0801-37.7051 10.2061-36.5347Q9.33203-35.3643 9.33203-33.8525Q9.33203-32.5068 10.1001-31.2881Q10.8682-30.0693 12.3652-29.2012L44.4971-10.2197Q45.9561-9.35938 47.1025-8.84033Q48.249-8.32129 49.4424-8.32129ZM49.4424 9.36035Q50.6846 9.36035 51.8267 8.84131Q52.9688 8.32227 54.4277 7.46191L86.5596-11.5596Q88.0166-12.4277 88.7847-13.6265Q89.5527-14.8252 89.5527-16.1709Q89.5527-17.7227 88.6787-18.8931Q87.8047-20.0635 86.6924-20.6875L51.752-0.429688Q51.0752-0.0449219 50.5176 0.196289Q49.96 0.4375 49.4424 0.4375Q48.9248 0.4375 48.3872 0.196289Q47.8496-0.0449219 47.1729-0.429688L12.1924-20.6875Q11.0801-20.0635 10.2061-18.8931Q9.33203-17.7227 9.33203-16.1709Q9.33203-14.8252 10.1001-13.6265Q10.8682-12.4277 12.3652-11.5596L44.4971 7.46191Q45.9561 8.32227 47.1025 8.84131Q48.249 9.36035 49.4424 9.36035Z"/>
  </g>
  <g id="Regular-S" transform="matrix(1 0 0 1 1400.67 696)">
   <path d="M49.1699-27.2949Q50.4395-27.2949 51.7334-27.71Q53.0273-28.125 54.5898-29.0039L84.1309-46.1914Q86.7188-47.7051 87.793-49.0234Q88.8672-50.3418 88.8672-52.0508Q88.8672-53.7598 87.793-55.0537Q86.7188-56.3477 84.1309-57.8613L54.5898-75.0488Q53.0273-75.9766 51.7334-76.3672Q50.4395-76.7578 49.1699-76.7578Q47.9004-76.7578 46.6064-76.3672Q45.3125-75.9766 43.7988-75.0488L14.209-57.8613Q11.6211-56.3477 10.5469-55.0537Q9.47266-53.7598 9.47266-52.0508Q9.47266-50.3418 10.5469-49.0234Q11.6211-47.7051 14.209-46.1914L43.7988-29.0039Q45.3125-28.125 46.6064-27.71Q47.9004-27.2949 49.1699-27.2949ZM49.1699-34.9609Q48.3887-34.9609 47.3633-35.498L18.8477-51.8066Q18.6523-51.9043 18.6523-52.0508Q18.6523-52.1973 18.8477-52.2949L47.3633-68.5547Q48.3887-69.1406 49.1699-69.1406Q50-69.1406 50.9766-68.5547L79.4922-52.2949Q79.6875-52.1973 79.6875-52.0508Q79.6875-51.9043 79.4922-51.8066L50.9766-35.498Q50-34.9609 49.1699-34.9609ZM49.1699-8.59375Q50.3418-8.59375 51.3916-9.08203Q52.4414-9.57031 53.7598-10.3516L86.6211-29.834Q87.793-30.5664 88.3301-31.5674Q88.8672-32.5684 88.8672-33.5449Q88.8672-34.8633 88.0371-35.8887Q87.207-36.9141 86.2793-37.4023L50.7324-16.7969Q50.293-16.5527 49.9023-16.4062Q49.5117-16.2598 49.1699-16.2598Q48.8281-16.2598 48.4619-16.4062Q48.0957-16.5527 47.6562-16.7969L12.0605-37.4023Q11.1328-36.9141 10.3027-35.8887Q9.47266-34.8633 9.47266-33.5449Q9.47266-32.5684 10.0342-31.543Q10.5957-30.5176 11.7676-29.834L44.6289-10.3516Q45.9473-9.57031 46.9971-9.08203Q48.0469-8.59375 49.1699-8.59375ZM49.1699 8.78906Q50.3418 8.78906 51.3916 8.30078Q52.4414 7.8125 53.7598 7.03125L86.6211-12.5Q87.7441-13.1836 88.3057-14.1846Q88.8672-15.1855 88.8672-16.1621Q88.8672-17.5293 88.0371-18.5547Q87.207-19.5801 86.2793-20.0195L50.7324 0.537109Q50.293 0.78125 49.9023 0.952148Q49.5117 1.12305 49.1699 1.12305Q48.8281 1.12305 48.4619 0.952148Q48.0957 0.78125 47.6562 0.537109L12.0605-20.0195Q11.1328-19.5801 10.3027-18.5547Q9.47266-17.5293 9.47266-16.1621Q9.47266-15.1855 10.0342-14.1846Q10.5957-13.1836 11.7676-12.5L44.6289 7.03125Q45.9473 7.8125 46.9971 8.30078Q48.0469 8.78906 49.1699 8.78906Z"/>
  </g>
  <g id="Light-S" transform="matrix(1 0 0 1 1104.94 696)">
   <path d="M48.186-29.2325Q49.2437-29.2325 50.2954-29.5869Q51.3471-29.9413 52.6372-30.6689L82.8593-48.2045Q84.9477-49.4156 85.863-50.5145Q86.7783-51.6134 86.7783-53.065Q86.7783-54.5319 85.863-55.6062Q84.9477-56.6806 82.8593-57.9069L52.6372-75.4425Q51.3471-76.2037 50.2954-76.5413Q49.2437-76.8789 48.186-76.8789Q47.1436-76.8789 46.0918-76.5413Q45.0401-76.2037 43.7836-75.4425L13.5279-57.9069Q11.4395-56.6806 10.5242-55.6062Q9.60897-54.5319 9.60897-53.065Q9.60897-51.6134 10.5242-50.5145Q11.4395-49.4156 13.5279-48.2045L43.7836-30.6689Q45.0401-29.9413 46.0918-29.5869Q47.1436-29.2325 48.186-29.2325ZM48.186-35.1123Q47.5258-35.1123 46.6064-35.6041L16.9858-52.5787Q16.6089-52.7822 16.6089-53.065Q16.6089-53.3628 16.9858-53.5665L46.6064-70.5073Q47.5258-71.0327 48.186-71.0327Q48.895-71.0327 49.7808-70.5073L79.4014-53.5665Q79.7783-53.3628 79.7783-53.065Q79.7783-52.7822 79.4014-52.5787L49.7808-35.6041Q48.895-35.1123 48.186-35.1123ZM48.186-10.274Q49.1763-10.274 50.0596-10.6865Q50.943-11.099 52.0645-11.7592L84.9106-31.06Q85.9161-31.6714 86.37-32.4907Q86.8238-33.3099 86.8238-34.1049Q86.8238-35.1357 86.2207-35.9189Q85.6176-36.7022 84.9472-37.0845L49.6124-16.6606Q49.2182-16.4317 48.8655-16.3003Q48.5128-16.169 48.186-16.169Q47.8594-16.169 47.531-16.3003Q47.2026-16.4317 46.8086-16.6606L11.44-37.0845Q10.7697-36.7022 10.1665-35.9189Q9.56345-35.1357 9.56345-34.1049Q9.56345-33.3099 10.0342-32.4738Q10.5049-31.6376 11.4952-31.06L44.3413-11.7592Q45.4628-11.099 46.3537-10.6865Q47.2445-10.274 48.186-10.274ZM48.186 7.56302Q49.1763 7.56302 50.0596 7.15803Q50.943 6.75303 52.0645 6.09283L84.9106-13.2416Q85.8823-13.8194 86.353-14.6386Q86.8238-15.4579 86.8238-16.2529Q86.8238-17.3175 86.2207-18.1082Q85.6176-18.899 84.9472-19.2324L49.6124 1.15763Q49.2182 1.38677 48.8655 1.53491Q48.5128 1.68304 48.186 1.68304Q47.8594 1.68304 47.531 1.53491Q47.2026 1.38677 46.8086 1.15763L11.44-19.2324Q10.7697-18.899 10.1665-18.1082Q9.56345-17.3175 9.56345-16.2529Q9.56345-15.4579 10.0342-14.6386Q10.5049-13.8194 11.4952-13.2416L44.3413 6.09283Q45.4628 6.75303 46.3537 7.15803Q47.2445 7.56302 48.186 7.56302Z"/>
  </g>
  <g id="Thin-S" transform="matrix(1 0 0 1 809.52 696)">
   <path d="M46.8846-31.7952Q47.6622-31.7952 48.3935-32.0693Q49.1248-32.3435 50.0547-32.871L81.1775-50.8671Q82.6054-51.6779 83.3104-52.4865Q84.0155-53.2951 84.0155-54.4063Q84.0155-55.553 83.3104-56.3369Q82.6054-57.1208 81.1775-57.9671L50.0547-75.9632Q49.1248-76.504 48.3935-76.7715Q47.6622-77.039 46.8846-77.039Q46.1426-77.039 45.4112-76.7715Q44.6799-76.504 43.7634-75.9632L12.6272-57.9671Q11.1994-57.1208 10.4943-56.3369Q9.78925-55.553 9.78925-54.4063Q9.78925-53.2951 10.4943-52.4865Q11.1994-51.6779 12.6272-50.8671L43.7634-32.871Q44.6799-32.3435 45.4112-32.0693Q46.1426-31.7952 46.8846-31.7952ZM46.8846-35.3124Q46.3846-35.3124 45.6055-35.7444L14.5234-53.5999Q13.9064-53.9433 13.9064-54.4063Q13.9064-54.9043 14.5234-55.2482L45.6055-73.0898Q46.3846-73.5352 46.8846-73.5352Q47.4336-73.5352 48.1993-73.0898L79.2813-55.2482Q79.8984-54.9043 79.8984-54.4063Q79.8984-53.9433 79.2813-53.5999L48.1993-35.7444Q47.4336-35.3124 46.8846-35.3124ZM46.8846-12.4963Q47.6348-12.4963 48.298-12.8085Q48.9612-13.1208 49.8224-13.6209L82.6483-32.6816Q83.4339-33.1328 83.7775-33.7118Q84.1212-34.2907 84.1212-34.8456Q84.1212-35.4959 83.8183-35.959Q83.5154-36.422 83.1854-36.664L48.1311-16.4803Q47.7968-16.2716 47.4942-16.1602Q47.1916-16.0489 46.8846-16.0489Q46.5783-16.0489 46.2998-16.1602Q46.0213-16.2716 45.6876-16.4803L10.6193-36.664Q10.2893-36.422 9.98643-35.959Q9.68352-35.4959 9.68352-34.8456Q9.68352-34.2907 10.0342-33.7048Q10.3848-33.1189 11.135-32.6816L43.9609-13.6209Q44.8221-13.1208 45.5027-12.8085Q46.1833-12.4963 46.8846-12.4963ZM46.8846 5.94148Q47.6348 5.94148 48.298 5.64664Q48.9612 5.3518 49.8224 4.8517L82.6483-14.2224Q83.4199-14.6603 83.7706-15.2392Q84.1212-15.8181 84.1212-16.373Q84.1212-17.0373 83.8183-17.5178Q83.5154-17.9983 83.1854-18.1914L48.1311 1.97833Q47.7968 2.18762 47.4942 2.30565Q47.1916 2.42369 46.8846 2.42369Q46.5783 2.42369 46.2998 2.30565Q46.0213 2.18762 45.6876 1.97833L10.6193-18.1914Q10.2893-17.9983 9.98643-17.5178Q9.68352-17.0373 9.68352-16.373Q9.68352-15.8181 10.0342-15.2392Q10.3848-14.6603 11.135-14.2224L43.9609 4.8517Q44.8221 5.3518 45.5027 5.64664Q46.1833 5.94148 46.8846 5.94148Z"/>
  </g>
  <g id="Ultralight-S" transform="matrix(1 0 0 1 513.47 696)">
   <path d="M46.2181-33.1078Q46.8521-33.1078 47.4194-33.3408Q47.9866-33.5739 48.732-33.9989L80.3162-52.2308Q81.4056-52.8366 82.003-53.4966Q82.6004-54.1565 82.6004-55.0934Q82.6004-56.076 82.003-56.7112Q81.4056-57.3463 80.3162-57.9979L48.732-76.2299Q47.9866-76.6579 47.4194-76.8894Q46.8521-77.121 46.2181-77.121Q45.6299-77.121 45.0626-76.8894Q44.4954-76.6579 43.7531-76.2299L12.1658-57.9979Q11.0764-57.3463 10.479-56.7112Q9.88159-56.076 9.88159-55.0934Q9.88159-54.1565 10.479-53.4966Q11.0764-52.8366 12.1658-52.2308L43.7531-33.9989Q44.4954-33.5739 45.0626-33.3408Q45.6299-33.1078 46.2181-33.1078ZM46.2181-35.4149Q45.8-35.4149 45.0928-35.8162L13.2622-54.1229Q12.5221-54.538 12.5221-55.0934Q12.5221-55.6938 13.2622-56.1096L45.0928-74.4125Q45.8-74.8169 46.2181-74.8169Q46.685-74.8169 47.3892-74.4125L79.2198-56.1096Q79.9599-55.6938 79.9599-55.0934Q79.9599-54.538 79.2198-54.1229L47.3892-35.8162Q46.685-35.4149 46.2181-35.4149ZM46.2181-13.6345Q46.8452-13.6345 47.3957-13.8954Q47.9462-14.1563 48.674-14.5744L81.4896-33.5121Q82.1625-33.8814 82.4497-34.3372Q82.737-34.7931 82.737-35.2249Q82.737-35.6804 82.5878-35.9795Q82.4387-36.2785 82.283-36.4487L47.3724-16.3879Q47.0688-16.1896 46.7918-16.0885Q46.5149-15.9874 46.2181-15.9874Q45.9221-15.9874 45.6692-16.0885Q45.4163-16.1896 45.1134-16.3879L10.199-36.4487Q10.0433-36.2785 9.89418-35.9795Q9.74503-35.6804 9.74503-35.2249Q9.74503-34.7931 10.0342-34.3353Q10.3233-33.8776 10.9505-33.5121L43.766-14.5744Q44.4939-14.1563 45.0668-13.8954Q45.6398-13.6345 46.2181-13.6345ZM46.2181 5.11093Q46.8452 5.11093 47.3957 4.87251Q47.9462 4.63409 48.674 4.216L81.4896-14.7247Q82.1587-15.0909 82.4478-15.5468Q82.737-16.0027 82.737-16.4345Q82.737-16.8938 82.5878-17.2153Q82.4387-17.5369 82.283-17.6582L47.3724 2.39868Q47.0688 2.59781 46.7918 2.70042Q46.5149 2.80304 46.2181 2.80304Q45.9221 2.80304 45.6692 2.70042Q45.4163 2.59781 45.1134 2.39868L10.199-17.6582Q10.0433-17.5369 9.89418-17.2153Q9.74503-16.8938 9.74503-16.4345Q9.74503-16.0027 10.0342-15.5468Q10.3233-15.0909 10.9505-14.7247L43.766 4.216Q44.4939 4.63409 45.0668 4.87251Q45.6398 5.11093 46.2181 5.11093Z"/>
  </g>
 </g>
</svg>
