<?xml version="1.0" encoding="UTF-8"?>
<!--Generator: Apple Native CoreSVG 175-->
<!DOCTYPE svg
PUBLIC "-//W3C//DTD SVG 1.1//EN"
       "http://www.w3.org/Graphics/SVG/1.1/DTD/svg11.dtd">
<svg version="1.1" xmlns="http://www.w3.org/2000/svg" xmlns:xlink="http://www.w3.org/1999/xlink" width="3300" height="2200">
 <!--glyph: "uni1009AD.medium", point size: 100.0, font version: "17.1d1e1", template writer version: "65.1"-->
 <g id="Notes">
  <rect height="2200" id="artboard" style="fill:white;opacity:1" width="3300" x="0" y="0"/>
  <line style="fill:none;stroke:black;opacity:1;stroke-width:0.5;" x1="263" x2="3036" y1="292" y2="292"/>
  <text style="stroke:none;fill:black;font-family:sans-serif;font-size:13;font-weight:bold;" transform="matrix(1 0 0 1 263 322)">Weight/Scale Variations</text>
  <text style="stroke:none;fill:black;font-family:sans-serif;font-size:13;text-anchor:middle;" transform="matrix(1 0 0 1 559.711 322)">Ultralight</text>
  <text style="stroke:none;fill:black;font-family:sans-serif;font-size:13;text-anchor:middle;" transform="matrix(1 0 0 1 856.422 322)">Thin</text>
  <text style="stroke:none;fill:black;font-family:sans-serif;font-size:13;text-anchor:middle;" transform="matrix(1 0 0 1 1153.13 322)">Light</text>
  <text style="stroke:none;fill:black;font-family:sans-serif;font-size:13;text-anchor:middle;" transform="matrix(1 0 0 1 1449.84 322)">Regular</text>
  <text style="stroke:none;fill:black;font-family:sans-serif;font-size:13;text-anchor:middle;" transform="matrix(1 0 0 1 1746.56 322)">Medium</text>
  <text style="stroke:none;fill:black;font-family:sans-serif;font-size:13;text-anchor:middle;" transform="matrix(1 0 0 1 2043.27 322)">Semibold</text>
  <text style="stroke:none;fill:black;font-family:sans-serif;font-size:13;text-anchor:middle;" transform="matrix(1 0 0 1 2339.98 322)">Bold</text>
  <text style="stroke:none;fill:black;font-family:sans-serif;font-size:13;text-anchor:middle;" transform="matrix(1 0 0 1 2636.69 322)">Heavy</text>
  <text style="stroke:none;fill:black;font-family:sans-serif;font-size:13;text-anchor:middle;" transform="matrix(1 0 0 1 2933.4 322)">Black</text>
  <line style="fill:none;stroke:black;opacity:1;stroke-width:0.5;" x1="263" x2="3036" y1="1903" y2="1903"/>
  <g transform="matrix(1 0 0 1 263 1933)">
   <path d="M9.24805 0.830078Q10.8691 0.830078 12.2949 0.214844Q13.7207-0.400391 14.8096-1.49414Q15.8984-2.58789 16.5186-4.01367Q17.1387-5.43945 17.1387-7.05078Q17.1387-8.66211 16.5186-10.0879Q15.8984-11.5137 14.8047-12.6074Q13.7109-13.7012 12.2852-14.3164Q10.8594-14.9316 9.23828-14.9316Q7.62695-14.9316 6.20117-14.3164Q4.77539-13.7012 3.69141-12.6074Q2.60742-11.5137 1.9873-10.0879Q1.36719-8.66211 1.36719-7.05078Q1.36719-5.43945 1.9873-4.01367Q2.60742-2.58789 3.69629-1.49414Q4.78516-0.400391 6.21094 0.214844Q7.63672 0.830078 9.24805 0.830078ZM9.24805-0.654297Q7.91992-0.654297 6.7627-1.14746Q5.60547-1.64062 4.73145-2.51953Q3.85742-3.39844 3.36426-4.56055Q2.87109-5.72266 2.87109-7.05078Q2.87109-8.37891 3.35938-9.54102Q3.84766-10.7031 4.72168-11.582Q5.5957-12.4609 6.75293-12.9541Q7.91016-13.4473 9.23828-13.4473Q10.5762-13.4473 11.7334-12.9541Q12.8906-12.4609 13.7695-11.582Q14.6484-10.7031 15.1465-9.54102Q15.6445-8.37891 15.6445-7.05078Q15.6445-5.72266 15.1514-4.56055Q14.6582-3.39844 13.7842-2.51953Q12.9102-1.64062 11.748-1.14746Q10.5859-0.654297 9.24805-0.654297ZM5.6543-7.05078Q5.6543-6.72852 5.85938-6.52832Q6.06445-6.32812 6.40625-6.32812L8.51562-6.32812L8.51562-4.20898Q8.51562-3.88672 8.71094-3.67676Q8.90625-3.4668 9.23828-3.4668Q9.56055-3.4668 9.77051-3.67676Q9.98047-3.88672 9.98047-4.20898L9.98047-6.32812L12.0898-6.32812Q12.4219-6.32812 12.627-6.52832Q12.832-6.72852 12.832-7.05078Q12.832-7.38281 12.627-7.58789Q12.4219-7.79297 12.0898-7.79297L9.98047-7.79297L9.98047-9.90234Q9.98047-10.2344 9.77051-10.4443Q9.56055-10.6543 9.23828-10.6543Q8.90625-10.6543 8.71094-10.4443Q8.51562-10.2344 8.51562-9.90234L8.51562-7.79297L6.40625-7.79297Q6.06445-7.79297 5.85938-7.58789Q5.6543-7.38281 5.6543-7.05078Z"/>
  </g>
  <g transform="matrix(1 0 0 1 281.867 1933)">
   <path d="M11.709 2.91016Q13.75 2.91016 15.5518 2.12891Q17.3535 1.34766 18.7305-0.0292969Q20.1074-1.40625 20.8887-3.20801Q21.6699-5.00977 21.6699-7.05078Q21.6699-9.0918 20.8887-10.8936Q20.1074-12.6953 18.7305-14.0723Q17.3535-15.4492 15.5469-16.2305Q13.7402-17.0117 11.6992-17.0117Q9.6582-17.0117 7.85645-16.2305Q6.05469-15.4492 4.68262-14.0723Q3.31055-12.6953 2.5293-10.8936Q1.74805-9.0918 1.74805-7.05078Q1.74805-5.00977 2.5293-3.20801Q3.31055-1.40625 4.6875-0.0292969Q6.06445 1.34766 7.86621 2.12891Q9.66797 2.91016 11.709 2.91016ZM11.709 1.25Q9.98047 1.25 8.47656 0.605469Q6.97266-0.0390625 5.83496-1.17676Q4.69727-2.31445 4.05762-3.81836Q3.41797-5.32227 3.41797-7.05078Q3.41797-8.7793 4.05762-10.2832Q4.69727-11.7871 5.83008-12.9297Q6.96289-14.0723 8.4668-14.7119Q9.9707-15.3516 11.6992-15.3516Q13.4277-15.3516 14.9316-14.7119Q16.4355-14.0723 17.5781-12.9297Q18.7207-11.7871 19.3652-10.2832Q20.0098-8.7793 20.0098-7.05078Q20.0098-5.32227 19.3701-3.81836Q18.7305-2.31445 17.5928-1.17676Q16.4551-0.0390625 14.9463 0.605469Q13.4375 1.25 11.709 1.25ZM7.17773-7.05078Q7.17773-6.69922 7.41211-6.47461Q7.64648-6.25 8.01758-6.25L10.8887-6.25L10.8887-3.36914Q10.8887-2.99805 11.1133-2.76855Q11.3379-2.53906 11.6895-2.53906Q12.0605-2.53906 12.29-2.76855Q12.5195-2.99805 12.5195-3.36914L12.5195-6.25L15.4004-6.25Q15.7715-6.25 16.001-6.47461Q16.2305-6.69922 16.2305-7.05078Q16.2305-7.42188 16.001-7.65137Q15.7715-7.88086 15.4004-7.88086L12.5195-7.88086L12.5195-10.752Q12.5195-11.1328 12.29-11.3623Q12.0605-11.5918 11.6895-11.5918Q11.3379-11.5918 11.1133-11.3574Q10.8887-11.123 10.8887-10.752L10.8887-7.88086L8.01758-7.88086Q7.63672-7.88086 7.40723-7.65137Q7.17773-7.42188 7.17773-7.05078Z"/>
  </g>
  <g transform="matrix(1 0 0 1 305.646 1933)">
   <path d="M14.9707 5.66406Q17.0605 5.66406 18.96 5.01465Q20.8594 4.36523 22.4512 3.19336Q24.043 2.02148 25.2197 0.429688Q26.3965-1.16211 27.0459-3.06641Q27.6953-4.9707 27.6953-7.05078Q27.6953-9.14062 27.0459-11.04Q26.3965-12.9395 25.2197-14.5312Q24.043-16.123 22.4512-17.2998Q20.8594-18.4766 18.9551-19.126Q17.0508-19.7754 14.9609-19.7754Q12.8711-19.7754 10.9717-19.126Q9.07227-18.4766 7.48535-17.2998Q5.89844-16.123 4.72168-14.5312Q3.54492-12.9395 2.90039-11.04Q2.25586-9.14062 2.25586-7.05078Q2.25586-4.9707 2.90527-3.06641Q3.55469-1.16211 4.72656 0.429688Q5.89844 2.02148 7.49023 3.19336Q9.08203 4.36523 10.9814 5.01465Q12.8809 5.66406 14.9707 5.66406ZM14.9707 3.84766Q13.1641 3.84766 11.5283 3.2959Q9.89258 2.74414 8.53516 1.74805Q7.17773 0.751953 6.17676-0.610352Q5.17578-1.97266 4.62891-3.6084Q4.08203-5.24414 4.08203-7.05078Q4.08203-8.86719 4.62891-10.5029Q5.17578-12.1387 6.17188-13.501Q7.16797-14.8633 8.52539-15.8594Q9.88281-16.8555 11.5186-17.4023Q13.1543-17.9492 14.9609-17.9492Q16.7773-17.9492 18.4131-17.4023Q20.0488-16.8555 21.4111-15.8594Q22.7734-14.8633 23.7695-13.501Q24.7656-12.1387 25.3174-10.5029Q25.8691-8.86719 25.8691-7.05078Q25.8789-5.24414 25.332-3.6084Q24.7852-1.97266 23.7842-0.610352Q22.7832 0.751953 21.4209 1.74805Q20.0586 2.74414 18.4229 3.2959Q16.7871 3.84766 14.9707 3.84766ZM9.19922-7.05078Q9.19922-6.66992 9.45801-6.4209Q9.7168-6.17188 10.1172-6.17188L14.0625-6.17188L14.0625-2.2168Q14.0625-1.81641 14.3115-1.55762Q14.5605-1.29883 14.9512-1.29883Q15.3516-1.29883 15.6104-1.55273Q15.8691-1.80664 15.8691-2.2168L15.8691-6.17188L19.8242-6.17188Q20.2246-6.17188 20.4785-6.4209Q20.7324-6.66992 20.7324-7.05078Q20.7324-7.46094 20.4785-7.71484Q20.2246-7.96875 19.8242-7.96875L15.8691-7.96875L15.8691-11.9141Q15.8691-12.3242 15.6104-12.583Q15.3516-12.8418 14.9512-12.8418Q14.5605-12.8418 14.3115-12.583Q14.0625-12.3242 14.0625-11.9141L14.0625-7.96875L10.1172-7.96875Q9.70703-7.96875 9.45312-7.71484Q9.19922-7.46094 9.19922-7.05078Z"/>
  </g>
  <text style="stroke:none;fill:black;font-family:sans-serif;font-size:13;font-weight:bold;" transform="matrix(1 0 0 1 263 1953)">Design Variations</text>
  <text style="stroke:none;fill:black;font-family:sans-serif;font-size:13;" transform="matrix(1 0 0 1 263 1971)">Symbols are supported in up to nine weights and three scales.</text>
  <text style="stroke:none;fill:black;font-family:sans-serif;font-size:13;" transform="matrix(1 0 0 1 263 1989)">For optimal layout with text and other symbols, vertically align</text>
  <text style="stroke:none;fill:black;font-family:sans-serif;font-size:13;" transform="matrix(1 0 0 1 263 2007)">symbols with the adjacent text.</text>
  <line style="fill:none;stroke:#00AEEF;stroke-width:0.5;opacity:1.0;" x1="776" x2="776" y1="1919" y2="1933"/>
  <g transform="matrix(1 0 0 1 776 1933)">
   <path d="M3.31055 0.15625Q3.70117 0.15625 3.91602-0.00976562Q4.13086-0.175781 4.26758-0.585938L5.52734-4.0332L11.2891-4.0332L12.5488-0.585938Q12.6855-0.175781 12.9004-0.00976562Q13.1152 0.15625 13.4961 0.15625Q13.8867 0.15625 14.1162-0.0585938Q14.3457-0.273438 14.3457-0.644531Q14.3457-0.869141 14.2383-1.17188L9.6582-13.3691Q9.48242-13.8184 9.17969-14.043Q8.87695-14.2676 8.4082-14.2676Q7.5-14.2676 7.17773-13.3789L2.59766-1.16211Q2.49023-0.859375 2.49023-0.634766Q2.49023-0.263672 2.70996-0.0537109Q2.92969 0.15625 3.31055 0.15625ZM6.00586-5.51758L8.37891-12.0898L8.42773-12.0898L10.8008-5.51758Z"/>
  </g>
  <line style="fill:none;stroke:#00AEEF;stroke-width:0.5;opacity:1.0;" x1="793.197" x2="793.197" y1="1919" y2="1933"/>
  <text style="stroke:none;fill:black;font-family:sans-serif;font-size:13;font-weight:bold;" transform="matrix(1 0 0 1 776 1953)">Margins</text>
  <text style="stroke:none;fill:black;font-family:sans-serif;font-size:13;" transform="matrix(1 0 0 1 776 1971)">Leading and trailing margins on the left and right side of each symbol</text>
  <text style="stroke:none;fill:black;font-family:sans-serif;font-size:13;" transform="matrix(1 0 0 1 776 1989)">can be adjusted by modifying the x-location of the margin guidelines.</text>
  <text style="stroke:none;fill:black;font-family:sans-serif;font-size:13;" transform="matrix(1 0 0 1 776 2007)">Modifications are automatically applied proportionally to all</text>
  <text style="stroke:none;fill:black;font-family:sans-serif;font-size:13;" transform="matrix(1 0 0 1 776 2025)">scales and weights.</text>
  <g transform="matrix(1 0 0 1 1289 1933)">
   <path d="M2.8418 1.86523L4.54102 3.57422Q5.18555 4.22852 5.90332 4.17969Q6.62109 4.13086 7.31445 3.35938L18.0078-8.42773L17.041-9.4043L6.42578 2.27539Q6.16211 2.57812 5.89355 2.61719Q5.625 2.65625 5.27344 2.30469L4.10156 1.14258Q3.75 0.791016 3.79395 0.522461Q3.83789 0.253906 4.14062-0.0195312L15.6152-10.8203L14.6387-11.7871L3.04688-0.898438Q2.30469-0.214844 2.25098 0.498047Q2.19727 1.21094 2.8418 1.86523ZM9.25781-16.3281Q8.94531-16.0254 8.90625-15.6348Q8.86719-15.2441 9.04297-14.9512Q9.21875-14.6777 9.55566-14.541Q9.89258-14.4043 10.3809-14.5215Q11.4746-14.7754 12.5977-14.7314Q13.7207-14.6875 14.7949-13.9844L14.209-12.5293Q13.9551-11.9043 14.0674-11.4404Q14.1797-10.9766 14.5801-10.5664L16.875-8.25195Q17.2363-7.88086 17.5781-7.82227Q17.9199-7.76367 18.3398-7.8418L19.4043-8.03711L20.0684-7.36328L20.0293-6.80664Q20-6.43555 20.1221-6.12305Q20.2441-5.81055 20.6055-5.44922L21.3672-4.70703Q21.7285-4.3457 22.1533-4.33105Q22.5781-4.31641 22.9297-4.66797L25.8398-7.58789Q26.1914-7.93945 26.1816-8.35449Q26.1719-8.76953 25.8105-9.13086L25.0391-9.89258Q24.6875-10.2539 24.3799-10.3857Q24.0723-10.5176 23.7109-10.4883L23.1348-10.4395L22.4902-11.0742L22.7344-12.1973Q22.832-12.6172 22.6953-12.9834Q22.5586-13.3496 22.1191-13.7891L19.9219-15.9766Q18.6719-17.2168 17.2607-17.8369Q15.8496-18.457 14.4189-18.4814Q12.9883-18.5059 11.665-17.959Q10.3418-17.4121 9.25781-16.3281ZM10.752-15.957Q11.6602-16.6211 12.7002-16.9043Q13.7402-17.1875 14.8047-17.085Q15.8691-16.9824 16.8701-16.5137Q17.8711-16.0449 18.7012-15.2051L21.1328-12.793Q21.3086-12.6172 21.3525-12.4512Q21.3965-12.2852 21.3379-12.0312L21.0156-10.5469L22.5195-9.0625L23.5059-9.12109Q23.6914-9.13086 23.7891-9.09668Q23.8867-9.0625 24.0332-8.91602L24.6094-8.33984L22.168-5.89844L21.5918-6.47461Q21.4453-6.62109 21.4062-6.71875Q21.3672-6.81641 21.377-7.01172L21.4453-7.98828L19.9512-9.47266L18.4277-9.21875Q18.1836-9.16992 18.042-9.2041Q17.9004-9.23828 17.7148-9.41406L15.7129-11.416Q15.5176-11.5918 15.4932-11.7529Q15.4688-11.9141 15.5859-12.1875L16.4648-14.2773Q15.293-15.3711 13.8281-15.791Q12.3633-16.2109 10.8398-15.7617Q10.7227-15.7324 10.6885-15.8057Q10.6543-15.8789 10.752-15.957Z"/>
  </g>
  <text style="stroke:none;fill:black;font-family:sans-serif;font-size:13;font-weight:bold;" transform="matrix(1 0 0 1 1289 1953)">Exporting</text>
  <text style="stroke:none;fill:black;font-family:sans-serif;font-size:13;" transform="matrix(1 0 0 1 1289 1971)">Symbols should be outlined when exporting to ensure the</text>
  <text style="stroke:none;fill:black;font-family:sans-serif;font-size:13;" transform="matrix(1 0 0 1 1289 1989)">design is preserved when submitting to Xcode.</text>
  <text id="template-version" style="stroke:none;fill:black;font-family:sans-serif;font-size:13;text-anchor:end;" transform="matrix(1 0 0 1 3036 1933)">Template v.3.0</text>
  <text style="stroke:none;fill:black;font-family:sans-serif;font-size:13;text-anchor:end;" transform="matrix(1 0 0 1 3036 1951)">Requires Xcode 13 or greater</text>
  <text id="descriptive-name" style="stroke:none;fill:black;font-family:sans-serif;font-size:13;text-anchor:end;" transform="matrix(1 0 0 1 3036 1969)">Generated from eyebrow</text>
  <text style="stroke:none;fill:black;font-family:sans-serif;font-size:13;text-anchor:end;" transform="matrix(1 0 0 1 3036 1987)">Typeset at 100 points</text>
  <text style="stroke:none;fill:black;font-family:sans-serif;font-size:13;" transform="matrix(1 0 0 1 263 726)">Small</text>
  <text style="stroke:none;fill:black;font-family:sans-serif;font-size:13;" transform="matrix(1 0 0 1 263 1156)">Medium</text>
  <text style="stroke:none;fill:black;font-family:sans-serif;font-size:13;" transform="matrix(1 0 0 1 263 1586)">Large</text>
 </g>
 <g id="Guides">
  <g id="H-reference" style="fill:#27AAE1;stroke:none;" transform="matrix(1 0 0 1 339 696)">
   <path d="M0.993347 0L3.6377 0L29.3282-67.1326L30.0301-67.1326L30.0301-70.459L28.1227-70.459ZM11.6882-24.4797L46.9818-24.4797L46.2311-26.7288L12.4382-26.7288ZM55.1193 0L57.7637 0L30.6381-70.459L29.4327-70.459L29.4327-67.1326Z"/>
  </g>
  <line id="Baseline-S" style="fill:none;stroke:#27AAE1;opacity:1;stroke-width:0.5;" x1="263" x2="3036" y1="696" y2="696"/>
  <line id="Capline-S" style="fill:none;stroke:#27AAE1;opacity:1;stroke-width:0.5;" x1="263" x2="3036" y1="625.541" y2="625.541"/>
  <g id="H-reference" style="fill:#27AAE1;stroke:none;" transform="matrix(1 0 0 1 339 1126)">
   <path d="M0.993347 0L3.6377 0L29.3282-67.1326L30.0301-67.1326L30.0301-70.459L28.1227-70.459ZM11.6882-24.4797L46.9818-24.4797L46.2311-26.7288L12.4382-26.7288ZM55.1193 0L57.7637 0L30.6381-70.459L29.4327-70.459L29.4327-67.1326Z"/>
  </g>
  <line id="Baseline-M" style="fill:none;stroke:#27AAE1;opacity:1;stroke-width:0.5;" x1="263" x2="3036" y1="1126" y2="1126"/>
  <line id="Capline-M" style="fill:none;stroke:#27AAE1;opacity:1;stroke-width:0.5;" x1="263" x2="3036" y1="1055.54" y2="1055.54"/>
  <g id="H-reference" style="fill:#27AAE1;stroke:none;" transform="matrix(1 0 0 1 339 1556)">
   <path d="M0.993347 0L3.6377 0L29.3282-67.1326L30.0301-67.1326L30.0301-70.459L28.1227-70.459ZM11.6882-24.4797L46.9818-24.4797L46.2311-26.7288L12.4382-26.7288ZM55.1193 0L57.7637 0L30.6381-70.459L29.4327-70.459L29.4327-67.1326Z"/>
  </g>
  <line id="Baseline-L" style="fill:none;stroke:#27AAE1;opacity:1;stroke-width:0.5;" x1="263" x2="3036" y1="1556" y2="1556"/>
  <line id="Capline-L" style="fill:none;stroke:#27AAE1;opacity:1;stroke-width:0.5;" x1="263" x2="3036" y1="1485.54" y2="1485.54"/>
  <line id="left-margin-Regular-M" style="fill:none;stroke:#00AEEF;stroke-width:0.5;opacity:1.0;" x1="1390.64" x2="1390.64" y1="1030.79" y2="1150.12"/>
  <line id="right-margin-Regular-M" style="fill:none;stroke:#00AEEF;stroke-width:0.5;opacity:1.0;" x1="1509.05" x2="1509.05" y1="1030.79" y2="1150.12"/>
 </g>
 <g id="Symbols">
  <g id="Black-L" transform="matrix(1 0 0 1 2851.74 1556)">
   <path d="M28.4688-40.5553Q31.6928-40.5553 37.1537-42.7132Q42.6146-44.8711 49.4219-48.2244Q56.2292-51.5776 63.6044-55.4011Q70.9796-59.2247 78.1703-62.5877Q85.3611-65.9508 91.5287-68.0989Q97.6962-70.247 102.057-70.247Q106.741-70.247 110.785-68.396Q114.83-66.5449 119.152-62.6039L136.394-46.8797Q139.439-44.1303 142.85-44.1199Q146.261-44.1095 148.823-46.1241Q151.386-48.1388 152.023-51.4749Q152.659-54.811 150.157-58.7351Q147.985-62.1735 144.571-67.0813Q141.157-71.989 133.355-80.5897Q124.306-90.5615 116.072-95.2702Q107.837-99.9789 97.0646-99.9789Q88.5674-99.9789 76.1495-96.455Q63.7315-92.9311 49.134-86.8986Q34.5365-80.8661 19.4154-73.2843Q14.9532-71.0318 12.9854-67.0845Q11.0175-63.1371 11.2698-58.5726Q11.5221-54.0081 13.676-49.9127Q15.8299-45.8173 19.5935-43.1863Q23.3572-40.5553 28.4688-40.5553ZM137.629-11.8736Q140.35-14.8114 140.578-17.9777Q140.806-21.144 139.199-23.7378Q137.592-26.3316 134.83-27.8011Q132.069-29.2706 128.863-28.8649Q125.656-28.4592 122.655-25.5369Q117.059-19.9411 107.885-16.7861Q98.7114-13.6311 87.9563-13.6311Q75.6308-13.6311 63.9874-16.6063Q52.3441-19.5814 41.03-25.7034Q37.2796-27.757 34.1413-27.0969Q31.003-26.4368 28.9207-24.1298Q26.8385-21.8229 26.2361-18.667Q25.6338-15.5111 26.9561-12.4727Q28.2784-9.43417 32.0485-7.3829Q45.1201-0.398784 59.3498 3.1421Q73.5795 6.68298 87.9563 6.68298Q103.14 6.68298 116.254 1.8124Q129.368-3.05818 137.629-11.8736ZM39.5577-11.523Q37.865-8.09117 36.1329-5.61094Q34.4008-3.13071 31.9818-0.652201Q28.864 2.62411 29.2275 5.966Q29.5909 9.30789 32.0749 11.5348Q34.5588 13.7616 37.9909 13.7986Q41.423 13.8356 44.4813 10.5009Q47.9114 6.82955 50.6708 2.38192Q53.4303-2.06571 55.7602-6.37879ZM61.0889-3.63099Q60.3795 1.75102 58.9894 5.97259Q57.5992 10.1942 56.5638 12.4699Q54.6906 16.5732 56.1587 19.6094Q57.6268 22.6456 60.7512 23.8775Q63.8757 25.1093 67.119 23.9735Q70.3623 22.8376 72.1186 18.5955Q73.3566 15.5383 74.2966 12.0524Q75.2366 8.56645 75.8762 5.14041Q76.5157 1.71436 76.8542-1.11009ZM86.4991-0.77522Q87.6645 4.5132 87.6419 8.97542Q87.6193 13.4376 87.4597 15.991Q87.204 20.5072 89.6379 22.8633Q92.0718 25.2194 95.4429 25.2778Q98.814 25.3362 101.455 23.1067Q104.096 20.8772 104.175 16.3015Q104.256 13.0054 103.999 9.41766Q103.743 5.82988 103.288 2.40325Q102.834-1.02339 102.184-3.84785ZM111.917-4.04922Q115.351 1.92661 116.493 6.04856Q117.634 10.1705 118.019 12.4939Q118.79 16.932 121.718 18.4793Q124.647 20.0266 127.937 19.2062Q131.228 18.3859 133.258 15.6139Q135.287 12.8419 134.319 8.72184Q132.686 1.66219 130.33-3.81441Q127.975-9.29101 125.007-12.3066Z"/>
  </g>
  <g id="Heavy-L" transform="matrix(1 0 0 1 2556.39 1556)">
   <path d="M27.4982-40.3657Q30.6543-40.3657 36.0129-42.5079Q41.3715-44.6501 48.0671-47.9807Q54.7627-51.3112 62.0582-55.1009Q69.3537-58.8905 76.5059-62.2334Q83.658-65.5763 89.8622-67.7062Q96.0665-69.8362 100.546-69.8362Q105.358-69.8362 109.556-67.9192Q113.753-66.0022 118.189-61.9382L135.092-46.4898Q137.856-43.9946 140.937-43.9795Q144.018-43.9644 146.344-45.7651Q148.671-47.5657 149.283-50.5329Q149.895-53.5001 147.722-56.9449Q145.574-60.3783 142.094-65.3278Q138.613-70.2772 131.066-78.6058Q122.345-88.226 114.265-92.9701Q106.184-97.7142 95.4375-97.7142Q86.7717-97.7142 74.4603-94.2577Q62.1489-90.8011 47.85-84.8729Q33.5512-78.9446 18.8673-71.4963Q14.6653-69.3623 12.8414-65.6058Q11.0175-61.8493 11.2767-57.5049Q11.5358-53.1605 13.585-49.2694Q15.6341-45.3784 19.1766-42.872Q22.7191-40.3657 27.4982-40.3657ZM135.167-12.3546Q137.569-14.951 137.781-17.7624Q137.993-20.5738 136.573-22.8717Q135.152-25.1696 132.71-26.4706Q130.267-27.7716 127.416-27.3998Q124.564-27.028 121.871-24.4102Q116.116-18.655 106.712-15.3908Q97.3072-12.1267 86.3199-12.1267Q73.862-12.1267 62.0676-15.1139Q50.2731-18.1012 38.8631-24.2871Q35.5175-26.1224 32.7228-25.5419Q29.9281-24.9614 28.0733-22.9231Q26.2185-20.8848 25.6799-18.0885Q25.1413-15.2922 26.3252-12.588Q27.509-9.88373 30.8792-8.05968Q43.8554-1.14836 57.9467 2.35419Q72.0379 5.85673 86.3199 5.85673Q101.299 5.85673 114.171 1.07496Q127.043-3.70682 135.167-12.3546ZM39.2007-10.3198Q37.642-7.2138 35.8581-4.592Q34.0742-1.9702 31.8747 0.279435Q29.1219 3.18185 29.4306 6.11536Q29.7392 9.04887 31.9198 10.995Q34.1004 12.9412 37.1266 12.9528Q40.1528 12.9645 42.8553 10.0174Q46.1553 6.47633 48.7716 2.15405Q51.3879-2.16823 53.3859-5.81918ZM60.8826-3.02127Q60.1319 2.06841 58.785 6.23419Q57.4382 10.4 56.4667 12.5753Q54.8169 16.1999 56.0977 18.8666Q57.3786 21.5334 60.1151 22.61Q62.8516 23.6866 65.7003 22.669Q68.549 21.6515 70.1096 17.9019Q71.3023 14.9347 72.2175 11.5279Q73.1327 8.1212 73.7447 4.86724Q74.3566 1.61328 74.6626-0.829103ZM85.8523-0.53996Q86.8804 4.50193 86.8418 8.90614Q86.8033 13.3104 86.648 15.7358Q86.4337 19.7186 88.5618 21.7921Q90.6899 23.8655 93.6458 23.9102Q96.6016 23.9548 98.9117 21.9829Q101.222 20.0109 101.297 15.9778Q101.377 12.7806 101.145 9.26047Q100.914 5.74036 100.51 2.48362Q100.105-0.773128 99.5518-3.21551ZM110.468-4.13314Q113.637 1.52939 114.742 5.71354Q115.846 9.89769 116.235 12.1615Q116.924 16.0752 119.496 17.4308Q122.069 18.7865 124.944 18.048Q127.82 17.3096 129.596 14.8638Q131.373 12.418 130.514 8.80913Q128.977 2.2045 126.8-3.1264Q124.623-8.4573 121.952-11.3642Z"/>
  </g>
  <g id="Bold-L" transform="matrix(1 0 0 1 2261.41 1556)">
   <path d="M26.292-40.1723Q29.3562-40.1723 34.5842-42.2916Q39.8122-44.4109 46.3695-47.7107Q52.9268-51.0106 60.1225-54.7542Q67.3182-58.4979 74.4204-61.8103Q81.5226-65.1226 87.7693-67.2295Q94.0159-69.3364 98.6339-69.3364Q103.6-69.3364 107.979-67.335Q112.357-65.3336 116.939-61.116L133.456-45.9759Q135.852-43.8107 138.511-43.7917Q141.17-43.7726 143.193-45.3045Q145.216-46.8364 145.786-49.3426Q146.357-51.8488 144.576-54.7094Q142.436-58.1427 138.849-63.1682Q135.261-68.1937 128.111-76.0948Q119.723-85.3591 111.85-90.0933Q103.976-94.8275 93.3497-94.8275Q84.5434-94.8275 72.4074-91.4704Q60.2714-88.1133 46.3414-82.3231Q32.4114-76.5328 18.206-69.2312Q14.3192-67.2431 12.6683-63.7323Q11.0175-60.2214 11.2844-56.1646Q11.5513-52.1079 13.4698-48.4816Q15.3883-44.8553 18.658-42.5138Q21.9277-40.1723 26.292-40.1723ZM131.997-12.9837Q134-15.1499 134.189-17.5121Q134.378-19.8743 133.192-21.7997Q132.006-23.7251 129.963-24.8149Q127.92-25.9047 125.517-25.5789Q123.115-25.2531 120.821-23.0267Q114.866-17.0719 105.185-13.6695Q95.5035-10.2671 84.2244-10.2671Q71.605-10.2671 59.6335-13.2585Q47.662-16.2499 36.1366-22.5127Q33.3054-24.0716 30.9445-23.591Q28.5837-23.1103 27.0169-21.41Q25.4501-19.7097 24.9921-17.3664Q24.5342-15.0231 25.5377-12.745Q26.5413-10.4669 29.3972-8.93453Q42.2507-2.11535 56.1616 1.33361Q70.0726 4.78257 84.2244 4.78257Q98.9427 4.78257 111.492 0.11219Q124.042-4.55819 131.997-12.9837ZM38.4347-9.17189Q37.0152-6.43575 35.192-3.71179Q33.3689-0.987832 31.431 0.992376Q29.1241 3.43373 29.3673 5.86757Q29.6106 8.3014 31.4184 9.90544Q33.2263 11.5095 35.7529 11.4941Q38.2795 11.4788 40.544 9.00823Q43.6529 5.65831 46.0849 1.56057Q48.517-2.53718 50.1598-5.45548ZM60.3682-2.38736Q59.5712 2.34849 58.2781 6.39301Q56.9851 10.4375 56.0905 12.4899Q54.7172 15.5228 55.7712 17.736Q56.8253 19.9492 59.0889 20.8374Q61.3526 21.7256 63.7172 20.8578Q66.0817 19.99 67.3966 16.8476Q68.5279 14.0104 69.4086 10.7445Q70.2893 7.47859 70.8705 4.45459Q71.4516 1.43059 71.7265-0.595092ZM85.1128-0.359757Q85.9792 4.38224 85.9214 8.66135Q85.8636 12.9405 85.7159 15.2121Q85.5479 18.534 87.3031 20.2579Q89.0584 21.9817 91.5069 22.0109Q93.9555 22.0401 95.8619 20.3871Q97.7684 18.734 97.8355 15.3695Q97.9159 12.3176 97.7187 8.92672Q97.5216 5.53584 97.179 2.50528Q96.8364-0.525279 96.3907-2.55096ZM109.087-4.55356Q111.926 0.702298 112.992 4.91855Q114.058 9.13481 114.462 11.3294Q115.051 14.5974 117.189 15.7186Q119.327 16.8398 121.695 16.205Q124.063 15.5702 125.528 13.5242Q126.994 11.4782 126.266 8.49189Q124.844 2.46317 122.879-2.64985Q120.913-7.76288 118.603-10.5242Z"/>
  </g>
  <g id="Semibold-L" transform="matrix(1 0 0 1 1965.9 1556)">
   <path d="M25.4604-40.039Q28.4612-40.039 33.5993-42.1425Q38.7373-44.246 45.1992-47.5246Q51.6612-50.8033 58.788-54.5153Q65.9149-58.2272 72.9827-61.5185Q80.0505-64.8098 86.3264-66.9008Q92.6022-68.9919 97.3158-68.9919Q102.388-68.9919 106.891-66.9323Q111.394-64.8727 116.076-60.5491L132.328-45.6217Q134.47-43.6839 136.838-43.6622Q139.206-43.6404 141.02-44.987Q142.834-46.3336 143.375-48.522Q143.917-50.7105 142.407-53.1683Q140.273-56.6015 136.612-61.6794Q132.951-66.7573 126.075-74.3637Q117.916-83.3827 110.185-88.1101Q102.454-92.8375 91.9104-92.8375Q83.0073-92.8375 70.9922-89.5489Q58.9771-86.2604 45.3014-80.5653Q31.6257-74.8702 17.7501-67.6696Q14.0805-65.7821 12.549-62.4406Q11.0175-59.0991 11.2897-55.2407Q11.5619-51.3822 13.3904-47.9385Q15.2189-44.4947 18.3005-42.2668Q21.3821-40.039 25.4604-40.039ZM129.811-13.4174Q131.539-15.287 131.712-17.3396Q131.886-19.3921 130.861-21.0607Q129.836-22.7294 128.069-23.6735Q126.301-24.6177 124.208-24.3236Q122.116-24.0295 120.097-22.073Q114.005-15.9804 104.132-12.4827Q94.26-8.98505 82.7797-8.98505Q70.049-8.98505 57.9555-11.9793Q45.862-14.9736 34.2569-21.2894Q31.7804-22.6578 29.7187-22.246Q27.6569-21.8342 26.2886-20.3669Q24.9204-18.8995 24.518-16.8686Q24.1156-14.8376 24.9949-12.8533Q25.8741-10.869 28.3756-9.53765Q41.1443-2.78198 54.931 0.630033Q68.7176 4.04205 82.7797 4.04205Q97.318 4.04205 109.646-0.551537Q121.973-5.14512 129.811-13.4174ZM37.9067-8.38051Q36.583-5.89936 34.7329-3.10498Q32.8827-0.310593 31.1251 1.48387Q29.1255 3.60738 29.3237 5.69674Q29.5219 7.7861 31.0728 9.15429Q32.6237 10.5225 34.8059 10.4885Q36.9881 10.4546 38.9505 8.31248Q41.9277 5.09437 44.2327 1.15142Q46.5378-2.79152 47.9357-5.20476ZM60.0135-1.95036Q59.1846 2.54157 57.9286 6.50249Q56.6727 10.4634 55.8311 12.431Q54.6485 15.056 55.5462 16.9565Q56.4438 18.8571 58.3815 19.6154Q60.3193 20.3737 62.35 19.6092Q64.3807 18.8446 65.5262 16.1207Q66.6153 13.3733 67.4722 10.2044Q68.3291 7.03558 68.889 4.17011Q69.4489 1.30464 69.7024-0.433766ZM84.6029-0.235527Q85.3579 4.29973 85.2869 8.4926Q85.2158 12.6855 85.0733 14.8511Q84.9372 17.7174 86.4354 19.2002Q87.9336 20.683 90.0324 20.7015Q92.1312 20.7201 93.7594 19.2869Q95.3876 17.8537 95.4494 14.9502Q95.5298 11.9984 95.3565 8.69664Q95.1831 5.39484 94.8829 2.52022Q94.5826-0.354413 94.2114-2.09282ZM108.135-4.84339Q110.747 0.132105 111.786 4.37049Q112.825 8.60888 113.24 10.7558Q113.76 13.5786 115.598 14.5382Q117.437 15.4978 119.455 14.9345Q121.473 14.3712 122.724 12.6007Q123.975 10.8303 123.337 8.27318Q121.994 2.6415 120.175-2.32133Q118.356-7.28415 116.295-9.94517Z"/>
  </g>
  <g id="Medium-L" transform="matrix(1 0 0 1 1670.1 1556)">
   <path d="M24.8299-39.938Q27.7827-39.938 32.8524-42.0294Q37.9222-44.1209 44.3119-47.3835Q50.7015-50.6462 57.7762-54.3341Q64.8508-58.022 71.8926-61.2973Q78.9343-64.5727 85.2323-66.6516Q91.5303-68.7306 96.3163-68.7306Q101.469-68.7306 106.067-66.6269Q110.664-64.5231 115.423-60.1193L131.473-45.3531Q133.423-43.5878 135.57-43.564Q137.717-43.5402 139.372-44.7463Q141.028-45.9523 141.548-47.8998Q142.067-49.8474 140.762-51.9998Q138.633-55.4329 134.916-60.5505Q131.199-65.6682 124.53-73.0511Q116.545-81.8841 108.922-86.6063Q101.3-91.3285 90.819-91.3285Q81.8425-91.3285 69.9191-88.0919Q57.9957-84.8554 44.5128-79.2324Q31.03-73.6095 17.4044-66.4855Q13.8996-64.6744 12.4586-61.4613Q11.0175-58.2482 11.2937-54.5401Q11.57-50.832 13.3302-47.5266Q15.0905-44.2212 18.0294-42.0796Q20.9684-39.938 24.8299-39.938ZM128.155-13.7462Q129.673-15.391 129.835-17.2088Q129.996-19.0265 129.094-20.5004Q128.192-21.9743 126.633-22.8081Q125.074-23.6418 123.216-23.3717Q121.358-23.1016 119.548-21.3498Q113.351-15.1528 103.334-11.5829Q93.3172-8.01299 81.6843-8.01299Q68.8692-8.01299 56.6831-11.0094Q44.4971-14.0059 32.8317-20.3619Q30.6241-21.5858 28.7891-21.2262Q26.9542-20.8666 25.7364-19.5759Q24.5187-18.2852 24.1585-16.4911Q23.7983-14.697 24.5833-12.9354Q25.3683-11.1739 27.6009-9.99496Q40.3055-3.28745 53.9979 0.0965503Q67.6903 3.48055 81.6843 3.48055Q96.0861 3.48055 108.245-1.0548Q120.405-5.59016 128.155-13.7462ZM37.5063-7.78046Q36.2554-5.49265 34.3847-2.64487Q32.5141 0.202918 30.8932 1.85655Q29.1266 3.73904 29.2907 5.56721Q29.4547 7.39538 30.8107 8.58474Q32.1667 9.77409 34.0878 9.72602Q36.0089 9.67795 37.7423 7.78494Q40.6196 4.66676 42.8284 0.841192Q45.0371-2.98438 46.2494-5.01464ZM59.7446-1.619Q58.8915 2.68798 57.6637 6.58551Q56.4358 10.483 55.6344 12.3864Q54.5965 14.702 55.3755 16.3655Q56.1545 18.029 57.8451 18.6889Q59.5357 19.3487 61.3134 18.6624Q63.091 17.9762 64.108 15.5696Q65.1651 12.8901 66.0039 9.7949Q66.8428 6.69967 67.3866 3.9544Q67.9304 1.20914 68.1677-0.311443ZM84.2163-0.14133Q84.8868 4.23717 84.8057 8.36464Q84.7247 12.4921 84.5861 14.5773Q84.4741 17.0982 85.7774 18.3982Q87.0807 19.6982 88.9144 19.7087Q90.748 19.7193 92.1652 18.4528Q93.5825 17.1863 93.6402 14.6322Q93.7206 11.7564 93.5653 8.52218Q93.41 5.28794 93.1419 2.53154Q92.8738-0.224856 92.5589-1.74544ZM107.413-5.06315Q109.853-0.300239 110.872 3.95493Q111.891 8.2101 112.313 10.3208Q112.781 12.8062 114.392 13.6432Q116.004 14.4802 117.757 13.9711Q119.51 13.462 120.598 11.9005Q121.686 10.339 121.117 8.10735Q119.834 2.77671 118.125-2.07222Q116.417-6.92115 114.545-9.50608Z"/>
  </g>
  <g id="Regular-L" transform="matrix(1 0 0 1 1374.57 1556)">
   <path d="M24.0075-39.8061Q26.8976-39.8061 31.8783-41.882Q36.8591-43.9578 43.1544-47.1995Q49.4498-50.4412 56.4564-54.0978Q63.4629-57.7544 70.4706-61.0088Q77.4784-64.2633 83.8053-66.3266Q90.1322-68.3899 95.0127-68.3899Q100.27-68.3899 104.991-66.2286Q109.712-64.0673 114.57-59.5587L130.357-45.0027Q132.056-43.4624 133.915-43.4359Q135.775-43.4094 137.224-44.4322Q138.672-45.455 139.163-47.0883Q139.655-48.7215 138.617-50.4756Q136.493-53.9086 132.703-59.0781Q128.913-64.2476 122.516-71.339Q114.757-79.9294 107.276-84.6449Q99.7943-89.3603 89.3955-89.3603Q80.3232-89.3603 68.5194-86.1915Q56.7156-83.0228 43.4842-77.4939Q30.2529-71.9651 16.9535-64.9411Q13.6636-63.2295 12.3406-60.1838Q11.0175-57.1382 11.299-53.6263Q11.5805-50.1144 13.2517-46.9895Q14.9229-43.8645 17.6759-41.8353Q20.4288-39.8061 24.0075-39.8061ZM125.993-14.1751Q127.24-15.5267 127.385-17.0381Q127.531-18.5496 126.789-19.7695Q126.046-20.9895 124.76-21.6792Q123.473-22.3689 121.922-22.1302Q120.37-21.8914 118.832-20.4065Q112.499-14.0734 102.293-10.4092Q92.0874-6.74508 80.2556-6.74508Q67.3303-6.74508 55.0235-9.74437Q42.7168-12.7437 30.9727-19.1521Q29.1158-20.1875 27.5767-19.896Q26.0376-19.6045 25.0162-18.5442Q23.9947-17.4839 23.6895-15.9988Q23.3843-14.5136 24.0464-13.0425Q24.7084-11.5715 26.5904-10.5914Q39.2113-3.94676 52.7808-0.599297Q66.3502 2.74817 80.2556 2.74817Q94.4793 2.74817 106.419-1.71124Q118.359-6.17064 125.993-14.1751ZM36.984-6.99778Q35.828-4.96216 33.9306-2.04472Q32.0332 0.872714 30.5907 2.34264Q29.1281 3.91078 29.2476 5.39826Q29.3671 6.88575 30.4689 7.84184Q31.5708 8.79793 33.1512 8.73145Q34.7317 8.66497 36.1664 7.09684Q38.9134 4.10902 40.9965 0.436544Q43.0797-3.23593 44.0497-4.76667ZM59.3939-1.18679Q58.5092 2.87894 57.318 6.69379Q56.1268 10.5086 55.3779 12.3281Q54.5285 14.2403 55.1529 15.5946Q55.7773 16.9489 57.1455 17.4803Q58.5137 18.0117 59.9612 17.4275Q61.4087 16.8434 62.2581 14.8507Q63.2734 12.26 64.0888 9.26075Q64.9042 6.26152 65.4269 3.67305Q65.9497 1.08458 66.1658-0.15189ZM83.7121-0.018465Q84.2723 4.15557 84.1781 8.19774Q84.084 12.2399 83.9506 14.2202Q83.8702 16.2905 84.9193 17.3521Q85.9683 18.4138 87.456 18.4138Q88.9438 18.4138 90.0858 17.3647Q91.2279 16.3156 91.2804 14.2175Q91.3608 11.4408 91.229 8.29462Q91.0972 5.14849 90.871 2.54631Q90.6449-0.0558678 90.4036-1.29234ZM106.472-5.34979Q108.686-0.864167 109.679 3.41289Q110.671 7.68995 111.104 9.75345Q111.503 11.7986 112.819 12.4757Q114.134 13.1529 115.541 12.7145Q116.948 12.2761 117.824 10.9871Q118.7 9.69815 118.22 7.89105Q117.016 2.95308 115.452-1.7473Q113.887-6.44769 112.262-8.93337Z"/>
  </g>
  <g id="Light-L" transform="matrix(1 0 0 1 1079.42 1556)">
   <path d="M23.1488-39.9399Q25.9244-39.9399 30.7905-41.9775Q35.6566-44.0152 41.8566-47.2186Q48.0565-50.4219 54.9868-54.0213Q61.917-57.6206 68.877-60.8179Q75.8369-64.0151 82.1734-66.0593Q88.51-68.1035 93.4286-68.1035Q98.7624-68.1035 103.55-65.8659Q108.338-63.6283 113.329-59.0053L129.078-44.4492Q130.396-43.2335 131.873-43.2165Q133.351-43.1994 134.523-44.0123Q135.695-44.8253 136.081-46.1149Q136.467-47.4046 135.601-48.8153Q133.344-52.2864 129.325-57.6658Q125.306-63.0452 119.71-69.2586Q111.704-78.1164 104.47-82.4787Q97.2367-86.8409 87.487-86.8409Q78.7581-86.8409 67.3551-83.844Q55.9521-80.8471 42.9689-75.4709Q29.9858-70.0947 16.61-63.0518Q13.4917-61.4354 12.2546-58.6189Q11.0175-55.8024 11.299-52.5862Q11.5805-49.3701 13.1563-46.5029Q14.7321-43.6356 17.3037-41.7877Q19.8754-39.9399 23.1488-39.9399ZM123.035-14.8241Q123.976-15.8319 124.084-16.9713Q124.191-18.1106 123.63-19.0348Q123.069-19.9589 122.088-20.4864Q121.107-21.0138 119.927-20.8323Q118.748-20.6508 117.591-19.5285Q111.106-13.0428 100.766-9.26417Q90.427-5.48555 78.3662-5.48555Q65.3455-5.48555 52.9814-8.41797Q40.6174-11.3504 28.816-17.797Q27.3981-18.6034 26.212-18.3883Q25.0259-18.1731 24.2431-17.3801Q23.4602-16.5871 23.2218-15.4644Q22.9835-14.3417 23.4642-13.2429Q23.9449-12.1442 25.3498-11.4312Q37.8562-4.86288 51.2444-1.59173Q64.6325 1.67942 78.3662 1.67942Q92.3607 1.67942 103.938-2.69405Q115.515-7.06751 123.035-14.8241ZM34.3694-8.40995Q33.137-6.41248 31.3732-3.89587Q29.6094-1.37925 28.2813-0.00487811Q27.0858 1.25799 27.1768 2.44005Q27.2677 3.62211 28.131 4.3778Q28.9943 5.13348 30.2503 5.07662Q31.5062 5.01976 32.6546 3.75689Q35.0774 1.09358 36.9887-1.97767Q38.8999-5.04892 39.9845-6.63705ZM57.3708-1.53021Q56.4862 2.34441 55.3332 5.73952Q54.1801 9.13463 53.4694 10.8778Q52.8108 12.3892 53.311 13.4571Q53.8113 14.5251 54.9028 14.9514Q55.9943 15.3778 57.1366 14.9177Q58.2788 14.4577 58.9374 12.8659Q59.8764 10.4852 60.644 7.85805Q61.4116 5.23093 61.9343 2.90957Q62.4571 0.588205 62.7114-0.724581ZM83.5976-0.610075Q84.1004 3.39209 83.9968 7.0049Q83.8932 10.6177 83.7787 12.5217Q83.6983 14.1338 84.5279 14.9568Q85.3575 15.7799 86.5399 15.7799Q87.7224 15.7799 88.6259 14.9503Q89.5294 14.1207 89.5627 12.4616Q89.6431 9.93303 89.559 7.16864Q89.475 4.40425 89.287 2.05972Q89.099-0.284816 88.8577-1.5976ZM108.19-7.67807Q110.156-3.59327 111.167 0.416523Q112.179 4.42631 112.688 6.4709Q113.03 8.09598 114.088 8.62996Q115.146 9.16393 116.248 8.81146Q117.349 8.45898 118.025 7.41821Q118.7 6.37744 118.277 4.93268Q117.131 0.471842 115.652-3.83718Q114.174-8.1462 112.758-10.4603Z"/>
  </g>
  <g id="Thin-L" transform="matrix(1 0 0 1 784.764 1556)">
   <path d="M22.013-40.1167Q24.6372-40.1167 29.3517-42.1039Q34.0663-44.0911 40.1401-47.2438Q46.2138-50.3965 53.0432-53.9201Q59.8725-57.4438 66.7692-60.5653Q73.666-63.6869 80.0152-65.7058Q86.3645-67.7248 91.3336-67.7248Q96.7683-67.7248 101.645-65.3863Q106.521-63.0477 111.688-58.2733L127.387-43.7173Q128.2-42.9307 129.173-42.9262Q130.145-42.9216 130.951-43.457Q131.757-43.9924 132.004-44.8276Q132.252-45.6628 131.613-46.6193Q129.179-50.1409 124.857-55.7978Q120.536-61.4548 116-66.5071Q107.665-75.7186 100.76-79.6137Q93.8542-83.5088 84.9628-83.5088Q76.6881-83.5088 65.8152-80.7392Q54.9423-77.9696 42.2874-72.7953Q29.6325-67.621 16.1558-60.5531Q13.2644-59.0626 12.141-56.5491Q11.0175-54.0356 11.299-51.2107Q11.5805-48.3858 13.0301-45.8593Q14.4798-43.3328 16.8116-41.7247Q19.1434-40.1167 22.013-40.1167ZM119.122-15.6825Q119.66-16.2357 119.717-16.8828Q119.774-17.53 119.453-18.063Q119.131-18.5959 118.554-18.9087Q117.977-19.2216 117.29-19.1158Q116.602-19.01 115.951-18.3674Q109.263-11.6798 98.7471-7.74974Q88.2311-3.81971 75.8675-3.81971Q62.7203-3.81971 50.2806-6.66371Q37.8409-9.50772 25.9635-16.0048Q25.1262-16.5084 24.4071-16.3942Q23.6879-16.2799 23.2206-15.8404Q22.7532-15.4009 22.6033-14.7576Q22.4534-14.1144 22.6943-13.508Q22.9352-12.9016 23.709-12.5419Q36.064-6.07451 49.2123-2.90429Q62.3606 0.265922 75.8675 0.265922Q89.5588 0.265922 100.657-3.99389Q111.754-8.2537 119.122-15.6825ZM30.9113-10.2777Q29.578-8.33065 27.9908-6.34416Q26.4036-4.35766 25.227-3.10966Q24.3848-2.25053 24.438-1.47242Q24.4912-0.694305 25.0389-0.20368Q25.5867 0.286945 26.4135 0.242807Q27.2403 0.19867 28.0099-0.660466Q30.004-2.8946 31.6879-5.17067Q33.3719-7.44674 34.6078-9.11079ZM54.6952-1.98442Q53.8106 1.63745 52.708 4.47742Q51.6054 7.31739 50.9452 8.95963Q50.5389 9.94088 50.875 10.6301Q51.2112 11.3193 51.9367 11.6068Q52.6622 11.8943 53.4007 11.5984Q54.1392 11.3024 54.5455 10.2408Q55.3836 8.1378 56.088 6.00285Q56.7924 3.8679 57.3151 1.8998Q57.8379-0.0682913 58.1426-1.48201ZM83.4462-1.39253Q83.8731 2.38232 83.757 5.42727Q83.6409 8.47222 83.5514 10.2753Q83.471 11.2813 84.0103 11.7889Q84.5496 12.2964 85.3283 12.2964Q86.107 12.2964 86.695 11.7571Q87.2829 11.2178 87.2908 10.1392Q87.3712 7.93894 87.3504 5.67944Q87.3295 3.41993 87.192 1.41615Q87.0544-0.587618 86.8132-2.00134ZM110.462-10.7574Q112.099-7.20272 113.136-3.54641Q114.173 0.109894 114.783 2.12946Q115.05 3.19898 115.767 3.5436Q116.484 3.88821 117.182 3.6494Q117.879 3.41058 118.29 2.69806Q118.7 1.98554 118.353 1.02Q117.282-2.80979 115.917-6.6012Q114.553-10.3926 113.415-12.4799Z"/>
  </g>
  <g id="Ultralight-L" transform="matrix(1 0 0 1 489.107 1556)">
   <path d="M21.4313-40.2073Q23.978-40.2073 28.6148-42.1686Q33.2517-44.13 39.2609-47.2567Q45.27-50.3835 52.0477-53.8683Q58.8253-57.3532 65.6897-60.436Q72.5541-63.5188 78.9098-65.5248Q85.2656-67.5308 90.2605-67.5308Q95.747-67.5308 100.669-65.1406Q105.59-62.7503 110.848-57.8983L126.521-43.3423Q127.075-42.7756 127.789-42.7775Q128.503-42.7793 129.122-43.1725Q129.74-43.5657 129.916-44.1682Q130.093-44.7707 129.571-45.4946Q127.046-49.042 122.569-54.8411Q118.092-60.6402 114.099-65.0978Q105.597-74.4904 98.8591-78.1463Q92.1216-81.8022 83.6699-81.8022Q75.6279-81.8022 65.0265-79.149Q54.4251-76.4958 41.9384-71.4249Q29.4516-66.3539 15.9232-59.2732Q13.148-57.8473 12.0828-55.489Q11.0175-53.1306 11.299-50.5061Q11.5805-47.8816 12.9655-45.5297Q14.3505-43.1777 16.5595-41.6925Q18.7685-40.2073 21.4313-40.2073ZM117.118-16.1221Q117.449-16.4425 117.48-16.8376Q117.511-17.2327 117.313-17.5652Q117.114-17.8977 116.744-18.1007Q116.374-18.3036 115.939-18.2366Q115.503-18.1696 115.11-17.7726Q108.319-10.9816 97.7128-6.97405Q87.1063-2.96648 74.5876-2.96648Q61.3757-2.96648 48.8973-5.76519Q36.4188-8.5639 24.5025-15.0868Q23.9626-15.4354 23.4826-15.3728Q23.0026-15.3102 22.6969-15.0518Q22.3911-14.7933 22.2865-14.3956Q22.1818-13.9979 22.2999-13.6438Q22.418-13.2896 22.8686-13.1108Q35.1461-6.6951 48.1715-3.57659Q61.197-0.458067 74.5876-0.458067Q88.1236-0.458067 98.9759-4.65966Q109.828-8.86126 117.118-16.1221ZM29.1401-11.2343Q27.7551-9.31313 26.2584-7.59816Q24.7617-5.88318 23.6626-4.69992Q23.0013-4.04758 23.0352-3.47636Q23.0691-2.90515 23.4552-2.55029Q23.8414-2.19543 24.4483-2.23305Q25.0553-2.27067 25.6309-2.92301Q27.4054-4.93732 28.9729-6.80611Q30.5404-8.6749 31.8539-10.3778ZM53.3248-2.21706Q52.4402 1.27534 51.3635 3.83098Q50.2867 6.38661 49.6523 7.97715Q49.3753 8.68688 49.6273 9.18213Q49.8794 9.67739 50.4175 9.89374Q50.9555 10.1101 51.4873 9.8982Q52.019 9.68632 52.296 8.89617Q53.0823 6.9355 53.7544 5.05263Q54.4265 3.16976 54.9492 1.38261Q55.4719-0.404545 55.8025-1.86996ZM83.3687-1.79329Q83.7567 1.86513 83.6342 4.61922Q83.5117 7.37332 83.435 9.12469Q83.3546 9.82031 83.7452 10.1662Q84.1358 10.5122 84.7077 10.5122Q85.2796 10.5122 85.706 10.1216Q86.1323 9.73096 86.1272 8.94975Q86.2076 6.91758 86.2191 4.91667Q86.2306 2.91576 86.1189 1.08653Q86.0072-0.742712 85.766-2.20813ZM111.625-12.3346Q113.095-9.05147 114.145-5.57621Q115.195-2.10095 115.856-0.0942082Q116.084 0.690761 116.627 0.938388Q117.169 1.18602 117.66 1.00541Q118.151 0.824812 118.425 0.280417Q118.7-0.263977 118.392-0.98406Q117.359-4.49063 116.053-8.01693Q114.746-11.5432 113.751-13.5143Z"/>
  </g>
  <g id="Black-M" transform="matrix(1 0 0 1 2869.18 1126)">
   <path d="M22.7738-39.5367Q25.3144-39.5367 29.6176-41.2168Q33.9208-42.897 39.2777-45.5092Q44.6347-48.1213 50.4067-51.105Q56.1787-54.0887 61.7764-56.7037Q67.3741-59.3188 72.1222-60.9961Q76.8702-62.6734 80.1512-62.6734Q83.6808-62.6734 86.6913-61.2856Q89.7019-59.8978 92.971-56.9347L106.616-44.5156Q109.165-42.2109 112.039-42.2082Q114.913-42.2054 117.064-43.9217Q119.215-45.638 119.715-48.4932Q120.215-51.3484 118.017-54.7538Q116.295-57.4272 113.676-61.222Q111.058-65.0169 104.904-71.7951Q97.5766-79.8591 91.0985-83.4288Q84.6205-86.9985 76.3398-86.9985Q69.9481-86.9985 60.2902-84.2338Q50.6322-81.4691 39.0999-76.7266Q27.5675-71.9841 15.4665-65.9929Q11.809-64.1588 10.1724-60.9676Q8.53574-57.7765 8.72526-54.0911Q8.91478-50.4057 10.6606-47.0921Q12.4065-43.7786 15.4878-41.6576Q18.5692-39.5367 22.7738-39.5367ZM108.343-16.8092Q110.684-19.3322 110.868-22.0398Q111.053-24.7475 109.672-26.9712Q108.291-29.1949 105.919-30.4563Q103.548-31.7176 100.809-31.3819Q98.07-31.0462 95.5309-28.5696Q91.3119-24.3506 84.3848-21.9846Q77.4578-19.6186 69.2938-19.6186Q59.8456-19.6186 50.9471-21.9042Q42.0486-24.1897 33.3578-28.8828Q30.1638-30.6306 27.4849-30.061Q24.8061-29.4914 23.0297-27.5095Q21.2532-25.5276 20.7409-22.8227Q20.2285-20.1178 21.3474-17.5269Q22.4663-14.936 25.6661-13.1877Q35.8597-7.7246 46.9785-4.95872Q58.0973-2.19284 69.2938-2.19284Q81.2024-2.19284 91.5217-6.03096Q101.841-9.86909 108.343-16.8092ZM30.5995-18.0885Q29.1626-15.1548 27.8833-13.4093Q26.604-11.6637 24.5568-9.55975Q21.8638-6.74148 22.1886-3.84278Q22.5135-0.944077 24.6662 0.995256Q26.819 2.93459 29.7829 2.98633Q32.7468 3.03808 35.3831 0.162719Q38.1085-2.74958 40.3461-6.22162Q42.5837-9.69365 44.6895-13.612ZM47.2313-11.3194Q46.7172-6.92433 45.6082-3.66264Q44.4992-0.400943 43.6472 1.43808Q42.0298 4.97417 43.3113 7.60524Q44.5928 10.2363 47.3094 11.3099Q50.026 12.3834 52.8364 11.4186Q55.6469 10.4537 57.15 6.79822Q58.1376 4.38085 58.8808 1.66247Q59.6239-1.05591 60.1431-3.82191Q60.6623-6.58792 60.9576-9.11485ZM67.5548-8.81867Q68.568-4.53291 68.5629-1.08416Q68.5578 2.36459 68.433 4.44241Q68.1994 8.33755 70.3181 10.3735Q72.4368 12.4095 75.364 12.4666Q78.2913 12.5237 80.5894 10.6048Q82.8875 8.68591 82.9501 4.73395Q83.0124 2.1291 82.7988-0.656933Q82.5853-3.44297 82.1953-6.20883Q81.8054-8.9747 81.2188-11.5016ZM88.1854-11.3162Q91.0393-6.47147 91.9579-3.3677Q92.8766-0.263933 93.1818 1.58465Q93.8419 5.41693 96.3817 6.76101Q98.9215 8.10509 101.786 7.41075Q104.651 6.71641 106.414 4.3221Q108.177 1.9278 107.34-1.6544Q106-7.45021 104.034-11.7654Q102.068-16.0805 99.5414-18.4869Z"/>
  </g>
  <g id="Heavy-M" transform="matrix(1 0 0 1 2573.65 1126)">
   <path d="M21.9042-39.339Q24.389-39.339 28.6027-41.0073Q32.8165-42.6757 38.0731-45.2692Q43.3296-47.8627 49.0308-50.8185Q54.7319-53.7743 60.2963-56.3749Q65.8607-58.9756 70.6437-60.6369Q75.4267-62.2981 78.8205-62.2981Q82.4682-62.2981 85.6224-60.8529Q88.7767-59.4078 92.1445-56.335L105.461-44.1854Q107.771-42.0994 110.358-42.0912Q112.945-42.083 114.89-43.6094Q116.835-45.1359 117.321-47.6621Q117.807-50.1883 115.915-53.157Q114.229-55.8219 111.566-59.6382Q108.904-63.4544 102.924-70.0476Q95.9413-77.7432 89.5908-81.3802Q83.2403-85.0171 74.9253-85.0171Q68.3371-85.0171 58.7463-82.3024Q49.1555-79.5877 37.8922-74.933Q26.6289-70.2782 14.9623-64.4193Q11.5434-62.6923 10.0396-59.6665Q8.53574-56.6408 8.732-53.1433Q8.92825-49.6458 10.5805-46.5082Q12.2327-43.3706 15.1146-41.3548Q17.9965-39.339 21.9042-39.339ZM106.208-17.2196Q108.266-19.4404 108.439-21.8355Q108.612-24.2305 107.396-26.1923Q106.181-28.1541 104.093-29.2656Q102.004-30.3772 99.5782-30.0694Q97.152-29.7616 94.8796-27.5492Q90.5189-23.1885 83.3785-20.7263Q76.2382-18.2641 67.8684-18.2641Q58.2996-18.2641 49.2587-20.5677Q40.2177-22.8712 31.4385-27.6233Q28.5996-29.1787 26.2241-28.6799Q23.8486-28.1812 22.2726-26.4372Q20.6965-24.6933 20.2403-22.3064Q19.7841-19.9196 20.7843-17.6211Q21.7846-15.3226 24.6375-13.7718Q34.7484-8.37284 45.7486-5.6374Q56.7488-2.90196 67.8684-2.90196Q79.5981-2.90196 89.7138-6.6612Q99.8295-10.4204 106.208-17.2196ZM30.4918-16.782Q29.1929-14.1633 27.8506-12.2424Q26.5083-10.3215 24.6652-8.43245Q22.3043-5.95152 22.5782-3.42387Q22.8521-0.896214 24.7303 0.7872Q26.6086 2.47061 29.2056 2.4967Q31.8026 2.52278 34.1176-0.00176283Q36.7456-2.81669 38.8592-6.22165Q40.9727-9.62662 42.7435-12.8924ZM47.2163-10.6916Q46.6618-6.56475 45.5916-3.31886Q44.5214-0.0729787 43.7284 1.67497Q42.3118 4.78007 43.4217 7.07633Q44.5316 9.3726 46.8944 10.3041Q49.2573 11.2356 51.7102 10.3749Q54.1631 9.51426 55.4924 6.30324Q56.4428 3.95443 57.1661 1.27917Q57.8894-1.39609 58.3816-4.01852Q58.8739-6.64094 59.1339-8.78733ZM66.9331-8.53411Q67.8173-4.4735 67.7975-1.04185Q67.7777 2.38981 67.6553 4.34961Q67.4622 7.76565 69.3022 9.54731Q71.1422 11.329 73.6917 11.3726Q76.2412 11.4162 78.2378 9.72887Q80.2345 8.04151 80.2945 4.57956Q80.3568 2.04838 80.1631-0.70672Q79.9694-3.46182 79.625-6.08537Q79.2807-8.70892 78.7884-10.8553ZM86.6099-11.1834Q89.2284-6.60802 90.1092-3.41878Q90.99-0.229545 91.2919 1.56261Q91.8771 4.92089 94.0926 6.09083Q96.3082 7.26077 98.7954 6.63858Q101.283 6.01639 102.816 3.91809Q104.35 1.81979 103.616-1.29614Q102.364-6.69117 100.564-10.9Q98.7642-15.1088 96.5087-17.4248Z"/>
  </g>
  <g id="Bold-M" transform="matrix(1 0 0 1 2278.26 1126)">
   <path d="M20.9314-39.1178Q23.3538-39.1178 27.4675-40.7729Q31.5812-42.428 36.7254-45.0007Q41.8697-47.5735 47.4916-50.4981Q53.1135-53.4227 58.6406-56.0072Q64.1676-58.5917 68.9898-60.235Q73.8119-61.8784 77.3321-61.8784Q81.1117-61.8784 84.4267-60.369Q87.7417-58.8596 91.22-55.6642L104.169-43.8161Q106.21-41.9746 108.477-41.9603Q110.743-41.946 112.458-43.2601Q114.173-44.5743 114.644-46.7324Q115.114-48.8906 113.564-51.3706Q111.918-54.0263 109.206-57.8664Q106.494-61.7066 100.71-68.0928Q94.112-75.3763 87.9042-79.0884Q81.6964-82.8006 73.3429-82.8006Q66.5349-82.8006 57.0193-80.1418Q47.5036-77.4829 36.5413-72.9265Q25.579-68.37 14.3984-62.6589Q11.2463-61.0517 9.89104-58.2111Q8.53574-55.3704 8.73953-52.083Q8.94333-48.7956 10.4908-45.8549Q12.0383-42.9142 14.6971-41.016Q17.3558-39.1178 20.9314-39.1178ZM103.82-17.6786Q105.561-19.5615 105.72-21.6069Q105.88-23.6523 104.85-25.321Q103.821-26.9897 102.049-27.9338Q100.278-28.8778 98.2016-28.6012Q96.1251-28.3245 94.151-26.4077Q89.6318-21.8884 82.2528-19.3187Q74.8739-16.7489 66.2739-16.7489Q56.5701-16.7489 47.3699-19.0726Q38.1697-21.3962 29.2914-26.2144Q26.8499-27.5545 24.8137-27.1351Q22.7775-26.7156 21.4256-25.2378Q20.0738-23.76 19.6803-21.7289Q19.2869-19.6978 20.1544-17.7265Q21.022-15.7552 23.4869-14.4253Q33.5053-9.098 44.3728-6.3966Q55.2402-3.69521 66.2739-3.69521Q77.8034-3.69521 87.6914-7.3662Q97.5794-11.0372 103.82-17.6786ZM30.3713-15.3205Q29.2267-13.0542 27.814-10.9371Q26.4013-8.82001 24.7864-7.1714Q22.7971-5.06784 23.014-2.95525Q23.2308-0.842672 24.802 0.554459Q26.3732 1.95159 28.5598 1.94897Q30.7465 1.94635 32.702-0.18576Q35.2211-2.89176 37.1958-6.2217Q39.1706-9.55163 40.5667-12.0874ZM47.1995-9.98942Q46.5998-6.16251 45.573-2.93431Q44.5462 0.293897 43.8192 1.93997Q42.6271 4.56294 43.5451 6.48468Q44.4631 8.40641 46.4302 9.17896Q48.3973 9.95151 50.4503 9.20743Q52.5032 8.46336 53.6382 5.74953Q54.547 3.47742 55.248 0.850386Q55.9491-1.77664 56.4112-4.23845Q56.8732-6.70026 57.0938-8.42095ZM66.2377-8.21579Q66.9776-4.40704 66.9413-0.99451Q66.905 2.41802 66.7855 4.2458Q66.6375 7.12589 68.1658 8.62309Q69.6941 10.1203 71.821 10.1488Q73.9479 10.1774 75.6073 8.74903Q77.2667 7.32067 77.3239 4.40685Q77.3862 1.95809 77.2147-0.762414Q77.0432-3.48292 76.7498-5.94727Q76.4564-8.41162 76.0696-10.1323ZM84.8475-11.0349Q87.2027-6.76076 88.0411-3.47592Q88.8796-0.191077 89.1779 1.53795Q89.6791 4.366 91.532 5.34114Q93.3848 6.31628 95.4494 5.7748Q97.5139 5.23332 98.7917 3.46615Q100.069 1.69897 99.4489-0.895386Q98.2961-5.84207 96.6825-9.93194Q95.0689-14.0218 93.1162-16.2368Z"/>
  </g>
  <g id="Semibold-M" transform="matrix(1 0 0 1 1982.47 1126)">
   <path d="M20.2607-38.9654Q22.6402-38.9654 26.6848-40.6113Q30.7295-42.2573 35.7964-44.8157Q40.8633-47.374 46.4305-50.2771Q51.9978-53.1802 57.4991-55.7536Q63.0005-58.3271 67.8496-59.958Q72.6987-61.589 76.3059-61.589Q80.1766-61.589 83.6024-60.0354Q87.0283-58.4817 90.5827-55.2018L103.278-43.5615Q105.135-41.8886 107.18-41.8701Q109.224-41.8515 110.781-43.0193Q112.338-44.1871 112.798-46.0915Q113.257-47.996 111.943-50.1392Q110.325-52.7883 107.579-56.645Q104.833-60.5016 99.1837-66.7452Q92.8509-73.7446 86.7414-77.5085Q80.632-81.2725 72.2521-81.2725Q65.2925-81.2725 55.8286-78.6522Q46.3648-76.032 35.61-71.5432Q24.8551-67.0545 14.0096-61.4454Q11.0415-59.9207 9.78864-57.2077Q8.53574-54.4946 8.74473-51.3521Q8.95372-48.2096 10.429-45.4046Q11.9043-42.5996 14.4092-40.7825Q16.9142-38.9654 20.2607-38.9654ZM102.174-17.995Q103.696-19.645 103.847-21.4493Q103.997-23.2536 103.095-24.7203Q102.193-26.187 100.641-27.0156Q99.088-27.8442 97.2526-27.589Q95.4171-27.3339 93.6488-25.6208Q89.0202-20.9922 81.4768-18.3483Q73.9334-15.7043 65.1746-15.7043Q55.3779-15.7043 46.0678-18.0418Q36.7578-20.3794 27.8112-25.243Q25.6437-26.4348 23.8414-26.07Q22.0391-25.7052 20.8418-24.4109Q19.6445-23.1166 19.2943-21.3308Q18.9441-19.545 19.7202-17.7992Q20.4963-16.0533 22.6937-14.8757Q32.6483-9.59792 43.4243-6.92Q54.2003-4.24207 65.1746-4.24207Q76.5662-4.24207 86.2972-7.85223Q96.0283-11.4624 102.174-17.995ZM30.2882-14.3129Q29.2501-12.2896 27.7888-10.0373Q26.3276-7.78491 24.8699-6.30204Q23.1369-4.45863 23.3144-2.6322Q23.492-0.805761 24.8514 0.394009Q26.2109 1.59378 28.1146 1.57137Q30.0183 1.54896 31.726-0.312606Q34.1701-2.94352 36.0492-6.22173Q37.9282-9.49994 39.0659-11.5325ZM47.188-9.50532Q46.5571-5.8852 45.5602-2.66919Q44.5633 0.546819 43.8818 2.12266Q42.8445 4.41326 43.6302 6.07679Q44.4158 7.74033 46.1102 8.40331Q47.8045 9.06629 49.5817 8.40258Q51.3589 7.73887 52.3598 5.36781Q53.24 3.14857 53.9257 0.554787Q54.6115-2.03899 55.0527-4.39007Q55.494-6.74115 55.6873-8.16837ZM65.7582-7.99634Q66.3987-4.36122 66.351-0.961875Q66.3034 2.43747 66.1858 4.17423Q66.069 6.68484 67.3824 7.98594Q68.6957 9.28703 70.5313 9.30519Q72.3669 9.32334 73.7938 8.07353Q75.2208 6.82372 75.2759 4.28779Q75.3382 1.89584 75.1821-0.800809Q75.026-3.49746 74.7676-5.85206Q74.5093-8.20666 74.1953-9.63388ZM83.6325-10.9325Q85.8062-6.86607 86.6154-3.51531Q87.4247-0.164557 87.7204 1.52095Q88.1638 3.98346 89.7666 4.82431Q91.3695 5.66516 93.1427 5.17931Q94.9159 4.69347 96.0171 3.15458Q97.1182 1.61568 96.5763-0.619105Q95.4918-5.2567 94.0066-9.26458Q92.5214-13.2724 90.7774-15.4177Z"/>
  </g>
  <g id="Medium-M" transform="matrix(1 0 0 1 1686.45 1126)">
   <path d="M19.7522-38.8498Q22.099-38.8498 26.0914-40.4888Q30.0838-42.1278 35.092-44.6753Q40.1001-47.2228 45.626-50.1096Q51.1518-52.9964 56.6336-55.5614Q62.1155-58.1264 66.985-59.748Q71.8546-61.3696 75.5278-61.3696Q79.4675-61.3696 82.9774-59.7824Q86.4873-58.1952 90.0994-54.8511L102.603-43.3684Q104.319-41.8234 106.196-41.8017Q108.073-41.7799 109.51-42.8367Q110.947-43.8935 111.398-45.6055Q111.849-47.3176 110.714-49.2054Q109.117-51.8497 106.345-55.7188Q103.573-59.588 98.0263-65.7234Q91.8947-72.5073 85.8598-76.3106Q79.8249-80.1139 71.4249-80.1139Q64.3504-80.1139 54.9259-77.5228Q45.5013-74.9318 34.9038-70.4944Q24.3063-66.057 13.7148-60.5252Q10.8862-59.0632 9.711-56.4468Q8.53574-53.8305 8.74867-50.7978Q8.9616-47.7652 10.3821-45.0631Q11.8027-42.3611 14.191-40.6054Q16.5793-38.8498 19.7522-38.8498ZM100.926-18.235Q102.282-19.7084 102.426-21.3298Q102.569-22.9513 101.764-24.2648Q100.959-25.5783 99.5725-26.3194Q98.1856-27.0604 96.533-26.8215Q94.8803-26.5827 93.2679-25.0241Q88.5565-20.3126 80.8884-17.6125Q73.2203-14.9123 64.3411-14.9123Q54.4739-14.9123 45.0805-17.2603Q35.6872-19.6084 26.6888-24.5065Q24.7291-25.5859 23.1041-25.2625Q21.4792-24.9391 20.3991-23.7839Q19.3189-22.6287 19.0016-21.0289Q18.6842-19.4291 19.3909-17.8543Q20.0977-16.2794 22.0922-15.2173Q31.9985-9.97698 42.7051-7.31685Q53.4117-4.65673 64.3411-4.65673Q75.628-4.65673 85.2401-8.22075Q94.8521-11.7848 100.926-18.235ZM30.2252-13.549Q29.2678-11.7099 27.7697-9.35495Q26.2716-7.00005 24.9333-5.64285Q23.3945-3.99671 23.5422-2.38724Q23.69-0.777773 24.8889 0.272348Q26.0879 1.32247 27.7771 1.28506Q29.4663 1.24764 30.986-0.408787Q33.3732-2.98276 35.1797-6.22175Q36.9862-9.46074 37.928-11.1117ZM47.1792-9.13826Q46.5247-5.67494 45.5504-2.46817Q44.5762 0.738595 43.9293 2.26118Q43.0094 4.29976 43.6947 5.76752Q44.38 7.23528 45.8675 7.81518Q47.355 8.39508 48.9231 7.7923Q50.4912 7.18953 51.3906 5.07837Q52.249 2.89922 52.9231 0.330652Q53.5972-2.23792 54.0227-4.50504Q54.4483-6.77216 54.6209-7.97686ZM65.3947-7.82994Q65.9597-4.32648 65.9035-0.937131Q65.8472 2.45222 65.7311 4.11996Q65.6379 6.35042 66.7883 7.50282Q67.9387 8.65522 69.5534 8.66549Q71.1681 8.67577 72.4188 7.56134Q73.6694 6.44692 73.7231 4.19751Q73.7854 1.84864 73.6409-0.829921Q73.4964-3.50849 73.2647-5.77987Q73.033-8.05125 72.7741-9.25595ZM82.7112-10.8549Q84.7473-6.94591 85.5344-3.54518Q86.3215-0.144449 86.6154 1.50806Q87.0149 3.69341 88.4281 4.43243Q89.8414 5.17145 91.3937 4.72779Q92.946 4.28414 93.9132 2.91833Q94.8805 1.55252 94.3983-0.409618Q93.3655-4.81286 91.9776-8.75855Q90.5897-12.7043 89.0041-14.7967Z"/>
  </g>
  <g id="Regular-M" transform="matrix(1 0 0 1 1390.64 1126)">
   <path d="M19.0889-38.699Q21.3932-38.699 25.3174-40.329Q29.2415-41.959 34.1731-44.4923Q39.1048-47.0256 44.5765-49.8911Q50.0483-52.7566 55.5047-55.3106Q60.9611-57.8646 65.8573-59.474Q70.7536-61.0834 74.513-61.0834Q78.5426-61.0834 82.1621-59.4524Q85.7816-57.8215 89.469-54.3937L101.722-43.1166Q103.256-41.7384 104.914-41.7124Q106.572-41.6865 107.852-42.5985Q109.132-43.5105 109.572-44.9717Q110.013-46.4328 109.111-47.9875Q107.541-50.6254 104.736-54.5108Q101.93-58.3963 96.5166-64.3906Q90.6474-70.8935 84.7098-74.7481Q78.7722-78.6026 70.3461-78.6026Q63.1217-78.6026 53.7483-76.0497Q44.375-73.4967 33.9827-69.1263Q23.5904-64.7559 13.3303-59.325Q10.6837-57.9446 9.60972-55.4545Q8.53574-52.9643 8.75381-50.0749Q8.97188-47.1855 10.321-44.6177Q11.6701-42.0499 13.9063-40.3745Q16.1425-38.699 19.0889-38.699ZM99.2981-18.548Q100.438-19.7909 100.572-21.174Q100.707-22.557 100.029-23.6707Q99.3499-24.7845 98.1792-25.4113Q97.0085-26.0381 95.5943-25.8205Q94.1801-25.6029 92.7712-24.2458Q87.9516-19.4262 80.1209-16.6527Q72.2901-13.8792 63.254-13.8792Q53.2947-13.8792 43.7927-16.2409Q34.2908-18.6027 25.2249-23.5459Q23.5361-24.4785 22.1425-24.2092Q20.7489-23.9398 19.8216-22.9661Q18.8943-21.9924 18.6198-20.6351Q18.3452-19.2779 18.9615-17.9261Q19.5777-16.5743 21.3077-15.6628Q31.1509-10.4714 41.767-7.83449Q52.3832-5.19758 63.254-5.19758Q74.4044-5.19758 83.8612-8.70144Q93.318-12.2053 99.2981-18.548ZM30.143-12.5525Q29.2909-10.9536 27.7448-8.46498Q26.1987-5.97632 25.0159-4.78305Q23.7305-3.39419 23.8394-2.06773Q23.9482-0.741268 24.9378 0.113661Q25.9274 0.96859 27.3368 0.911603Q28.7461 0.854617 30.0208-0.534239Q32.3338-3.03394 34.0456-6.22178Q35.7574-9.40961 36.4438-10.5628ZM47.1677-8.65949Q46.4824-5.40069 45.5378-2.20597Q44.5931 0.988737 43.9912 2.44186Q43.2244 4.15172 43.7788 5.36412Q44.3333 6.57652 45.551 7.04805Q46.7687 7.51959 48.0641 6.9963Q49.3595 6.473 50.1263 4.70084Q50.9564 2.57399 51.6153 0.0383012Q52.2743-2.49738 52.6792-4.65499Q53.0842-6.8126 53.2299-7.72705ZM64.9205-7.6129Q65.3872-4.28116 65.3197-0.904855Q65.2521 2.47145 65.138 4.04918Q65.0757 5.91422 66.0135 6.87267Q66.9514 7.83111 68.2779 7.83111Q69.6045 7.83111 70.6252 6.89327Q71.646 5.95543 71.6976 4.07976Q71.7599 1.78708 71.6306-0.867894Q71.5012-3.52287 71.3043-5.68571Q71.1073-7.84854 70.9204-8.763ZM81.5096-10.7537Q83.3661-7.05006 84.1243-3.58414Q84.8825-0.118221 85.174 1.49124Q85.5162 3.31507 86.6822 3.92127Q87.8482 4.52747 89.1123 4.13885Q90.3765 3.75023 91.1691 2.61019Q91.9617 1.47015 91.5573-0.136374Q90.592-4.23392 89.3311-8.09852Q88.0702-11.9631 86.691-13.9866Z"/>
  </g>
  <g id="Light-M" transform="matrix(1 0 0 1 1095.33 1126)">
   <path d="M18.3191-38.8189Q20.5207-38.8189 24.3421-40.4147Q28.1634-42.0104 33.0095-44.5094Q37.8556-47.0083 43.259-49.8226Q48.6623-52.6368 54.0759-55.1394Q59.4895-57.6421 64.3943-59.2344Q69.2992-60.8267 73.0928-60.8267Q77.1909-60.8267 80.8703-59.1273Q84.5497-57.4279 88.3567-53.8975L100.575-42.6204Q101.767-41.5331 103.083-41.5157Q104.399-41.4982 105.431-42.2221Q106.462-42.9459 106.809-44.099Q107.155-45.2521 106.407-46.4989Q104.718-49.171 101.707-53.2446Q98.6962-57.3182 94.0014-62.5254Q87.9097-69.2681 82.1945-72.806Q76.4793-76.3438 68.635-76.3438Q61.7184-76.3438 52.7045-73.945Q43.6905-71.5462 33.5207-67.3126Q23.3509-63.079 13.0224-57.6311Q10.5296-56.3361 9.53267-54.0514Q8.53574-51.7667 8.75381-49.1425Q8.97188-46.5183 10.2355-44.1815Q11.4991-41.8446 13.5727-40.3318Q15.6463-38.8189 18.3191-38.8189ZM96.6458-19.1298Q97.5117-20.0646 97.6122-21.114Q97.7126-22.1635 97.1966-23.012Q96.6807-23.8605 95.7838-24.3418Q94.8869-24.8232 93.8063-24.6569Q92.7258-24.4906 91.6589-23.4587Q86.7025-18.5023 78.752-15.6261Q70.8015-12.7499 61.5601-12.7499Q51.5152-12.7499 41.9619-15.0518Q32.4086-17.3536 23.2912-22.331Q21.9961-23.0583 20.919-22.8574Q19.8419-22.6565 19.1285-21.9224Q18.4151-21.1883 18.2005-20.1561Q17.9859-19.1238 18.4395-18.1058Q18.8932-17.0878 20.1954-16.4157Q29.9359-11.2927 40.3895-8.72426Q50.8431-6.15577 61.5601-6.15577Q72.505-6.15577 81.6368-9.58258Q90.7686-13.0094 96.6458-19.1298ZM27.7989-13.8186Q26.8783-12.2539 25.4519-10.1246Q24.0256-7.99532 22.9454-6.88772Q21.8995-5.77255 21.9828-4.71992Q22.066-3.66728 22.8417-2.99203Q23.6175-2.31678 24.7359-2.36514Q25.8543-2.41351 26.8723-3.52868Q28.8946-5.73745 30.4524-8.38625Q32.0101-11.035 32.7991-12.2397ZM45.354-8.96738Q44.6686-5.87992 43.7582-3.06153Q42.8478-0.243134 42.2801 1.14157Q41.6843 2.49207 42.1275 3.44775Q42.5707 4.40342 43.5403 4.78081Q44.5099 5.15819 45.5317 4.74615Q46.5534 4.33412 47.1491 2.92131Q47.9108 0.982759 48.5269-1.2193Q49.143-3.42136 49.548-5.33949Q49.9529-7.25762 50.1328-8.2405ZM64.8179-8.14331Q65.2331-4.96566 65.1571-1.9743Q65.0811 1.01707 64.9839 2.52638Q64.9216 3.9806 65.6626 4.72516Q66.4037 5.46971 67.4566 5.46971Q68.5094 5.46971 69.3163 4.72866Q70.1232 3.9876 70.1576 2.50549Q70.2199 0.435329 70.1334-1.8774Q70.0469-4.19012 69.8841-6.12196Q69.7213-8.05381 69.5344-9.03668ZM83.0497-12.8411Q84.6837-9.49684 85.459-6.27054Q86.2343-3.04424 86.5941-1.45174Q86.8852-0.0045097 87.8202 0.473329Q88.7552 0.951168 89.7455 0.639589Q90.7358 0.32801 91.3488-0.589516Q91.9617-1.50704 91.6088-2.7887Q90.6946-6.45848 89.5108-9.9722Q88.3269-13.4859 87.136-15.3556Z"/>
  </g>
  <g id="Thin-M" transform="matrix(1 0 0 1 800.459 1126)">
   <path d="M17.3008-38.9775Q19.3667-38.9775 23.0522-40.528Q26.7376-42.0785 31.4706-44.532Q36.2036-46.9855 41.5164-49.7319Q46.8293-52.4782 52.1862-54.913Q57.5431-57.3478 62.4594-58.9175Q67.3757-60.4871 71.2145-60.4871Q75.4031-60.4871 79.1618-58.6973Q82.9205-56.9074 86.8857-53.2413L99.0591-41.9641Q99.7982-41.2616 100.661-41.2554Q101.525-41.2492 102.228-41.7242Q102.932-42.1992 103.154-42.9448Q103.376-43.6905 102.832-44.5301Q100.984-47.2474 97.7015-51.5699Q94.4191-55.8924 90.6749-60.0585Q84.2888-67.1183 78.8677-70.2374Q73.4466-73.3564 66.3719-73.3564Q59.8626-73.3564 51.3239-71.1614Q42.7852-68.9663 32.9097-64.9138Q23.0342-60.8612 12.6151-55.3908Q10.3258-54.2088 9.43077-52.1957Q8.53574-50.1827 8.75381-47.9092Q8.97188-45.6358 10.1224-43.6045Q11.2728-41.5732 13.1314-40.2753Q14.99-38.9775 17.3008-38.9775ZM93.1378-19.8994Q93.6418-20.4266 93.697-21.0348Q93.7522-21.6429 93.4513-22.1407Q93.1503-22.6384 92.6156-22.9274Q92.0809-23.2163 91.4415-23.1179Q90.8022-23.0196 90.1878-22.4176Q85.0505-17.2802 76.9416-14.2683Q68.8327-11.2564 59.3198-11.2564Q49.1616-11.2564 39.5405-13.479Q29.9193-15.7015 20.7339-20.7242Q19.9592-21.18 19.3008-21.0696Q18.6423-20.9592 18.2118-20.542Q17.7813-20.1248 17.6459-19.5224Q17.5106-18.92 17.7492-18.3434Q17.9879-17.7668 18.7243-17.4115Q28.3291-12.379 38.5677-9.90104Q48.8063-7.42304 59.3198-7.42304Q69.9928-7.42304 78.6948-10.748Q87.3968-14.0729 93.1378-19.8994ZM24.6985-15.4931Q23.6875-13.9737 22.4195-12.3196Q21.1515-10.6656 20.2071-9.67132Q19.4779-8.91812 19.5273-8.22765Q19.5767-7.53718 20.0696-7.09956Q20.5624-6.66195 21.296-6.69891Q22.0297-6.73586 22.7081-7.48906Q24.346-9.31305 25.7-11.2489Q27.0539-13.1848 27.9786-14.4576ZM42.9552-9.3746Q42.2698-6.51375 41.4047-4.19307Q40.5395-1.87238 40.017-0.578174Q39.6475 0.297052 39.9435 0.913191Q40.2396 1.52933 40.8811 1.78219Q41.5225 2.03505 42.1823 1.77016Q42.842 1.50527 43.2115 0.567743Q43.8827-1.12177 44.4421-2.88258Q45.0016-4.64339 45.4066-6.2448Q45.8116-7.84621 46.0367-8.91958ZM64.6821-8.84482Q65.0293-5.87097 64.9421-3.38872Q64.8549-0.906472 64.7801 0.512346Q64.7178 1.42323 65.1986 1.8849Q65.6794 2.34657 66.3703 2.34657Q67.0612 2.34657 67.5851 1.86578Q68.1091 1.38499 68.1207 0.4234Q68.183-1.35247 68.1532-3.21254Q68.1233-5.07261 68.0058-6.69895Q67.8883-8.32529 67.7014-9.39866ZM85.0865-15.6019Q86.4262-12.7329 87.2242-9.82351Q88.0221-6.91413 88.4724-5.34406Q88.6958-4.39493 89.3253-4.08686Q89.9548-3.77879 90.5829-3.98847Q91.2111-4.19814 91.5864-4.82138Q91.9617-5.44461 91.6768-6.29663Q90.8304-9.40063 89.7484-12.4503Q88.6665-15.5 87.7246-17.1663Z"/>
  </g>
  <g id="Ultralight-M" transform="matrix(1 0 0 1 504.693 1126)">
   <path d="M16.7793-39.0587Q18.7757-39.0587 22.3915-40.586Q26.0073-42.1134 30.6823-44.5436Q35.3574-46.9738 40.6239-49.6854Q45.8904-52.397 51.2183-54.7971Q56.5462-57.1971 61.4683-58.7552Q66.3904-60.3132 70.2524-60.3132Q74.4874-60.3132 78.2867-58.477Q82.086-56.6408 86.1322-52.9051L98.2825-41.628Q98.7897-41.1226 99.4211-41.1221Q100.052-41.1216 100.588-41.4691Q101.124-41.8167 101.282-42.3537Q101.44-42.8907 101-43.5217Q99.0713-46.2622 95.6498-50.7121Q92.2284-55.1621 88.971-58.795Q82.4343-66.0172 77.1638-68.9218Q71.8933-71.8263 65.2127-71.8263Q58.912-71.8263 50.6168-69.7356Q42.3215-67.645 32.5967-63.6851Q22.872-59.7252 12.4066-54.2434Q10.2214-53.1192 9.37858-51.2453Q8.53574-49.3713 8.75381-47.2776Q8.97188-45.1838 10.0644-43.3089Q11.157-41.4341 12.9054-40.2464Q14.6539-39.0587 16.7793-39.0587ZM91.3411-20.2936Q91.6597-20.612 91.6917-20.9942Q91.7238-21.3763 91.5329-21.6944Q91.3421-22.0125 90.9929-22.2029Q90.6436-22.3933 90.2303-22.3297Q89.817-22.2661 89.4343-21.8844Q84.2043-16.6543 76.0143-13.5729Q67.8243-10.4915 58.1724-10.4915Q47.9561-10.4915 38.3002-12.6734Q28.6443-14.8554 19.424-19.9011Q18.9159-20.218 18.4719-20.1539Q18.0279-20.0898 17.7423-19.835Q17.4566-19.5801 17.3619-19.1979Q17.2671-18.8157 17.3957-18.4652Q17.5242-18.1147 17.9709-17.9216Q27.5061-12.9354 37.6346-10.5038Q47.763-8.07214 58.1724-8.07214Q68.7061-8.07214 77.188-11.3449Q85.6698-14.6176 91.3411-20.2936ZM23.1106-16.3507Q22.0532-14.8545 20.8663-13.4439Q19.6794-12.0333 18.8045-11.0971Q18.2376-10.5293 18.2696-10.0243Q18.3017-9.51932 18.6496-9.20342Q18.9976-8.88753 19.5341-8.91864Q20.0707-8.94975 20.5753-9.51755Q22.0163-11.1445 23.2658-12.7152Q24.5154-14.2859 25.5096-15.5935ZM41.7265-9.58317Q41.0412-6.83839 40.1992-4.77264Q39.3572-2.70688 38.8579-1.45902Q38.6042-0.827226 38.8249-0.384996Q39.0456 0.0572342 39.519 0.246315Q39.9924 0.435395 40.4668 0.245873Q40.9411 0.0563519 41.1947-0.637744Q41.8195-2.19969 42.35-3.7345Q42.8804-5.26931 43.2854-6.70849Q43.6904-8.14768 43.9387-9.2674ZM64.6126-9.20413Q64.9249-6.33466 64.832-4.11318Q64.739-1.8917 64.6757-0.519232Q64.6134 0.113363 64.9609 0.430141Q65.3084 0.746918 65.8139 0.746918Q66.3194 0.746918 66.6985 0.39943Q67.0775 0.0519405 67.0775-0.643037Q67.1398-2.26817 67.1389-3.8964Q67.1381-5.52462 67.0437-6.99448Q66.9494-8.46434 66.7625-9.58406ZM86.1298-17.0159Q87.3188-14.3904 88.1283-11.6433Q88.9378-8.89627 89.4345-7.33769Q89.6232-6.64368 90.0962-6.42256Q90.5692-6.20145 91.0119-6.35893Q91.4545-6.51642 91.7081-6.98892Q91.9617-7.46142 91.7117-8.09337Q90.8999-10.9076 89.8701-13.7196Q88.8404-16.5315 88.0261-18.0936Z"/>
  </g>
  <g id="Black-S" transform="matrix(1 0 0 1 2882.79 696)">
   <path d="M18.0664-38.6719Q20.0684-38.6719 23.4619-39.9902Q26.8555-41.3086 31.0791-43.3594Q35.3027-45.4102 39.8438-47.7539Q44.3848-50.0977 48.7793-52.1484Q53.1738-54.1992 56.8848-55.5176Q60.5957-56.8359 63.1348-56.8359Q65.8691-56.8359 68.1885-55.7617Q70.5078-54.6875 73.0469-52.3926L83.8379-42.5781Q85.8887-40.7227 88.208-40.7227Q90.5273-40.7227 92.2607-42.1143Q93.9941-43.5059 94.3848-45.8252Q94.7754-48.1445 92.9688-50.9277Q91.6016-53.0273 89.5508-56.0059Q87.5-58.9844 82.666-64.3066Q76.8066-70.752 71.7041-73.5107Q66.6016-76.2695 60.1562-76.2695Q55.2246-76.2695 47.6562-74.0967Q40.0879-71.9238 30.9814-68.1885Q21.875-64.4531 12.2559-59.7168Q9.32617-58.252 8.00781-55.7129Q6.68945-53.1738 6.83594-50.2441Q6.98242-47.3145 8.37402-44.6777Q9.76562-42.041 12.2314-40.3564Q14.6973-38.6719 18.0664-38.6719ZM85.4004-20.7031Q87.3047-22.7539 87.4512-24.9512Q87.5977-27.1484 86.4746-28.9551Q85.3516-30.7617 83.4229-31.7871Q81.4941-32.8125 79.2725-32.5439Q77.0508-32.2754 75-30.2734Q71.7285-27.002 66.3574-25.1709Q60.9863-23.3398 54.6387-23.3398Q47.2656-23.3398 40.332-25.1221Q33.3984-26.9043 26.6113-30.5664Q24.0234-31.9824 21.8506-31.5186Q19.6777-31.0547 18.2373-29.4434Q16.7969-27.832 16.3818-25.6348Q15.9668-23.4375 16.8701-21.3379Q17.7734-19.2383 20.3613-17.8223Q28.3691-13.5254 37.1094-11.3525Q45.8496-9.17969 54.6387-9.17969Q64.0137-9.17969 72.1436-12.207Q80.2734-15.2344 85.4004-20.7031ZM23.877-22.2656Q22.7051-19.873 21.7285-18.5791Q20.752-17.2852 19.0918-15.5762Q16.8945-13.2812 17.1631-10.9131Q17.4316-8.54492 19.1895-6.95801Q20.9473-5.37109 23.3643-5.32227Q25.7812-5.27344 27.9297-7.61719Q30.0781-9.91211 31.8604-12.6221Q33.6426-15.332 35.4004-18.6035ZM36.9141-16.6992Q36.5234-13.1836 35.6445-10.6445Q34.7656-8.10547 34.082-6.64062Q32.7637-3.75977 33.8135-1.61133Q34.8633 0.537109 37.085 1.41602Q39.3066 2.29492 41.6016 1.51367Q43.8965 0.732422 45.1172-2.24609Q45.8984-4.15039 46.4844-6.27441Q47.0703-8.39844 47.4854-10.5957Q47.9004-12.793 48.1445-14.8926ZM53.125-14.6484Q53.9551-11.2305 53.9551-8.54492Q53.9551-5.85938 53.8574-4.19922Q53.6621-1.02539 55.3955 0.634766Q57.1289 2.29492 59.5215 2.34375Q61.9141 2.39258 63.7939 0.830078Q65.6738-0.732422 65.7227-3.95508Q65.7715-6.00586 65.6006-8.17871Q65.4297-10.3516 65.1123-12.5488Q64.7949-14.7461 64.3066-16.8457ZM69.6777-16.6504Q71.9727-12.793 72.7051-10.4004Q73.4375-8.00781 73.6816-6.54297Q74.2188-3.41797 76.2939-2.31934Q78.3691-1.2207 80.7129-1.78223Q83.0566-2.34375 84.4971-4.29688Q85.9375-6.25 85.2539-9.17969Q84.1797-13.8184 82.5928-17.2119Q81.0059-20.6055 78.9551-22.5098Z"/>
  </g>
  <g id="Heavy-S" transform="matrix(1 0 0 1 2586.91 696)">
   <path d="M17.421-38.4875Q19.3884-38.4875 22.7186-39.8001Q26.0488-41.1127 30.1975-43.1519Q34.3462-45.1912 38.8354-47.5177Q43.3245-49.8441 47.696-51.8891Q52.0675-53.9342 55.8072-55.241Q59.547-56.5478 62.1782-56.5478Q65.0048-56.5478 67.4394-55.4333Q69.874-54.3187 72.4822-51.9431L82.9966-42.3592Q84.886-40.6535 87.0037-40.6477Q89.1214-40.642 90.7107-41.8953Q92.3-43.1486 92.6907-45.2259Q93.0813-47.3032 91.5167-49.7522Q90.1956-51.8403 88.1333-54.8131Q86.071-57.7858 81.2946-63.0505Q75.7579-69.1501 70.736-72.0068Q65.7142-74.8635 59.1651-74.8635Q54.0261-74.8635 46.4692-72.7137Q38.9124-70.5639 30.0076-66.8862Q21.1029-63.2085 11.864-58.5874Q9.11873-57.2032 7.90409-54.7794Q6.68945-52.3556 6.8417-49.5527Q6.99395-46.7498 8.3164-44.234Q9.63886-41.7183 11.9549-40.1029Q14.2709-38.4875 17.421-38.4875ZM83.9137-20.9797Q85.6106-22.8115 85.7513-24.7841Q85.892-26.7566 84.89-28.3731Q83.888-29.9896 82.1667-30.9055Q80.4454-31.8214 78.4485-31.5701Q76.4515-31.3189 74.5851-29.5013Q71.2099-26.1261 65.6717-24.2259Q60.1335-22.3257 53.636-22.3257Q46.1708-22.3257 39.122-24.131Q32.0731-25.9362 25.2169-29.6444Q22.8825-30.9222 20.9286-30.5102Q18.9747-30.0982 17.6784-28.6597Q16.382-27.2212 16.0073-25.2545Q15.6326-23.2877 16.4552-21.3955Q17.2779-19.5033 19.6238-18.2256Q27.574-13.9748 36.2335-11.8193Q44.8931-9.66372 53.636-9.66372Q62.8843-9.66372 70.8816-12.6334Q78.879-15.6032 83.9137-20.9797ZM24.0844-20.9864Q23.0393-18.8589 21.9936-17.369Q20.9479-15.8792 19.4491-14.3431Q17.5053-12.3017 17.7335-10.2159Q17.9618-8.13004 19.5121-6.73904Q21.0625-5.34804 23.2029-5.32227Q25.3433-5.29649 27.2497-7.37517Q29.3521-9.624 31.0479-12.3455Q32.7437-15.067 34.2018-17.7738ZM37.133-16.123Q36.7078-12.8148 35.8577-10.2412Q35.0076-7.66754 34.3701-6.27184Q33.2016-3.71367 34.1189-1.81877Q35.0361 0.0761308 36.987 0.845555Q38.9379 1.61498 40.962 0.908637Q42.9861 0.202296 44.08-2.44201Q44.8382-4.31173 45.4126-6.44152Q45.987-8.5713 46.379-10.6764Q46.771-12.7814 46.9806-14.5468ZM52.6064-14.3373Q53.3328-11.0922 53.3212-8.37205Q53.3097-5.65193 53.2121-4.08397Q53.0513-1.2674 54.5715 0.202598Q56.0917 1.6726 58.1962 1.7099Q60.3006 1.74721 61.95 0.357575Q63.5994-1.03206 63.6483-3.88593Q63.6971-5.90214 63.5377-8.09228Q63.3783-10.2824 63.0955-12.3875Q62.8127-14.4926 62.4051-16.258ZM68.1335-16.2701Q70.2555-12.5971 70.9534-10.1008Q71.6512-7.60446 71.8838-6.18571Q72.3633-3.41797 74.1907-2.45187Q76.0181-1.48577 78.0738-1.99543Q80.1294-2.50509 81.397-4.23349Q82.6646-5.96189 82.0616-8.53432Q81.0566-12.8849 79.6022-16.2323Q78.1478-19.5798 76.3045-21.4265Z"/>
  </g>
  <g id="Bold-S" transform="matrix(1 0 0 1 2291.14 696)">
   <path d="M16.6992-38.2812Q18.6279-38.2812 21.8872-39.5874Q25.1465-40.8936 29.2114-42.9199Q33.2764-44.9463 37.7075-47.2534Q42.1387-49.5605 46.4844-51.5991Q50.8301-53.6377 54.6021-54.9316Q58.374-56.2256 61.1084-56.2256Q64.0381-56.2256 66.6016-55.0659Q69.165-53.9062 71.8506-51.4404L82.0557-42.1143Q83.7646-40.5762 85.6567-40.564Q87.5488-40.5518 88.9771-41.6504Q90.4053-42.749 90.7959-44.5557Q91.1865-46.3623 89.8926-48.4375Q88.623-50.5127 86.5479-53.479Q84.4727-56.4453 79.7607-61.6455Q74.585-67.3584 69.6533-70.3247Q64.7217-73.291 58.0566-73.291Q52.6855-73.291 45.1416-71.167Q37.5977-69.043 28.9185-65.4297Q20.2393-61.8164 11.4258-57.3242Q8.88672-56.0303 7.78809-53.7354Q6.68945-51.4404 6.84814-48.7793Q7.00684-46.1182 8.25195-43.7378Q9.49707-41.3574 11.6455-39.8193Q13.7939-38.2812 16.6992-38.2812ZM82.251-21.2891Q83.7158-22.876 83.8501-24.5972Q83.9844-26.3184 83.1177-27.7222Q82.251-29.126 80.7617-29.9194Q79.2725-30.7129 77.5269-30.481Q75.7812-30.249 74.1211-28.6377Q70.6299-25.1465 64.9048-23.1689Q59.1797-21.1914 52.5146-21.1914Q44.9463-21.1914 37.7686-23.0225Q30.5908-24.8535 23.6572-28.6133Q21.6064-29.7363 19.8975-29.3823Q18.1885-29.0283 17.0532-27.7832Q15.918-26.5381 15.5884-24.8291Q15.2588-23.1201 15.9912-21.46Q16.7236-19.7998 18.7988-18.6768Q26.6846-14.4775 35.2539-12.3413Q43.8232-10.2051 52.5146-10.2051Q61.6211-10.2051 69.4702-13.1104Q77.3193-16.0156 82.251-21.2891ZM24.3164-19.5557Q23.4131-17.7246 22.29-16.0156Q21.167-14.3066 19.8486-12.9639Q18.1885-11.2061 18.3716-9.43604Q18.5547-7.66602 19.873-6.49414Q21.1914-5.32227 23.0225-5.32227Q24.8535-5.32227 26.4893-7.10449Q28.54-9.30176 30.1392-12.0361Q31.7383-14.7705 32.8613-16.8457ZM37.3779-15.4785Q36.9141-12.4023 36.0962-9.79004Q35.2783-7.17773 34.6924-5.85938Q33.6914-3.66211 34.4604-2.05078Q35.2295-0.439453 36.8774 0.20752Q38.5254 0.854492 40.2466 0.231934Q41.9678-0.390625 42.9199-2.66113Q43.6523-4.49219 44.2139-6.62842Q44.7754-8.76465 45.1416-10.7666Q45.5078-12.7686 45.6787-14.1602ZM52.0264-13.9893Q52.6367-10.9375 52.6123-8.17871Q52.5879-5.41992 52.4902-3.95508Q52.3682-1.53809 53.6499-0.280762Q54.9316 0.976562 56.7139 1.00098Q58.4961 1.02539 59.8877-0.170898Q61.2793-1.36719 61.3281-3.80859Q61.377-5.78613 61.2305-7.99561Q61.084-10.2051 60.8398-12.207Q60.5957-14.209 60.2783-15.6006ZM66.4062-15.8447Q68.335-12.3779 68.9941-9.76562Q69.6533-7.15332 69.873-5.78613Q70.2881-3.41797 71.8384-2.6001Q73.3887-1.78223 75.1221-2.23389Q76.8555-2.68555 77.9297-4.1626Q79.0039-5.63965 78.4912-7.8125Q77.5635-11.8408 76.2573-15.1367Q74.9512-18.4326 73.3398-20.2148Z"/>
  </g>
  <g id="Semibold-S" transform="matrix(1 0 0 1 1995.07 696)">
   <path d="M16.2016-38.1391Q18.1036-38.1391 21.314-39.4408Q24.5244-40.7425 28.5316-42.76Q32.5388-44.7774 36.9299-47.0712Q41.3211-49.365 45.649-51.3992Q49.977-53.4333 53.7711-54.7184Q57.5653-56.0034 60.3708-56.0034Q63.3716-56.0034 66.0239-54.8126Q68.6763-53.6219 71.4151-51.0938L81.4069-41.9454Q82.9915-40.5229 84.7281-40.5062Q86.4646-40.4896 87.7818-41.4815Q89.0989-42.4735 89.4896-44.0936Q89.8802-45.7136 88.7729-47.5311Q87.5389-49.5974 85.4548-52.5592Q83.3707-55.5211 78.7032-60.6769Q73.7763-66.1231 68.9068-69.165Q64.0374-72.2068 57.2924-72.2068Q51.7613-72.2068 44.2263-70.1006Q36.6912-67.9943 28.1675-64.4255Q19.6438-60.8566 11.1236-56.4533Q8.72676-55.2216 7.70811-53.0155Q6.68945-50.8095 6.85259-48.2461Q7.01572-45.6827 8.20752-43.3957Q9.39932-41.1086 11.4322-39.6238Q13.4651-38.1391 16.2016-38.1391ZM81.1046-21.5023Q82.4095-22.9204 82.5393-24.4683Q82.6691-26.0162 81.8958-27.2734Q81.1224-28.5306 79.7931-29.2396Q78.4638-29.9486 76.8915-29.73Q75.3191-29.5114 73.8012-28.0423Q70.23-24.4711 64.376-22.4402Q58.5221-20.4094 51.7415-20.4094Q44.1021-20.4094 36.8354-22.2582Q29.5688-24.107 22.5819-27.9023Q20.7267-28.9187 19.1865-28.6047Q17.6464-28.2907 16.6222-27.1789Q15.598-26.0671 15.2996-24.5358Q15.0011-23.0046 15.6713-21.5044Q16.3415-20.0042 18.2301-18.9878Q26.0714-14.8241 34.5785-12.7012Q43.0856-10.5783 51.7415-10.5783Q60.7502-10.5783 68.4971-13.4392Q76.244-16.3 81.1046-21.5023ZM24.4764-18.5692Q23.6708-16.9426 22.4944-15.0825Q21.3181-13.2225 20.1241-12.013Q18.6595-10.4507 18.8115-8.89839Q18.9635-7.34609 20.1219-6.32529Q21.2803-5.30449 22.898-5.32227Q24.5158-5.34004 25.9649-6.91787Q27.9802-9.07959 29.5126-11.8229Q31.0451-14.5661 31.9371-16.2059ZM37.5468-15.0342Q37.0562-12.118 36.2606-9.479Q35.4649-6.84004 34.9146-5.575Q34.0291-3.62656 34.6959-2.21074Q35.3628-0.794922 36.8019-0.232373Q38.241 0.330176 39.7534-0.234619Q41.2657-0.799414 42.1201-2.81221Q42.8348-4.6166 43.3874-6.75728Q43.94-8.89795 44.2885-10.8288Q44.6369-12.7597 44.7812-13.8936ZM51.6265-13.7493Q52.1568-10.8309 52.1235-8.04541Q52.0902-5.25996 51.9926-3.86621Q51.8972-1.72471 53.0145-0.614014Q54.1318 0.49668 55.6919 0.512207Q57.252 0.527734 58.4658-0.535254Q59.6797-1.59824 59.7285-3.75527Q59.7773-5.70615 59.6397-7.92896Q59.5021-10.1518 59.2847-12.0826Q59.0672-14.0135 58.812-15.1474ZM65.2154-15.5515Q67.0108-12.2269 67.6434-9.53457Q68.2759-6.84229 68.4867-5.51064Q68.8573-3.41797 70.2166-2.70229Q71.5758-1.98662 73.087-2.39829Q74.5982-2.80996 75.5392-4.11372Q76.4801-5.41748 76.0296-7.31484Q75.1552-11.121 73.9512-14.3813Q72.7473-17.6417 71.2959-19.3795Z"/>
  </g>
  <g id="Medium-S" transform="matrix(1 0 0 1 1698.85 696)">
   <path d="M15.8242-38.0312Q17.7061-38.0312 20.8794-39.3296Q24.0527-40.6279 28.0161-42.6387Q31.9795-44.6494 36.3403-46.9331Q40.7012-49.2168 45.0156-51.2476Q49.3301-53.2783 53.1411-54.5566Q56.9521-55.835 59.8115-55.835Q62.8662-55.835 65.5859-54.6206Q68.3057-53.4062 71.085-50.8311L80.915-41.8174Q82.4053-40.4824 84.0239-40.4624Q85.6426-40.4424 86.8755-41.3535Q88.1084-42.2646 88.499-43.7432Q88.8896-45.2217 87.9238-46.8438Q86.7168-48.9033 84.626-51.8618Q82.5352-54.8203 77.9014-59.9424Q73.1631-65.1865 68.3408-68.2856Q63.5186-71.3848 56.7129-71.3848Q51.0605-71.3848 43.5322-69.292Q36.0039-67.1992 27.5981-63.6641Q19.1924-60.1289 10.8945-55.793Q8.60547-54.6084 7.64746-52.4697Q6.68945-50.3311 6.85596-47.8418Q7.02246-45.3525 8.17383-43.1362Q9.3252-40.9199 11.2705-39.4756Q13.2158-38.0312 15.8242-38.0312ZM80.2354-21.6641Q81.4189-22.9541 81.5454-24.3706Q81.6719-25.7871 80.9692-26.9331Q80.2666-28.0791 79.0586-28.7241Q77.8506-29.3691 76.4097-29.1606Q74.9688-28.9521 73.5586-27.5908Q69.9268-23.959 63.9751-21.8877Q58.0234-19.8164 51.1553-19.8164Q43.4619-19.8164 36.1279-21.6787Q28.7939-23.541 21.7666-27.3633Q20.0596-28.2988 18.6475-28.0151Q17.2354-27.7314 16.2954-26.7207Q15.3555-25.71 15.0806-24.3135Q14.8057-22.917 15.4287-21.5381Q16.0518-20.1592 17.7988-19.2236Q25.6064-15.0869 34.0664-12.9741Q42.5264-10.8613 51.1553-10.8613Q60.0898-10.8613 67.7593-13.6885Q75.4287-16.5156 80.2354-21.6641ZM24.5977-17.8213Q23.8662-16.3496 22.6494-14.375Q21.4326-12.4004 20.333-11.292Q19.0166-9.87793 19.145-8.49072Q19.2734-7.10352 20.3105-6.19727Q21.3477-5.29102 22.8037-5.32227Q24.2598-5.35352 25.5674-6.77637Q27.5557-8.91113 29.0376-11.6611Q30.5195-14.4111 31.2363-15.7207ZM37.6748-14.6973Q37.1641-11.9023 36.3853-9.24316Q35.6064-6.58398 35.083-5.35938Q34.2852-3.59961 34.8745-2.33203Q35.4639-1.06445 36.7446-0.565918Q38.0254-0.0673828 39.3794-0.588379Q40.7334-1.10938 41.5137-2.92676Q42.2148-4.71094 42.7607-6.85498Q43.3066-8.99902 43.6416-10.876Q43.9766-12.7529 44.1006-13.6914ZM51.3232-13.5674Q51.793-10.75 51.7529-7.94434Q51.7129-5.13867 51.6152-3.79883Q51.54-1.86621 52.5327-0.866699Q53.5254 0.132812 54.917 0.141602Q56.3086 0.150391 57.3877-0.811523Q58.4668-1.77344 58.5156-3.71484Q58.5645-5.64551 58.4336-7.87842Q58.3027-10.1113 58.1055-11.9883Q57.9082-13.8652 57.7002-14.8037ZM64.3125-15.3291Q66.0068-12.1123 66.6191-9.35938Q67.2314-6.60645 67.4355-5.30176Q67.7725-3.41797 68.9868-2.77979Q70.2012-2.1416 71.5439-2.52295Q72.8867-2.9043 73.7266-4.07666Q74.5664-5.24902 74.1631-6.9375Q73.3291-10.5752 72.2026-13.8086Q71.0762-17.042 69.7461-18.7461Z"/>
  </g>
  <g id="Regular-S" transform="matrix(1 0 0 1 1402.77 696)">
   <path d="M15.332-37.8906Q17.1875-37.8906 20.3125-39.1846Q23.4375-40.4785 27.3438-42.4805Q31.25-44.4824 35.5713-46.7529Q39.8926-49.0234 44.1895-51.0498Q48.4863-53.0762 52.3193-54.3457Q56.1523-55.6152 59.082-55.6152Q62.207-55.6152 65.0146-54.3701Q67.8223-53.125 70.6543-50.4883L80.2734-41.6504Q81.6406-40.4297 83.1055-40.4053Q84.5703-40.3809 85.6934-41.1865Q86.8164-41.9922 87.207-43.2861Q87.5977-44.5801 86.8164-45.9473Q85.6445-47.998 83.5449-50.9521Q81.4453-53.9062 76.8555-58.9844Q72.3633-63.9648 67.6025-67.1387Q62.8418-70.3125 55.957-70.3125Q50.1465-70.3125 42.627-68.2373Q35.1074-66.1621 26.8555-62.6709Q18.6035-59.1797 10.5957-54.9316Q8.44727-53.8086 7.56836-51.7578Q6.68945-49.707 6.86035-47.3145Q7.03125-44.9219 8.12988-42.7979Q9.22852-40.6738 11.0596-39.2822Q12.8906-37.8906 15.332-37.8906ZM79.1016-21.875Q80.127-22.998 80.249-24.2432Q80.3711-25.4883 79.7607-26.4893Q79.1504-27.4902 78.1006-28.0518Q77.0508-28.6133 75.7812-28.418Q74.5117-28.2227 73.2422-27.002Q69.5312-23.291 63.4521-21.167Q57.373-19.043 50.3906-19.043Q42.627-19.043 35.2051-20.9229Q27.7832-22.8027 20.7031-26.6602Q19.1895-27.4902 17.9443-27.2461Q16.6992-27.002 15.8691-26.123Q15.0391-25.2441 14.7949-24.0234Q14.5508-22.8027 15.1123-21.582Q15.6738-20.3613 17.2363-19.5312Q25-15.4297 33.3984-13.3301Q41.7969-11.2305 50.3906-11.2305Q59.2285-11.2305 66.7969-14.0137Q74.3652-16.7969 79.1016-21.875ZM24.7559-16.8457Q24.1211-15.5762 22.8516-13.4521Q21.582-11.3281 20.6055-10.3516Q19.4824-9.13086 19.5801-7.95898Q19.6777-6.78711 20.5566-6.03027Q21.4355-5.27344 22.6807-5.32227Q23.9258-5.37109 25.0488-6.5918Q27.002-8.69141 28.418-11.4502Q29.834-14.209 30.3223-15.0879ZM37.8418-14.2578Q37.3047-11.6211 36.5479-8.93555Q35.791-6.25 35.3027-5.07812Q34.6191-3.56445 35.1074-2.49023Q35.5957-1.41602 36.6699-1.00098Q37.7441-0.585938 38.8916-1.0498Q40.0391-1.51367 40.7227-3.07617Q41.4062-4.83398 41.9434-6.98242Q42.4805-9.13086 42.7979-10.9375Q43.1152-12.7441 43.2129-13.4277ZM50.9277-13.3301Q51.3184-10.6445 51.2695-7.8125Q51.2207-4.98047 51.123-3.71094Q51.0742-2.05078 51.9043-1.19629Q52.7344-0.341797 53.9062-0.341797Q55.0781-0.341797 55.9814-1.17188Q56.8848-2.00195 56.9336-3.66211Q56.9824-5.56641 56.8604-7.8125Q56.7383-10.0586 56.5674-11.8652Q56.3965-13.6719 56.25-14.3555ZM63.1348-15.0391Q64.6973-11.9629 65.2832-9.13086Q65.8691-6.29883 66.0645-5.0293Q66.3574-3.41797 67.3828-2.88086Q68.4082-2.34375 69.5312-2.68555Q70.6543-3.02734 71.3623-4.02832Q72.0703-5.0293 71.7285-6.44531Q70.9473-9.86328 69.9219-13.0615Q68.8965-16.2598 67.7246-17.9199Z"/>
  </g>
  <g id="Light-S" transform="matrix(1 0 0 1 1107.3 696)">
   <path d="M14.651-37.9967Q16.4157-37.9967 19.4497-39.2604Q22.4838-40.524 26.3144-42.4956Q30.145-44.4672 34.4058-46.6923Q38.6665-48.9174 42.9255-50.8984Q47.1845-52.8793 51.0251-54.1337Q54.8658-55.3881 57.8257-55.3881Q61.0113-55.3881 63.8719-54.0825Q66.7325-52.7768 69.6704-50.0493L79.2592-41.2114Q80.3238-40.2481 81.4859-40.2312Q82.648-40.2143 83.5515-40.8535Q84.4551-41.4927 84.7624-42.5142Q85.0698-43.5356 84.4248-44.6304Q83.1469-46.7115 80.8657-49.832Q78.5845-52.9526 74.6305-57.3344Q69.9415-62.527 65.3774-65.4207Q60.8134-68.3144 54.4434-68.3144Q48.9052-68.3144 41.7035-66.3755Q34.5019-64.4366 26.4468-61.0664Q18.3917-57.6963 10.3233-53.4332Q8.31095-52.3857 7.5002-50.5166Q6.68945-48.6476 6.86035-46.4896Q7.03125-44.3316 8.05422-42.4119Q9.0772-40.4922 10.7644-39.2445Q12.4517-37.9967 14.651-37.9967ZM76.7553-22.3897Q77.5386-23.2402 77.6304-24.1901Q77.7222-25.1401 77.2556-25.9065Q76.7891-26.6729 75.9815-27.1057Q75.174-27.5386 74.1995-27.3886Q73.2251-27.2387 72.2582-26.3056Q68.4263-22.4737 62.2412-20.2588Q56.0562-18.044 48.8922-18.044Q41.0528-18.044 33.5855-19.8709Q26.1182-21.6977 18.9926-25.5854Q17.8271-26.2339 16.862-26.0503Q15.8969-25.8667 15.256-25.1998Q14.6151-24.5328 14.424-23.5996Q14.2329-22.6664 14.6506-21.741Q15.0683-20.8155 16.2524-20.1973Q23.9253-16.1563 32.1799-14.1172Q40.4345-12.0781 48.8922-12.0781Q57.5483-12.0781 64.8291-14.7931Q72.11-17.5082 76.7553-22.3897ZM22.6822-17.9657Q21.9869-16.7264 20.8233-14.9203Q19.6597-13.1142 18.7739-12.2134Q17.8627-11.2348 17.9377-10.3052Q18.0127-9.37551 18.7024-8.77762Q19.3921-8.17973 20.3799-8.22093Q21.3676-8.26213 22.2636-9.24072Q23.9596-11.083 25.2393-13.3649Q26.519-15.6469 27.0981-16.5713ZM36.2373-14.5302Q35.7002-12.045 34.9737-9.69238Q34.2471-7.33973 33.7891-6.22838Q33.2568-5.0326 33.6466-4.18549Q34.0365-3.33837 34.8913-3.00662Q35.746-2.67487 36.6514-3.04031Q37.5567-3.40576 38.089-4.65037Q38.7121-6.24161 39.2113-8.09491Q39.7105-9.94822 40.0279-11.543Q40.3453-13.1378 40.4732-13.8819ZM50.8369-13.7993Q51.182-11.2501 51.1257-8.75854Q51.0694-6.26704 50.9867-5.05803Q50.9379-3.76129 51.5939-3.09601Q52.2499-2.43073 53.1797-2.43073Q54.1094-2.43073 54.8236-3.08673Q55.5377-3.74273 55.5712-5.05473Q55.6201-6.76219 55.5359-8.70552Q55.4517-10.6489 55.3111-12.2512Q55.1704-13.8535 55.024-14.5976ZM64.4971-16.8856Q65.8628-14.1273 66.4639-11.5073Q67.0649-8.88723 67.3208-7.6327Q67.5685-6.35452 68.3895-5.93096Q69.2106-5.50741 70.0914-5.78105Q70.9722-6.05469 71.5213-6.85883Q72.0703-7.66296 71.774-8.79161Q71.0381-11.8312 70.0808-14.719Q69.1236-17.6069 68.1183-19.131Z"/>
  </g>
  <g id="Thin-S" transform="matrix(1 0 0 1 812.217 696)">
   <path d="M13.7502-38.1369Q15.3948-38.1369 18.3087-39.3606Q21.2225-40.5842 24.953-42.5156Q28.6836-44.447 32.8643-46.6121Q37.045-48.7771 41.2539-50.6981Q45.4627-52.619 49.3135-53.8534Q53.1642-55.0878 56.1642-55.0878Q59.4297-55.0878 62.3605-53.7021Q65.2913-52.3164 68.369-49.4688L77.9179-40.6309Q78.5822-40.008 79.3438-40.001Q80.1055-39.994 80.7188-40.4131Q81.3321-40.8321 81.5293-41.4932Q81.7265-42.1542 81.2618-42.8888Q79.8436-45.0099 77.3223-48.3506Q74.8009-51.6913 71.6878-55.1522Q66.7384-60.6252 62.4345-63.1484Q58.1307-65.6717 52.4414-65.6717Q47.2635-65.6717 40.4823-63.9131Q33.7011-62.1545 25.9063-58.9444Q18.1115-55.7344 9.9631-51.4515Q8.13067-50.5038 7.41006-48.8751Q6.68945-47.2463 6.86035-45.3986Q7.03125-43.5509 7.95416-41.9015Q8.87707-40.2521 10.3741-39.1945Q11.8711-38.1369 13.7502-38.1369ZM73.6521-23.0705Q74.1152-23.5604 74.167-24.12Q74.2188-24.6797 73.9424-25.1358Q73.6661-25.5918 73.1789-25.8545Q72.6917-26.1171 72.1076-26.0273Q71.5236-25.9374 70.9569-25.3847Q66.9648-21.3926 60.6397-19.0577Q54.3146-16.7228 46.9104-16.7228Q38.9708-16.7228 31.4434-18.4796Q23.9161-20.2363 16.7303-24.164Q16.0253-24.5724 15.4305-24.4688Q14.8357-24.3652 14.4451-23.9786Q14.0544-23.5921 13.9334-23.0391Q13.8125-22.4861 14.04-21.9512Q14.2675-21.4163 14.9511-21.0782Q22.5039-17.1172 30.5683-15.1582Q38.6327-13.1991 46.9104-13.1991Q55.326-13.1991 62.2266-15.8241Q69.1272-18.449 73.6521-23.0705ZM19.9396-19.447Q19.1643-18.2477 18.1407-16.862Q17.1172-15.4763 16.3515-14.6758Q15.7205-14.0174 15.7656-13.4081Q15.8107-12.7989 16.2501-12.4112Q16.6896-12.0235 17.3369-12.0546Q17.9843-12.0857 18.5799-12.7441Q19.9359-14.246 21.0353-15.8973Q22.1347-17.5486 22.8338-18.5332ZM34.1153-14.8904Q33.5782-12.6057 32.8916-10.6934Q32.2051-8.78099 31.7871-7.74969Q31.455-6.97435 31.7147-6.42759Q31.9743-5.88084 32.5388-5.65924Q33.1033-5.43764 33.6885-5.67292Q34.2736-5.9082 34.6058-6.73237Q35.1488-8.1033 35.5979-9.56628Q36.047-11.0292 36.3644-12.3439Q36.6817-13.6585 36.8497-14.4827ZM50.7169-14.4199Q51.0018-12.0509 50.9355-10.0098Q50.8693-7.96863 50.8065-6.83968Q50.7576-6.02358 51.1834-5.60854Q51.6092-5.1935 52.2187-5.1935Q52.8283-5.1935 53.2922-5.61927Q53.756-6.04504 53.7694-6.89658Q53.8182-8.3437 53.7842-9.88661Q53.7501-11.4295 53.6495-12.7616Q53.5489-14.0936 53.4024-14.9178ZM66.2989-19.3279Q67.4043-16.99 68.0254-14.6503Q68.6464-12.3106 68.9823-11.0759Q69.1702-10.2384 69.721-9.96497Q70.2717-9.6916 70.8322-9.87509Q71.3926-10.0586 71.7315-10.6024Q72.0703-11.1462 71.8342-11.8948Q71.1581-14.4338 70.291-16.9112Q69.4239-19.3885 68.639-20.7327Z"/>
  </g>
  <g id="Ultralight-S" transform="matrix(1 0 0 1 516.342 696)">
   <path d="M13.2889-38.2088Q14.872-38.2088 17.7242-39.4119Q20.5765-40.6151 24.2558-42.5259Q27.935-44.4366 32.0747-46.571Q36.2144-48.7053 40.3976-50.5955Q44.5808-52.4857 48.4367-53.7098Q52.2926-54.9339 55.3131-54.9339Q58.6197-54.9339 61.5864-53.5072Q64.5531-52.0805 67.7025-49.1714L77.2308-40.3336Q77.6901-39.8849 78.2467-39.883Q78.8033-39.8811 79.2679-40.1875Q79.7325-40.4938 79.8733-40.9702Q80.014-41.4467 79.6417-41.9968Q78.1517-44.1383 75.5074-47.5918Q72.863-51.0452 70.1805-54.0344Q65.0978-59.6512 60.9272-61.9846Q56.7566-64.3181 51.416-64.3181Q46.4226-64.3181 39.8567-62.6518Q33.2909-60.9856 25.6294-57.8575Q17.968-54.7295 9.77859-50.4364Q8.03833-49.5399 7.36389-48.0343Q6.68945-46.5286 6.86035-44.8399Q7.03125-43.1511 7.90291-41.6401Q8.77457-40.1291 10.1742-39.1689Q11.5738-38.2088 13.2889-38.2088ZM72.0627-23.4192Q72.3618-23.7244 72.393-24.0841Q72.4243-24.4438 72.2454-24.741Q72.0665-25.0381 71.7434-25.2136Q71.4203-25.3891 71.0361-25.33Q70.652-25.2708 70.2904-24.913Q66.2163-20.8389 59.8194-18.4425Q53.4225-16.0461 45.8954-16.0461Q37.9044-16.0461 30.3463-17.767Q22.7882-19.4878 15.5716-23.436Q15.1024-23.7213 14.6973-23.6588Q14.2921-23.5962 14.0297-23.3532Q13.7672-23.1102 13.6822-22.752Q13.5971-22.3938 13.7272-22.0589Q13.8573-21.7239 14.2845-21.5294Q21.7758-17.6094 29.7428-15.6914Q37.7098-13.7733 45.8954-13.7733Q54.1878-13.7733 60.8936-16.3521Q67.5995-18.9308 72.0627-23.4192ZM18.5349-20.2057Q17.7185-19.0269 16.7667-17.8566Q15.815-16.6862 15.1108-15.937Q14.6233-15.4427 14.653-14.9975Q14.6828-14.5523 14.994-14.2723Q15.3053-13.9923 15.7784-14.0182Q16.2514-14.0442 16.6931-14.5386Q17.8749-15.8661 18.882-17.1944Q19.8891-18.5226 20.6497-19.5381ZM33.0284-15.0749Q32.4913-12.8929 31.8253-11.2061Q31.1592-9.5192 30.7617-8.5289Q30.5321-7.9689 30.7251-7.57599Q30.9181-7.18307 31.3339-7.0179Q31.7497-6.85272 32.1709-7.02133Q32.592-7.18994 32.8217-7.79877Q33.3237-9.05685 33.7471-10.3199Q34.1705-11.5829 34.4879-12.7541Q34.8053-13.9252 34.9937-14.7903ZM50.6554-14.7377Q50.9094-12.4611 50.8381-10.6506Q50.7668-8.84018 50.7141-7.75223Q50.6653-7.18231 50.9731-6.89545Q51.281-6.60858 51.7265-6.60858Q52.1721-6.60858 52.5078-6.91643Q52.8435-7.22427 52.8465-7.83997Q52.8954-9.15375 52.887-10.4916Q52.8786-11.8294 52.7985-13.023Q52.7184-14.2166 52.5719-15.0818ZM67.2218-20.5788Q68.1938-18.4563 68.8251-16.2601Q69.4565-14.064 69.8334-12.8395Q69.9905-12.2276 70.4029-12.0312Q70.8153-11.8347 71.2116-11.972Q71.608-12.1094 71.8391-12.5198Q72.0703-12.9303 71.8651-13.4842Q71.2196-15.7669 70.3987-18.034Q69.5778-20.3011 68.9056-21.553Z"/>
  </g>
 </g>
</svg>
