<?xml version="1.0" encoding="UTF-8"?>
<!--Generator: Apple Native CoreSVG 175-->
<!DOCTYPE svg
PUBLIC "-//W3C//DTD SVG 1.1//EN"
       "http://www.w3.org/Graphics/SVG/1.1/DTD/svg11.dtd">
<svg version="1.1" xmlns="http://www.w3.org/2000/svg" xmlns:xlink="http://www.w3.org/1999/xlink" width="3300" height="2200">
 <!--glyph: "uni100586.medium", point size: 100.0, font version: "17.1d1e1", template writer version: "65.1"-->
 <g id="Notes">
  <rect height="2200" id="artboard" style="fill:white;opacity:1" width="3300" x="0" y="0"/>
  <line style="fill:none;stroke:black;opacity:1;stroke-width:0.5;" x1="263" x2="3036" y1="292" y2="292"/>
  <text style="stroke:none;fill:black;font-family:sans-serif;font-size:13;font-weight:bold;" transform="matrix(1 0 0 1 263 322)">Weight/Scale Variations</text>
  <text style="stroke:none;fill:black;font-family:sans-serif;font-size:13;text-anchor:middle;" transform="matrix(1 0 0 1 559.711 322)">Ultralight</text>
  <text style="stroke:none;fill:black;font-family:sans-serif;font-size:13;text-anchor:middle;" transform="matrix(1 0 0 1 856.422 322)">Thin</text>
  <text style="stroke:none;fill:black;font-family:sans-serif;font-size:13;text-anchor:middle;" transform="matrix(1 0 0 1 1153.13 322)">Light</text>
  <text style="stroke:none;fill:black;font-family:sans-serif;font-size:13;text-anchor:middle;" transform="matrix(1 0 0 1 1449.84 322)">Regular</text>
  <text style="stroke:none;fill:black;font-family:sans-serif;font-size:13;text-anchor:middle;" transform="matrix(1 0 0 1 1746.56 322)">Medium</text>
  <text style="stroke:none;fill:black;font-family:sans-serif;font-size:13;text-anchor:middle;" transform="matrix(1 0 0 1 2043.27 322)">Semibold</text>
  <text style="stroke:none;fill:black;font-family:sans-serif;font-size:13;text-anchor:middle;" transform="matrix(1 0 0 1 2339.98 322)">Bold</text>
  <text style="stroke:none;fill:black;font-family:sans-serif;font-size:13;text-anchor:middle;" transform="matrix(1 0 0 1 2636.69 322)">Heavy</text>
  <text style="stroke:none;fill:black;font-family:sans-serif;font-size:13;text-anchor:middle;" transform="matrix(1 0 0 1 2933.4 322)">Black</text>
  <line style="fill:none;stroke:black;opacity:1;stroke-width:0.5;" x1="263" x2="3036" y1="1903" y2="1903"/>
  <g transform="matrix(1 0 0 1 263 1933)">
   <path d="M9.24805 0.830078Q10.8691 0.830078 12.2949 0.214844Q13.7207-0.400391 14.8096-1.49414Q15.8984-2.58789 16.5186-4.01367Q17.1387-5.43945 17.1387-7.05078Q17.1387-8.66211 16.5186-10.0879Q15.8984-11.5137 14.8047-12.6074Q13.7109-13.7012 12.2852-14.3164Q10.8594-14.9316 9.23828-14.9316Q7.62695-14.9316 6.20117-14.3164Q4.77539-13.7012 3.69141-12.6074Q2.60742-11.5137 1.9873-10.0879Q1.36719-8.66211 1.36719-7.05078Q1.36719-5.43945 1.9873-4.01367Q2.60742-2.58789 3.69629-1.49414Q4.78516-0.400391 6.21094 0.214844Q7.63672 0.830078 9.24805 0.830078ZM9.24805-0.654297Q7.91992-0.654297 6.7627-1.14746Q5.60547-1.64062 4.73145-2.51953Q3.85742-3.39844 3.36426-4.56055Q2.87109-5.72266 2.87109-7.05078Q2.87109-8.37891 3.35938-9.54102Q3.84766-10.7031 4.72168-11.582Q5.5957-12.4609 6.75293-12.9541Q7.91016-13.4473 9.23828-13.4473Q10.5762-13.4473 11.7334-12.9541Q12.8906-12.4609 13.7695-11.582Q14.6484-10.7031 15.1465-9.54102Q15.6445-8.37891 15.6445-7.05078Q15.6445-5.72266 15.1514-4.56055Q14.6582-3.39844 13.7842-2.51953Q12.9102-1.64062 11.748-1.14746Q10.5859-0.654297 9.24805-0.654297ZM5.6543-7.05078Q5.6543-6.72852 5.85938-6.52832Q6.06445-6.32812 6.40625-6.32812L8.51562-6.32812L8.51562-4.20898Q8.51562-3.88672 8.71094-3.67676Q8.90625-3.4668 9.23828-3.4668Q9.56055-3.4668 9.77051-3.67676Q9.98047-3.88672 9.98047-4.20898L9.98047-6.32812L12.0898-6.32812Q12.4219-6.32812 12.627-6.52832Q12.832-6.72852 12.832-7.05078Q12.832-7.38281 12.627-7.58789Q12.4219-7.79297 12.0898-7.79297L9.98047-7.79297L9.98047-9.90234Q9.98047-10.2344 9.77051-10.4443Q9.56055-10.6543 9.23828-10.6543Q8.90625-10.6543 8.71094-10.4443Q8.51562-10.2344 8.51562-9.90234L8.51562-7.79297L6.40625-7.79297Q6.06445-7.79297 5.85938-7.58789Q5.6543-7.38281 5.6543-7.05078Z"/>
  </g>
  <g transform="matrix(1 0 0 1 281.867 1933)">
   <path d="M11.709 2.91016Q13.75 2.91016 15.5518 2.12891Q17.3535 1.34766 18.7305-0.0292969Q20.1074-1.40625 20.8887-3.20801Q21.6699-5.00977 21.6699-7.05078Q21.6699-9.0918 20.8887-10.8936Q20.1074-12.6953 18.7305-14.0723Q17.3535-15.4492 15.5469-16.2305Q13.7402-17.0117 11.6992-17.0117Q9.6582-17.0117 7.85645-16.2305Q6.05469-15.4492 4.68262-14.0723Q3.31055-12.6953 2.5293-10.8936Q1.74805-9.0918 1.74805-7.05078Q1.74805-5.00977 2.5293-3.20801Q3.31055-1.40625 4.6875-0.0292969Q6.06445 1.34766 7.86621 2.12891Q9.66797 2.91016 11.709 2.91016ZM11.709 1.25Q9.98047 1.25 8.47656 0.605469Q6.97266-0.0390625 5.83496-1.17676Q4.69727-2.31445 4.05762-3.81836Q3.41797-5.32227 3.41797-7.05078Q3.41797-8.7793 4.05762-10.2832Q4.69727-11.7871 5.83008-12.9297Q6.96289-14.0723 8.4668-14.7119Q9.9707-15.3516 11.6992-15.3516Q13.4277-15.3516 14.9316-14.7119Q16.4355-14.0723 17.5781-12.9297Q18.7207-11.7871 19.3652-10.2832Q20.0098-8.7793 20.0098-7.05078Q20.0098-5.32227 19.3701-3.81836Q18.7305-2.31445 17.5928-1.17676Q16.4551-0.0390625 14.9463 0.605469Q13.4375 1.25 11.709 1.25ZM7.17773-7.05078Q7.17773-6.69922 7.41211-6.47461Q7.64648-6.25 8.01758-6.25L10.8887-6.25L10.8887-3.36914Q10.8887-2.99805 11.1133-2.76855Q11.3379-2.53906 11.6895-2.53906Q12.0605-2.53906 12.29-2.76855Q12.5195-2.99805 12.5195-3.36914L12.5195-6.25L15.4004-6.25Q15.7715-6.25 16.001-6.47461Q16.2305-6.69922 16.2305-7.05078Q16.2305-7.42188 16.001-7.65137Q15.7715-7.88086 15.4004-7.88086L12.5195-7.88086L12.5195-10.752Q12.5195-11.1328 12.29-11.3623Q12.0605-11.5918 11.6895-11.5918Q11.3379-11.5918 11.1133-11.3574Q10.8887-11.123 10.8887-10.752L10.8887-7.88086L8.01758-7.88086Q7.63672-7.88086 7.40723-7.65137Q7.17773-7.42188 7.17773-7.05078Z"/>
  </g>
  <g transform="matrix(1 0 0 1 305.646 1933)">
   <path d="M14.9707 5.66406Q17.0605 5.66406 18.96 5.01465Q20.8594 4.36523 22.4512 3.19336Q24.043 2.02148 25.2197 0.429688Q26.3965-1.16211 27.0459-3.06641Q27.6953-4.9707 27.6953-7.05078Q27.6953-9.14062 27.0459-11.04Q26.3965-12.9395 25.2197-14.5312Q24.043-16.123 22.4512-17.2998Q20.8594-18.4766 18.9551-19.126Q17.0508-19.7754 14.9609-19.7754Q12.8711-19.7754 10.9717-19.126Q9.07227-18.4766 7.48535-17.2998Q5.89844-16.123 4.72168-14.5312Q3.54492-12.9395 2.90039-11.04Q2.25586-9.14062 2.25586-7.05078Q2.25586-4.9707 2.90527-3.06641Q3.55469-1.16211 4.72656 0.429688Q5.89844 2.02148 7.49023 3.19336Q9.08203 4.36523 10.9814 5.01465Q12.8809 5.66406 14.9707 5.66406ZM14.9707 3.84766Q13.1641 3.84766 11.5283 3.2959Q9.89258 2.74414 8.53516 1.74805Q7.17773 0.751953 6.17676-0.610352Q5.17578-1.97266 4.62891-3.6084Q4.08203-5.24414 4.08203-7.05078Q4.08203-8.86719 4.62891-10.5029Q5.17578-12.1387 6.17188-13.501Q7.16797-14.8633 8.52539-15.8594Q9.88281-16.8555 11.5186-17.4023Q13.1543-17.9492 14.9609-17.9492Q16.7773-17.9492 18.4131-17.4023Q20.0488-16.8555 21.4111-15.8594Q22.7734-14.8633 23.7695-13.501Q24.7656-12.1387 25.3174-10.5029Q25.8691-8.86719 25.8691-7.05078Q25.8789-5.24414 25.332-3.6084Q24.7852-1.97266 23.7842-0.610352Q22.7832 0.751953 21.4209 1.74805Q20.0586 2.74414 18.4229 3.2959Q16.7871 3.84766 14.9707 3.84766ZM9.19922-7.05078Q9.19922-6.66992 9.45801-6.4209Q9.7168-6.17188 10.1172-6.17188L14.0625-6.17188L14.0625-2.2168Q14.0625-1.81641 14.3115-1.55762Q14.5605-1.29883 14.9512-1.29883Q15.3516-1.29883 15.6104-1.55273Q15.8691-1.80664 15.8691-2.2168L15.8691-6.17188L19.8242-6.17188Q20.2246-6.17188 20.4785-6.4209Q20.7324-6.66992 20.7324-7.05078Q20.7324-7.46094 20.4785-7.71484Q20.2246-7.96875 19.8242-7.96875L15.8691-7.96875L15.8691-11.9141Q15.8691-12.3242 15.6104-12.583Q15.3516-12.8418 14.9512-12.8418Q14.5605-12.8418 14.3115-12.583Q14.0625-12.3242 14.0625-11.9141L14.0625-7.96875L10.1172-7.96875Q9.70703-7.96875 9.45312-7.71484Q9.19922-7.46094 9.19922-7.05078Z"/>
  </g>
  <text style="stroke:none;fill:black;font-family:sans-serif;font-size:13;font-weight:bold;" transform="matrix(1 0 0 1 263 1953)">Design Variations</text>
  <text style="stroke:none;fill:black;font-family:sans-serif;font-size:13;" transform="matrix(1 0 0 1 263 1971)">Symbols are supported in up to nine weights and three scales.</text>
  <text style="stroke:none;fill:black;font-family:sans-serif;font-size:13;" transform="matrix(1 0 0 1 263 1989)">For optimal layout with text and other symbols, vertically align</text>
  <text style="stroke:none;fill:black;font-family:sans-serif;font-size:13;" transform="matrix(1 0 0 1 263 2007)">symbols with the adjacent text.</text>
  <line style="fill:none;stroke:#00AEEF;stroke-width:0.5;opacity:1.0;" x1="776" x2="776" y1="1919" y2="1933"/>
  <g transform="matrix(1 0 0 1 776 1933)">
   <path d="M3.31055 0.15625Q3.70117 0.15625 3.91602-0.00976562Q4.13086-0.175781 4.26758-0.585938L5.52734-4.0332L11.2891-4.0332L12.5488-0.585938Q12.6855-0.175781 12.9004-0.00976562Q13.1152 0.15625 13.4961 0.15625Q13.8867 0.15625 14.1162-0.0585938Q14.3457-0.273438 14.3457-0.644531Q14.3457-0.869141 14.2383-1.17188L9.6582-13.3691Q9.48242-13.8184 9.17969-14.043Q8.87695-14.2676 8.4082-14.2676Q7.5-14.2676 7.17773-13.3789L2.59766-1.16211Q2.49023-0.859375 2.49023-0.634766Q2.49023-0.263672 2.70996-0.0537109Q2.92969 0.15625 3.31055 0.15625ZM6.00586-5.51758L8.37891-12.0898L8.42773-12.0898L10.8008-5.51758Z"/>
  </g>
  <line style="fill:none;stroke:#00AEEF;stroke-width:0.5;opacity:1.0;" x1="793.197" x2="793.197" y1="1919" y2="1933"/>
  <text style="stroke:none;fill:black;font-family:sans-serif;font-size:13;font-weight:bold;" transform="matrix(1 0 0 1 776 1953)">Margins</text>
  <text style="stroke:none;fill:black;font-family:sans-serif;font-size:13;" transform="matrix(1 0 0 1 776 1971)">Leading and trailing margins on the left and right side of each symbol</text>
  <text style="stroke:none;fill:black;font-family:sans-serif;font-size:13;" transform="matrix(1 0 0 1 776 1989)">can be adjusted by modifying the x-location of the margin guidelines.</text>
  <text style="stroke:none;fill:black;font-family:sans-serif;font-size:13;" transform="matrix(1 0 0 1 776 2007)">Modifications are automatically applied proportionally to all</text>
  <text style="stroke:none;fill:black;font-family:sans-serif;font-size:13;" transform="matrix(1 0 0 1 776 2025)">scales and weights.</text>
  <g transform="matrix(1 0 0 1 1289 1933)">
   <path d="M2.8418 1.86523L4.54102 3.57422Q5.18555 4.22852 5.90332 4.17969Q6.62109 4.13086 7.31445 3.35938L18.0078-8.42773L17.041-9.4043L6.42578 2.27539Q6.16211 2.57812 5.89355 2.61719Q5.625 2.65625 5.27344 2.30469L4.10156 1.14258Q3.75 0.791016 3.79395 0.522461Q3.83789 0.253906 4.14062-0.0195312L15.6152-10.8203L14.6387-11.7871L3.04688-0.898438Q2.30469-0.214844 2.25098 0.498047Q2.19727 1.21094 2.8418 1.86523ZM9.25781-16.3281Q8.94531-16.0254 8.90625-15.6348Q8.86719-15.2441 9.04297-14.9512Q9.21875-14.6777 9.55566-14.541Q9.89258-14.4043 10.3809-14.5215Q11.4746-14.7754 12.5977-14.7314Q13.7207-14.6875 14.7949-13.9844L14.209-12.5293Q13.9551-11.9043 14.0674-11.4404Q14.1797-10.9766 14.5801-10.5664L16.875-8.25195Q17.2363-7.88086 17.5781-7.82227Q17.9199-7.76367 18.3398-7.8418L19.4043-8.03711L20.0684-7.36328L20.0293-6.80664Q20-6.43555 20.1221-6.12305Q20.2441-5.81055 20.6055-5.44922L21.3672-4.70703Q21.7285-4.3457 22.1533-4.33105Q22.5781-4.31641 22.9297-4.66797L25.8398-7.58789Q26.1914-7.93945 26.1816-8.35449Q26.1719-8.76953 25.8105-9.13086L25.0391-9.89258Q24.6875-10.2539 24.3799-10.3857Q24.0723-10.5176 23.7109-10.4883L23.1348-10.4395L22.4902-11.0742L22.7344-12.1973Q22.832-12.6172 22.6953-12.9834Q22.5586-13.3496 22.1191-13.7891L19.9219-15.9766Q18.6719-17.2168 17.2607-17.8369Q15.8496-18.457 14.4189-18.4814Q12.9883-18.5059 11.665-17.959Q10.3418-17.4121 9.25781-16.3281ZM10.752-15.957Q11.6602-16.6211 12.7002-16.9043Q13.7402-17.1875 14.8047-17.085Q15.8691-16.9824 16.8701-16.5137Q17.8711-16.0449 18.7012-15.2051L21.1328-12.793Q21.3086-12.6172 21.3525-12.4512Q21.3965-12.2852 21.3379-12.0312L21.0156-10.5469L22.5195-9.0625L23.5059-9.12109Q23.6914-9.13086 23.7891-9.09668Q23.8867-9.0625 24.0332-8.91602L24.6094-8.33984L22.168-5.89844L21.5918-6.47461Q21.4453-6.62109 21.4062-6.71875Q21.3672-6.81641 21.377-7.01172L21.4453-7.98828L19.9512-9.47266L18.4277-9.21875Q18.1836-9.16992 18.042-9.2041Q17.9004-9.23828 17.7148-9.41406L15.7129-11.416Q15.5176-11.5918 15.4932-11.7529Q15.4688-11.9141 15.5859-12.1875L16.4648-14.2773Q15.293-15.3711 13.8281-15.791Q12.3633-16.2109 10.8398-15.7617Q10.7227-15.7324 10.6885-15.8057Q10.6543-15.8789 10.752-15.957Z"/>
  </g>
  <text style="stroke:none;fill:black;font-family:sans-serif;font-size:13;font-weight:bold;" transform="matrix(1 0 0 1 1289 1953)">Exporting</text>
  <text style="stroke:none;fill:black;font-family:sans-serif;font-size:13;" transform="matrix(1 0 0 1 1289 1971)">Symbols should be outlined when exporting to ensure the</text>
  <text style="stroke:none;fill:black;font-family:sans-serif;font-size:13;" transform="matrix(1 0 0 1 1289 1989)">design is preserved when submitting to Xcode.</text>
  <text id="template-version" style="stroke:none;fill:black;font-family:sans-serif;font-size:13;text-anchor:end;" transform="matrix(1 0 0 1 3036 1933)">Template v.3.0</text>
  <text style="stroke:none;fill:black;font-family:sans-serif;font-size:13;text-anchor:end;" transform="matrix(1 0 0 1 3036 1951)">Requires Xcode 13 or greater</text>
  <text id="descriptive-name" style="stroke:none;fill:black;font-family:sans-serif;font-size:13;text-anchor:end;" transform="matrix(1 0 0 1 3036 1969)">Generated from eyeglasses</text>
  <text style="stroke:none;fill:black;font-family:sans-serif;font-size:13;text-anchor:end;" transform="matrix(1 0 0 1 3036 1987)">Typeset at 100 points</text>
  <text style="stroke:none;fill:black;font-family:sans-serif;font-size:13;" transform="matrix(1 0 0 1 263 726)">Small</text>
  <text style="stroke:none;fill:black;font-family:sans-serif;font-size:13;" transform="matrix(1 0 0 1 263 1156)">Medium</text>
  <text style="stroke:none;fill:black;font-family:sans-serif;font-size:13;" transform="matrix(1 0 0 1 263 1586)">Large</text>
 </g>
 <g id="Guides">
  <g id="H-reference" style="fill:#27AAE1;stroke:none;" transform="matrix(1 0 0 1 339 696)">
   <path d="M0.993347 0L3.6377 0L29.3282-67.1326L30.0301-67.1326L30.0301-70.459L28.1227-70.459ZM11.6882-24.4797L46.9818-24.4797L46.2311-26.7288L12.4382-26.7288ZM55.1193 0L57.7637 0L30.6381-70.459L29.4327-70.459L29.4327-67.1326Z"/>
  </g>
  <line id="Baseline-S" style="fill:none;stroke:#27AAE1;opacity:1;stroke-width:0.5;" x1="263" x2="3036" y1="696" y2="696"/>
  <line id="Capline-S" style="fill:none;stroke:#27AAE1;opacity:1;stroke-width:0.5;" x1="263" x2="3036" y1="625.541" y2="625.541"/>
  <g id="H-reference" style="fill:#27AAE1;stroke:none;" transform="matrix(1 0 0 1 339 1126)">
   <path d="M0.993347 0L3.6377 0L29.3282-67.1326L30.0301-67.1326L30.0301-70.459L28.1227-70.459ZM11.6882-24.4797L46.9818-24.4797L46.2311-26.7288L12.4382-26.7288ZM55.1193 0L57.7637 0L30.6381-70.459L29.4327-70.459L29.4327-67.1326Z"/>
  </g>
  <line id="Baseline-M" style="fill:none;stroke:#27AAE1;opacity:1;stroke-width:0.5;" x1="263" x2="3036" y1="1126" y2="1126"/>
  <line id="Capline-M" style="fill:none;stroke:#27AAE1;opacity:1;stroke-width:0.5;" x1="263" x2="3036" y1="1055.54" y2="1055.54"/>
  <g id="H-reference" style="fill:#27AAE1;stroke:none;" transform="matrix(1 0 0 1 339 1556)">
   <path d="M0.993347 0L3.6377 0L29.3282-67.1326L30.0301-67.1326L30.0301-70.459L28.1227-70.459ZM11.6882-24.4797L46.9818-24.4797L46.2311-26.7288L12.4382-26.7288ZM55.1193 0L57.7637 0L30.6381-70.459L29.4327-70.459L29.4327-67.1326Z"/>
  </g>
  <line id="Baseline-L" style="fill:none;stroke:#27AAE1;opacity:1;stroke-width:0.5;" x1="263" x2="3036" y1="1556" y2="1556"/>
  <line id="Capline-L" style="fill:none;stroke:#27AAE1;opacity:1;stroke-width:0.5;" x1="263" x2="3036" y1="1485.54" y2="1485.54"/>
  <line id="left-margin-Regular-M" style="fill:none;stroke:#00AEEF;stroke-width:0.5;opacity:1.0;" x1="1364.12" x2="1364.12" y1="1030.79" y2="1150.12"/>
  <line id="right-margin-Regular-M" style="fill:none;stroke:#00AEEF;stroke-width:0.5;opacity:1.0;" x1="1535.57" x2="1535.57" y1="1030.79" y2="1150.12"/>
 </g>
 <g id="Symbols">
  <g id="Black-L" transform="matrix(1 0 0 1 2806.92 1556)">
   <path d="M71.7389 10.2625Q81.1611 10.2625 89.4034 6.74168Q97.6457 3.22086 103.898-3.03079Q110.15-9.28245 113.671-17.565Q117.192-25.8475 117.192-35.2697Q117.192-44.6919 113.671-52.9348Q110.15-61.1777 103.898-67.4294Q97.6457-73.6811 89.4034-77.2019Q81.1611-80.7227 71.7389-80.7227Q62.3167-80.7227 54.0341-77.2019Q45.7516-73.6811 39.4993-67.4294Q33.2471-61.1777 29.7257-52.9348Q26.2042-44.6919 26.2042-35.2697Q26.2042-25.8475 29.7257-17.565Q33.2471-9.28245 39.4993-3.03079Q45.7516 3.22086 54.0341 6.74168Q62.3167 10.2625 71.7389 10.2625ZM71.7389-10.4471Q64.8891-10.4471 59.2465-13.7909Q53.6039-17.1348 50.2595-22.7774Q46.9151-28.42 46.9151-35.2697Q46.9151-42.0986 50.2595-47.712Q53.6039-53.3254 59.2465-56.6692Q64.8891-60.0131 71.7389-60.0131Q78.5677-60.0131 84.1812-56.6692Q89.7946-53.3254 93.1384-47.712Q96.4822-42.0986 96.4822-35.2697Q96.4822-28.4408 93.1384-22.7878Q89.7946-17.1348 84.1812-13.7909Q78.5677-10.4471 71.7389-10.4471ZM181.244 10.2625Q190.666 10.2625 198.938 6.74168Q207.21 3.22086 213.463-3.03079Q219.715-9.28245 223.247-17.565Q226.779-25.8475 226.779-35.2697Q226.779-44.6919 223.247-52.9348Q219.715-61.1777 213.463-67.4294Q207.21-73.6811 198.938-77.2019Q190.666-80.7227 181.244-80.7227Q171.822-80.7227 163.569-77.2019Q155.316-73.6811 149.064-67.4294Q142.812-61.1777 139.291-52.9348Q135.77-44.6919 135.77-35.2697Q135.77-25.8475 139.291-17.565Q142.812-9.28245 149.064-3.03079Q155.316 3.22086 163.569 6.74168Q171.822 10.2625 181.244 10.2625ZM181.244-10.4471Q174.415-10.4471 168.791-13.7909Q163.168-17.1348 159.824-22.7878Q156.48-28.4408 156.48-35.2697Q156.48-42.0986 159.824-47.712Q163.168-53.3254 168.791-56.6692Q174.415-60.0131 181.244-60.0131Q188.131-60.0131 193.745-56.6692Q199.359-53.3254 202.703-47.712Q206.047-42.0986 206.047-35.2697Q206.047-28.42 202.703-22.7774Q199.359-17.1348 193.745-13.7909Q188.131-10.4471 181.244-10.4471ZM31.4656-47.8456L16.7626-47.8456Q11.2588-47.8456 11.2588-42.3234L11.2588-32.4482Q11.2588-26.7323 16.7626-26.7323L31.4656-26.7323ZM221.496-26.7323L236.2-26.7323Q241.703-26.7323 241.703-32.4482L241.703-42.3234Q241.703-47.8456 236.2-47.8456L221.496-47.8456ZM112.332-28.3115Q115.197-30.5219 119.142-31.3917Q123.086-32.2615 126.491-32.2615Q129.935-32.2615 133.85-31.3917Q137.765-30.5219 140.63-28.3115L140.63-47.3404Q137.566-49.0944 133.677-49.8811Q129.789-50.6679 126.491-50.6679Q123.194-50.6679 119.335-49.8811Q115.475-49.0944 112.332-47.3404Z"/>
  </g>
  <g id="Heavy-L" transform="matrix(1 0 0 1 2514.01 1556)">
   <path d="M69.5293 8.75157Q78.6355 8.75157 86.6054 5.34986Q94.5753 1.94814 100.624-4.09754Q106.672-10.1432 110.074-18.1533Q113.476-26.1635 113.476-35.2697Q113.476-44.3759 110.074-52.3487Q106.672-60.3214 100.624-66.3671Q94.5753-72.4128 86.6054-75.8145Q78.6355-79.2162 69.5293-79.2162Q60.423-79.2162 52.4129-75.8145Q44.4028-72.4128 38.3543-66.3671Q32.3058-60.3214 28.9012-52.3487Q25.4967-44.3759 25.4967-35.2697Q25.4967-26.1635 28.9012-18.1533Q32.3058-10.1432 38.3543-4.09754Q44.4028 1.94814 52.4129 5.34986Q60.423 8.75157 69.5293 8.75157ZM69.5293-9.40066Q62.385-9.40066 56.5115-12.8896Q50.6381-16.3785 47.1464-22.252Q43.6546-28.1254 43.6546-35.2697Q43.6546-42.3837 47.1464-48.2349Q50.6381-54.0861 56.5115-57.575Q62.385-61.0639 69.5293-61.0639Q76.6433-61.0639 82.4945-57.575Q88.3457-54.0861 91.8346-48.2349Q95.3234-42.3837 95.3234-35.2697Q95.3234-28.1557 91.8346-22.2671Q88.3457-16.3785 82.4945-12.8896Q76.6433-9.40066 69.5293-9.40066ZM175.861 8.75157Q184.967 8.75157 192.962 5.34986Q200.957 1.94814 207.006-4.09754Q213.054-10.1432 216.474-18.1533Q219.893-26.1635 219.893-35.2697Q219.893-44.3759 216.474-52.3487Q213.054-60.3214 207.006-66.3671Q200.957-72.4128 192.962-75.8145Q184.967-79.2162 175.861-79.2162Q166.755-79.2162 158.77-75.8145Q150.785-72.4128 144.736-66.3671Q138.688-60.3214 135.286-52.3487Q131.884-44.3759 131.884-35.2697Q131.884-26.1635 135.286-18.1533Q138.688-10.1432 144.736-4.09754Q150.785 1.94814 158.77 5.34986Q166.755 8.75157 175.861 8.75157ZM175.861-9.40066Q168.747-9.40066 162.881-12.8896Q157.014-16.3785 153.525-22.2671Q150.037-28.1557 150.037-35.2697Q150.037-42.3837 153.525-48.2349Q157.014-54.0861 162.881-57.575Q168.747-61.0639 175.861-61.0639Q183.02-61.0639 188.874-57.575Q194.728-54.0861 198.216-48.2349Q201.705-42.3837 201.705-35.2697Q201.705-28.1254 198.216-22.252Q194.728-16.3785 188.874-12.8896Q183.02-9.40066 175.861-9.40066ZM30.4386-46.6495L16.5419-46.6495Q11.2588-46.6495 11.2588-41.3474L11.2588-33.2323Q11.2588-27.7774 16.5419-27.7774L30.4386-27.7774ZM214.921-27.7774L228.818-27.7774Q234.101-27.7774 234.101-33.2323L234.101-41.3474Q234.101-46.6495 228.818-46.6495L214.921-46.6495ZM109.083-29.5049Q111.85-31.5495 115.599-32.3848Q119.348-33.2202 122.695-33.2202Q126.057-33.2202 129.783-32.3848Q133.51-31.5495 136.277-29.5049L136.277-46.6136Q133.305-48.2573 129.575-48.9864Q125.845-49.7156 122.695-49.7156Q119.545-49.7156 115.837-48.9864Q112.129-48.2573 109.083-46.6136Z"/>
  </g>
  <g id="Bold-L" transform="matrix(1 0 0 1 2221.67 1556)">
   <path d="M66.913 6.98107Q75.6497 6.98107 83.3002 3.71794Q90.9506 0.454808 96.7605-5.34842Q102.57-11.1516 105.834-18.8423Q109.097-26.533 109.097-35.2697Q109.097-44.0064 105.834-51.6636Q102.57-59.3207 96.7605-65.1239Q90.9506-70.9271 83.3002-74.1903Q75.6497-77.4534 66.913-77.4534Q58.1762-77.4534 50.4856-74.1903Q42.7949-70.9271 36.985-65.1239Q31.1751-59.3207 27.9053-51.6636Q24.6355-44.0064 24.6355-35.2697Q24.6355-26.533 27.9053-18.8423Q31.1751-11.1516 36.985-5.34842Q42.7949 0.454808 50.4856 3.71794Q58.1762 6.98107 66.913 6.98107ZM66.913-8.00522Q59.3776-8.00522 53.1938-11.6859Q47.0099-15.3666 43.3226-21.5505Q39.6354-27.7344 39.6354-35.2697Q39.6354-42.767 43.3226-48.9363Q47.0099-55.1057 53.1938-58.7863Q59.3776-62.4669 66.913-62.4669Q74.4102-62.4669 80.5796-58.7863Q86.749-55.1057 90.4296-48.9363Q94.1102-42.767 94.1102-35.2697Q94.1102-27.7725 90.4296-21.5695Q86.749-15.3666 80.5796-11.6859Q74.4102-8.00522 66.913-8.00522ZM169.743 6.98107Q178.479 6.98107 186.151 3.71794Q193.823 0.454808 199.633-5.34842Q205.443-11.1516 208.731-18.8423Q212.02-26.533 212.02-35.2697Q212.02-44.0064 208.731-51.6636Q205.443-59.3207 199.633-65.1239Q193.823-70.9271 186.151-74.1903Q178.479-77.4534 169.743-77.4534Q161.006-77.4534 153.337-74.1903Q145.667-70.9271 139.857-65.1239Q134.047-59.3207 130.784-51.6636Q127.521-44.0064 127.521-35.2697Q127.521-26.533 130.784-18.8423Q134.047-11.1516 139.857-5.34842Q145.667 0.454808 153.337 3.71794Q161.006 6.98107 169.743 6.98107ZM169.743-8.00522Q162.245-8.00522 156.057-11.6859Q149.869-15.3666 146.188-21.5695Q142.508-27.7725 142.508-35.2697Q142.508-42.767 146.188-48.9363Q149.869-55.1057 156.057-58.7863Q162.245-62.4669 169.743-62.4669Q177.269-62.4669 183.445-58.7863Q189.621-55.1057 193.302-48.9363Q196.982-42.767 196.982-35.2697Q196.982-27.7344 193.302-21.5505Q189.621-15.3666 183.445-11.6859Q177.269-8.00522 169.743-8.00522ZM29.1185-45.1964L16.2281-45.1964Q11.2588-45.1964 11.2588-40.2154L11.2588-34.1335Q11.2588-29.0535 16.2281-29.0535L29.1185-29.0535ZM207.499-29.0535L220.39-29.0535Q225.359-29.0535 225.359-34.1335L225.359-40.2154Q225.359-45.1964 220.39-45.1964L207.499-45.1964ZM105.325-30.9952Q107.999-32.8622 111.532-33.659Q115.065-34.4558 118.328-34.4558Q121.582-34.4558 125.1-33.659Q128.619-32.8622 131.293-30.9952L131.293-45.7443Q128.421-47.2647 124.869-47.932Q121.316-48.5994 118.328-48.5994Q115.34-48.5994 111.801-47.932Q108.263-47.2647 105.325-45.7443Z"/>
  </g>
  <g id="Semibold-L" transform="matrix(1 0 0 1 1927.97 1556)">
   <path d="M65.1093 5.7605Q73.5913 5.7605 81.0215 2.59291Q88.4518-0.574688 94.0972-6.21077Q99.7425-11.8468 102.91-19.3173Q106.078-26.7877 106.078-35.2697Q106.078-43.7517 102.91-51.1912Q99.7425-58.6308 94.0972-64.2668Q88.4518-69.9029 81.0215-73.0705Q73.5913-76.2381 65.1093-76.2381Q56.6273-76.2381 49.1569-73.0705Q41.6865-69.9029 36.0411-64.2668Q30.3957-58.6308 27.2188-51.1912Q24.0419-43.7517 24.0419-35.2697Q24.0419-26.7877 27.2188-19.3173Q30.3957-11.8468 36.0411-6.21077Q41.6865-0.574688 49.1569 2.59291Q56.6273 5.7605 65.1093 5.7605ZM65.1093-7.04321Q57.3044-7.04321 50.9065-10.8561Q44.5086-14.669 40.6866-21.0669Q36.8645-27.4647 36.8645-35.2697Q36.8645-43.0311 40.6866-49.4199Q44.5086-55.8086 50.9065-59.6214Q57.3044-63.4341 65.1093-63.4341Q72.8707-63.4341 79.2595-59.6214Q85.6482-55.8086 89.461-49.4199Q93.2737-43.0311 93.2737-35.2697Q93.2737-27.5083 89.461-21.0886Q85.6482-14.669 79.2595-10.8561Q72.8707-7.04321 65.1093-7.04321ZM165.525 5.7605Q174.007 5.7605 181.456 2.59291Q188.905-0.574688 194.55-6.21077Q200.195-11.8468 203.394-19.3173Q206.592-26.7877 206.592-35.2697Q206.592-43.7517 203.394-51.1912Q200.195-58.6308 194.55-64.2668Q188.905-69.9029 181.456-73.0705Q174.007-76.2381 165.525-76.2381Q157.043-76.2381 149.591-73.0705Q142.139-69.9029 136.494-64.2668Q130.848-58.6308 127.681-51.1912Q124.513-43.7517 124.513-35.2697Q124.513-26.7877 127.681-19.3173Q130.848-11.8468 136.494-6.21077Q142.139-0.574688 149.591 2.59291Q157.043 5.7605 165.525 5.7605ZM165.525-7.04321Q157.763-7.04321 151.353-10.8561Q144.943-14.669 141.13-21.0886Q137.317-27.5083 137.317-35.2697Q137.317-43.0311 141.13-49.4199Q144.943-55.8086 151.353-59.6214Q157.763-63.4341 165.525-63.4341Q173.305-63.4341 179.703-59.6214Q186.101-55.8086 189.914-49.4199Q193.726-43.0311 193.726-35.2697Q193.726-27.4647 189.914-21.0669Q186.101-14.669 179.703-10.8561Q173.305-7.04321 165.525-7.04321ZM28.2085-44.1946L16.0118-44.1946Q11.2588-44.1946 11.2588-39.4351L11.2588-34.7549Q11.2588-29.9333 16.0118-29.9333L28.2085-29.9333ZM202.383-29.9333L214.579-29.9333Q219.332-29.9333 219.332-34.7549L219.332-39.4351Q219.332-44.1946 214.579-44.1946L202.383-44.1946ZM102.734-32.0226Q105.344-33.7672 108.728-34.5374Q112.112-35.3077 115.317-35.3077Q118.497-35.3077 121.872-34.5374Q125.247-33.7672 127.857-32.0226L127.857-45.1451Q125.055-46.5804 121.624-47.2052Q118.194-47.8299 115.317-47.8299Q112.44-47.8299 109.019-47.2052Q105.598-46.5804 102.734-45.1451Z"/>
  </g>
  <g id="Medium-L" transform="matrix(1 0 0 1 1633.55 1556)">
   <path d="M63.7417 4.83501Q72.0306 4.83501 79.2938 1.73986Q86.557-1.35529 92.0777-6.86463Q97.5983-12.374 100.693-19.6774Q103.789-26.9808 103.789-35.2697Q103.789-43.5586 100.693-50.8331Q97.5983-58.1077 92.0777-63.617Q86.557-69.1263 79.2938-72.2215Q72.0306-75.3166 63.7417-75.3166Q55.4528-75.3166 48.1494-72.2215Q40.846-69.1263 35.3253-63.617Q29.8047-58.1077 26.6982-50.8331Q23.5917-43.5586 23.5917-35.2697Q23.5917-26.9808 26.6982-19.6774Q29.8047-12.374 35.3253-6.86463Q40.846-1.35529 48.1494 1.73986Q55.4528 4.83501 63.7417 4.83501ZM63.7417-6.31378Q55.7323-6.31378 49.1722-10.2269Q42.6121-14.14 38.6878-20.7002Q34.7635-27.2603 34.7635-35.2697Q34.7635-43.2314 38.6878-49.7865Q42.6121-56.3416 49.1722-60.2545Q55.7323-64.1675 63.7417-64.1675Q71.7035-64.1675 78.2585-60.2545Q84.8136-56.3416 88.7265-49.7865Q92.6395-43.2314 92.6395-35.2697Q92.6395-27.308 88.7265-20.724Q84.8136-14.14 78.2585-10.2269Q71.7035-6.31378 63.7417-6.31378ZM162.327 4.83501Q170.616 4.83501 177.895 1.73986Q185.175-1.35529 190.696-6.86463Q196.217-12.374 199.347-19.6774Q202.477-26.9808 202.477-35.2697Q202.477-43.5586 199.347-50.8331Q196.217-58.1077 190.696-63.617Q185.175-69.1263 177.895-72.2215Q170.616-75.3166 162.327-75.3166Q154.038-75.3166 146.751-72.2215Q139.464-69.1263 133.944-63.617Q128.423-58.1077 125.328-50.8331Q122.233-43.5586 122.233-35.2697Q122.233-26.9808 125.328-19.6774Q128.423-12.374 133.944-6.86463Q139.464-1.35529 146.751 1.73986Q154.038 4.83501 162.327 4.83501ZM162.327-6.31378Q154.365-6.31378 147.786-10.2269Q141.208-14.14 137.295-20.724Q133.382-27.308 133.382-35.2697Q133.382-43.2314 137.295-49.7865Q141.208-56.3416 147.786-60.2545Q154.365-64.1675 162.327-64.1675Q170.299-64.1675 176.866-60.2545Q183.432-56.3416 187.345-49.7865Q191.258-43.2314 191.258-35.2697Q191.258-27.2603 187.345-20.7002Q183.432-14.14 176.866-10.2269Q170.299-6.31378 162.327-6.31378ZM27.5184-43.4351L15.8478-43.4351Q11.2588-43.4351 11.2588-38.8433L11.2588-35.226Q11.2588-30.6004 15.8478-30.6004L27.5184-30.6004ZM198.503-30.6004L210.173-30.6004Q214.762-30.6004 214.762-35.226L214.762-38.8433Q214.762-43.4351 210.173-43.4351L198.503-43.4351ZM100.77-32.8017Q103.331-34.4534 106.602-35.2035Q109.873-35.9536 113.034-35.9536Q116.159-35.9536 119.424-35.2035Q122.69-34.4534 125.252-32.8017L125.252-44.6907Q122.502-46.0615 119.164-46.654Q115.826-47.2465 113.034-47.2465Q110.242-47.2465 106.91-46.654Q103.577-46.0615 100.77-44.6907Z"/>
  </g>
  <g id="Regular-L" transform="matrix(1 0 0 1 1339.81 1556)">
   <path d="M61.9579 3.62785Q69.9948 3.62785 77.0402 0.627185Q84.0856-2.37348 89.4436-7.7175Q94.8016-13.0615 97.8022-20.1471Q100.803-27.2328 100.803-35.2697Q100.803-43.3066 97.8022-50.366Q94.8016-57.4253 89.4436-62.7694Q84.0856-68.1134 77.0402-71.114Q69.9948-74.1147 61.9579-74.1147Q53.9209-74.1147 46.8353-71.114Q39.7497-68.1134 34.3917-62.7694Q29.0338-57.4253 26.0192-50.366Q23.0046-43.3066 23.0046-35.2697Q23.0046-27.2328 26.0192-20.1471Q29.0338-13.0615 34.3917-7.7175Q39.7497-2.37348 46.8353 0.627185Q53.9209 3.62785 61.9579 3.62785ZM61.9579-5.36234Q53.6819-5.36234 46.9101-9.40622Q40.1383-13.4501 36.0807-20.2219Q32.0231-26.9937 32.0231-35.2697Q32.0231-43.4927 36.0807-50.2647Q40.1383-57.0368 46.9101-61.0804Q53.6819-65.1241 61.9579-65.1241Q70.1809-65.1241 76.9529-61.0804Q83.7249-57.0368 87.7686-50.2647Q91.8122-43.4927 91.8122-35.2697Q91.8122-27.0467 87.7686-20.2484Q83.7249-13.4501 76.9529-9.40622Q70.1809-5.36234 61.9579-5.36234ZM158.155 3.62785Q166.192 3.62785 173.252 0.627185Q180.311-2.37348 185.669-7.7175Q191.027-13.0615 194.068-20.1471Q197.109-27.2328 197.109-35.2697Q197.109-43.3066 194.068-50.366Q191.027-57.4253 185.669-62.7694Q180.311-68.1134 173.252-71.114Q166.192-74.1147 158.155-74.1147Q150.118-74.1147 143.047-71.114Q135.975-68.1134 130.617-62.7694Q125.259-57.4253 122.258-50.366Q119.258-43.3066 119.258-35.2697Q119.258-27.2328 122.258-20.1471Q125.259-13.0615 130.617-7.7175Q135.975-2.37348 143.047 0.627185Q150.118 3.62785 158.155 3.62785ZM158.155-5.36234Q149.932-5.36234 143.134-9.40622Q136.336-13.4501 132.292-20.2484Q128.248-27.0467 128.248-35.2697Q128.248-43.4927 132.292-50.2647Q136.336-57.0368 143.134-61.0804Q149.932-65.1241 158.155-65.1241Q166.379-65.1241 173.164-61.0804Q179.95-57.0368 183.994-50.2647Q188.037-43.4927 188.037-35.2697Q188.037-26.9937 183.994-20.2219Q179.95-13.4501 173.164-9.40622Q166.379-5.36234 158.155-5.36234ZM26.6183-42.4443L15.6338-42.4443Q11.2588-42.4443 11.2588-38.0716L11.2588-35.8404Q11.2588-31.4705 15.6338-31.4705L26.6183-31.4705ZM193.442-31.4705L204.427-31.4705Q208.802-31.4705 208.802-35.8404L208.802-38.0716Q208.802-42.4443 204.427-42.4443L193.442-42.4443ZM98.2072-33.8178Q100.705-35.3485 103.829-36.0723Q106.953-36.7961 110.057-36.7961Q113.108-36.7961 116.232-36.0723Q119.355-35.3485 121.853-33.8178L121.853-44.098Q119.172-45.3847 115.955-45.9351Q112.738-46.4855 110.057-46.4855Q107.375-46.4855 104.158-45.9351Q100.941-45.3847 98.2072-44.098Z"/>
  </g>
  <g id="Light-L" transform="matrix(1 0 0 1 1043.95 1556)">
   <path d="M60.9273 3.05516Q68.8498 3.05516 75.7902 0.0926519Q82.7305-2.86985 88.0122-8.12794Q93.2938-13.386 96.2563-20.3666Q99.2189-27.3472 99.2189-35.2697Q99.2189-43.1922 96.2563-50.1561Q93.2938-57.1201 88.0122-62.3782Q82.7305-67.6363 75.7902-70.5988Q68.8498-73.5613 60.9273-73.5613Q53.0048-73.5613 46.0242-70.5988Q39.0436-67.6363 33.762-62.3782Q28.4803-57.1201 25.4943-50.1561Q22.5082-43.1922 22.5082-35.2697Q22.5082-27.3472 25.4943-20.3666Q28.4803-13.386 33.762-8.12794Q39.0436-2.86985 46.0242 0.0926519Q53.0048 3.05516 60.9273 3.05516ZM60.9273-3.75906Q52.2123-3.75906 45.0684-8.01297Q37.9245-12.2669 33.6474-19.4108Q29.3703-26.5547 29.3703-35.2697Q29.3703-43.9506 33.6474-51.0949Q37.9245-58.2392 45.0684-62.4927Q52.2123-66.7463 60.9273-66.7463Q69.6082-66.7463 76.7525-62.4927Q83.8968-58.2392 88.1503-51.0949Q92.4038-43.9506 92.4038-35.2697Q92.4038-26.5888 88.1503-19.4278Q83.8968-12.2669 76.7525-8.01297Q69.6082-3.75906 60.9273-3.75906ZM157.468 3.05516Q165.391 3.05516 172.355 0.0926519Q179.318-2.86985 184.6-8.12794Q189.882-13.386 192.884-20.3666Q195.887-27.3472 195.887-35.2697Q195.887-43.1922 192.884-50.1561Q189.882-57.1201 184.6-62.3782Q179.318-67.6363 172.355-70.5988Q165.391-73.5613 157.468-73.5613Q149.546-73.5613 142.589-70.5988Q135.632-67.6363 130.35-62.3782Q125.068-57.1201 122.106-50.1561Q119.143-43.1922 119.143-35.2697Q119.143-27.3472 122.106-20.3666Q125.068-13.386 130.35-8.12794Q135.632-2.86985 142.589 0.0926519Q149.546 3.05516 157.468 3.05516ZM157.468-3.75906Q148.787-3.75906 141.626-8.01297Q134.465-12.2669 130.212-19.4278Q125.958-26.5888 125.958-35.2697Q125.958-43.9506 130.212-51.0949Q134.465-58.2392 141.626-62.4927Q148.787-66.7463 157.468-66.7463Q166.15-66.7463 173.317-62.4927Q180.485-58.2392 184.738-51.0949Q188.992-43.9506 188.992-35.2697Q188.992-26.5547 184.738-19.4108Q180.485-12.2669 173.317-8.01297Q166.15-3.75906 157.468-3.75906ZM25.3969-41.6237L15.1567-41.6237Q11.2588-41.6237 11.2588-37.7852L11.2588-36.0123Q11.2588-32.2339 15.1567-32.2339L25.3969-32.2339ZM192.965-32.2339L203.205-32.2339Q207.103-32.2339 207.103-36.0123L207.103-37.7852Q207.103-41.6237 203.205-41.6237L192.965-41.6237ZM97.3292-34.9247Q99.9418-36.5128 103.085-37.2366Q106.228-37.9604 109.198-37.9604Q112.135-37.9604 115.277-37.2366Q118.42-36.5128 121.033-34.9247L121.033-43.6972Q118.332-44.9839 115.115-45.5534Q111.898-46.1228 109.198-46.1228Q106.497-46.1228 103.28-45.5534Q100.064-44.9839 97.3292-43.6972Z"/>
  </g>
  <g id="Thin-L" transform="matrix(1 0 0 1 748.365 1556)">
   <path d="M59.5643 2.29773Q67.3353 2.29773 74.1368-0.614311Q80.9383-3.52635 86.119-8.67078Q91.2998-13.8152 94.2118-20.6569Q97.1238-27.4986 97.1238-35.2697Q97.1238-43.0408 94.2118-49.8786Q91.2998-56.7163 86.119-61.8608Q80.9383-67.0052 74.1368-69.9172Q67.3353-72.8293 59.5643-72.8293Q51.7932-72.8293 44.9515-69.9172Q38.1098-67.0052 32.9291-61.8608Q27.7483-56.7163 24.8-49.8786Q21.8517-43.0408 21.8517-35.2697Q21.8517-27.4986 24.8-20.6569Q27.7483-13.8152 32.9291-8.67078Q38.1098-3.52635 44.9515-0.614311Q51.7932 2.29773 59.5643 2.29773ZM59.5643-1.6386Q50.2687-1.6386 42.6326-6.17029Q34.9965-10.702 30.4292-18.3381Q25.8618-25.9741 25.8618-35.2697Q25.8618-44.5562 30.4292-52.1929Q34.9965-59.8296 42.6326-64.3607Q50.2687-68.8917 59.5643-68.8917Q68.8508-68.8917 76.4875-64.3607Q84.1241-59.8296 88.6552-52.1929Q93.1863-44.5562 93.1863-35.2697Q93.1863-25.9832 88.6552-18.3426Q84.1241-10.702 76.4875-6.17029Q68.8508-1.6386 59.5643-1.6386ZM156.559 2.29773Q164.33 2.29773 171.168-0.614311Q178.006-3.52635 183.187-8.67078Q188.367-13.8152 191.32-20.6569Q194.272-27.4986 194.272-35.2697Q194.272-43.0408 191.32-49.8786Q188.367-56.7163 183.187-61.8608Q178.006-67.0052 171.168-69.9172Q164.33-72.8293 156.559-72.8293Q148.788-72.8293 141.983-69.9172Q135.177-67.0052 129.997-61.8608Q124.816-56.7163 121.904-49.8786Q118.992-43.0408 118.992-35.2697Q118.992-27.4986 121.904-20.6569Q124.816-13.8152 129.997-8.67078Q135.177-3.52635 141.983-0.614311Q148.788 2.29773 156.559 2.29773ZM156.559-1.6386Q147.273-1.6386 139.632-6.17029Q131.992-10.702 127.46-18.3426Q122.929-25.9832 122.929-35.2697Q122.929-44.5562 127.46-52.1929Q131.992-59.8296 139.632-64.3607Q147.273-68.8917 156.559-68.8917Q165.847-68.8917 173.519-64.3607Q181.192-59.8296 185.723-52.1929Q190.254-44.5562 190.254-35.2697Q190.254-25.9741 185.723-18.3381Q181.192-10.702 173.519-6.17029Q165.847-1.6386 156.559-1.6386ZM23.7816-40.5385L14.5256-40.5385Q11.2588-40.5385 11.2588-37.4065L11.2588-36.2396Q11.2588-33.2437 14.5256-33.2437L23.7816-33.2437ZM192.334-33.2437L201.59-33.2437Q204.857-33.2437 204.857-36.2396L204.857-37.4065Q204.857-40.5385 201.59-40.5385L192.334-40.5385ZM96.1681-36.3886Q98.932-38.0527 102.1-38.7765Q105.268-39.5002 108.062-39.5002Q110.847-39.5002 114.016-38.7765Q117.184-38.0527 119.948-36.3886L119.948-43.1671Q117.221-44.4538 114.004-45.0485Q110.788-45.6432 108.062-45.6432Q105.336-45.6432 102.119-45.0485Q98.9023-44.4538 96.1681-43.1671Z"/>
  </g>
  <g id="Ultralight-L" transform="matrix(1 0 0 1 452.229 1556)">
   <path d="M58.8661 1.90977Q66.5596 1.90977 73.29-0.976414Q80.0204-3.8626 85.1494-8.94882Q90.2784-14.035 93.1646-20.8056Q96.0508-27.5762 96.0508-35.2697Q96.0508-42.9632 93.1646-49.7364Q90.2784-56.5095 85.1494-61.5958Q80.0204-66.682 73.29-69.5682Q66.5596-72.4544 58.8661-72.4544Q51.1726-72.4544 44.402-69.5682Q37.6315-66.682 32.5024-61.5958Q27.3734-56.5095 24.4444-49.7364Q21.5154-42.9632 21.5154-35.2697Q21.5154-27.5762 24.4444-20.8056Q27.3734-14.035 32.5024-8.94882Q37.6315-3.8626 44.402-0.976414Q51.1726 1.90977 58.8661 1.90977ZM58.8661-0.552506Q49.2732-0.552506 41.385-5.22648Q33.4969-9.90045 28.7808-17.7886Q24.0648-25.6767 24.0648-35.2697Q24.0648-44.8664 28.7808-52.7553Q33.4969-60.6441 41.385-65.3174Q49.2732-69.9906 58.8661-69.9906Q68.4628-69.9906 76.3517-65.3174Q84.2406-60.6441 88.9138-52.7553Q93.5871-44.8664 93.5871-35.2697Q93.5871-25.673 88.9138-17.7867Q84.2406-9.90045 76.3517-5.22648Q68.4628-0.552506 58.8661-0.552506ZM156.094 1.90977Q163.787 1.90977 170.56-0.976414Q177.334-3.8626 182.463-8.94882Q187.592-14.035 190.518-20.8056Q193.444-27.5762 193.444-35.2697Q193.444-42.9632 190.518-49.7364Q187.592-56.5095 182.463-61.5958Q177.334-66.682 170.56-69.5682Q163.787-72.4544 156.094-72.4544Q148.4-72.4544 141.672-69.5682Q134.945-66.682 129.816-61.5958Q124.687-56.5095 121.8-49.7364Q118.914-42.9632 118.914-35.2697Q118.914-27.5762 121.8-20.8056Q124.687-14.035 129.816-8.94882Q134.945-3.8626 141.672-0.976414Q148.4 1.90977 156.094 1.90977ZM156.094-0.552506Q146.497-0.552506 138.611-5.22648Q130.724-9.90045 126.051-17.7867Q121.378-25.673 121.378-35.2697Q121.378-44.8664 126.051-52.7553Q130.724-60.6441 138.611-65.3174Q146.497-69.9906 156.094-69.9906Q165.692-69.9906 173.623-65.3174Q181.554-60.6441 186.227-52.7553Q190.9-44.8664 190.9-35.2697Q190.9-25.6767 186.227-17.7886Q181.554-9.90045 173.623-5.22648Q165.692-0.552506 156.094-0.552506ZM22.9542-39.9826L14.2024-39.9826Q11.2588-39.9826 11.2588-37.2125L11.2588-36.3561Q11.2588-33.7609 14.2024-33.7609L22.9542-33.7609ZM192.011-33.7609L200.763-33.7609Q203.706-33.7609 203.706-36.3561L203.706-37.2125Q203.706-39.9826 200.763-39.9826L192.011-39.9826ZM95.5733-37.1385Q98.4148-38.8414 101.596-39.5652Q104.777-40.289 107.481-40.289Q110.188-40.289 113.369-39.5652Q116.55-38.8414 119.392-37.1385L119.392-42.8955Q116.652-44.1823 113.435-44.7899Q110.219-45.3975 107.481-45.3975Q104.741-45.3975 101.524-44.7899Q98.3076-44.1823 95.5733-42.8955Z"/>
  </g>
  <g id="Black-M" transform="matrix(1 0 0 1 2832.26 1126)">
   <path d="M57.3385 1.236Q64.8943 1.236 71.4998-1.58891Q78.1054-4.41383 83.114-9.42262Q88.1227-14.4314 90.9476-21.0681Q93.7725-27.7048 93.7725-35.2606Q93.7725-42.8164 90.9476-49.4219Q88.1227-56.0273 83.114-61.0361Q78.1054-66.0449 71.4998-68.8698Q64.8943-71.6947 57.3385-71.6947Q49.7827-71.6947 43.1459-68.8698Q36.5092-66.0449 31.5006-61.0361Q26.4919-56.0273 23.6672-49.4219Q20.8424-42.8164 20.8424-35.2606Q20.8424-27.7048 23.6672-21.0681Q26.4919-14.4314 31.5006-9.42262Q36.5092-4.41383 43.1459-1.58891Q49.7827 1.236 57.3385 1.236ZM57.3385-16.7116Q52.2254-16.7116 48.0018-19.206Q43.7782-21.7004 41.284-25.924Q38.7897-30.1476 38.7897-35.2606Q38.7897-40.3682 41.284-44.5633Q43.7782-48.7583 48.0018-51.2527Q52.2254-53.7471 57.3385-53.7471Q62.4461-53.7471 66.6411-51.2527Q70.8361-48.7583 73.3305-44.5633Q75.8249-40.3682 75.8249-35.2606Q75.8249-30.153 73.3305-25.9267Q70.8361-21.7004 66.6411-19.206Q62.4461-16.7116 57.3385-16.7116ZM144.951 1.236Q152.506 1.236 159.14-1.58891Q165.774-4.41383 170.783-9.42262Q175.792-14.4314 178.619-21.0681Q181.447-27.7048 181.447-35.2606Q181.447-42.8164 178.619-49.4219Q175.792-56.0273 170.783-61.0361Q165.774-66.0449 159.14-68.8698Q152.506-71.6947 144.951-71.6947Q137.395-71.6947 130.787-68.8698Q124.178-66.0449 119.17-61.0361Q114.161-56.0273 111.336-49.4219Q108.511-42.8164 108.511-35.2606Q108.511-27.7048 111.336-21.0681Q114.161-14.4314 119.17-9.42262Q124.178-4.41383 130.787-1.58891Q137.395 1.236 144.951 1.236ZM144.951-16.7116Q139.843-16.7116 135.645-19.206Q131.448-21.7004 128.953-25.9267Q126.459-30.153 126.459-35.2606Q126.459-40.3682 128.953-44.5633Q131.448-48.7583 135.645-51.2527Q139.843-53.7471 144.951-53.7471Q150.115-53.7471 154.31-51.2527Q158.505-48.7583 161-44.5633Q163.494-40.3682 163.494-35.2606Q163.494-30.1476 161-25.924Q158.505-21.7004 154.31-19.206Q150.115-16.7116 144.951-16.7116ZM25.0949-45.9205L13.1117-45.9205Q8.72266-45.9205 8.72266-41.5254L8.72266-32.4241Q8.72266-27.8517 13.1117-27.8517L25.0949-27.8517ZM177.189-27.8517L189.172-27.8517Q193.561-27.8517 193.561-32.4241L193.561-41.5254Q193.561-45.9205 189.172-45.9205L177.189-45.9205ZM89.7022-28.9941Q92.0212-30.857 95.2476-31.5605Q98.4739-32.2639 101.145-32.2639Q103.867-32.2639 107.065-31.5605Q110.262-30.857 112.581-28.9941L112.581-45.1827Q110.126-46.6363 106.977-47.2979Q103.828-47.9596 101.145-47.9596Q98.4607-47.9596 95.3405-47.2979Q92.2202-46.6363 89.7022-45.1827Z"/>
  </g>
  <g id="Heavy-M" transform="matrix(1 0 0 1 2539.18 1126)">
   <path d="M55.2735-0.188197Q62.531-0.188197 68.8799-2.9002Q75.2289-5.61221 80.0454-10.4276Q84.8619-15.243 87.5739-21.6231Q90.2859-28.0032 90.2859-35.2606Q90.2859-42.5181 87.5739-48.8682Q84.8619-55.2183 80.0454-60.0337Q75.2289-64.8491 68.8799-67.5611Q62.531-70.2731 55.2735-70.2731Q48.016-70.2731 41.6359-67.5611Q35.2558-64.8491 30.4393-60.0337Q25.6228-55.2183 22.9096-48.8682Q20.1965-42.5181 20.1965-35.2606Q20.1965-28.0032 22.9096-21.6231Q25.6228-15.243 30.4393-10.4276Q35.2558-5.61221 41.6359-2.9002Q48.016-0.188197 55.2735-0.188197ZM55.2735-15.8366Q49.913-15.8366 45.498-18.4534Q41.0831-21.0703 38.4652-25.4852Q35.8472-29.9001 35.8472-35.2606Q35.8472-40.6048 38.4652-44.9979Q41.0831-49.391 45.498-52.0078Q49.913-54.6247 55.2735-54.6247Q60.6176-54.6247 65.0107-52.0078Q69.4039-49.391 72.0207-44.9979Q74.6375-40.6048 74.6375-35.2606Q74.6375-29.9165 72.0207-25.4934Q69.4039-21.0703 65.0107-18.4534Q60.6176-15.8366 55.2735-15.8366ZM139.752-0.188197Q147.009-0.188197 153.381-2.9002Q159.753-5.61221 164.57-10.4276Q169.386-15.243 172.107-21.6231Q174.829-28.0032 174.829-35.2606Q174.829-42.5181 172.107-48.8682Q169.386-55.2183 164.57-60.0337Q159.753-64.8491 153.381-67.5611Q147.009-70.2731 139.752-70.2731Q132.494-70.2731 126.137-67.5611Q119.78-64.8491 114.963-60.0337Q110.147-55.2183 107.435-48.8682Q104.723-42.5181 104.723-35.2606Q104.723-28.0032 107.435-21.6231Q110.147-15.243 114.963-10.4276Q119.78-5.61221 126.137-2.9002Q132.494-0.188197 139.752-0.188197ZM139.752-15.8366Q134.408-15.8366 130.006-18.4534Q125.605-21.0703 122.988-25.4934Q120.371-29.9165 120.371-35.2606Q120.371-40.6048 122.988-44.9979Q125.605-49.391 130.006-52.0078Q134.408-54.6247 139.752-54.6247Q145.139-54.6247 149.534-52.0078Q153.928-49.391 156.545-44.9979Q159.162-40.6048 159.162-35.2606Q159.162-29.9001 156.545-25.4852Q153.928-21.0703 149.534-18.4534Q145.139-15.8366 139.752-15.8366ZM24.2036-44.827L12.94-44.827Q8.72266-44.827 8.72266-40.5977L8.72266-33.1748Q8.72266-28.8029 12.94-28.8029L24.2036-28.8029ZM170.805-28.8029L182.069-28.8029Q186.286-28.8029 186.286-33.1748L186.286-40.5977Q186.286-44.827 182.069-44.827L170.805-44.827ZM86.6067-30.0587Q88.8197-31.7541 91.8533-32.4239Q94.8868-33.0937 97.5126-33.0937Q100.166-33.0937 103.177-32.4239Q106.189-31.7541 108.402-30.0587L108.402-44.5091Q106.038-45.855 103.045-46.4585Q100.051-47.0621 97.5126-47.0621Q94.9744-47.0621 92.0024-46.4585Q89.0304-45.855 86.6067-44.5091Z"/>
  </g>
  <g id="Bold-M" transform="matrix(1 0 0 1 2246.54 1126)">
   <path d="M52.9636-1.78137Q59.8874-1.78137 65.9492-4.36707Q72.0111-6.95276 76.6127-11.5518Q81.2143-16.1508 83.8-22.2438Q86.3857-28.3368 86.3857-35.2606Q86.3857-42.1844 83.8-48.2489Q81.2143-54.3134 76.6127-58.9124Q72.0111-63.5114 65.9492-66.0971Q59.8874-68.6828 52.9636-68.6828Q46.0398-68.6828 39.9467-66.0971Q33.8537-63.5114 29.2521-58.9124Q24.6505-54.3134 22.0622-48.2489Q19.4739-42.1844 19.4739-35.2606Q19.4739-28.3368 22.0622-22.2438Q24.6505-16.1508 29.2521-11.5518Q33.8537-6.95276 39.9467-4.36707Q46.0398-1.78137 52.9636-1.78137ZM52.9636-14.8577Q47.3262-14.8577 42.6972-17.6115Q38.0683-20.3654 35.3119-24.9943Q32.5555-29.6233 32.5555-35.2606Q32.5555-40.8693 35.3119-45.4841Q38.0683-50.0988 42.6972-52.8526Q47.3262-55.6064 52.9636-55.6064Q58.5722-55.6064 63.187-52.8526Q67.8017-50.0988 70.5555-45.4841Q73.3093-40.8693 73.3093-35.2606Q73.3093-29.652 70.5555-25.0087Q67.8017-20.3654 63.187-17.6115Q58.5722-14.8577 52.9636-14.8577ZM133.936-1.78137Q140.86-1.78137 146.938-4.36707Q153.017-6.95276 157.619-11.5518Q162.22-16.1508 164.823-22.2438Q167.426-28.3368 167.426-35.2606Q167.426-42.1844 164.823-48.2489Q162.22-54.3134 157.619-58.9124Q153.017-63.5114 146.938-66.0971Q140.86-68.6828 133.936-68.6828Q127.012-68.6828 120.936-66.0971Q114.86-63.5114 110.258-58.9124Q105.657-54.3134 103.071-48.2489Q100.485-42.1844 100.485-35.2606Q100.485-28.3368 103.071-22.2438Q105.657-16.1508 110.258-11.5518Q114.86-6.95276 120.936-4.36707Q127.012-1.78137 133.936-1.78137ZM133.936-14.8577Q128.327-14.8577 123.698-17.6115Q119.069-20.3654 116.315-25.0087Q113.562-29.652 113.562-35.2606Q113.562-40.8693 116.315-45.4841Q119.069-50.0988 123.698-52.8526Q128.327-55.6064 133.936-55.6064Q139.573-55.6064 144.19-52.8526Q148.808-50.0988 151.562-45.4841Q154.315-40.8693 154.315-35.2606Q154.315-29.6233 151.562-24.9943Q148.808-20.3654 144.19-17.6115Q139.573-14.8577 133.936-14.8577ZM23.2066-43.6036L12.7479-43.6036Q8.72266-43.6036 8.72266-39.56L8.72266-34.0145Q8.72266-29.8669 12.7479-29.8669L23.2066-29.8669ZM163.664-29.8669L174.123-29.8669Q178.148-29.8669 178.148-34.0145L178.148-39.56Q178.148-43.6036 174.123-43.6036L163.664-43.6036ZM83.1439-31.2496Q85.2384-32.7576 88.0562-33.3897Q90.8741-34.0218 93.4498-34.0218Q96.0254-34.0218 98.8289-33.3897Q101.632-32.7576 103.727-31.2496L103.727-43.7557Q101.466-44.9809 98.6454-45.5195Q95.8249-46.0581 93.4498-46.0581Q91.0745-46.0581 88.2683-45.5195Q85.4621-44.9809 83.1439-43.7557Z"/>
  </g>
  <g id="Semibold-M" transform="matrix(1 0 0 1 1952.64 1126)">
   <path d="M51.3711-2.87969Q58.0648-2.87969 63.9288-5.37831Q69.7928-7.87694 74.2462-12.3268Q78.6997-16.7766 81.1983-22.6718Q83.6969-28.5669 83.6969-35.2606Q83.6969-41.9544 81.1983-47.822Q78.6997-53.6895 74.2462-58.1394Q69.7928-62.5892 63.9288-65.0878Q58.0648-67.5865 51.3711-67.5865Q44.6773-67.5865 38.7822-65.0878Q32.8871-62.5892 28.4336-58.1394Q23.9802-53.6895 21.478-47.822Q18.9758-41.9544 18.9758-35.2606Q18.9758-28.5669 21.478-22.6718Q23.9802-16.7766 28.4336-12.3268Q32.8871-7.87694 38.7822-5.37831Q44.6773-2.87969 51.3711-2.87969ZM51.3711-14.1829Q45.5429-14.1829 40.7664-17.0312Q35.9899-19.8794 33.1381-24.6559Q30.2863-29.4325 30.2863-35.2606Q30.2863-41.0517 33.1381-45.8192Q35.9899-50.5867 40.7664-53.4349Q45.5429-56.2831 51.3711-56.2831Q57.1622-56.2831 61.9297-53.4349Q66.6972-50.5867 69.5454-45.8192Q72.3936-41.0517 72.3936-35.2606Q72.3936-29.4696 69.5454-24.6745Q66.6972-19.8794 61.9297-17.0312Q57.1622-14.1829 51.3711-14.1829ZM129.926-2.87969Q136.62-2.87969 142.497-5.37831Q148.374-7.87694 152.827-12.3268Q157.28-16.7766 159.801-22.6718Q162.322-28.5669 162.322-35.2606Q162.322-41.9544 159.801-47.822Q157.28-53.6895 152.827-58.1394Q148.374-62.5892 142.497-65.0878Q136.62-67.5865 129.926-67.5865Q123.233-67.5865 117.35-65.0878Q111.468-62.5892 107.014-58.1394Q102.561-53.6895 100.062-47.822Q97.5637-41.9544 97.5637-35.2606Q97.5637-28.5669 100.062-22.6718Q102.561-16.7766 107.014-12.3268Q111.468-7.87694 117.35-5.37831Q123.233-2.87969 129.926-2.87969ZM129.926-14.1829Q124.135-14.1829 119.349-17.0312Q114.563-19.8794 111.715-24.6745Q108.867-29.4696 108.867-35.2606Q108.867-41.0517 111.715-45.8192Q114.563-50.5867 119.349-53.4349Q124.135-56.2831 129.926-56.2831Q135.736-56.2831 140.507-53.4349Q145.278-50.5867 148.126-45.8192Q150.974-41.0517 150.974-35.2606Q150.974-29.4325 148.126-24.6559Q145.278-19.8794 140.507-17.0312Q135.736-14.1829 129.926-14.1829ZM22.5193-42.7603L12.6155-42.7603Q8.72266-42.7603 8.72266-38.8446L8.72266-34.5934Q8.72266-30.6004 12.6155-30.6004L22.5193-30.6004ZM158.741-30.6004L168.645-30.6004Q172.538-30.6004 172.538-34.5934L172.538-38.8446Q172.538-42.7603 168.645-42.7603L158.741-42.7603ZM80.7566-32.0705Q82.7695-33.4494 85.4386-34.0556Q88.1077-34.6617 90.6489-34.6617Q93.171-34.6617 95.8311-34.0556Q98.4911-33.4494 100.504-32.0705L100.504-43.2363Q98.3137-44.3784 95.6127-44.8722Q92.9117-45.366 90.6489-45.366Q88.3859-45.366 85.694-44.8722Q83.0021-44.3784 80.7566-43.2363Z"/>
  </g>
  <g id="Medium-M" transform="matrix(1 0 0 1 1658.05 1126)">
   <path d="M50.1636-3.71248Q56.6829-3.71248 62.3969-6.14508Q68.1108-8.57768 72.4519-12.9144Q76.7929-17.2512 79.2255-22.9962Q81.6581-28.7413 81.6581-35.2606Q81.6581-41.78 79.2255-47.4982Q76.7929-53.2165 72.4519-57.5532Q68.1108-61.89 62.3969-64.3226Q56.6829-66.7552 50.1636-66.7552Q43.6443-66.7552 37.8992-64.3226Q32.1541-61.89 27.8131-57.5532Q23.472-53.2165 21.035-47.4982Q18.5981-41.78 18.5981-35.2606Q18.5981-28.7413 21.035-22.9962Q23.472-17.2512 27.8131-12.9144Q32.1541-8.57768 37.8992-6.14508Q43.6443-3.71248 50.1636-3.71248ZM50.1636-13.6712Q44.1907-13.6712 39.3023-16.5911Q34.4139-19.511 31.4898-24.3994Q28.5656-29.2878 28.5656-35.2606Q28.5656-41.19 31.4898-46.0734Q34.4139-50.9567 39.3023-53.8765Q44.1907-56.7963 50.1636-56.7963Q56.093-56.7963 60.9763-53.8765Q65.8597-50.9567 68.7795-46.0734Q71.6993-41.19 71.6993-35.2606Q71.6993-29.3313 68.7795-24.4211Q65.8597-19.511 60.9763-16.5911Q56.093-13.6712 50.1636-13.6712ZM126.886-3.71248Q133.406-3.71248 139.129-6.14508Q144.853-8.57768 149.194-12.9144Q153.535-17.2512 155.993-22.9962Q158.452-28.7413 158.452-35.2606Q158.452-41.78 155.993-47.4982Q153.535-53.2165 149.194-57.5532Q144.853-61.89 139.129-64.3226Q133.406-66.7552 126.886-66.7552Q120.367-66.7552 114.631-64.3226Q108.896-61.89 104.555-57.5532Q100.214-53.2165 97.7811-47.4982Q95.3485-41.78 95.3485-35.2606Q95.3485-28.7413 97.7811-22.9962Q100.214-17.2512 104.555-12.9144Q108.896-8.57768 114.631-6.14508Q120.367-3.71248 126.886-3.71248ZM126.886-13.6712Q120.957-13.6712 116.052-16.5911Q111.147-19.511 108.227-24.4211Q105.307-29.3313 105.307-35.2606Q105.307-41.19 108.227-46.0734Q111.147-50.9567 116.052-53.8765Q120.957-56.7963 126.886-56.7963Q132.826-56.7963 137.714-53.8765Q142.601-50.9567 145.521-46.0734Q148.441-41.19 148.441-35.2606Q148.441-29.2878 145.521-24.3994Q142.601-19.511 137.714-16.5911Q132.826-13.6712 126.886-13.6712ZM21.9981-42.1208L12.515-42.1208Q8.72266-42.1208 8.72266-38.3021L8.72266-35.0323Q8.72266-31.1567 12.515-31.1567L21.9981-31.1567ZM155.009-31.1567L164.492-31.1567Q168.284-31.1567 168.284-35.0323L168.284-38.3021Q168.284-42.1208 164.492-42.1208L155.009-42.1208ZM78.9465-32.693Q80.8975-33.974 83.4538-34.5604Q86.0102-35.1469 88.5251-35.1469Q91.0068-35.1469 93.558-34.5604Q96.1092-33.974 98.0601-32.693L98.0601-42.8424Q95.9235-43.9215 93.3131-44.3813Q90.7027-44.8412 88.5251-44.8412Q86.3473-44.8412 83.7421-44.3813Q81.1368-43.9215 78.9465-42.8424Z"/>
  </g>
  <g id="Regular-M" transform="matrix(1 0 0 1 1364.12 1126)">
   <path d="M48.5887-4.79873Q54.8804-4.79873 60.3987-7.14522Q65.9169-9.4917 70.1114-13.6809Q74.3059-17.8701 76.6524-23.4195Q78.9989-28.9689 78.9989-35.2606Q78.9989-41.5524 76.6524-47.076Q74.3059-52.5995 70.1114-56.7887Q65.9169-60.9779 60.3987-63.3244Q54.8804-65.6709 48.5887-65.6709Q42.2969-65.6709 36.7475-63.3244Q31.1981-60.9779 27.0036-56.7887Q22.8091-52.5995 20.4573-47.076Q18.1055-41.5524 18.1055-35.2606Q18.1055-28.9689 20.4573-23.4195Q22.8091-17.8701 27.0036-13.6809Q31.1981-9.4917 36.7475-7.14522Q42.2969-4.79873 48.5887-4.79873ZM48.5887-13.0038Q42.427-13.0038 37.3927-16.0171Q32.3584-19.0303 29.3398-24.0647Q26.3213-29.099 26.3213-35.2606Q26.3213-41.3704 29.3398-46.4049Q32.3584-51.4393 37.3927-54.4525Q42.427-57.4657 48.5887-57.4657Q54.6984-57.4657 59.7329-54.4525Q64.7673-51.4393 67.7805-46.4049Q70.7937-41.3704 70.7937-35.2606Q70.7937-29.1509 67.7805-24.0906Q64.7673-19.0303 59.7329-16.0171Q54.6984-13.0038 48.5887-13.0038ZM122.921-4.79873Q129.213-4.79873 134.736-7.14522Q140.26-9.4917 144.454-13.6809Q148.649-17.8701 151.027-23.4195Q153.404-28.9689 153.404-35.2606Q153.404-41.5524 151.027-47.076Q148.649-52.5995 144.454-56.7887Q140.26-60.9779 134.736-63.3244Q129.213-65.6709 122.921-65.6709Q116.629-65.6709 111.085-63.3244Q105.541-60.9779 101.347-56.7887Q97.1521-52.5995 94.8057-47.076Q92.4592-41.5524 92.4592-35.2606Q92.4592-28.9689 94.8057-23.4195Q97.1521-17.8701 101.347-13.6809Q105.541-9.4917 111.085-7.14522Q116.629-4.79873 122.921-4.79873ZM122.921-13.0038Q116.811-13.0038 111.751-16.0171Q106.691-19.0303 103.678-24.0906Q100.664-29.1509 100.664-35.2606Q100.664-41.3704 103.678-46.4049Q106.691-51.4393 111.751-54.4525Q116.811-57.4657 122.921-57.4657Q129.031-57.4657 134.071-54.4525Q139.11-51.4393 142.124-46.4049Q145.137-41.3704 145.137-35.2606Q145.137-29.099 142.124-24.0647Q139.11-19.0303 134.071-16.0171Q129.031-13.0038 122.921-13.0038ZM21.3183-41.2867L12.3841-41.2867Q8.72266-41.2867 8.72266-37.5945L8.72266-35.6049Q8.72266-31.8821 12.3841-31.8821L21.3183-31.8821ZM150.14-31.8821L159.074-31.8821Q162.735-31.8821 162.735-35.6049L162.735-37.5945Q162.735-41.2867 159.074-41.2867L150.14-41.2867ZM76.5855-33.505Q78.4557-34.6582 80.8649-35.219Q83.2742-35.7797 85.755-35.7797Q88.1839-35.7797 90.5931-35.219Q93.0024-34.6582 94.8725-33.505L94.8725-42.3287Q92.8058-43.3256 90.3137-43.7411Q87.8215-44.1566 85.755-44.1566Q83.6883-44.1566 81.1961-43.7411Q78.7039-43.3256 76.5855-42.3287Z"/>
  </g>
  <g id="Light-M" transform="matrix(1 0 0 1 1068.17 1126)">
   <path d="M47.6647-5.31218Q53.8538-5.31218 59.2779-7.62445Q64.702-9.93673 68.8281-14.0489Q72.9542-18.1611 75.2664-23.6163Q77.5787-29.0715 77.5787-35.2606Q77.5787-41.4498 75.2664-46.8878Q72.9542-52.3258 68.8281-56.438Q64.702-60.5501 59.2779-62.8624Q53.8538-65.1747 47.6647-65.1747Q41.4755-65.1747 36.0203-62.8624Q30.5651-60.5501 26.439-56.438Q22.3129-52.3258 19.9867-46.8878Q17.6604-41.4498 17.6604-35.2606Q17.6604-29.0715 19.9867-23.6163Q22.3129-18.1611 26.439-14.0489Q30.5651-9.93673 36.0203-7.62445Q41.4755-5.31218 47.6647-5.31218ZM47.6647-11.5664Q41.1095-11.5664 35.7415-14.7679Q30.3736-17.9695 27.1583-23.3375Q23.943-28.7055 23.943-35.2606Q23.943-41.781 27.1583-47.1491Q30.3736-52.5173 35.7415-55.7187Q41.1095-58.92 47.6647-58.92Q54.185-58.92 59.5532-55.7187Q64.9214-52.5173 68.1227-47.1491Q71.3241-41.781 71.3241-35.2606Q71.3241-28.7403 68.1227-23.3549Q64.9214-17.9695 59.5532-14.7679Q54.185-11.5664 47.6647-11.5664ZM122.305-5.31218Q128.494-5.31218 133.932-7.62445Q139.37-9.93673 143.496-14.0489Q147.622-18.1611 149.966-23.6163Q152.309-29.0715 152.309-35.2606Q152.309-41.4498 149.966-46.8878Q147.622-52.3258 143.496-56.438Q139.37-60.5501 133.932-62.8624Q128.494-65.1747 122.305-65.1747Q116.116-65.1747 110.675-62.8624Q105.233-60.5501 101.107-56.438Q96.9811-52.3258 94.6688-46.8878Q92.3565-41.4498 92.3565-35.2606Q92.3565-29.0715 94.6688-23.6163Q96.9811-18.1611 101.107-14.0489Q105.233-9.93673 110.675-7.62445Q116.116-5.31218 122.305-5.31218ZM122.305-11.5664Q115.785-11.5664 110.399-14.7679Q105.014-17.9695 101.813-23.3549Q98.6112-28.7403 98.6112-35.2606Q98.6112-41.781 101.813-47.1491Q105.014-52.5173 110.399-55.7187Q115.785-58.92 122.305-58.92Q128.826-58.92 134.208-55.7187Q139.59-52.5173 142.791-47.1491Q145.992-41.781 145.992-35.2606Q145.992-28.7055 142.791-23.3375Q139.59-17.9695 134.208-14.7679Q128.826-11.5664 122.305-11.5664ZM20.2233-40.551L11.9563-40.551Q8.72266-40.551 8.72266-37.3378L8.72266-35.759Q8.72266-32.5666 11.9563-32.5666L20.2233-32.5666ZM149.712-32.5666L157.979-32.5666Q161.213-32.5666 161.213-35.759L161.213-37.3378Q161.213-40.551 157.979-40.551L149.712-40.551ZM75.7984-34.4974Q77.7712-35.7021 80.1975-36.2628Q82.6239-36.8236 84.9851-36.8236Q87.3113-36.8236 89.7377-36.2628Q92.1641-35.7021 94.1369-34.4974L94.1369-41.9693Q92.0529-42.9662 89.5607-43.3989Q87.0685-43.8315 84.9851-43.8315Q82.9011-43.8315 80.4089-43.3989Q77.9168-42.9662 75.7984-41.9693Z"/>
  </g>
  <g id="Thin-M" transform="matrix(1 0 0 1 772.462 1126)">
   <path d="M46.4426-5.99126Q52.4961-5.99126 57.7956-8.25828Q63.0951-10.5253 67.1308-14.5356Q71.1664-18.5458 73.4334-23.8765Q75.7004-29.2072 75.7004-35.2606Q75.7004-41.3141 73.4334-46.639Q71.1664-51.9638 67.1308-55.9741Q63.0951-59.9844 57.7956-62.2514Q52.4961-64.5184 46.4426-64.5184Q40.3892-64.5184 35.0585-62.2514Q29.7278-59.9844 25.6922-55.9741Q21.6566-51.9638 19.3642-46.639Q17.0719-41.3141 17.0719-35.2606Q17.0719-29.2072 19.3642-23.8765Q21.6566-18.5458 25.6922-14.5356Q29.7278-10.5253 35.0585-8.25828Q40.3892-5.99126 46.4426-5.99126ZM46.4426-9.66526Q39.3669-9.66526 33.5577-13.1159Q27.7485-16.5665 24.273-22.3757Q20.7974-28.1849 20.7974-35.2606Q20.7974-42.3239 24.273-48.1335Q27.7485-53.9432 33.5577-57.3934Q39.3669-60.8436 46.4426-60.8436Q53.5059-60.8436 59.3155-57.3934Q65.1252-53.9432 68.5754-48.1335Q72.0256-42.3239 72.0256-35.2606Q72.0256-28.1974 68.5754-22.3819Q65.1252-16.5665 59.3155-13.1159Q53.5059-9.66526 46.4426-9.66526ZM121.49-5.99126Q127.544-5.99126 132.869-8.25828Q138.193-10.5253 142.229-14.5356Q146.265-18.5458 148.563-23.8765Q150.861-29.2072 150.861-35.2606Q150.861-41.3141 148.563-46.639Q146.265-51.9638 142.229-55.9741Q138.193-59.9844 132.869-62.2514Q127.544-64.5184 121.49-64.5184Q115.437-64.5184 110.131-62.2514Q104.826-59.9844 100.79-55.9741Q96.7549-51.9638 94.4878-46.639Q92.2208-41.3141 92.2208-35.2606Q92.2208-29.2072 94.4878-23.8765Q96.7549-18.5458 100.79-14.5356Q104.826-10.5253 110.131-8.25828Q115.437-5.99126 121.49-5.99126ZM121.49-9.66526Q114.427-9.66526 108.611-13.1159Q102.796-16.5665 99.3459-22.3819Q95.8957-28.1974 95.8957-35.2606Q95.8957-42.3239 99.3459-48.1335Q102.796-53.9432 108.611-57.3934Q114.427-60.8436 121.49-60.8436Q128.554-60.8436 134.389-57.3934Q140.223-53.9432 143.674-48.1335Q147.124-42.3239 147.124-35.2606Q147.124-28.1849 143.674-22.3757Q140.223-16.5665 134.389-13.1159Q128.554-9.66526 121.49-9.66526ZM18.775-39.578L11.3905-39.578Q8.72266-39.578 8.72266-36.9983L8.72266-35.9628Q8.72266-33.4719 11.3905-33.4719L18.775-33.4719ZM149.146-33.4719L156.531-33.4719Q159.199-33.4719 159.199-35.9628L159.199-36.9983Q159.199-39.578 156.531-39.578L149.146-39.578ZM74.7574-35.8099Q76.8658-37.0827 79.3149-37.6434Q81.7639-38.2041 83.9668-38.2041Q86.1574-38.2041 88.6064-37.6434Q91.0554-37.0827 93.1639-35.8099L93.1639-41.4941Q91.0571-42.4909 88.5649-42.9462Q86.0728-43.4015 83.9668-43.4015Q81.8601-43.4015 79.3679-42.9462Q76.8757-42.4909 74.7574-41.4941Z"/>
  </g>
  <g id="Ultralight-M" transform="matrix(1 0 0 1 476.266 1126)">
   <path d="M45.8167-6.33908Q51.8006-6.33908 57.0364-8.58293Q62.2721-10.8268 66.2614-14.7848Q70.2507-18.7429 72.4945-24.0098Q74.7384-29.2767 74.7384-35.2606Q74.7384-41.2445 72.4945-46.5115Q70.2507-51.7784 66.2614-55.7365Q62.2721-59.6946 57.0364-61.9384Q51.8006-64.1823 45.8167-64.1823Q39.8328-64.1823 34.5659-61.9384Q29.299-59.6946 25.3097-55.7365Q21.3205-51.7784 19.0454-46.5115Q16.7704-41.2445 16.7704-35.2606Q16.7704-29.2767 19.0454-24.0098Q21.3205-18.7429 25.3097-14.7848Q29.299-10.8268 34.5659-8.58293Q39.8328-6.33908 45.8167-6.33908ZM45.8167-8.69152Q38.4744-8.69152 32.4392-12.2697Q26.404-15.8479 22.7951-21.8831Q19.1863-27.9183 19.1863-35.2606Q19.1863-42.602 22.7951-48.6377Q26.404-54.6735 32.4392-58.2511Q38.4744-61.8288 45.8167-61.8288Q53.1581-61.8288 59.1938-58.2511Q65.2296-54.6735 68.8072-48.6377Q72.3849-42.602 72.3849-35.2606Q72.3849-27.9193 68.8072-21.8836Q65.2296-15.8479 59.1938-12.2697Q53.1581-8.69152 45.8167-8.69152ZM121.073-6.33908Q127.057-6.33908 132.324-8.58293Q137.591-10.8268 141.58-14.7848Q145.569-18.7429 147.844-24.0098Q150.119-29.2767 150.119-35.2606Q150.119-41.2445 147.844-46.5115Q145.569-51.7784 141.58-55.7365Q137.591-59.6946 132.324-61.9384Q127.057-64.1823 121.073-64.1823Q115.089-64.1823 109.853-61.9384Q104.618-59.6946 100.628-55.7365Q96.639-51.7784 94.3951-46.5115Q92.1513-41.2445 92.1513-35.2606Q92.1513-29.2767 94.3951-24.0098Q96.639-18.7429 100.628-14.7848Q104.618-10.8268 109.853-8.58293Q115.089-6.33908 121.073-6.33908ZM121.073-8.69152Q113.731-8.69152 107.696-12.2697Q101.66-15.8479 98.0824-21.8836Q94.5048-27.9193 94.5048-35.2606Q94.5048-42.602 98.0824-48.6377Q101.66-54.6735 107.696-58.2511Q113.731-61.8288 121.073-61.8288Q128.415-61.8288 134.482-58.2511Q140.548-54.6735 144.126-48.6377Q147.703-42.602 147.703-35.2606Q147.703-27.9183 144.126-21.8831Q140.548-15.8479 134.482-12.2697Q128.415-8.69152 121.073-8.69152ZM18.0332-39.0797L11.1007-39.0797Q8.72266-39.0797 8.72266-36.8244L8.72266-36.0672Q8.72266-33.9356 11.1007-33.9356L18.0332-33.9356ZM148.856-33.9356L155.789-33.9356Q158.167-33.9356 158.167-36.0672L158.167-36.8244Q158.167-39.0797 155.789-39.0797L148.856-39.0797ZM74.2241-36.4822Q76.4022-37.7898 78.8627-38.3505Q81.3233-38.9113 83.4453-38.9113Q85.5663-38.9113 88.0269-38.3505Q90.4875-37.7898 92.6655-36.4822L92.6655-41.2506Q90.5471-42.2475 88.0549-42.7144Q85.5627-43.1812 83.4453-43.1812Q81.3269-43.1812 78.8347-42.7144Q76.3425-42.2475 74.2241-41.2506Z"/>
  </g>
  <g id="Black-S" transform="matrix(1 0 0 1 2853.08 696)">
   <path d="M45.5078-6.25Q51.5137-6.25 56.7627-8.49609Q62.0117-10.7422 65.9912-14.7217Q69.9707-18.7012 72.2168-23.9746Q74.4629-29.248 74.4629-35.2539Q74.4629-41.2598 72.2168-46.5088Q69.9707-51.7578 65.9912-55.7373Q62.0117-59.7168 56.7627-61.9629Q51.5137-64.209 45.5078-64.209Q39.502-64.209 34.2285-61.9629Q28.9551-59.7168 24.9756-55.7373Q20.9961-51.7578 18.75-46.5088Q16.5039-41.2598 16.5039-35.2539Q16.5039-29.248 18.75-23.9746Q20.9961-18.7012 24.9756-14.7217Q28.9551-10.7422 34.2285-8.49609Q39.502-6.25 45.5078-6.25ZM45.5078-20.8984Q41.5527-20.8984 38.2812-22.8271Q35.0098-24.7559 33.0811-28.0273Q31.1523-31.2988 31.1523-35.2539Q31.1523-39.209 33.0811-42.4561Q35.0098-45.7031 38.2812-47.6318Q41.5527-49.5605 45.5078-49.5605Q49.4629-49.5605 52.71-47.6318Q55.957-45.7031 57.8857-42.4561Q59.8145-39.209 59.8145-35.2539Q59.8145-31.2988 57.8857-28.0273Q55.957-24.7559 52.71-22.8271Q49.4629-20.8984 45.5078-20.8984ZM115.137-6.25Q121.143-6.25 126.416-8.49609Q131.689-10.7422 135.669-14.7217Q139.648-18.7012 141.895-23.9746Q144.141-29.248 144.141-35.2539Q144.141-41.2598 141.895-46.5088Q139.648-51.7578 135.669-55.7373Q131.689-59.7168 126.416-61.9629Q121.143-64.209 115.137-64.209Q109.131-64.209 103.882-61.9629Q98.6328-59.7168 94.6533-55.7373Q90.6738-51.7578 88.4277-46.5088Q86.1816-41.2598 86.1816-35.2539Q86.1816-29.248 88.4277-23.9746Q90.6738-18.7012 94.6533-14.7217Q98.6328-10.7422 103.882-8.49609Q109.131-6.25 115.137-6.25ZM115.137-20.8984Q111.182-20.8984 107.935-22.8271Q104.688-24.7559 102.759-28.0273Q100.83-31.2988 100.83-35.2539Q100.83-39.209 102.759-42.4561Q104.688-45.7031 107.935-47.6318Q111.182-49.5605 115.137-49.5605Q119.141-49.5605 122.388-47.6318Q125.635-45.7031 127.563-42.4561Q129.492-39.209 129.492-35.2539Q129.492-31.2988 127.563-28.0273Q125.635-24.7559 122.388-22.8271Q119.141-20.8984 115.137-20.8984ZM19.873-43.8965L10.3027-43.8965Q6.83594-43.8965 6.83594-40.4297L6.83594-32.8125Q6.83594-29.1992 10.3027-29.1992L19.873-29.1992ZM140.771-29.1992L150.342-29.1992Q153.809-29.1992 153.809-32.8125L153.809-40.4297Q153.809-43.8965 150.342-43.8965L140.771-43.8965ZM71.1914-30.0781Q73.0469-31.5918 75.6348-32.1533Q78.2227-32.7148 80.3223-32.7148Q82.4707-32.7148 85.0342-32.1533Q87.5977-31.5918 89.4531-30.0781L89.4531-43.2129Q87.5-44.3848 84.9854-44.9219Q82.4707-45.459 80.3223-45.459Q78.1738-45.459 75.6836-44.9219Q73.1934-44.3848 71.1914-43.2129Z"/>
  </g>
  <g id="Heavy-S" transform="matrix(1 0 0 1 2559.38 696)">
   <path d="M43.8598-7.40245Q49.6237-7.40245 54.6652-9.55634Q59.7068-11.7102 63.5307-15.5342Q67.3546-19.3581 69.5085-24.4241Q71.6624-29.4901 71.6624-35.2539Q71.6624-41.0178 69.5085-46.0593Q67.3546-51.1009 63.5307-54.9248Q59.7068-58.7487 54.6652-60.9026Q49.6237-63.0565 43.8598-63.0565Q38.096-63.0565 33.03-60.9026Q27.964-58.7487 24.1401-54.9248Q20.3162-51.1009 18.1623-46.0593Q16.0084-41.0178 16.0084-35.2539Q16.0084-29.4901 18.1623-24.4241Q20.3162-19.3581 24.1401-15.5342Q27.964-11.7102 33.03-9.55634Q38.096-7.40245 43.8598-7.40245ZM43.8598-20.3337Q39.7434-20.3337 36.3509-22.3431Q32.9584-24.3525 30.949-27.745Q28.9396-31.1375 28.9396-35.2539Q28.9396-39.3588 30.949-42.7326Q32.9584-46.1065 36.3509-48.1159Q39.7434-50.1252 43.8598-50.1252Q47.9647-50.1252 51.3385-48.1159Q54.7124-46.1065 56.7218-42.7326Q58.7312-39.3588 58.7312-35.2539Q58.7312-31.149 56.7218-27.7508Q54.7124-24.3525 51.3385-22.3431Q47.9647-20.3337 43.8598-20.3337ZM110.769-7.40245Q116.533-7.40245 121.593-9.55634Q126.653-11.7102 130.477-15.5342Q134.301-19.3581 136.461-24.4241Q138.62-29.4901 138.62-35.2539Q138.62-41.0178 136.461-46.0593Q134.301-51.1009 130.477-54.9248Q126.653-58.7487 121.593-60.9026Q116.533-63.0565 110.769-63.0565Q105.005-63.0565 99.9578-60.9026Q94.9104-58.7487 91.0865-54.9248Q87.2626-51.1009 85.1087-46.0593Q82.9548-41.0178 82.9548-35.2539Q82.9548-29.4901 85.1087-24.4241Q87.2626-19.3581 91.0865-15.5342Q94.9104-11.7102 99.9578-9.55634Q105.005-7.40245 110.769-7.40245ZM110.769-20.3337Q106.664-20.3337 103.284-22.3431Q99.9048-24.3525 97.8955-27.7508Q95.8861-31.149 95.8861-35.2539Q95.8861-39.3588 97.8955-42.7326Q99.9048-46.1065 103.284-48.1159Q106.664-50.1252 110.769-50.1252Q114.911-50.1252 118.285-48.1159Q121.659-46.1065 123.668-42.7326Q125.678-39.3588 125.678-35.2539Q125.678-31.1375 123.668-27.745Q121.659-24.3525 118.285-22.3431Q114.911-20.3337 110.769-20.3337ZM19.2507-43.0552L10.2105-43.0552Q6.83594-43.0552 6.83594-39.6691L6.83594-33.4348Q6.83594-29.9253 10.2105-29.9253L19.2507-29.9253ZM135.367-29.9253L144.407-29.9253Q147.781-29.9253 147.781-33.4348L147.781-39.6691Q147.781-43.0552 144.407-43.0552L135.367-43.0552ZM68.6445-30.8618Q70.3962-32.2256 72.817-32.7584Q75.2378-33.2911 77.3144-33.2911Q79.4167-33.2911 81.8189-32.7584Q84.221-32.2256 85.9727-30.8618L85.9727-42.6828Q84.1003-43.7624 81.7182-44.2477Q79.336-44.7329 77.3144-44.7329Q75.2927-44.7329 72.9292-44.2477Q70.5658-43.7624 68.6445-42.6828Z"/>
  </g>
  <g id="Bold-S" transform="matrix(1 0 0 1 2266.04 696)">
   <path d="M42.0166-8.69141Q47.5098-8.69141 52.3193-10.7422Q57.1289-12.793 60.7788-16.4429Q64.4287-20.0928 66.4795-24.9268Q68.5303-29.7607 68.5303-35.2539Q68.5303-40.7471 66.4795-45.5566Q64.4287-50.3662 60.7788-54.0161Q57.1289-57.666 52.3193-59.7168Q47.5098-61.7676 42.0166-61.7676Q36.5234-61.7676 31.6895-59.7168Q26.8555-57.666 23.2056-54.0161Q19.5557-50.3662 17.5049-45.5566Q15.4541-40.7471 15.4541-35.2539Q15.4541-29.7607 17.5049-24.9268Q19.5557-20.0928 23.2056-16.4429Q26.8555-12.793 31.6895-10.7422Q36.5234-8.69141 42.0166-8.69141ZM42.0166-19.7021Q37.7197-19.7021 34.1919-21.8018Q30.6641-23.9014 28.5645-27.4292Q26.4648-30.957 26.4648-35.2539Q26.4648-39.5264 28.5645-43.042Q30.6641-46.5576 34.1919-48.6572Q37.7197-50.7568 42.0166-50.7568Q46.2891-50.7568 49.8047-48.6572Q53.3203-46.5576 55.4199-43.042Q57.5195-39.5264 57.5195-35.2539Q57.5195-30.9814 55.4199-27.4414Q53.3203-23.9014 49.8047-21.8018Q46.2891-19.7021 42.0166-19.7021ZM105.884-8.69141Q111.377-8.69141 116.199-10.7422Q121.021-12.793 124.67-16.4429Q128.32-20.0928 130.383-24.9268Q132.446-29.7607 132.446-35.2539Q132.446-40.7471 130.383-45.5566Q128.32-50.3662 124.67-54.0161Q121.021-57.666 116.199-59.7168Q111.377-61.7676 105.884-61.7676Q100.391-61.7676 95.5688-59.7168Q90.7471-57.666 87.0972-54.0161Q83.4473-50.3662 81.3965-45.5566Q79.3457-40.7471 79.3457-35.2539Q79.3457-29.7607 81.3965-24.9268Q83.4473-20.0928 87.0972-16.4429Q90.7471-12.793 95.5688-10.7422Q100.391-8.69141 105.884-8.69141ZM105.884-19.7021Q101.611-19.7021 98.0835-21.8018Q94.5557-23.9014 92.4561-27.4414Q90.3564-30.9814 90.3564-35.2539Q90.3564-39.5264 92.4561-43.042Q94.5557-46.5576 98.0835-48.6572Q101.611-50.7568 105.884-50.7568Q110.181-50.7568 113.696-48.6572Q117.212-46.5576 119.312-43.042Q121.411-39.5264 121.411-35.2539Q121.411-30.957 119.312-27.4292Q117.212-23.9014 113.696-21.8018Q110.181-19.7021 105.884-19.7021ZM18.5547-42.1143L10.1074-42.1143Q6.83594-42.1143 6.83594-38.8184L6.83594-34.1309Q6.83594-30.7373 10.1074-30.7373L18.5547-30.7373ZM129.321-30.7373L137.769-30.7373Q141.04-30.7373 141.04-34.1309L141.04-38.8184Q141.04-42.1143 137.769-42.1143L129.321-42.1143ZM65.7959-31.7383Q67.4316-32.9346 69.6655-33.4351Q71.8994-33.9355 73.9502-33.9355Q76.001-33.9355 78.2227-33.4351Q80.4443-32.9346 82.0801-31.7383L82.0801-42.0898Q80.2979-43.0664 78.064-43.4937Q75.8301-43.9209 73.9502-43.9209Q72.0703-43.9209 69.8486-43.4937Q67.627-43.0664 65.7959-42.0898Z"/>
  </g>
  <g id="Semibold-S" transform="matrix(1 0 0 1 1971.65 696)">
   <path d="M40.7458-9.58008Q46.0523-9.58008 50.702-11.5598Q55.3516-13.5395 58.8815-17.0694Q62.4114-20.5993 64.3911-25.2733Q66.3708-29.9474 66.3708-35.2539Q66.3708-40.5604 64.3911-45.2101Q62.4114-49.8597 58.8815-53.3896Q55.3516-56.9195 50.702-58.8992Q46.0523-60.8789 40.7458-60.8789Q35.4393-60.8789 30.7652-58.8992Q26.0912-56.9195 22.5613-53.3896Q19.0313-49.8597 17.0517-45.2101Q15.072-40.5604 15.072-35.2539Q15.072-29.9474 17.0517-25.2733Q19.0313-20.5993 22.5613-17.0694Q26.0912-13.5395 30.7652-11.5598Q35.4393-9.58008 40.7458-9.58008ZM40.7458-19.2667Q36.3245-19.2667 32.7034-21.4285Q29.0822-23.5903 26.9204-27.2115Q24.7586-30.8326 24.7586-35.2539Q24.7586-39.6419 26.9204-43.2553Q29.0822-46.8687 32.7034-49.0305Q36.3245-51.1923 40.7458-51.1923Q45.1338-51.1923 48.7472-49.0305Q52.3605-46.8687 54.5224-43.2553Q56.6842-39.6419 56.6842-35.2539Q56.6842-30.8659 54.5224-27.2281Q52.3605-23.5903 48.7472-21.4285Q45.1338-19.2667 40.7458-19.2667ZM102.516-9.58008Q107.822-9.58008 112.48-11.5598Q117.137-13.5395 120.667-17.0694Q124.197-20.5993 126.193-25.2733Q128.19-29.9474 128.19-35.2539Q128.19-40.5604 126.193-45.2101Q124.197-49.8597 120.667-53.3896Q117.137-56.9195 112.48-58.8992Q107.822-60.8789 102.516-60.8789Q97.2092-60.8789 92.5429-58.8992Q87.8767-56.9195 84.3467-53.3896Q80.8168-49.8597 78.8371-45.2101Q76.8574-40.5604 76.8574-35.2539Q76.8574-29.9474 78.8371-25.2733Q80.8168-20.5993 84.3467-17.0694Q87.8767-13.5395 92.5429-11.5598Q97.2092-9.58008 102.516-9.58008ZM102.516-19.2667Q98.1277-19.2667 94.4977-21.4285Q90.8677-23.5903 88.7059-27.2281Q86.544-30.8659 86.544-35.2539Q86.544-39.6419 88.7059-43.2553Q90.8677-46.8687 94.4977-49.0305Q98.1277-51.1923 102.516-51.1923Q106.919-51.1923 110.533-49.0305Q114.146-46.8687 116.308-43.2553Q118.47-39.6419 118.47-35.2539Q118.47-30.8326 116.308-27.2115Q114.146-23.5903 110.533-21.4285Q106.919-19.2667 102.516-19.2667ZM18.0748-41.4655L10.0363-41.4655Q6.83594-41.4655 6.83594-38.2318L6.83594-34.6107Q6.83594-31.2972 10.0363-31.2972L18.0748-31.2972ZM125.153-31.2972L133.192-31.2972Q136.392-31.2972 136.392-34.6107L136.392-38.2318Q136.392-41.4655 133.192-41.4655L125.153-41.4655ZM63.8319-32.3426Q65.3877-33.4233 67.4927-33.9016Q69.5978-34.3799 71.6308-34.3799Q73.646-34.3799 75.7433-33.9016Q77.8405-33.4233 79.3963-32.3426L79.3963-41.6811Q77.6763-42.5865 75.5446-42.9738Q73.4129-43.361 71.6308-43.361Q69.8486-43.361 67.7247-42.9738Q65.6008-42.5865 63.8319-41.6811Z"/>
  </g>
  <g id="Medium-S" transform="matrix(1 0 0 1 1676.7 696)">
   <path d="M39.7822-10.2539Q44.9473-10.2539 49.4756-12.1797Q54.0039-14.1055 57.4429-17.5444Q60.8818-20.9834 62.8076-25.5361Q64.7334-30.0889 64.7334-35.2539Q64.7334-40.4189 62.8076-44.9473Q60.8818-49.4756 57.4429-52.9146Q54.0039-56.3535 49.4756-58.2793Q44.9473-60.2051 39.7822-60.2051Q34.6172-60.2051 30.0645-58.2793Q25.5117-56.3535 22.0728-52.9146Q18.6338-49.4756 16.708-44.9473Q14.7822-40.4189 14.7822-35.2539Q14.7822-30.0889 16.708-25.5361Q18.6338-20.9834 22.0728-17.5444Q25.5117-14.1055 30.0645-12.1797Q34.6172-10.2539 39.7822-10.2539ZM39.7822-18.9365Q35.2666-18.9365 31.5747-21.1455Q27.8828-23.3545 25.6738-27.0464Q23.4648-30.7383 23.4648-35.2539Q23.4648-39.7295 25.6738-43.417Q27.8828-47.1045 31.5747-49.3135Q35.2666-51.5225 39.7822-51.5225Q44.2578-51.5225 47.9453-49.3135Q51.6328-47.1045 53.8418-43.417Q56.0508-39.7295 56.0508-35.2539Q56.0508-30.7783 53.8418-27.0664Q51.6328-23.3545 47.9453-21.1455Q44.2578-18.9365 39.7822-18.9365ZM99.9619-10.2539Q105.127-10.2539 109.66-12.1797Q114.192-14.1055 117.631-17.5444Q121.07-20.9834 123.016-25.5361Q124.962-30.0889 124.962-35.2539Q124.962-40.4189 123.016-44.9473Q121.07-49.4756 117.631-52.9146Q114.192-56.3535 109.66-58.2793Q105.127-60.2051 99.9619-60.2051Q94.7969-60.2051 90.2485-58.2793Q85.7002-56.3535 82.2612-52.9146Q78.8223-49.4756 76.8965-44.9473Q74.9707-40.4189 74.9707-35.2539Q74.9707-30.0889 76.8965-25.5361Q78.8223-20.9834 82.2612-17.5444Q85.7002-14.1055 90.2485-12.1797Q94.7969-10.2539 99.9619-10.2539ZM99.9619-18.9365Q95.4863-18.9365 91.7788-21.1455Q88.0713-23.3545 85.8623-27.0664Q83.6533-30.7783 83.6533-35.2539Q83.6533-39.7295 85.8623-43.417Q88.0713-47.1045 91.7788-49.3135Q95.4863-51.5225 99.9619-51.5225Q104.446-51.5225 108.134-49.3135Q111.821-47.1045 114.03-43.417Q116.239-39.7295 116.239-35.2539Q116.239-30.7383 114.03-27.0464Q111.821-23.3545 108.134-21.1455Q104.446-18.9365 99.9619-18.9365ZM17.7109-40.9736L9.98242-40.9736Q6.83594-40.9736 6.83594-37.7871L6.83594-34.9746Q6.83594-31.7217 9.98242-31.7217L17.7109-31.7217ZM121.993-31.7217L129.722-31.7217Q132.868-31.7217 132.868-34.9746L132.868-37.7871Q132.868-40.9736 129.722-40.9736L121.993-40.9736ZM62.3428-32.8008Q63.8379-33.7939 65.8452-34.2554Q67.8525-34.7168 69.8721-34.7168Q71.8604-34.7168 73.8633-34.2554Q75.8662-33.7939 77.3613-32.8008L77.3613-41.3711Q75.6885-42.2227 73.6343-42.5796Q71.5801-42.9365 69.8721-42.9365Q68.1641-42.9365 66.1143-42.5796Q64.0645-42.2227 62.3428-41.3711Z"/>
  </g>
  <g id="Regular-S" transform="matrix(1 0 0 1 1382.29 696)">
   <path d="M38.5254-11.1328Q43.5059-11.1328 47.876-12.9883Q52.2461-14.8438 55.5664-18.1641Q58.8867-21.4844 60.7422-25.8789Q62.5977-30.2734 62.5977-35.2539Q62.5977-40.2344 60.7422-44.6045Q58.8867-48.9746 55.5664-52.2949Q52.2461-55.6152 47.876-57.4707Q43.5059-59.3262 38.5254-59.3262Q33.5449-59.3262 29.1504-57.4707Q24.7559-55.6152 21.4355-52.2949Q18.1152-48.9746 16.2598-44.6045Q14.4043-40.2344 14.4043-35.2539Q14.4043-30.2734 16.2598-25.8789Q18.1152-21.4844 21.4355-18.1641Q24.7559-14.8438 29.1504-12.9883Q33.5449-11.1328 38.5254-11.1328ZM38.5254-18.5059Q33.8867-18.5059 30.1025-20.7764Q26.3184-23.0469 24.0479-26.8311Q21.7773-30.6152 21.7773-35.2539Q21.7773-39.8438 24.0479-43.6279Q26.3184-47.4121 30.1025-49.6826Q33.8867-51.9531 38.5254-51.9531Q43.1152-51.9531 46.8994-49.6826Q50.6836-47.4121 52.9541-43.6279Q55.2246-39.8438 55.2246-35.2539Q55.2246-30.6641 52.9541-26.8555Q50.6836-23.0469 46.8994-20.7764Q43.1152-18.5059 38.5254-18.5059ZM96.6309-11.1328Q101.611-11.1328 105.981-12.9883Q110.352-14.8438 113.672-18.1641Q116.992-21.4844 118.872-25.8789Q120.752-30.2734 120.752-35.2539Q120.752-40.2344 118.872-44.6045Q116.992-48.9746 113.672-52.2949Q110.352-55.6152 105.981-57.4707Q101.611-59.3262 96.6309-59.3262Q91.6504-59.3262 87.2559-57.4707Q82.8613-55.6152 79.541-52.2949Q76.2207-48.9746 74.3652-44.6045Q72.5098-40.2344 72.5098-35.2539Q72.5098-30.2734 74.3652-25.8789Q76.2207-21.4844 79.541-18.1641Q82.8613-14.8438 87.2559-12.9883Q91.6504-11.1328 96.6309-11.1328ZM96.6309-18.5059Q92.041-18.5059 88.2324-20.7764Q84.4238-23.0469 82.1533-26.8555Q79.8828-30.6641 79.8828-35.2539Q79.8828-39.8438 82.1533-43.6279Q84.4238-47.4121 88.2324-49.6826Q92.041-51.9531 96.6309-51.9531Q101.221-51.9531 105.005-49.6826Q108.789-47.4121 111.06-43.6279Q113.33-39.8438 113.33-35.2539Q113.33-30.6152 111.06-26.8311Q108.789-23.0469 105.005-20.7764Q101.221-18.5059 96.6309-18.5059ZM17.2363-40.332L9.91211-40.332Q6.83594-40.332 6.83594-37.207L6.83594-35.4492Q6.83594-32.2754 9.91211-32.2754L17.2363-32.2754ZM117.871-32.2754L125.195-32.2754Q128.271-32.2754 128.271-35.4492L128.271-37.207Q128.271-40.332 125.195-40.332L117.871-40.332ZM60.4004-33.3984Q61.8164-34.2773 63.6963-34.7168Q65.5762-35.1562 67.5781-35.1562Q69.5312-35.1562 71.4111-34.7168Q73.291-34.2773 74.707-33.3984L74.707-40.9668Q73.0957-41.748 71.1426-42.0654Q69.1895-42.3828 67.5781-42.3828Q65.9668-42.3828 64.0137-42.0654Q62.0605-41.748 60.4004-40.9668Z"/>
  </g>
  <g id="Light-S" transform="matrix(1 0 0 1 1086.25 696)">
   <path d="M37.708-11.587Q42.5977-11.587 46.8845-13.4122Q51.1714-15.2374 54.4312-18.4896Q57.6909-21.7417 59.5161-26.053Q61.3413-30.3642 61.3413-35.2539Q61.3413-40.1436 59.5161-44.438Q57.6909-48.7325 54.4312-51.9847Q51.1714-55.2368 46.8845-57.062Q42.5977-58.8872 37.708-58.8872Q32.8183-58.8872 28.5071-57.062Q24.1959-55.2368 20.9361-51.9847Q17.6763-48.7325 15.8435-44.438Q14.0106-40.1436 14.0106-35.2539Q14.0106-30.3642 15.8435-26.053Q17.6763-21.7417 20.9361-18.4896Q24.1959-15.2374 28.5071-13.4122Q32.8183-11.587 37.708-11.587ZM37.708-17.2343Q32.7212-17.2343 28.6419-19.6714Q24.5626-22.1085 22.118-26.1878Q19.6734-30.2671 19.6734-35.2539Q19.6734-40.2069 22.118-44.2863Q24.5626-48.3658 28.6419-50.8027Q32.7212-53.2397 37.708-53.2397Q42.661-53.2397 46.7405-50.8027Q50.8199-48.3658 53.2569-44.2863Q55.6938-40.2069 55.6938-35.2539Q55.6938-30.3009 53.2569-26.2047Q50.8199-22.1085 46.7405-19.6714Q42.661-17.2343 37.708-17.2343ZM96.0859-11.587Q100.976-11.587 105.27-13.4122Q109.564-15.2374 112.824-18.4896Q116.084-21.7417 117.934-26.053Q119.783-30.3642 119.783-35.2539Q119.783-40.1436 117.934-44.438Q116.084-48.7325 112.824-51.9847Q109.564-55.2368 105.27-57.062Q100.976-58.8872 96.0859-58.8872Q91.1962-58.8872 86.8926-57.062Q82.589-55.2368 79.3292-51.9847Q76.0694-48.7325 74.2442-44.438Q72.419-40.1436 72.419-35.2539Q72.419-30.3642 74.2442-26.053Q76.0694-21.7417 79.3292-18.4896Q82.589-15.2374 86.8926-13.4122Q91.1962-11.587 96.0859-11.587ZM96.0859-17.2343Q91.1329-17.2343 87.0366-19.6714Q82.9404-22.1085 80.5035-26.2047Q78.0665-30.3009 78.0665-35.2539Q78.0665-40.2069 80.5035-44.2863Q82.9404-48.3658 87.0366-50.8027Q91.1329-53.2397 96.0859-53.2397Q101.039-53.2397 105.126-50.8027Q109.213-48.3658 111.65-44.2863Q114.087-40.2069 114.087-35.2539Q114.087-30.2671 111.65-26.1878Q109.213-22.1085 105.126-19.6714Q101.039-17.2343 96.0859-17.2343ZM16.2676-39.6812L9.53369-39.6812Q6.83594-39.6812 6.83594-36.9799L6.83594-35.5855Q6.83594-32.8809 9.53369-32.8809L16.2676-32.8809ZM117.493-32.8809L124.227-32.8809Q126.924-32.8809 126.924-35.5855L126.924-36.9799Q126.924-39.6812 124.227-39.6812L117.493-39.6812ZM59.7041-34.2763Q61.2109-35.2008 63.1059-35.6402Q65.0009-36.0797 66.8971-36.0797Q68.7594-36.0797 70.6544-35.6402Q72.5494-35.2008 74.0562-34.2763L74.0562-40.6489Q72.4297-41.4302 70.4765-41.7627Q68.5234-42.0952 66.8971-42.0952Q65.2705-42.0952 63.3174-41.7627Q61.3642-41.4302 59.7041-40.6489Z"/>
  </g>
  <g id="Thin-S" transform="matrix(1 0 0 1 790.433 696)">
   <path d="M36.627-12.1877Q41.3966-12.1877 45.5733-13.9729Q49.75-15.7581 52.9297-18.9201Q56.1094-22.0821 57.8946-26.2832Q59.6798-30.4843 59.6798-35.2539Q59.6798-40.0235 57.8946-44.2179Q56.1094-48.4123 52.9297-51.5743Q49.75-54.7363 45.5733-56.5215Q41.3966-58.3067 36.627-58.3067Q31.8574-58.3067 27.6563-56.5215Q23.4552-54.7363 20.2755-51.5743Q17.0958-48.4123 15.2929-44.2179Q13.49-40.0235 13.49-35.2539Q13.49-30.4843 15.2929-26.2832Q17.0958-22.0821 20.2755-18.9201Q23.4552-15.7581 27.6563-13.9729Q31.8574-12.1877 36.627-12.1877ZM36.627-15.5525Q31.1797-15.5525 26.7101-18.2099Q22.2404-20.8673 19.5656-25.337Q16.8908-29.8066 16.8908-35.2539Q16.8908-40.6872 19.5656-45.1572Q22.2404-49.6271 26.7101-52.2842Q31.1797-54.9413 36.627-54.9413Q42.0603-54.9413 46.5302-52.2842Q51.0002-49.6271 53.6573-45.1572Q56.3144-40.6872 56.3144-35.2539Q56.3144-29.8206 53.6573-25.344Q51.0002-20.8673 46.5302-18.2099Q42.0603-15.5525 36.627-15.5525ZM95.3651-12.1877Q100.135-12.1877 104.329-13.9729Q108.523-15.7581 111.703-18.9201Q114.883-22.0821 116.693-26.2832Q118.502-30.4843 118.502-35.2539Q118.502-40.0235 116.693-44.2179Q114.883-48.4123 111.703-51.5743Q108.523-54.7363 104.329-56.5215Q100.135-58.3067 95.3651-58.3067Q90.5955-58.3067 86.4121-56.5215Q82.2287-54.7363 79.049-51.5743Q75.8693-48.4123 74.0841-44.2179Q72.2989-40.0235 72.2989-35.2539Q72.2989-30.4843 74.0841-26.2832Q75.8693-22.0821 79.049-18.9201Q82.2287-15.7581 86.4121-13.9729Q90.5955-12.1877 95.3651-12.1877ZM95.3651-15.5525Q89.9318-15.5525 85.4551-18.2099Q80.9785-20.8673 78.3214-25.344Q75.6643-29.8206 75.6643-35.2539Q75.6643-40.6872 78.3214-45.1572Q80.9785-49.6271 85.4551-52.2842Q89.9318-54.9413 95.3651-54.9413Q100.799-54.9413 105.286-52.2842Q109.774-49.6271 112.431-45.1572Q115.088-40.6872 115.088-35.2539Q115.088-29.8066 112.431-25.337Q109.774-20.8673 105.286-18.2099Q100.799-15.5525 95.3651-15.5525ZM14.9865-38.8205L9.0332-38.8205Q6.83594-38.8205 6.83594-36.6796L6.83594-35.7658Q6.83594-33.6818 9.0332-33.6818L14.9865-33.6818ZM116.992-33.6818L122.945-33.6818Q125.143-33.6818 125.143-35.7658L125.143-36.6796Q125.143-38.8205 122.945-38.8205L116.992-38.8205ZM58.7832-35.4374Q60.41-36.422 62.3251-36.8615Q64.2401-37.3009 65.9963-37.3009Q67.7386-37.3009 69.6536-36.8615Q71.5686-36.422 73.1955-35.4374L73.1955-40.2285Q71.5488-41.0097 69.5956-41.3622Q67.6425-41.7148 65.9963-41.7148Q64.3496-41.7148 62.3964-41.3622Q60.4433-41.0097 58.7832-40.2285Z"/>
  </g>
  <g id="Ultralight-S" transform="matrix(1 0 0 1 494.178 696)">
   <path d="M36.0733-12.4954Q40.7814-12.4954 44.9017-14.2601Q49.0219-16.0248 52.1606-19.1406Q55.2994-22.2565 57.0641-26.4011Q58.8287-30.5458 58.8287-35.2539Q58.8287-39.962 57.0641-44.1051Q55.2994-48.2483 52.1606-51.3641Q49.0219-54.48 44.9017-56.2447Q40.7814-58.0093 36.0733-58.0093Q31.3652-58.0093 27.2205-56.2447Q23.0759-54.48 19.9371-51.3641Q16.7984-48.2483 15.0108-44.1051Q13.2233-39.962 13.2233-35.2539Q13.2233-30.5458 15.0108-26.4011Q16.7984-22.2565 19.9371-19.1406Q23.0759-16.0248 27.2205-14.2601Q31.3652-12.4954 36.0733-12.4954ZM36.0733-14.6912Q30.3902-14.6912 25.7206-17.4614Q21.051-20.2316 18.2583-24.9012Q15.4655-29.5708 15.4655-35.2539Q15.4655-40.9332 18.2583-45.6032Q21.051-50.2731 25.7206-53.043Q30.3902-55.8128 36.0733-55.8128Q41.7526-55.8128 46.4226-53.043Q51.0925-50.2731 53.8624-45.6032Q56.6322-40.9332 56.6322-35.2539Q56.6322-29.5746 53.8624-24.9031Q51.0925-20.2316 46.4226-17.4614Q41.7526-14.6912 36.0733-14.6912ZM94.9959-12.4954Q99.704-12.4954 103.847-14.2601Q107.99-16.0248 111.129-19.1406Q114.268-22.2565 116.057-26.4011Q117.846-30.5458 117.846-35.2539Q117.846-39.962 116.057-44.1051Q114.268-48.2483 111.129-51.3641Q107.99-54.48 103.847-56.2447Q99.704-58.0093 94.9959-58.0093Q90.2878-58.0093 86.166-56.2447Q82.0442-54.48 78.9055-51.3641Q75.7668-48.2483 74.0021-44.1051Q72.2374-39.962 72.2374-35.2539Q72.2374-30.5458 74.0021-26.4011Q75.7668-22.2565 78.9055-19.1406Q82.0442-16.0248 86.166-14.2601Q90.2878-12.4954 94.9959-12.4954ZM94.9959-14.6912Q89.3166-14.6912 84.6451-17.4614Q79.9736-20.2316 77.2038-24.9031Q74.4339-29.5746 74.4339-35.2539Q74.4339-40.9332 77.2038-45.6032Q79.9736-50.2731 84.6451-53.043Q89.3166-55.8128 94.9959-55.8128Q100.676-55.8128 105.368-53.043Q110.061-50.2731 112.831-45.6032Q115.601-40.9332 115.601-35.2539Q115.601-29.5708 112.831-24.9012Q110.061-20.2316 105.368-17.4614Q100.676-14.6912 94.9959-14.6912ZM14.3303-38.3797L8.77686-38.3797Q6.83594-38.3797 6.83594-36.5257L6.83594-35.8582Q6.83594-34.0919 8.77686-34.0919L14.3303-34.0919ZM116.736-34.0919L122.289-34.0919Q124.23-34.0919 124.23-35.8582L124.23-36.5257Q124.23-38.3797 122.289-38.3797L116.736-38.3797ZM58.3115-36.0321Q59.9998-37.0476 61.9251-37.487Q63.8504-37.9265 65.535-37.9265Q67.2157-37.9265 69.141-37.487Q71.0663-37.0476 72.7547-36.0321L72.7547-40.0131Q71.0976-40.7944 69.1444-41.1572Q67.1913-41.5199 65.535-41.5199Q63.8779-41.5199 61.9247-41.1572Q59.9716-40.7944 58.3115-40.0131Z"/>
  </g>
 </g>
</svg>
